/* XPM */
static char * mini_abi_xpm[] = {
"16 16 79 1",
" 	c None",
".	c #7BA9BB",
"+	c #5998B1",
"@	c #71A5BD",
"#	c #5AB8DA",
"$	c #5EB9E3",
"%	c #5296BF",
"&	c #7DAEBF",
"*	c #67B8DB",
"=	c #5BA7CF",
"-	c #54A7C7",
";	c #58B4E2",
">	c #5299AF",
",	c #60B6D7",
"'	c #4E9BBE",
")	c #527C92",
"!	c #499DBD",
"~	c #50A8CF",
"{	c #67A4BD",
"]	c #52A8D0",
"^	c #4B7A90",
"/	c #52A7CF",
"(	c #4191B2",
"_	c #8CB5C1",
":	c #66B1D9",
"<	c #39809C",
"[	c #4FA9CE",
"}	c #62A8C4",
"|	c #499ABA",
"1	c #849EAC",
"2	c #629FBB",
"3	c #4190B5",
"4	c #86B0C2",
"5	c #5FB2D8",
"6	c #3C7B90",
"7	c #489EC7",
"8	c #68A4C7",
"9	c #4495BA",
"0	c #90A5AF",
"a	c #66A0BA",
"b	c #3E89A5",
"c	c #93B8C6",
"d	c #60B2D6",
"e	c #44738E",
"f	c #3A94AC",
"g	c #66A6C2",
"h	c #4A9ABD",
"i	c #879AAC",
"j	c #6AA1B6",
"k	c #4885A3",
"l	c #62B3D6",
"m	c #3D7693",
"n	c #779BAC",
"o	c #7E98A8",
"p	c #277EA2",
"q	c #8EB7C6",
"r	c #5BACD3",
"s	c #7C9CAB",
"t	c #3C7F96",
"u	c #5A8A94",
"v	c #6F9DB1",
"w	c #759DAF",
"x	c #78B2C8",
"y	c #549EC4",
"z	c #82A0A9",
"A	c #609EB4",
"B	c #3E86A4",
"C	c #3F7893",
"D	c #598B98",
"E	c #4592B2",
"F	c #55B3DB",
"G	c #4996B2",
"H	c #3F93B5",
"I	c #3985A6",
"J	c #4F7F92",
"K	c #8CA4A8",
"L	c #39829C",
"M	c #3A7B92",
"N	c #6C98A6",
"       .+       ",
"      @#$%      ",
"     &*=-;>     ",
"     ,') !~     ",
"    {]^   /(    ",
"   _:<     [    ",
"   }|1     23   ",
"  456       7   ",
"  890       ab  ",
" cde         f  ",
" ghi         jk ",
" lm       no  p ",
"qrs     tu    vw",
"xyz  ABC       D",
"EFGHIJ         K",
" LMN            "};
