/* XPM */
static char * mini_abiword_xpm[] = {
"16 16 5 1",
" 	c None",
".	c #000000",
"+	c #808080",
"@	c #519BE5",
"#	c #008080",
" ...       .... ",
".+++.     .++++.",
"+   +.    .+   +",
"     .+  +.     ",
"     .......    ",
"    .@@@@@@.    ",
"   .@@@@.@.@.   ",
"  .@@@@@.@.@@.  ",
"  .@@@@@@@@@@.  ",
"  .@@@@@@@@@@@. ",
"  .@@.@@@@@@@@. ",
"   .@.#@@@@@@@. ",
"    .@.@@@@@@@. ",
"     ..#@@@@@@. ",
"       ..@@@@.  ",
"         ....   "};
