/* XPM */
static char * mini_access_xpm[] = {
"16 16 3 1",
" 	c None",
".	c #0000FF",
"+	c #7F7FFF",
"       ..       ",
"      ....      ",
"      ....      ",
"       ..       ",
"                ",
" +............+ ",
"    +......+    ",
"      ....      ",
"      ....      ",
"      ....      ",
"     +....+     ",
"     ..++..     ",
"     ..  ..     ",
"    +..  ..+    ",
"    ..+  +..    ",
"    ..    ..    "};
