/* XPM */
static char * mini_adobe_xpm[] = {
"16 16 2 1",
" 	c None",
".	c #FC0404",
"                ",
"                ",
"......   ...... ",
"......   ...... ",
".....     ..... ",
".....     ..... ",
"....   .   .... ",
"....   .   .... ",
"...   ...   ... ",
"...   ...   ... ",
"..   .....   .. ",
"..   .....   .. ",
".       ...   . ",
".       ...   . ",
"                ",
"                "};
