/* XPM */
static char * mini_agresso_xpm[] = {
"16 13 3 1",
" 	c None",
".	c #00409D",
"+	c #FFFFFF",
".              .",
"..    ....    ..",
".+....++++....+.",
".++++++++++++++.",
" .++++++++++++. ",
"  .++++++++++.  ",
"   .++++++++.   ",
"    .++++++.    ",
"    .++++++.    ",
"    .++++++.    ",
"     .++++.     ",
"      .++.      ",
"       ..       "};
