/* XPM */
static char * mini_ape_xpm[] = {
"18 18 125 2",
"  	c None",
". 	c #000000",
"+ 	c #432005",
"@ 	c #603310",
"# 	c #6B3B14",
"$ 	c #6A3A13",
"% 	c #432E18",
"& 	c #907649",
"* 	c #937849",
"= 	c #5B2E0A",
"- 	c #653712",
"; 	c #6A3A14",
"> 	c #6B3B15",
", 	c #6D3C16",
"' 	c #60320E",
") 	c #877047",
"! 	c #6E5C3B",
"~ 	c #9A8154",
"{ 	c #8B7147",
"] 	c #4E280B",
"^ 	c #643713",
"/ 	c #6F3D17",
"( 	c #623512",
"_ 	c #552D0E",
": 	c #4F2B0F",
"< 	c #5D3412",
"[ 	c #693A13",
"} 	c #AA8D59",
"| 	c #836D47",
"1 	c #7C6743",
"2 	c #352D1E",
"3 	c #7B5F39",
"4 	c #5F3411",
"5 	c #653713",
"6 	c #663813",
"7 	c #50290A",
"8 	c #292420",
"9 	c #06090B",
"0 	c #080401",
"a 	c #603411",
"b 	c #423620",
"c 	c #886D3E",
"d 	c #C9A76B",
"e 	c #9A8053",
"f 	c #493D27",
"g 	c #372F1F",
"h 	c #543D22",
"i 	c #623612",
"j 	c #683914",
"k 	c #2D1400",
"l 	c #A1A4A6",
"m 	c #FFFFFF",
"n 	c #2A1606",
"o 	c #070300",
"p 	c #937A4D",
"q 	c #C7A569",
"r 	c #675537",
"s 	c #8E764C",
"t 	c #6C5C3C",
"u 	c #52381C",
"v 	c #733F18",
"w 	c #643510",
"x 	c #2A190B",
"y 	c #060606",
"z 	c #827F76",
"A 	c #80693F",
"B 	c #AB8D58",
"C 	c #B69762",
"D 	c #B39561",
"E 	c #766340",
"F 	c #633E1C",
"G 	c #693913",
"H 	c #754118",
"I 	c #ADADFF",
"J 	c #0000FF",
"K 	c #6C685E",
"L 	c #DBB674",
"M 	c #DAB677",
"N 	c #B8945E",
"O 	c #673813",
"P 	c #62340F",
"Q 	c #24170D",
"R 	c #2F2015",
"S 	c #725F3D",
"T 	c #673812",
"U 	c #4F2A0E",
"V 	c #474542",
"W 	c #A38551",
"X 	c #6C3C16",
"Y 	c #484B50",
"Z 	c #4F2708",
"` 	c #5A300F",
" .	c #BD9F67",
"..	c #D5B173",
"+.	c #CBA96E",
"@.	c #C1A168",
"#.	c #B39560",
"$.	c #9E8354",
"%.	c #5C2E0A",
"&.	c #713E18",
"*.	c #6C5B3C",
"=.	c #C6A56B",
"-.	c #C7A66C",
";.	c #CEAC70",
">.	c #D0AD71",
",.	c #8D7448",
"'.	c #5E320E",
").	c #6A3B14",
"!.	c #8A754C",
"~.	c #CAA86D",
"{.	c #5D300C",
"].	c #180400",
"^.	c #7A6640",
"/.	c #D7B375",
"(.	c #A18657",
"_.	c #8B744B",
":.	c #D4AF6E",
"<.	c #D4B072",
"[.	c #C7A66B",
"}.	c #DBB676",
"|.	c #A48754",
"1.	c #AB8C57",
"2.	c #BF9E64",
"3.	c #BD9C62",
"4.	c #967B4B",
"                                    ",
"                  . . . .           ",
"      . .     . . + @ # $ .         ",
"    % & * . . = - ; > , , ' .       ",
"  % ) ! ~ { ] ^ / ( _ : < [ . % %   ",
"% } | 1 2 3 4 5 6 7 8 9 0 a . b c % ",
"% d e f g h i / j k l m . n o . p % ",
"% q r s t u @ v w x m m m y m z A % ",
"% B C D E F G H 4 + I J m l I K %   ",
"  % L M N ( O , P Q 8 8 m J l R %   ",
"    % S % T / / U 9 V e W X 0 Y     ",
"      . Z X > ` .  ...+.@.#.$..     ",
"      . %.&.> . *...=.-.-.;.>.,..   ",
"      . '.j ).. !.>.-.=.~.. . . .   ",
"        . . {.].^./.=.=.. (._.:..   ",
"            . . . W <.+.[.+.}.|..   ",
"                  . . 1.2.3.4..     ",
"                      . . . .       "};
