/* XPM */
static char * mini_backgammon2_xpm[] = {
"16 16 7 1",
" 	c None",
".	c #6C3D0E",
"+	c #000000",
"@	c #FFFFFF",
"#	c #004C00",
"$	c #80CC80",
"%	c #009900",
"................",
".+@+@+@..+@+@+@.",
".+@+@+@..+@+@+@.",
".#$#$#$..#$#$#$.",
".#$#$#$..#$#$#$.",
".#$#$#$..#$#$#$.",
".%%%%%%..%%%%%%.",
".%%%%%%..%%%%%%.",
".%%%%%%..%%%%%%.",
".%%%%%%..%%%%%%.",
".$#$#$#..$#$#$#.",
".$#$#$#..$#$#$#.",
".$#$#$#..$#$#$#.",
".@+@+@+..@+@+@+.",
".@+@+@+..@+@+@+.",
"................"};
