/* XPM */
static char * mini_bluetooth_xpm[] = {
"16 16 3 1",
" 	c None",
".	c #506EA1",
"+	c #0B3D91",
"                ",
"      .+.       ",
"      .++.      ",
"      .+.+.     ",
"    . .+..+.    ",
"   .+..+. .+.   ",
"    .+.+..+.    ",
"     .++.+.     ",
"      .++.      ",
"     .++.+.     ",
"    .+.+..+.    ",
"   .+..+. .+.   ",
"    . .+..+.    ",
"      .+.+.     ",
"      .++.      ",
"      .+.       "};
