/* XPM */
static char * mini_bsd_xpm[] = {
"16 16 4 1",
" 	c None",
".	c #FFFF00000000",
"X	c #FFFFFBEEFFFF",
"o	c #000000000000",
"    .        .  ",
"    .. .... ..  ",
"     ........   ",
"    ..XX.XX...  ",
"    ..oX.oX...  ",
"  o ..oo.oo...  ",
" o o ........   ",
"o o   .oo...    ",
" o o.. ....     ",
"   .o......     ",
"    .o......    ",
"      o.....    ",
"      .o.....   ",
"    ........... ",
"    XX.....   ..",
"      XXXX   .. "};
