/* XPM */
static char * mini_gimp_xpm[] = {
"16 16 2 1",
" 	c None",
".	c #8E386DB6FFFF",
"   .   .    .   ",
"    .      .    ",
" .    ....    . ",
"  .  .    .  .  ",
"    .      .    ",
".. .   .    . ..",
"   .   . .  .   ",
"   .    . . .   ",
".. .   . .  . ..",
"    .  .   .    ",
"  .  . .  .  .  ",
" .    ....    . ",
"    .      .    ",
"   .  ....  .   ",
"                ",
"      ....      "};
