/* XPM */
static char * mini_cbm_xpm[] = {
"16 16 3 1",
" 	c None",
".	c #2D5BE5",
"+	c #E52D2D",
"                ",
"    .....       ",
"  ........      ",
" .........      ",
" .........      ",
".....     ......",
"....      ..... ",
"....      ....  ",
"....            ",
"....      ++++  ",
"....      +++++ ",
".....     ++++++",
" .........      ",
" .........      ",
"  ........      ",
"    .....       "};
