/* XPM */
static char * mini_cdred2_xpm[] = {
"16 16 177 2",
"  	c None",
". 	c #72434F",
"+ 	c #835460",
"@ 	c #7B4551",
"# 	c #602C35",
"$ 	c #885454",
"% 	c #CC968E",
"& 	c #EAC1B0",
"* 	c #EEC6B3",
"= 	c #E4AD9D",
"- 	c #D49078",
"; 	c #AE6F64",
"> 	c #582E36",
", 	c #350F1B",
"' 	c #9F4F47",
") 	c #DC9573",
"! 	c #E5AF9A",
"~ 	c #EEC6B2",
"{ 	c #EFC9B5",
"] 	c #E4AE9A",
"^ 	c #DD9C7C",
"/ 	c #E2A78F",
"( 	c #E6B6A5",
"_ 	c #8A5D66",
": 	c #832933",
"< 	c #B04C46",
"[ 	c #D48061",
"} 	c #E2A58E",
"| 	c #EDC2AD",
"1 	c #EFC7B3",
"2 	c #E3A892",
"3 	c #DE9E7F",
"4 	c #E7B5A1",
"5 	c #F1CCB8",
"6 	c #F1D3C1",
"7 	c #805963",
"8 	c #7F2D34",
"9 	c #D05347",
"0 	c #B83F3F",
"a 	c #BE544A",
"b 	c #DA8D72",
"c 	c #EAB9A7",
"d 	c #ECBCAC",
"e 	c #DD9882",
"f 	c #DF9E85",
"g 	c #ECC2B1",
"h 	c #F6D9C5",
"i 	c #FBE4D0",
"j 	c #F4D6C7",
"k 	c #3A1C29",
"l 	c #C3635C",
"m 	c #E2735C",
"n 	c #DC6350",
"o 	c #CB4B44",
"p 	c #C75A4F",
"q 	c #DDA6AD",
"r 	c #F0D2DF",
"s 	c #E5B9C4",
"t 	c #D89CA0",
"u 	c #EDC6BA",
"v 	c #F4D4C5",
"w 	c #F6D7C6",
"x 	c #F5D5C4",
"y 	c #93656E",
"z 	c #7F3B4B",
"A 	c #E79885",
"B 	c #EC9A82",
"C 	c #E99078",
"D 	c #E47C66",
"E 	c #D67882",
"F 	c #FBEDFB",
"G 	c #DCC3DC",
"H 	c #EBD6EB",
"I 	c #F6E2F2",
"J 	c #DFAAB3",
"K 	c #E8B7B3",
"L 	c #E6B2AF",
"M 	c #E5AEAA",
"N 	c #BD7F86",
"O 	c #935463",
"P 	c #F3B79E",
"Q 	c #F4B89F",
"R 	c #F3B79D",
"S 	c #EEAE99",
"T 	c #F0C8D3",
"U 	c #E1CBE1",
"V 	c #FAEEFA",
"W 	c #D896AB",
"X 	c #D78891",
"Y 	c #D68890",
"Z 	c #D5888E",
"` 	c #BF727B",
" .	c #915060",
"..	c #F3B49C",
"+.	c #F4B69B",
"@.	c #F4B298",
"#.	c #EFA58F",
"$.	c #EAAEBD",
"%.	c #F1DEF1",
"&.	c #826282",
"*.	c #BB99BB",
"=.	c #FCF0FC",
"-.	c #CC83A1",
";.	c #D07D95",
">.	c #CD7892",
",.	c #CD758F",
"'.	c #B46078",
").	c #E38C7C",
"!.	c #F19079",
"~.	c #EE7D6C",
"{.	c #E45D5B",
"].	c #C1475E",
"^.	c #EECADF",
"/.	c #FCEEFC",
"(.	c #FCEBF9",
"_.	c #DEA9C4",
":.	c #CA7F9E",
"<.	c #D18AAB",
"[.	c #CF86AA",
"}.	c #CE82A5",
"|.	c #9D5775",
"1.	c #B4454C",
"2.	c #E74C4F",
"3.	c #D73549",
"4.	c #AF1F43",
"5.	c #B32A4A",
"6.	c #DF777F",
"7.	c #E9ABB7",
"8.	c #DB7B8C",
"9.	c #D45C72",
"0.	c #D0789A",
"a.	c #CF86B0",
"b.	c #D391BD",
"c.	c #D391BB",
"d.	c #64334D",
"e.	c #4E1221",
"f.	c #C11D44",
"g.	c #9B0939",
"h.	c #9A0C3B",
"i.	c #D5394F",
"j.	c #EF918A",
"k.	c #F3B5AF",
"l.	c #E78B8E",
"m.	c #DA5E71",
"n.	c #D5749A",
"o.	c #D285B4",
"p.	c #D28FC1",
"q.	c #AF729B",
"r.	c #4F0623",
"s.	c #860333",
"t.	c #C71A43",
"u.	c #E94F56",
"v.	c #F19994",
"w.	c #F3B5B5",
"x.	c #EA96A2",
"y.	c #DC6479",
"z.	c #D46B99",
"A.	c #D483BB",
"B.	c #BA75A7",
"C.	c #4B213D",
"D.	c #550E26",
"E.	c #D43449",
"F.	c #EE6D69",
"G.	c #F2A29E",
"H.	c #F2B5B9",
"I.	c #EB9DB0",
"J.	c #DE748B",
"K.	c #CE6195",
"L.	c #AA5787",
"M.	c #481F37",
"N.	c #3C1223",
"O.	c #924352",
"P.	c #C97F87",
"Q.	c #D597A5",
"R.	c #CC8398",
"S.	c #AB566E",
"T.	c #6F233E",
"            . + @ #             ",
"        $ % & * = - ; >         ",
"    , ' ) ! ~ { ] ^ / ( _       ",
"    : < [ } | 1 2 3 4 5 6 7     ",
"  8 9 0 a b c d e f g h i j k   ",
"  l m n o p q r s t u v w x y   ",
"z A B C D E F G H I J K L M N   ",
"O P Q R S T U     V W X Y Z `   ",
" ...+.@.#.$.%.&.*.=.-.;.>.,.'.  ",
"  ).!.~.{.].^./.(._.:.<.[.}.|.  ",
"  1.2.3.4.5.6.7.8.9.0.a.b.c.d.  ",
"  e.f.g.h.i.j.k.l.m.n.o.p.q.    ",
"    r.s.t.u.v.w.x.y.z.A.B.C.    ",
"      D.E.F.G.H.I.J.K.L.M.      ",
"        N.O.P.Q.R.S.T.          ",
"                                "};
