/* XPM */
static char * mini_cdred_xpm[] = {
"16 16 207 2",
"  	c None",
". 	c #683C47",
"+ 	c #A87178",
"@ 	c #BD878A",
"# 	c #B77B7F",
"$ 	c #99585A",
"% 	c #5E2C32",
"& 	c #51252B",
"* 	c #B6796D",
"= 	c #E3AF9E",
"- 	c #EFC8B3",
"; 	c #F0CBB6",
"> 	c #E8B7A6",
", 	c #DFA085",
"' 	c #DA977B",
") 	c #B67B72",
"! 	c #572F3B",
"~ 	c #541C28",
"{ 	c #BC6450",
"] 	c #DB9472",
"^ 	c #E5AD98",
"/ 	c #EEC4AF",
"( 	c #F0CAB7",
"_ 	c #E7B6A3",
": 	c #DE9E7F",
"< 	c #E0A286",
"[ 	c #E7B5A1",
"} 	c #E1B6A8",
"| 	c #704653",
"1 	c #45121D",
"2 	c #9B323A",
"3 	c #B24D46",
"4 	c #D37D5F",
"5 	c #E1A28B",
"6 	c #ECBFAA",
"7 	c #F0C7B3",
"8 	c #E6B09C",
"9 	c #DD9C7C",
"0 	c #E4AC96",
"a 	c #EEC5B2",
"b 	c #F5D7C2",
"c 	c #EBCBBE",
"d 	c #5E3A48",
"e 	c #AA4341",
"f 	c #CF5146",
"g 	c #B73F3F",
"h 	c #BF554A",
"i 	c #DA8B70",
"j 	c #E9B5A3",
"k 	c #ECBCAD",
"l 	c #DF9E8D",
"m 	c #DC977B",
"n 	c #E7B5A4",
"o 	c #F2D0BD",
"p 	c #F9E0CC",
"q 	c #FCE4D0",
"r 	c #CAA6A1",
"s 	c #240F1A",
"t 	c #642634",
"u 	c #DD7563",
"v 	c #E17059",
"w 	c #DA5F4D",
"x 	c #CA4A44",
"y 	c #C75A4F",
"z 	c #DA9EA3",
"A 	c #EECEDB",
"B 	c #EAC5D1",
"C 	c #D89CA2",
"D 	c #E5B5AE",
"E 	c #F2D0C2",
"F 	c #F5D6C7",
"G 	c #F6D7C6",
"H 	c #F0CBBE",
"I 	c #633A48",
"J 	c #9D545B",
"K 	c #ED9D85",
"L 	c #EB957D",
"M 	c #E88871",
"N 	c #E37560",
"O 	c #D26D75",
"P 	c #F9E8F5",
"Q 	c #EDD7ED",
"R 	c #ECD6EC",
"S 	c #FBECF9",
"T 	c #E0B0C1",
"U 	c #EABBB6",
"V 	c #E9B9B4",
"W 	c #E7B4B0",
"X 	c #E6B1AC",
"Y 	c #9A5D6B",
"Z 	c #B37275",
"` 	c #F3B59D",
" .	c #F3B49B",
"..	c #F2B299",
"+.	c #EDA693",
"@.	c #EDC0CD",
"#.	c #F1DDF1",
"$.	c #EFDBEF",
"%.	c #E9C4D8",
"&.	c #D68995",
"*.	c #D98E94",
"=.	c #D78D93",
"-.	c #D78D90",
";.	c #A85E6D",
">.	c #B5777A",
",.	c #F5BCA2",
"'.	c #F5BBA0",
").	c #F4B99F",
"!.	c #F0AE99",
"~.	c #EEC0CD",
"{.	c #F2DFF2",
"].	c #E5BCD3",
"^.	c #CE778D",
"/.	c #D0798E",
"(.	c #CD778E",
"_.	c #CD758A",
":.	c #A2516A",
"<.	c #A15960",
"[.	c #F3A68C",
"}.	c #F29D84",
"|.	c #EF9079",
"1.	c #E97567",
"2.	c #D36477",
"3.	c #F8E4F3",
"4.	c #F4E1F4",
"5.	c #F4E2F4",
"6.	c #F9E9F6",
"7.	c #CC8BAC",
"8.	c #D088A5",
"9.	c #CF85A4",
"0.	c #CD7FA1",
"a.	c #CD7B9A",
"b.	c #8C4560",
"c.	c #662737",
"d.	c #E87166",
"e.	c #EB625A",
"f.	c #E1484F",
"g.	c #C5304A",
"h.	c #AC2948",
"i.	c #D47187",
"j.	c #EEC2D4",
"k.	c #EBB8CB",
"l.	c #D36E89",
"m.	c #CE708C",
"n.	c #CE83A8",
"o.	c #D18EB5",
"p.	c #D18EB6",
"q.	c #CC86AD",
"r.	c #542840",
"s.	c #B12F40",
"t.	c #D62B47",
"u.	c #B41741",
"v.	c #97103C",
"w.	c #C5314D",
"x.	c #EB817F",
"y.	c #F0AEA9",
"z.	c #E79295",
"A.	c #DB5E6B",
"B.	c #D66C8B",
"C.	c #D17EA8",
"D.	c #D089BA",
"E.	c #D493C2",
"F.	c #AB6F94",
"G.	c #1D0A16",
"H.	c #410C1D",
"I.	c #970B39",
"J.	c #830131",
"K.	c #B21140",
"L.	c #E14050",
"M.	c #F08F89",
"N.	c #F3B3AF",
"O.	c #ECA0A5",
"P.	c #DF6A76",
"Q.	c #D66387",
"R.	c #D57EAD",
"S.	c #D38BBF",
"T.	c #C681B4",
"U.	c #48243C",
"V.	c #3B051C",
"W.	c #970C3A",
"X.	c #D52645",
"Y.	c #EC5B5C",
"Z.	c #F19793",
"`.	c #F3B3B4",
" +	c #EDA5B1",
".+	c #E2798A",
"++	c #D45F86",
"@+	c #D376AD",
"#+	c #C77AB0",
"$+	c #5D2C4B",
"%+	c #410F1F",
"&+	c #B33345",
"*+	c #E8716E",
"=+	c #F2A29E",
"-+	c #F2B5B9",
";+	c #EDA9B9",
">+	c #E3869C",
",+	c #CE5D83",
"'+	c #A44978",
")+	c #451C32",
"!+	c #63283A",
"~+	c #9F5A68",
"{+	c #B47489",
"]+	c #B06C86",
"^+	c #964B60",
"/+	c #581D33",
"(+	c #1E0612",
"          . + @ # $ %           ",
"      & * = - ; > , ' ) !       ",
"    ~ { ] ^ / ( _ : < [ } |     ",
"  1 2 3 4 5 6 7 8 9 0 a b c d   ",
"  e f g h i j k l m n o p q r s ",
"t u v w x y z A B C D E F G H I ",
"J K L M N O P Q R S T U V W X Y ",
"Z `  ...+.@.#.    $.%.&.*.=.-.;.",
">.,.'.).!.~.{.    {.].^./.(._.:.",
"<.[.}.|.1.2.3.4.5.6.7.8.9.0.a.b.",
"c.d.e.f.g.h.i.j.k.l.m.n.o.p.q.r.",
"  s.t.u.v.w.x.y.z.A.B.C.D.E.F.G.",
"  H.I.J.K.L.M.N.O.P.Q.R.S.T.U.  ",
"    V.W.X.Y.Z.`. +.+++@+#+$+    ",
"      %+&+*+=+-+;+>+,+'+)+      ",
"          !+~+{+]+^+/+(+        "};
