/* XPM */
static char * mini_cdwriter_xpm[] = {
"16 16 120 2",
"  	c None",
". 	c #FF747F",
"+ 	c #FF2F00",
"@ 	c #FCBB7C",
"# 	c #F9E699",
"$ 	c #FCD465",
"% 	c #FFD141",
"& 	c #FFFF9E",
"* 	c #FF6D3C",
"= 	c #FF6800",
"- 	c #FF7800",
"; 	c #FFF6FF",
"> 	c #FFFFFF",
", 	c #F8D04F",
"' 	c #E8A20B",
") 	c #FFD6C6",
"! 	c #FF1F00",
"~ 	c #FF5900",
"{ 	c #FFBF00",
"] 	c #FFE200",
"^ 	c #FF6700",
"/ 	c #FF9F88",
"( 	c #FFFEE8",
"_ 	c #FFD100",
": 	c #FCE453",
"< 	c #CF8E13",
"[ 	c #FFEB4C",
"} 	c #FF4900",
"| 	c #FFB300",
"1 	c #FFCF00",
"2 	c #FFF7ED",
"3 	c #FFDF3A",
"4 	c #FFD709",
"5 	c #FFE113",
"6 	c #FBE26A",
"7 	c #FFFF61",
"8 	c #FF4C4B",
"9 	c #FFA4C0",
"0 	c #FF6C08",
"a 	c #FFE2DB",
"b 	c #FFF7D2",
"c 	c #FDEEC4",
"d 	c #FFD807",
"e 	c #FFE759",
"f 	c #FFE130",
"g 	c #FFE816",
"h 	c #C89B3A",
"i 	c #FF601B",
"j 	c #FF7125",
"k 	c #FFFF8D",
"l 	c #FFBDAF",
"m 	c #FDFFF5",
"n 	c #FEE2A6",
"o 	c #FFC938",
"p 	c #FAD67A",
"q 	c #FFEE7C",
"r 	c #FFE44F",
"s 	c #FFE42A",
"t 	c #F3DB63",
"u 	c #FF4C1A",
"v 	c #FFFB3C",
"w 	c #FFEA56",
"x 	c #FFF196",
"y 	c #FFE781",
"z 	c #FCC64F",
"A 	c #E1BA7A",
"B 	c #FFEE99",
"C 	c #FFE970",
"D 	c #FFE449",
"E 	c #FFFC5E",
"F 	c #B57C1C",
"G 	c #FCD81C",
"H 	c #FFF154",
"I 	c #FFE135",
"J 	c #FFE65A",
"K 	c #FFED7F",
"L 	c #FDC82F",
"M 	c #D6A853",
"N 	c #ECC39F",
"O 	c #FEFEF5",
"P 	c #FFF4AD",
"Q 	c #FFE764",
"R 	c #FFF556",
"S 	c #BE8C31",
"T 	c #FCD655",
"U 	c #FFE119",
"V 	c #FFE341",
"W 	c #FFD400",
"X 	c #FFF6C8",
"Y 	c #F8DEB6",
"Z 	c #FCF0DF",
"` 	c #FDFDF8",
" .	c #FFFFBD",
"..	c #B5822A",
"+.	c #FFC31E",
"@.	c #FFF248",
"#.	c #FFD700",
"$.	c #FFD715",
"%.	c #FFFFF8",
"&.	c #FFF5B3",
"*.	c #8F5408",
"=.	c #F7B931",
"-.	c #FFE91B",
";.	c #FFF1A0",
">.	c #FFFDF3",
",.	c #FFFBEE",
"'.	c #FFF4BE",
").	c #FFF6C2",
"!.	c #BF995C",
"~.	c #F0AE18",
"{.	c #FFFFF7",
"].	c #FFFFFA",
"^.	c #FFF065",
"/.	c #E6CE9D",
"(.	c #C78908",
"_.	c #EBBB4D",
":.	c #EAC571",
"<.	c #F1DEAC",
"[.	c #D7B255",
"}.	c #BB8B38",
"                                ",
"        .                       ",
"        + @ # $ %               ",
"    & * = - ; > > , '           ",
"  ) ! ~ { ] ^ / ( _ : <         ",
"  [ > } | 1 2 > 3 4 5 6         ",
"  7 8 9 0 a b c d e f g h       ",
"  i j k l m n o p q r s t       ",
"  u v w x y z   A B C D E F     ",
"  G H I J K L M N O P Q R S     ",
"    T U V W X Y Z > > `  ...    ",
"    +.@.#.$.> %.&.> > > %.*.    ",
"      =.-.;.>.,.'.).> > !.      ",
"        ~.{.> ].> ^.> /.        ",
"          (._.:.<.[.}.          ",
"                                "};
