/* XPM */
static char * mini_chimera_xpm[] = {
"16 16 7 1",
" 	c None",
".	c #CC611E",
"+	c #FFFFFF",
"@	c #E56D22",
"#	c #FF7824",
"$	c #F67423",
"%	c #E97023",
"      ....      ",
"     ..+.+.     ",
"    ........    ",
"   .........    ",
"   ... . ..     ",
"  ... .         ",
"  ..... @@@     ",
" ... .  @@@@@   ",
"#  ..  # @@@@@  ",
"###  ### @++@@@ ",
" ###### @@@@@@@@",
" #+##+$ @@@@@@@@",
"  #### @@@@@@ % ",
"  #### @@@@@@   ",
"   ## @@@ @@@@  ",
"   ## @@   @@   "};
