/* XPM */
static char * mini_cisco_xpm[] = {
"16 16 4 1",
" 	c None",
".	c #990000",
"+	c #003333",
"@	c #FFFFFF",
"...             ",
".   . ... .. ...",
".   . .   .  . .",
".   . ... .  . .",
".   .   . .  . .",
"... . ... .. ...",
"                ",
"++++++++++++++++",
"+++++++@++++++++",
"+++++++@++++++++",
"+++++++@++++++++",
"+++++@+@+@++++++",
"+++++@+@+@++++++",
"+++++@+@+@++++++",
"+++@+@+@+@+@++++",
"+@+@+@+@+@+@+@+@"};
