/* XPM */
static char * mini_coffeemill_xpm[] = {
"16 16 8 1",
" 	c None",
".	c #000000",
"+	c #111111",
"@	c #AAAAAA",
"#	c #888888",
"$	c #993300",
"%	c #996600",
"&	c #CC6600",
" ..             ",
" +........      ",
"        ..      ",
"    ..........  ",
"     .@@@@##.   ",
"      .@@##.    ",
"       ....     ",
"    ....@#....  ",
"   .$$$....$$$. ",
"   ............ ",
"    .%%%%%%%%.  ",
"    .%%%%%%%%.  ",
"    .%&&..&&%.  ",
"   .%%&&&&&&%%. ",
"   .%%%%%%%%%%. ",
"   ............ "};
