/* XPM */
static char * mini_colosseum_xpm[] = {
"16 16 9 1",
" 	c None",
".	c #00A7E9",
"+	c #9E6100",
"@	c #8E8E8E",
"#	c #FFCF61",
"$	c #FFCF30",
"%	c #000000",
"&	c #FF9E61",
"*	c #78BC3C",
"................",
"...++++.........",
".++@#@#+........",
"+@##+++$+.......",
"++++$$+$+.......",
"+$$+$%+$$+......",
"+$%+++++++++....",
"+$++$$+$$+&&++..",
"++$+$%+$%+&%+&+.",
"+$%+$%+$%+&%+&&+",
"+$++++++++++++%+",
"++$+$$+$$++&+&++",
"+$%+$%+$%+$++&%+",
"*+%+$%+$%+$%+&+*",
"**++$%+$%+$%++**",
"****++++++++****"};
