/* XPM */
static char * mini_colossus_xpm[] = {
"16 16 16 1",
" 	c None",
".	c #CF06CF",
"+	c #FFB2FF",
"@	c #CF09CF",
"#	c #D524D5",
"$	c #D110D1",
"%	c #D421D4",
"&	c #D31DD3",
"*	c #CF08CF",
"=	c #D00BD0",
"-	c #D00DD0",
";	c #CF07CF",
">	c #D218D2",
",	c #D00AD0",
"'	c #D10FD1",
")	c #D10ED1",
".. . ..    .... ",
".......   .++++.",
".. . .. @+..++..",
" . . . #$.+....+",
"  ... .+...++++.",
" ......%+.+....+",
" @.++..&.+..*...",
" .+.+..  ..+...+",
" ...+..   +.=-;.",
" .....    ..+++.",
"  ...     +++.++",
"   .      ..+++.",
"   .    >,+.'.).",
"   .   ....+...+",
"   .  .+....+.+.",
"      ..+....+.."};
