/* XPM */
static char * mini_defaulttool_xpm[] = {
"16 16 96 2",
"  	c None",
". 	c #0F0F0F",
"+ 	c #373737",
"@ 	c #0B0B0B",
"# 	c #242424",
"$ 	c #4A4A4A",
"% 	c #505050",
"& 	c #848484",
"* 	c #787878",
"= 	c #606060",
"- 	c #262626",
"; 	c #414141",
"> 	c #4C4C4C",
", 	c #515151",
"' 	c #636363",
") 	c #6A6A6A",
"! 	c #858585",
"~ 	c #5E5E5E",
"{ 	c #7D7D7D",
"] 	c #2D2D2D",
"^ 	c #464646",
"/ 	c #A5A5A5",
"( 	c #A4A4A4",
"_ 	c #888888",
": 	c #808080",
"< 	c #ABABAB",
"[ 	c #6C6C6C",
"} 	c #525252",
"| 	c #959595",
"1 	c #9D9D9D",
"2 	c #383838",
"3 	c #111111",
"4 	c #292929",
"5 	c #969696",
"6 	c #9A9A9A",
"7 	c #434343",
"8 	c #3C3C3C",
"9 	c #8A8A8A",
"0 	c #181818",
"a 	c #000000",
"b 	c #A2A2A2",
"c 	c #B2B2B2",
"d 	c #BCBCBC",
"e 	c #575757",
"f 	c #313131",
"g 	c #6D6D6D",
"h 	c #AEAEAE",
"i 	c #232323",
"j 	c #AAAAAA",
"k 	c #4B4B4B",
"l 	c #7A7A7A",
"m 	c #949494",
"n 	c #878787",
"o 	c #B8B8B8",
"p 	c #C0C0C0",
"q 	c #CDCDCD",
"r 	c #555555",
"s 	c #252525",
"t 	c #3E3E3E",
"u 	c #8E8E8E",
"v 	c #C1C1C1",
"w 	c #C7C7C7",
"x 	c #CCCCCC",
"y 	c #C2C2C2",
"z 	c #9E9E9E",
"A 	c #0E0E0E",
"B 	c #7F7F7F",
"C 	c #999999",
"D 	c #A8A8A8",
"E 	c #818181",
"F 	c #909090",
"G 	c #C6C6C6",
"H 	c #DEDEDE",
"I 	c #7C7C7C",
"J 	c #B0B0B0",
"K 	c #BEBEBE",
"L 	c #BFBFBF",
"M 	c #D4D4D4",
"N 	c #E2E2E2",
"O 	c #EBEBEB",
"P 	c #BDBDBD",
"Q 	c #C4C4C4",
"R 	c #DADADA",
"S 	c #E0E0E0",
"T 	c #7B7B7B",
"U 	c #B4B4B4",
"V 	c #D2D2D2",
"W 	c #DFDFDF",
"X 	c #CBCBCB",
"Y 	c #F0F0F0",
"Z 	c #202020",
"` 	c #E8E8E8",
" .	c #565656",
"..	c #929292",
"+.	c #2F2F2F",
"@.	c #2A2A2A",
"                  . + @         ",
"              # $ % & * =       ",
"          - ; > , ' ) ! ~ {     ",
"        ] ^ ) / ( _ : & < [     ",
"      . } | 1 2 3 4 5 5 1 6 7   ",
"    8 ~ 9 9 0 a   a 1 b c d e   ",
"    f g h i       8 j c j -     ",
"  k l m g a       n o p q r     ",
"  s 9 b t       u v w x y z A   ",
"  B C D E . ; F G q H g a a     ",
"  I j J K L G q M N O F         ",
"  u K P Q q M R S T U / 3       ",
"  % T M V W X Y R i a Z         ",
"    b D F `  ...p a             ",
"      ] r U Z   +.              ",
"          @.                    "};
