/* XPM */
static char * mini_die_xpm[] = {
"16 16 70 1",
" 	c None",
".	c #000000",
"+	c #010101",
"@	c #020202",
"#	c #2E2E2E",
"$	c #F2F2F2",
"%	c #F3F3F3",
"&	c #353535",
"*	c #262626",
"=	c #272727",
"-	c #3B3B3B",
";	c #3D3D3D",
">	c #080808",
",	c #323232",
"'	c #FBFBFB",
")	c #343434",
"!	c #303030",
"~	c #FCFCFC",
"{	c #363636",
"]	c #070707",
"^	c #101010",
"/	c #141414",
"(	c #030303",
"_	c #0D0D0D",
":	c #0E0E0E",
"<	c #050505",
"[	c #535353",
"}	c #555555",
"|	c #060606",
"1	c #2A2A2A",
"2	c #DBDBDB",
"3	c #DDDDDD",
"4	c #313131",
"5	c #464646",
"6	c #161616",
"7	c #151515",
"8	c #171717",
"9	c #2D2D2D",
"0	c #585858",
"a	c #FDFDFD",
"b	c #111111",
"c	c #454545",
"d	c #484848",
"e	c #7A7A7A",
"f	c #202020",
"g	c #F1F1F1",
"h	c #2B2B2B",
"i	c #EEEEEE",
"j	c #9B9B9B",
"k	c #BCBCBC",
"l	c #7F7F7F",
"m	c #040404",
"n	c #797979",
"o	c #C0C0C0",
"p	c #3F3F3F",
"q	c #3A3A3A",
"r	c #E2E2E2",
"s	c #A1A1A1",
"t	c #B1B1B1",
"u	c #242424",
"v	c #C7C7C7",
"w	c #A7A7A7",
"x	c #0A0A0A",
"y	c #858585",
"z	c #C5C5C5",
"A	c #282828",
"B	c #808080",
"C	c #E7E7E7",
"D	c #3C3C3C",
"E	c #686868",
"      .+@.      ",
"    ..#$%&..    ",
"  .*=.+-;@.*=.  ",
" >,'')....!'~{] ",
"^/(_:.<[}|._:(/^",
"......1234....5>",
".....@6778(.90ab",
"....@b.cd.^;'ee.",
"....fgh^/=iej...",
".+..+kl@mno@..+.",
".3p..m:.._<..qr.",
".st........uvew.",
" |1......xyezA| ",
"  .......BCD/.  ",
"    ...m]ED.    ",
"      +=1@      "};
