/* XPM */
static char * mini_eeye_xpm[] = {
"16 16 12 1",
" 	c None",
".	c #FFFFFF",
"+	c #ECCBCE",
"@	c #C98D7E",
"#	c #614432",
"$	c #774830",
"%	c #000000",
"&	c #505E66",
"*	c #677A84",
"=	c #88A1AD",
"-	c #EECBCC",
";	c #687882",
"...+++@@@@@#####",
"..+++@@@########",
".++@@@@$########",
"+@@@############",
"##########%%%%%%",
"#####%%%%%%%%%%%",
"##%%%%%%%&*&&&#%",
"%%%%%&&&&&=..++@",
"%%%%=&%=**=...++",
"##&&=%%=**=...+-",
"##***&&**;....++",
"##@******=....++",
"###@****=....++@",
"@@##@@@@@@@@@@@#",
"+@@#############",
"++@@@@##########"};
