/* XPM */
static char * mini_email_gold_xpm[] = {
"15 11 158 2",
"  	c None",
". 	c #DF9B2B",
"+ 	c #EABE75",
"@ 	c #EBC17D",
"# 	c #EBC17C",
"$ 	c #EBC17B",
"% 	c #EBC179",
"& 	c #EBC178",
"* 	c #EBC176",
"= 	c #EBC175",
"- 	c #EBC171",
"; 	c #ECC26E",
"> 	c #BA812F",
", 	c #E6B14C",
"' 	c #FCF7DF",
") 	c #FFFEFC",
"! 	c #FFFEFE",
"~ 	c #FFFEFD",
"{ 	c #FFFEF8",
"] 	c #FFFEEE",
"^ 	c #FFFEE4",
"/ 	c #FFFED9",
"( 	c #FFFECF",
"_ 	c #FFFEC4",
": 	c #FFFEBB",
"< 	c #FFFDAC",
"[ 	c #FBF494",
"} 	c #BD9138",
"| 	c #E6B14B",
"1 	c #F7EEAB",
"2 	c #F9F4BD",
"3 	c #FEFDEF",
"4 	c #FFFFFD",
"5 	c #FFFFF2",
"6 	c #FFFFE2",
"7 	c #FFFFD2",
"8 	c #FFFFC2",
"9 	c #FFFFB2",
"0 	c #FFFFA2",
"a 	c #FEFC92",
"b 	c #F7E764",
"c 	c #E7C631",
"d 	c #B47C0B",
"e 	c #E5B059",
"f 	c #F6EDC1",
"g 	c #F4EA84",
"h 	c #F2E888",
"i 	c #FCF8D1",
"j 	c #FFFFE4",
"k 	c #FFFFD8",
"l 	c #FFFFC9",
"m 	c #FFFFB8",
"n 	c #FFFEA7",
"o 	c #FBF482",
"p 	c #EFDA54",
"q 	c #E3B91D",
"r 	c #EBC118",
"s 	c #BD860B",
"t 	c #E6B15A",
"u 	c #FCF8EE",
"v 	c #FDFADC",
"w 	c #F3E988",
"x 	c #F5E56F",
"y 	c #F8F1A3",
"z 	c #FFFED7",
"A 	c #FFFFC3",
"B 	c #FFFFB0",
"C 	c #FBF183",
"D 	c #E7C932",
"E 	c #E3BB1E",
"F 	c #F4D031",
"G 	c #FEE03E",
"H 	c #C28E18",
"I 	c #FCF8EC",
"J 	c #FDFBD7",
"K 	c #F7EA81",
"L 	c #EFD745",
"M 	c #F4E175",
"N 	c #F8F09F",
"O 	c #EFDB5A",
"P 	c #DAB226",
"Q 	c #DEB61D",
"R 	c #F7DB3C",
"S 	c #FEE854",
"T 	c #FFEB54",
"U 	c #C2911C",
"V 	c #E6B15B",
"W 	c #FCF8E8",
"X 	c #FFFDE3",
"Y 	c #F9ED9C",
"Z 	c #F4E47A",
"` 	c #FBF199",
" .	c #F7E564",
"..	c #E8CC41",
"+.	c #E7C525",
"@.	c #EDCE38",
"#.	c #E7C83A",
"$.	c #EDCD39",
"%.	c #FDEC5C",
"&.	c #FFED59",
"*.	c #FCF8E6",
"=.	c #FBF1A9",
"-.	c #F0DC65",
";.	c #F9F1A8",
">.	c #FFFEB6",
",.	c #FEFB9D",
"'.	c #FAED77",
").	c #FBEC6C",
"!.	c #FFF170",
"~.	c #F8EB68",
"{.	c #E7C93D",
"].	c #EECF39",
"^.	c #FFEB50",
"/.	c #C2911B",
"(.	c #E6B159",
"_.	c #F7EBA7",
":.	c #F0DD66",
"<.	c #FBF7B2",
"[.	c #FFFFB1",
"}.	c #FFFDA3",
"|.	c #FFFD9A",
"1.	c #FFFA8F",
"2.	c #FFF884",
"3.	c #FFF679",
"4.	c #FFF56F",
"5.	c #FBEF65",
"6.	c #EAC93B",
"7.	c #EFCB27",
"8.	c #C08C13",
"9.	c #E2AD4D",
"0.	c #F1E396",
"a.	c #F2E58E",
"b.	c #F8EF90",
"c.	c #F8EF85",
"d.	c #F8EF7C",
"e.	c #F8ED74",
"f.	c #F8EB6A",
"g.	c #F8E861",
"h.	c #F8E659",
"i.	c #F8E350",
"j.	c #F8E24A",
"k.	c #F3DA44",
"l.	c #E7BE26",
"m.	c #B77C0A",
"n.	c #A96B1C",
"o.	c #AF8145",
"p.	c #AF8032",
"q.	c #AF7F28",
"r.	c #AF7E26",
"s.	c #B0812A",
"t.	c #B28229",
"u.	c #B28126",
"v.	c #B28023",
"w.	c #B17F20",
"x.	c #B17E1D",
"y.	c #B17D1B",
"z.	c #AE7819",
"A.	c #9B5D0D",
". + @ @ @ @ # $ % & * = - ; > ",
", ' ) ! ~ { ] ^ / ( _ : < [ } ",
"| 1 2 3 4 5 6 7 8 9 0 a b c d ",
"e f g h i j k l m n o p q r s ",
"t u v w x y z A B C D E F G H ",
"t I 5 J K L M N O P Q R S T U ",
"V W X Y Z `  ...+.@.#.$.%.&.U ",
"t *.=.-.;.>.,.'.).!.~.{.].^./.",
"(._.:.<.[.}.|.1.2.3.4.5.6.7.8.",
"9.0.a.b.c.d.e.f.g.h.i.j.k.l.m.",
"n.o.p.q.r.s.t.u.v.w.x.y.y.z.A."};
