/* XPM */
static char * mini_email_globe_xpm[] = {
"16 16 151 2",
"  	c None",
". 	c #B5B5CD",
"+ 	c #9797AE",
"@ 	c #B6B6C7",
"# 	c #CACAD9",
"$ 	c #E4E4ED",
"% 	c #EBEBF3",
"& 	c #C4C4D9",
"* 	c #32323B",
"= 	c #CACAD5",
"- 	c #E0E0E8",
"; 	c #F2F2F6",
"> 	c #F7F7FC",
", 	c #F1F1F7",
"' 	c #DDDDE9",
") 	c #DFDFF0",
"! 	c #6E6E82",
"~ 	c #D3D2D6",
"{ 	c #E4E1E4",
"] 	c #F5F3F5",
"^ 	c #FDFCFE",
"/ 	c #FBFBFE",
"( 	c #F6F6FA",
"_ 	c #F4F4F9",
": 	c #E0E0EA",
"< 	c #DFDFEB",
"[ 	c #E8E8F4",
"} 	c #A7A7C2",
"| 	c #D4D4D7",
"1 	c #E8F2FC",
"2 	c #DCF1FF",
"3 	c #E6F1FE",
"4 	c #F8F8FB",
"5 	c #FDFBFB",
"6 	c #F6F6FB",
"7 	c #E9E9F0",
"8 	c #DCDCE7",
"9 	c #E8E8F2",
"0 	c #EBEBF4",
"a 	c #D5D5E9",
"b 	c #48485B",
"c 	c #ABD0E8",
"d 	c #B1E0FC",
"e 	c #ACDCFD",
"f 	c #91CCFB",
"g 	c #92C5F9",
"h 	c #CFDCEE",
"i 	c #F0EDF0",
"j 	c #DCDCE6",
"k 	c #EAEAF2",
"l 	c #EEEEF5",
"m 	c #EDEDF4",
"n 	c #EFEFF9",
"o 	c #8484A0",
"p 	c #BCEEFF",
"q 	c #B8EDFF",
"r 	c #EAFFFE",
"s 	c #E2FFFF",
"t 	c #ACE7FF",
"u 	c #74C1FF",
"v 	c #59A2F2",
"w 	c #C3CEE1",
"x 	c #EDEAEE",
"y 	c #F5F5FA",
"z 	c #F3F3F8",
"A 	c #F2F2F7",
"B 	c #F8F8FC",
"C 	c #C1C1D8",
"D 	c #A2D0F4",
"E 	c #98D0FF",
"F 	c #E3F7FF",
"G 	c #ECFBFF",
"H 	c #D1F8FF",
"I 	c #A9E2FF",
"J 	c #7BC3FF",
"K 	c #459FFE",
"L 	c #79A9EC",
"M 	c #FDFCF9",
"N 	c #FBFBFC",
"O 	c #F9F9FC",
"P 	c #FCFCFE",
"Q 	c #FFFFFF",
"R 	c #E6E6F8",
"S 	c #61617F",
"T 	c #71B4F5",
"U 	c #BCE6FF",
"V 	c #E4F9FF",
"W 	c #B7E7FF",
"X 	c #9BDBFF",
"Y 	c #8CCEFF",
"Z 	c #67B7FF",
"` 	c #449AFA",
" .	c #326FE1",
"..	c #EEF4F9",
"+.	c #EAEAF6",
"@.	c #B2B2CB",
"#.	c #6C6C87",
"$.	c #353543",
"%.	c #4A90ED",
"&.	c #60B3F8",
"*.	c #B9EAFF",
"=.	c #CAEEFF",
"-.	c #99D4FF",
";.	c #66B7FF",
">.	c #55ADFF",
",.	c #3C82EC",
"'.	c #1F5ADA",
").	c #D9E7FC",
"!.	c #DBDAE8",
"~.	c #9999B0",
"{.	c #505065",
"].	c #1C1C25",
"^.	c #3976E4",
"/.	c #256EE3",
"(.	c #84C1F8",
"_.	c #D1F2FF",
":.	c #B6E1FE",
"<.	c #3B8CF3",
"[.	c #5093ED",
"}.	c #3B6EDF",
"|.	c #3371E5",
"1.	c #7A839C",
"2.	c #393743",
"3.	c #396FCE",
"4.	c #4073E4",
"5.	c #B7E0FD",
"6.	c #D4F4FF",
"7.	c #D2EEFE",
"8.	c #6D9BEA",
"9.	c #8AB6F0",
"0.	c #4C80E9",
"a.	c #4274CF",
"b.	c #1E201C",
"c.	c #79B1FD",
"d.	c #D4F7FF",
"e.	c #F0FFFF",
"f.	c #FCFFFF",
"g.	c #E9FFFF",
"h.	c #C4EBFF",
"i.	c #92CBFF",
"j.	c #3C536B",
"k.	c #9AC9F1",
"l.	c #A2C5FF",
"m.	c #BED8FF",
"n.	c #BEE1FF",
"o.	c #A3D5F6",
"p.	c #3A5B7B",
"q.	c #15366E",
"r.	c #1B3974",
"s.	c #1D3D71",
"t.	c #122234",
"                                ",
"                      . +       ",
"                @ # $ % & *     ",
"            = - ; > , ' ) !     ",
"      ~ { ] ^ / ( _ : < [ }     ",
"    | 1 2 3 4 5 6 7 8 9 0 a b   ",
"    c d e f g h i j k l m n o   ",
"  p q r s t u v w x y z A B C   ",
"D E F G H I J K L M N O P Q R S ",
"T U V W X Y Z `  ...Q Q +.@.#.$.",
"%.&.*.=.-.;.>.,.'.).!.~.{.].    ",
"^./.(._.:.<.[.}.|.1.2.          ",
"3.4.5.6.7.8.9.0.a.b.            ",
"  c.d.e.f.g.h.i.j.              ",
"    k.l.m.n.o.p.                ",
"      q.r.s.t.                  "};
