/* XPM */
static char * mini_evolution_xpm[] = {
"16 16 8 1",
" 	c None",
".	c #FFE159",
"+	c #000000",
"@	c #FFFFFF",
"#	c #3F3F3F",
"$	c #7F7F7F",
"%	c #FFD117",
"&	c #DA890C",
".....+++++++++++",
".....+@@@@@@@@@+",
"+++.+++@+++####+",
"+@$+$@$+$@+@#@@+",
"+@@@@@@@@@+@#@@+",
"+@@@@$$$$@+####+",
"+@@@@@@@@@+@#@@+",
"+@$$$$$$$@+@#@@+",
"+@+++++++++++##+",
"+++@@@@@@@@@+@@+",
"%%+#@@@@@@@#+@@+",
"%%+@#@@@@@#@++++",
"%%+@@#@@@#@@+&&&",
"%%+@#@$#$@#@+&&&",
"%%+#@@@@@@@#+&&&",
"%%+++++++++++&&&"};
