/* XPM */
static char * mini_fig_xpm[] = {
"16 16 5 1",
" 	c None",
".	c #197714",
"+	c #9ACA31",
"@	c #A15028",
"#	c #000000",
"          ..    ",
"         .++.   ",
"         .++.   ",
"@@      @.+. .. ",
"  @@#@@@.++..++.",
"    . .++.+++.+.",
"   ...+.++.+. . ",
"   .  . .++++.  ",
"  ...  .+++.++. ",
" ..#. .++.++++. ",
" .#...++. .+.+. ",
"...... .  .+++. ",
"..#...   .++++. ",
"...+..    .++.  ",
" ....      ..   ",
"  ..            "};
