/* XPM */
static char * mini_filmrull_xpm[] = {
"21 21 32 1",
" 	c None",
".	c #B1B1B1",
"+	c #8B8C8E",
"@	c #999899",
"#	c #848484",
"$	c #6E6D72",
"%	c #8C9AAB",
"&	c #CACACA",
"*	c #BDC2C7",
"=	c #F7FFF7",
"-	c #EAEBEB",
";	c #F5F4F5",
">	c #FDFDFD",
",	c #A8AAB6",
"'	c #8B9496",
")	c #A5A6A6",
"!	c #383836",
"~	c #DDDDDD",
"{	c #000000",
"]	c #5D7069",
"^	c #BDBCBB",
"/	c #565350",
"(	c #CCD4DB",
"_	c #858BA7",
":	c #97866C",
"<	c #D6D6D6",
"[	c #989281",
"}	c #BDB7AB",
"|	c #706857",
"1	c #798597",
"2	c #679581",
"3	c #89716A",
"                     ",
"       .+.@+         ",
"   @+#$%&*=-$        ",
"  #;>&,#@''@-#       ",
" )->#!+)'@%'@@,      ",
" #~-${],^$$$'-$      ",
" #//(!$->@/!';$^     ",
" _/!-&*).~:!'<@+     ",
" #*#'/~!!^[!++>#     ",
" #~~.$<!{#}|!'+$     ",
" '^/';-%!,&+/!'$     ",
"  1!/-#^<;<[//!'     ",
"  $$/-!!(-<2/!/{@'   ",
"   +>>!!@-<:+!!/{@'' ",
"   ),>,!@~#/!///|/{@ ",
"    @'~<-]////////${ ",
"     ^$]/$+3/////|{  ",
"           '|!!/{{   ",
"            @{{{     ",
"                     ",
"                     "};
