/* XPM */
static char * mini_firefox_xpm[] = {
"17 16 221 2",
"  	c None",
". 	c #90ADCD",
"+ 	c #4E8FC0",
"@ 	c #2E91C7",
"# 	c #2996CC",
"$ 	c #3793C7",
"% 	c #62A0CA",
"& 	c #B4C7DE",
"* 	c #9CA9C7",
"= 	c #124687",
"- 	c #025194",
"; 	c #0967A7",
"> 	c #169CD2",
", 	c #1FBBEA",
"' 	c #138CC5",
") 	c #2A85B0",
"! 	c #4D7E79",
"~ 	c #B8AC6D",
"{ 	c #F7E6CE",
"] 	c #E88C3D",
"^ 	c #877076",
"/ 	c #0A2263",
"( 	c #0A3374",
"_ 	c #6C7B89",
": 	c #6C7B82",
"< 	c #129ACF",
"[ 	c #16A9DC",
"} 	c #0E82BD",
"| 	c #076FAC",
"1 	c #36607C",
"2 	c #D59C44",
"3 	c #FDC74D",
"4 	c #F7CDA0",
"5 	c #D55413",
"6 	c #DE6121",
"7 	c #ED8744",
"8 	c #F08742",
"9 	c #EA6825",
"0 	c #106F92",
"a 	c #0AA1D3",
"b 	c #0B95CC",
"c 	c #099CCF",
"d 	c #049DCF",
"e 	c #0063A0",
"f 	c #0B346A",
"g 	c #968845",
"h 	c #FEDA51",
"i 	c #E7C06C",
"j 	c #DF5B0E",
"k 	c #E45E0C",
"l 	c #E65907",
"m 	c #E95E0C",
"n 	c #DC520C",
"o 	c #734742",
"p 	c #1D7591",
"q 	c #0299CB",
"r 	c #0197CB",
"s 	c #0090C6",
"t 	c #0083BD",
"u 	c #006AAA",
"v 	c #045E9B",
"w 	c #B9943B",
"x 	c #FFC533",
"y 	c #E69659",
"z 	c #E1630F",
"A 	c #E35E0A",
"B 	c #E65A07",
"C 	c #E85D0A",
"D 	c #E86414",
"E 	c #DC753E",
"F 	c #7D7866",
"G 	c #027FB3",
"H 	c #006FAB",
"I 	c #0066A4",
"J 	c #004C8E",
"K 	c #006AAC",
"L 	c #09528B",
"M 	c #C5823A",
"N 	c #FFB828",
"O 	c #E2B994",
"P 	c #CA561F",
"Q 	c #E35F0B",
"R 	c #E3640F",
"S 	c #E85E0B",
"T 	c #EB6B1A",
"U 	c #EF7E2F",
"V 	c #B97A49",
"W 	c #005D90",
"X 	c #0074B2",
"Y 	c #005092",
"Z 	c #003477",
"` 	c #002F73",
" .	c #00549B",
"..	c #003780",
"+.	c #D79A31",
"@.	c #FFC333",
"#.	c #EA9541",
"$.	c #D26A2D",
"%.	c #E55806",
"&.	c #DB540C",
"*.	c #BE4010",
"=.	c #784630",
"-.	c #62564E",
";.	c #025B9B",
">.	c #0062A8",
",.	c #005FA4",
"'.	c #00286C",
").	c #001D60",
"!.	c #2C375F",
"~.	c #EBA935",
"{.	c #FFCD39",
"].	c #F0A83A",
"^.	c #C84417",
"/.	c #E25E0B",
"(.	c #E55503",
"_.	c #C33E08",
":.	c #BB3A0B",
"<.	c #884E38",
"[.	c #02458C",
"}.	c #004D98",
"|.	c #195490",
"1.	c #155392",
"2.	c #00276C",
"3.	c #001050",
"4.	c #001253",
"5.	c #8A6F50",
"6.	c #FEA837",
"7.	c #FFC53A",
"8.	c #E0BC4A",
"9.	c #C04D30",
"0.	c #E05104",
"a.	c #E45806",
"b.	c #D44D0B",
"c.	c #D15111",
"d.	c #E05A0F",
"e.	c #C05F2B",
"f.	c #B46237",
"g.	c #EF7326",
"h.	c #D77D45",
"i.	c #1F204A",
"j.	c #000742",
"k.	c #021255",
"l.	c #AE8947",
"m.	c #FFB73B",
"n.	c #FFD93A",
"o.	c #CDAF68",
"p.	c #C17366",
"q.	c #D44609",
"r.	c #E45403",
"s.	c #E55808",
"t.	c #E66112",
"u.	c #D55211",
"v.	c #A92A07",
"w.	c #AA330B",
"x.	c #68241C",
"y.	c #070526",
"z.	c #000334",
"A.	c #060A43",
"B.	c #754848",
"C.	c #F3A535",
"D.	c #FFD865",
"E.	c #FEC838",
"F.	c #BFAA98",
"G.	c #BC2A07",
"H.	c #D54708",
"I.	c #E65906",
"J.	c #EC6612",
"K.	c #BF5419",
"L.	c #3B1B39",
"M.	c #010E5E",
"N.	c #00084D",
"O.	c #1A0E31",
"P.	c #B15C2E",
"Q.	c #F7862D",
"R.	c #FED65E",
"S.	c #FEBC58",
"T.	c #D08E49",
"U.	c #B1615B",
"V.	c #BB1B00",
"W.	c #D54503",
"X.	c #E05309",
"Y.	c #EB6310",
"Z.	c #ED6814",
"`.	c #F06C18",
" +	c #DA6623",
".+	c #CC622A",
"++	c #E9681E",
"@+	c #F07F1F",
"#+	c #FCCA41",
"$+	c #FED35B",
"%+	c #EB8837",
"&+	c #B2A79E",
"*+	c #A43432",
"=+	c #B70B00",
"-+	c #BC1C00",
";+	c #C82D04",
">+	c #C92807",
",+	c #CC2C09",
"'+	c #D13809",
")+	c #D44708",
"!+	c #E3750F",
"~+	c #F2A619",
"{+	c #F9B22A",
"]+	c #ED8832",
"^+	c #A68F7D",
"/+	c #9D4D4B",
"(+	c #AD0302",
"_+	c #B30000",
":+	c #B90B00",
"<+	c #C93303",
"[+	c #DC5F0B",
"}+	c #E76F16",
"|+	c #CE6829",
"1+	c #A18F81",
"2+	c #964B49",
"3+	c #961E1D",
"4+	c #9C0C0A",
"5+	c #9F0B06",
"6+	c #A01F10",
"7+	c #A2432A",
"8+	c #996E5C",
"          . + @ # $ % &           ",
"      * = - ; > , ' ) ! ~ {       ",
"  ] ^ / ( _ : < [ } | 1 2 3 4     ",
"  5 6 7 8 9 0 a b c d e f g h i   ",
"  j k l m n o p q r s t u v w x   ",
"y z A B C D E F G H I J K L M N O ",
"P Q R S T U V W X Y Z `  ...+.@.#.",
"$.Q %.&.*.=.-.;.>.,.'.).).!.~.{.].",
"^./.(._.:.<.[.}.|.1.2.3.4.5.6.7.8.",
"9.0.a.b.c.d.e.f.g.h.i.j.k.l.m.n.o.",
"p.q.r.s.t.u.v.w.x.y.z.A.B.C.D.E.F.",
"  G.H.I.m J.K.L.M.N.O.P.Q.R.S.T.  ",
"  U.V.W.X.Y.Z.`. +.+++@+#+$+%+&+  ",
"    *+=+-+;+>+,+'+)+!+~+{+]+^+    ",
"      /+(+_+_+_+:+<+[+}+|+1+      ",
"          2+3+4+5+6+7+8+          "};
