/* XPM */
static char * mini_gftp_xpm[] = {
"16 16 85 1",
" 	c None",
".	c #8B8B8B",
"+	c #B6B6B8",
"@	c #FFFFFF",
"#	c #636464",
"$	c #727273",
"%	c #9F9F9E",
"&	c #636873",
"*	c #EB9B00",
"=	c #FFC828",
"-	c #FFC01D",
";	c #BE7300",
">	c #616262",
",	c #070707",
"'	c #A4A4A2",
")	c #494B51",
"!	c #818693",
"~	c #FFC117",
"{	c #FFFFD7",
"]	c #FFFFEC",
"^	c #D3920B",
"/	c #030A1B",
"(	c #97999B",
"_	c #B1B1AA",
":	c #BF8303",
"<	c #FFFCC9",
"[	c #FFF5D8",
"}	c #FFD24D",
"|	c #FFCF16",
"1	c #B58951",
"2	c #C0C6CC",
"3	c #555553",
"4	c #FFD707",
"5	c #FFF9EB",
"6	c #FFE791",
"7	c #FFD54F",
"8	c #FFCD1A",
"9	c #DD8F00",
"0	c #867A5C",
"a	c #121621",
"b	c #BAB8AE",
"c	c #FFF4C2",
"d	c #FFDD62",
"e	c #C7B173",
"f	c #B79D55",
"g	c #E78E00",
"h	c #7E7E7F",
"i	c #060708",
"j	c #606165",
"k	c #868B9A",
"l	c #FFEC92",
"m	c #EBBB3B",
"n	c #B2BCD9",
"o	c #D6DCEB",
"p	c #6A6867",
"q	c #D7D7D7",
"r	c #626262",
"s	c #696969",
"t	c #D6D8D9",
"u	c #73674B",
"v	c #F6BB19",
"w	c #FFC812",
"x	c #FFC705",
"y	c #586172",
"z	c #BFC1C4",
"A	c #656563",
"B	c #ACACAB",
"C	c #2E2E2D",
"D	c #FFFFFC",
"E	c #6B6B67",
"F	c #E79300",
"G	c #F8A500",
"H	c #F69F00",
"I	c #8C5100",
"J	c #54585D",
"K	c #A8A8A8",
"L	c #979796",
"M	c #C2C2BF",
"N	c #484849",
"O	c #B4B4B4",
"P	c #000000",
"Q	c #CECEC9",
"R	c #757577",
"S	c #DADAD4",
"T	c #A5A59F",
"                ",
"                ",
"   .            ",
"  +@#           ",
"  $%@&*=-;  >,' ",
"   )!~{@@]^/(@_ ",
"    :<@@[}|123  ",
"    4@@56789    ",
"    0abcdefg    ",
"  hij@klmnop    ",
"qrs@tuvwxyz@A   ",
"BCDE  FGHIJK@L  ",
" M         NOPQ ",
"            RST ",
"                ",
"                "};
