/* XPM */
static char * mini_gnome_xpm[] = {
"16 16 5 1",
" 	c None",
".	c #000000",
"+	c #FFFFFF",
"@	c #7F7F7F",
"#	c #3F3F3F",
"       @   @#.# ",
"      @.# @.... ",
"   @.@@.# #...@ ",
"   @.@ .@ #..@  ",
" ## #     @#@   ",
" #.    @@@@     ",
"  @ @.......@   ",
"   #........@   ",
"  @.........    ",
"  #.......#     ",
"  #......@      ",
"  @....@   @    ",
"   ....  @..#   ",
"   @...@ #..@   ",
"     ......#    ",
"      @#.#@     "};
