/* XPM */
static char * mini_gnu_xpm[] = {
"16 16 6 1",
" 	c None",
".	c #000000000000",
"X	c #FFFFFFFFFFFF",
"o	c #CF3CCF3CCF3C",
"O	c #08200410F7DE",
"+	c #618565956185",
"             .  ",
"      .....   . ",
"  .  ........ ..",
" .  ...XXXX.....",
".. ..XXXXXXXX.. ",
"....XXooooooXXX ",
" ..XXoOOoooo.   ",
" XXXooOOo+oo.   ",
"    .ooXX+ooo.  ",
"    .o.XXXooo.  ",
"    .oo.XXXooo. ",
"     .oo.XXX... ",
"     .o.o.X.... ",
"      .o.o....  ",
"       .o.      ",
"        .       "};
