/* XPM */
static char * mini_gqmpeg_xpm[] = {
"16 16 31 1",
" 	c None",
".	c #000000",
"+	c #040404",
"@	c #0A0A0A",
"#	c #F2D00C",
"$	c #EDC40B",
"%	c #D78F05",
"&	c #E5C10B",
"*	c #D69D07",
"=	c #E1A708",
"-	c #EFD20C",
";	c #F3D30C",
">	c #E0A707",
",	c #D18103",
"'	c #F1CF0C",
")	c #E0A607",
"!	c #CB7302",
"~	c #E8BA09",
"{	c #E8B909",
"]	c #DB9906",
"^	c #CD7703",
"/	c #D58A05",
"(	c #DD9F07",
"_	c #DFA407",
":	c #D58C05",
"<	c #C56501",
"[	c #D79105",
"}	c #C36200",
"|	c #C36000",
"1	c #CA7202",
"2	c #BF5700",
"               .",
"            ....",
"          ..++..",
"       ....@.  .",
"       ...   ...",
"       .  ...  .",
"       ...     .",
"       .       .",
"       .       .",
"       .   ... .",
"   ... .  .#$%..",
"  .#&*.. .=-;>,.",
" .=#')!. .=~{]^.",
" ./(_:<.  .^[^}.",
"  .|1<2.   .... ",
"   ....         "};
