/* XPM */
static char * mini_gqview_xpm[] = {
"16 16 90 1",
" 	c None",
".	c #767676",
"+	c #5E5E5E",
"@	c #4E4E4E",
"#	c #4A4A4A",
"$	c #525252",
"%	c #828282",
"&	c #7A8672",
"*	c #8EB68A",
"=	c #8EA676",
"-	c #929272",
";	c #9A7E6E",
">	c #9E726A",
",	c #9E7E7E",
"'	c #6A6666",
")	c #626262",
"!	c #7A7A7A",
"~	c #92B27E",
"{	c #82BA7A",
"]	c #86AE76",
"^	c #8A9A6E",
"/	c #96866E",
"(	c #9E766E",
"_	c #9E6A72",
":	c #966E82",
"<	c #8A6A92",
"[	c #8A7E8E",
"}	c #5A5A5A",
"|	c #8AA686",
"1	c #7EC27E",
"2	c #82B276",
"3	c #86A272",
"4	c #8A966E",
"5	c #9A826E",
"6	c #A26E6A",
"7	c #9A6E7A",
"8	c #926A8A",
"9	c #866E9A",
"0	c #7E6EA6",
"a	c #7A7A8A",
"b	c #6E6E6E",
"c	c #7EBA76",
"d	c #82AA72",
"e	c #928A6E",
"f	c #9A766A",
"g	c #966A7E",
"h	c #826E9E",
"i	c #7A6EAA",
"j	c #7A72AE",
"k	c #7EBE76",
"l	c #7EAE72",
"m	c #82A26E",
"n	c #8A926A",
"o	c #96826A",
"p	c #926E8A",
"q	c #866A96",
"r	c #7E6AA2",
"s	c #766AAA",
"t	c #6E6EB2",
"u	c #464646",
"v	c #869E6E",
"w	c #8E8E6A",
"x	c #9A7A6E",
"y	c #8E6A8E",
"z	c #826A9E",
"A	c #7A6AA6",
"B	c #6A6EB6",
"C	c #666666",
"D	c #86B67A",
"E	c #86A672",
"F	c #9E6E72",
"G	c #8A6E96",
"H	c #6E6EB6",
"I	c #726EB2",
"J	c #565656",
"K	c #869686",
"L	c #9A6A76",
"M	c #926A86",
"N	c #7A7692",
"O	c #727272",
"P	c #929A8A",
"Q	c #968E72",
"R	c #9E7A6E",
"S	c #966E7E",
"T	c #7E76B2",
"U	c #6A6A6A",
"V	c #A27E7E",
"W	c #966E86",
"X	c #8272A6",
"Y	c #6A6272",
"                ",
"                ",
"     .+@#$+     ",
"   %&*=-;>,')   ",
"  !~{]^/(_:<[}  ",
"  |1234567890a  ",
" b1cd^ef_g<hij$ ",
" }klmno>_pqrstu ",
" }klvwx_gyzAsBu ",
" CDE^o>FgGAsHIJ ",
"  K34o_LM9isBN  ",
"  OPQR6S<zstT+  ",
"   OUVFW9hXYU   ",
"     U$#u$)     ",
"                ",
"                "};
