/* XPM */
static char * mini_grip2_xpm[] = {
"16 16 137 2",
"  	c None",
". 	c #BD4151",
"+ 	c #DE7281",
"@ 	c #B9394A",
"# 	c #CF5666",
"$ 	c #D24D5F",
"% 	c #D14B5C",
"& 	c #D25868",
"* 	c #B33545",
"= 	c #D96C7B",
"- 	c #A31728",
"; 	c #CA5464",
"> 	c #CC5363",
", 	c #D35A6B",
"' 	c #CD5666",
") 	c #B0293A",
"! 	c #E96C7D",
"~ 	c #DE7482",
"{ 	c #C74E5F",
"] 	c #C5495A",
"^ 	c #D86373",
"/ 	c #AC3242",
"( 	c #CE6876",
"_ 	c #E95C70",
": 	c #C45261",
"< 	c #D25667",
"[ 	c #CD5263",
"} 	c #B53949",
"| 	c #EA7787",
"1 	c #EE7A8A",
"2 	c #941021",
"3 	c #CF5C6B",
"4 	c #C24858",
"5 	c #D25364",
"6 	c #B43747",
"7 	c #CA5564",
"8 	c #C75261",
"9 	c #CF6573",
"0 	c #D46D7C",
"a 	c #E87182",
"b 	c #E06A7A",
"c 	c #BF505F",
"d 	c #C03D4F",
"e 	c #C24959",
"f 	c #CB5061",
"g 	c #E77D8C",
"h 	c #9A1526",
"i 	c #940F20",
"j 	c #DF4C5F",
"k 	c #EA6879",
"l 	c #ED7384",
"m 	c #DA6676",
"n 	c #D16574",
"o 	c #AD2133",
"p 	c #CB4C5D",
"q 	c #B63748",
"r 	c #CE5868",
"s 	c #D86D7C",
"t 	c #C75B6A",
"u 	c #B22B3C",
"v 	c #8C0B1A",
"w 	c #D54C5E",
"x 	c #CF6272",
"y 	c #CB4F60",
"z 	c #B73C4C",
"A 	c #B45E7E",
"B 	c #D04B5D",
"C 	c #BD3A4C",
"D 	c #BD495B",
"E 	c #A44C65",
"F 	c #925F89",
"G 	c #3A8FD5",
"H 	c #CE5064",
"I 	c #936D9A",
"J 	c #6F9DCA",
"K 	c #659DCD",
"L 	c #5291C5",
"M 	c #105697",
"N 	c #5F93C5",
"O 	c #3276B6",
"P 	c #3C8ACB",
"Q 	c #155997",
"R 	c #5893C6",
"S 	c #6BA3D2",
"T 	c #7895C3",
"U 	c #845A85",
"V 	c #88ADD7",
"W 	c #5A7EBA",
"X 	c #275B95",
"Y 	c #A8D2F5",
"Z 	c #1973C2",
"` 	c #9ECAF0",
" .	c #12599C",
"..	c #85C0F1",
"+.	c #2878C1",
"@.	c #96C2E9",
"#.	c #36548E",
"$.	c #84A8DD",
"%.	c #6795C1",
"&.	c #90BEE7",
"*.	c #787BB7",
"=.	c #564879",
"-.	c #92C0EA",
";.	c #1B74C5",
">.	c #7FB3DF",
",.	c #0B3E70",
"'.	c #2A79C2",
").	c #7BA5D5",
"!.	c #8C6A98",
"~.	c #5F76B2",
"{.	c #7EACD5",
"].	c #4C87BB",
"^.	c #94BEE9",
"/.	c #86B6EA",
"(.	c #B5DAF9",
"_.	c #2D72C0",
":.	c #74AADA",
"<.	c #2E3866",
"[.	c #75B8EE",
"}.	c #457EC6",
"|.	c #AAD3F8",
"1.	c #81ACDF",
"2.	c #98C5ED",
"3.	c #3D7DB4",
"4.	c #2B78B8",
"5.	c #398DD5",
"6.	c #2A83D2",
"7.	c #90C2EE",
"8.	c #625C94",
"9.	c #866491",
"0.	c #B46181",
"a.	c #745D8F",
"b.	c #5879B6",
"c.	c #70A5D6",
"d.	c #1B5D9B",
"e.	c #679DCC",
"f.	c #6EA2D0",
"                    . + @       ",
"          # $ % & * = - ; >     ",
"      , '       ) ! ~     { ]   ",
"    ^ /         ( _ :       <   ",
"  [ }           | 1 2       3 4 ",
"  5           6 7 8 9 0 a b c   ",
"d e         f g h i j k l m     ",
"n o       p q   r s t u v w     ",
"x         y z   A         B     ",
"C D         E F G         H     ",
"  I J K L M N O P Q R S T U     ",
"  V W X Y Z `  ...+.@.#.$.%.    ",
"  &.*.=.-.;.>.,...'.).!.~.{.    ",
"  ].^./.(._.:.<.[.}.|.1.2.3.    ",
"  4.5.6.7.8.9.0.a.b.c.d.        ",
"    e.f.                        "};
