/* XPM */
static char * groups_xpm[] = {
"16 16 158 2",
"  	c None",
". 	c #262727",
"+ 	c #3F3D3A",
"@ 	c #4B4640",
"# 	c #000000",
"$ 	c #1F1F1F",
"% 	c #4C4C4C",
"& 	c #574D3E",
"* 	c #A29179",
"= 	c #362D21",
"- 	c #0C0906",
"; 	c #A09076",
"> 	c #403930",
", 	c #040302",
"' 	c #706C65",
") 	c #1A1713",
"! 	c #010101",
"~ 	c #937A60",
"{ 	c #6F5A45",
"] 	c #3E3022",
"^ 	c #4C4031",
"/ 	c #B19F85",
"( 	c #86755C",
"_ 	c #2B2219",
": 	c #988A76",
"< 	c #655746",
"[ 	c #1B1611",
"} 	c #8678A1",
"| 	c #655166",
"1 	c #6E6085",
"2 	c #A192AA",
"3 	c #917C5E",
"4 	c #6B573F",
"5 	c #474139",
"6 	c #9F6D4F",
"7 	c #4B2A1B",
"8 	c #47281C",
"9 	c #81769D",
"0 	c #655B81",
"a 	c #8273A4",
"b 	c #9B90B7",
"c 	c #D3CFDD",
"d 	c #DDC8A9",
"e 	c #B69F80",
"f 	c #D2D2D2",
"g 	c #BEBEBE",
"h 	c #B55B4F",
"i 	c #C85640",
"j 	c #8A3223",
"k 	c #AA4437",
"l 	c #8E4238",
"m 	c #5E5675",
"n 	c #584F70",
"o 	c #9085B0",
"p 	c #E5E3E7",
"q 	c #E8E8E9",
"r 	c #FEFEFE",
"s 	c #FEFEFD",
"t 	c #E5E4E4",
"u 	c #E0D3D2",
"v 	c #A67F7A",
"w 	c #C15244",
"x 	c #CD5243",
"y 	c #983F34",
"z 	c #874039",
"A 	c #612E28",
"B 	c #6F638E",
"C 	c #AFA8C0",
"D 	c #C3C1C4",
"E 	c #C9C8CB",
"F 	c #D4D3D3",
"G 	c #B1847F",
"H 	c #D6C1BE",
"I 	c #C35E51",
"J 	c #C85041",
"K 	c #80342C",
"L 	c #753A34",
"M 	c #3F1D1A",
"N 	c #938B8F",
"O 	c #A7A3A1",
"P 	c #DCDBDB",
"Q 	c #C7C5C2",
"R 	c #F7F6F4",
"S 	c #F4F3F1",
"T 	c #B3B1AC",
"U 	c #9F9D9B",
"V 	c #897571",
"W 	c #AA5E52",
"X 	c #AB5A4D",
"Y 	c #793A30",
"Z 	c #3D1C19",
"` 	c #080404",
" .	c #BDB9AF",
"..	c #69655D",
"+.	c #DEDCD7",
"@.	c #E6E5E2",
"#.	c #E8E6E2",
"$.	c #DFDCD5",
"%.	c #ACA89E",
"&.	c #757472",
"*.	c #4A433F",
"=.	c #AE9C92",
"-.	c #B19E94",
";.	c #746359",
">.	c #110D0C",
",.	c #9B9892",
"'.	c #46433E",
").	c #89857D",
"!.	c #918C82",
"~.	c #C7C3BB",
"{.	c #C6C2BA",
"].	c #7B7668",
"^.	c #272520",
"/.	c #42413F",
"(.	c #A6A298",
"_.	c #736F69",
":.	c #726E65",
"<.	c #30302F",
"[.	c #100E0D",
"}.	c #333230",
"|.	c #7B7873",
"1.	c #98958B",
"2.	c #97928B",
"3.	c #767166",
"4.	c #151412",
"5.	c #969187",
"6.	c #5B5953",
"7.	c #6E6B61",
"8.	c #040403",
"9.	c #86837C",
"0.	c #7C786F",
"a.	c #74716B",
"b.	c #787369",
"c.	c #191715",
"d.	c #525252",
"e.	c #0B0B0B",
"f.	c #0E0D0D",
"g.	c #212120",
"h.	c #171616",
"i.	c #65625E",
"j.	c #3F3D37",
"k.	c #3A3935",
"l.	c #413E39",
"m.	c #0F0F0D",
"n.	c #1A1A1A",
"o.	c #030303",
"p.	c #2A2A29",
"q.	c #0E0E0D",
"r.	c #464544",
"s.	c #2F2F2F",
"t.	c #040303",
"u.	c #141413",
"v.	c #2D2D2C",
"w.	c #272625",
"x.	c #20201F",
"y.	c #080807",
"z.	c #252524",
"A.	c #070606",
"      .                         ",
"    + @ # $ % # #               ",
"    & * = - ; > , #   ' ) !     ",
"    ~ { ] ^ / ( _ #   : < [     ",
"    } | 1 2 3 4 5     6 7 8     ",
"  9 0 a b c d e f g h i j k l   ",
"  m n o p q r s t u v w x y z A ",
"    B C D E r r F G H I J K L M ",
"    N O P Q R S T U V W X Y Z ` ",
"     ...+.@.#.$.%.&.*.=.-.;.>.  ",
"    ,.'.).!.~.{.].^./.(._.:.    ",
"    <.[.}.|.1.2.3.4.  5.6.7.    ",
"    8.    9.0.a.b.c.d.e.f.g.h.  ",
"          i.j.k.l.m.n.o.  p.q.  ",
"        r.s.t.u.v.w.            ",
"        x.y.!     z.A.          "};
