/* XPM */
static char * mini_gthumb_xpm[] = {
"16 16 59 1",
" 	c None",
".	c #B9B9B9",
"+	c #333333",
"@	c #9A9A9A",
"#	c #FFFFFF",
"$	c #C8C8C8",
"%	c #7B7B7B",
"&	c #3D3B26",
"*	c #413D25",
"=	c #807C60",
"-	c #645D47",
";	c #747565",
">	c #8C8C8C",
",	c #222216",
"'	c #766D57",
")	c #856F58",
"!	c #ABA9A2",
"~	c #97873D",
"{	c #B29A4E",
"]	c #B99B4B",
"^	c #CFBD77",
"/	c #C9CBCC",
"(	c #9CA1A5",
"_	c #B0B3B6",
":	c #5E6D3D",
"<	c #8D955E",
"[	c #929759",
"}	c #AEB07B",
"|	c #B4B3B3",
"1	c #95928F",
"2	c #000000",
"3	c #818A93",
"4	c #B2B3B2",
"5	c #898D95",
"6	c #9DA0A8",
"7	c #F5F4F4",
"8	c #F7F8FA",
"9	c #DBE1E9",
"0	c #B0B0B0",
"a	c #8993A3",
"b	c #F3F2F3",
"c	c #FEFDFD",
"d	c #F8F6F5",
"e	c #E4E3E4",
"f	c #8D939E",
"g	c #F9F9F9",
"h	c #EEEFF0",
"i	c #CBD4DC",
"j	c #6F90A5",
"k	c #35586C",
"l	c #859BAB",
"m	c #91A3B0",
"n	c #7E909C",
"o	c #9EA6AC",
"p	c #D3D4D5",
"q	c #3E4549",
"r	c #DDDDDE",
"s	c #F5F5F5",
"t	c #6A6A6A",
"      .++++++++@",
"      +########+",
"      +$%%%%%%$+",
"      +++&*=-;%+",
"    >++$$+,')!%+",
" >++$####+~{]^%+",
">$####/(_+:<[}%+",
"+##|122234+%%%$+",
">$56278920+####+",
" +a2bcdef2+++++%",
" +#2ghijk2$>    ",
" >$2lmnop2#+    ",
"  +q2rss2+$>    ",
"  +#t222+2+     ",
"  >$#++> +2+    ",
"   +>     +2+   "};
