/* XPM */
static char * mini_heart_xpm[] = {
"16 16 3 1",
" 	c None",
".	c #FF8080",
"+	c #FF0000",
"                ",
"                ",
" .++.     .++.  ",
".+++++   +++++. ",
"+++++++ +++++++ ",
"+++++++++++++++ ",
".+++++++++++++. ",
" +++++++++++++  ",
"  +++++++++++   ",
"   +++++++++    ",
"    +++++++     ",
"     +++++      ",
"      +++       ",
"      .+.       ",
"       +        ",
"                "};
