/* XPM */
static char * mini_ie_xpm[] = {
"16 16 168 2",
"  	c None",
". 	c #9CB9E3",
"+ 	c #5390D8",
"@ 	c #4896D8",
"# 	c #89BCE9",
"$ 	c #A3C7EE",
"% 	c #88B1E9",
"& 	c #2C72E2",
"* 	c #92B5ED",
"= 	c #80B4E3",
"- 	c #82A7DE",
"; 	c #1E70C3",
"> 	c #1F66EB",
", 	c #3668FB",
"' 	c #336DF8",
") 	c #2C7EED",
"! 	c #1A94E0",
"~ 	c #1390EB",
"{ 	c #9CCBF3",
"] 	c #55AAEE",
"^ 	c #506CBD",
"/ 	c #0F5CC3",
"( 	c #2D70DC",
"_ 	c #839ED4",
": 	c #517CD5",
"< 	c #2C83E8",
"[ 	c #168FF4",
"} 	c #00A5FF",
"| 	c #0EB6FF",
"1 	c #03A2FA",
"2 	c #49A7EF",
"3 	c #7FB6EA",
"4 	c #4346B2",
"5 	c #1755B1",
"6 	c #508ABC",
"7 	c #BEC5B4",
"8 	c #5283E0",
"9 	c #3170F2",
"0 	c #2474F6",
"a 	c #0F96EC",
"b 	c #0FB1FF",
"c 	c #34CFFF",
"d 	c #30CDFF",
"e 	c #0BADFF",
"f 	c #5CA9E8",
"g 	c #8686CF",
"h 	c #1326A6",
"i 	c #859896",
"j 	c #D8D39D",
"k 	c #4C7DDD",
"l 	c #296FE4",
"m 	c #75A5DC",
"n 	c #6D93D6",
"o 	c #1391E6",
"p 	c #40DBFF",
"q 	c #6EFFFF",
"r 	c #44D7FF",
"s 	c #0092F0",
"t 	c #272798",
"u 	c #7A787A",
"v 	c #D1C38E",
"w 	c #5376E6",
"x 	c #3366FC",
"y 	c #4F89E2",
"z 	c #3E67C3",
"A 	c #2AC7FF",
"B 	c #6BFAFF",
"C 	c #6FF6FF",
"D 	c #00AAFF",
"E 	c #A8CAEC",
"F 	c #49496F",
"G 	c #A89C6F",
"H 	c #617AC5",
"I 	c #3066FC",
"J 	c #3366FF",
"K 	c #316FF1",
"L 	c #4882EE",
"M 	c #488AE6",
"N 	c #3F96E3",
"O 	c #1282E2",
"P 	c #00A2FF",
"Q 	c #2BCAFF",
"R 	c #2BD0FF",
"S 	c #0BB0FF",
"T 	c #61ADEB",
"U 	c #717142",
"V 	c #767F89",
"W 	c #0B66D4",
"X 	c #336EF7",
"Y 	c #2B88E6",
"Z 	c #1499EB",
"` 	c #0099FF",
" .	c #009CFF",
"..	c #00A7FF",
"+.	c #979794",
"@.	c #65685D",
"#.	c #3566F8",
"$.	c #175DCF",
"%.	c #0B60B0",
"&.	c #4970E5",
"*.	c #8F96DE",
"=.	c #8F98DB",
"-.	c #8C9DD9",
";.	c #879DDE",
">.	c #AFBBE6",
",.	c #5F5F5F",
"'.	c #4166B5",
").	c #1F62D8",
"!.	c #243B9F",
"~.	c #0F66A4",
"{.	c #1E66EA",
"].	c #3B77E8",
"^.	c #396CC9",
"/.	c #4391F0",
"(.	c #3D95F2",
"_.	c #3988F0",
":.	c #B4D2E1",
"<.	c #55554B",
"[.	c #3566FA",
"}.	c #0D429B",
"|.	c #0D1C91",
"1.	c #265796",
"2.	c #0B66C5",
"3.	c #2D66F9",
"4.	c #417FDC",
"5.	c #6DA8D1",
"6.	c #4C91C6",
"7.	c #1E5BD4",
"8.	c #2A68F3",
"9.	c #316FF8",
"0.	c #2C76F6",
"a.	c #1D70CB",
"b.	c #455582",
"c.	c #4A728D",
"d.	c #051B79",
"e.	c #2337A0",
"f.	c #1B5CA5",
"g.	c #0866CA",
"h.	c #2A66F6",
"i.	c #2F66FB",
"j.	c #3266FE",
"k.	c #2466EC",
"l.	c #9CC3DE",
"m.	c #6374A7",
"n.	c #2366DF",
"o.	c #A3A9B3",
"p.	c #19306F",
"q.	c #18308F",
"r.	c #164CA5",
"s.	c #1161AC",
"t.	c #0E66C1",
"u.	c #2966F5",
"v.	c #2C65DA",
"w.	c #A8B9EB",
"x.	c #97A8B5",
"y.	c #2761C7",
"z.	c #415370",
"A.	c #061854",
"B.	c #0C357B",
"C.	c #17319E",
"D.	c #2046BB",
"E.	c #4B6FBC",
"F.	c #8695D7",
"G.	c #708DBB",
"H.	c #355DAB",
"I.	c #5E8AAC",
"J.	c #5864BC",
"K.	c #9798DC",
"                      . + @ #   ",
"              $ $ % & *       = ",
"        - ; > , ' ) ! ~ {     ] ",
"      ^ / ( _ : < [ } | 1 2   3 ",
"    4 5 6 7 8 9 0 a b c d e f   ",
"  g h i j k l m   n o p q r s   ",
"  t u v w x y       z A B C D E ",
"  F G H I J K L M N O P Q R S T ",
"  U V I W J J J X Y Z `  ... .] ",
"+.@.#.$.%.I &.*.*.=.-.;.;.;.;.>.",
",.'.).!.~.{.].        ^./.(._.:.",
"<.[.}.|.1.2.3.4.5.6.7.8.9.0.a.  ",
"b.J c.d.e.f.g.h.i.i.j.J J k.l.  ",
"m.n.  o.p.q.r.s.t.> u.u.v.w.    ",
"x.y.      z.A.B.C.D.E.F.        ",
"  G.H.I.J.K.                    "};
