/* XPM */
static char * mini_inkscape_xpm[] = {
"16 16 13 1",
" 	c None",
".	c #606060",
"+	c #FFFFFF",
"@	c #DCDCDC",
"#	c #B5B5B5",
"$	c #000000",
"%	c #E8E8E8",
"&	c #8B8B8B",
"*	c #7D7D7D",
"=	c #0B0B0B",
"-	c #2F2F2F",
";	c #090909",
">	c #020202",
"       ..       ",
"      .++.      ",
"     .++++.     ",
"    .+@+++#.    ",
"   $#%$&.*=-$   ",
"  $$=;>-$$$$$$  ",
" $$$$$$$$$$$$$$ ",
"$$$$$$$$$$$$$$$$",
"-$$$$$$$$$$$$$$-",
"  -$=-$$$$$$$-  ",
"    $.*-$$$.    ",
"   -$$==$$$$    ",
"     .$$$$$- -$ ",
"   $.$$$$$- $   ",
"      -$$.      ",
"       -$-      "};
