/* XPM */
static char * mini_java_xpm[] = {
"16 16 150 2",
"  	c None",
". 	c #EF949D",
"+ 	c #F2A5AD",
"@ 	c #F6C1C8",
"# 	c #EF98A0",
"$ 	c #F2B3BB",
"% 	c #F0A6AD",
"& 	c #F3AEB6",
"* 	c #EE9DA4",
"= 	c #F2ABB4",
"- 	c #ED8F98",
"; 	c #E45F67",
"> 	c #EC8B94",
", 	c #F2A5AC",
"' 	c #EB7C85",
") 	c #EA8087",
"! 	c #F5BBC2",
"~ 	c #EE9BA3",
"{ 	c #EE9199",
"] 	c #E86C74",
"^ 	c #E66169",
"/ 	c #F2A5AE",
"( 	c #F3ACB4",
"_ 	c #EA838B",
": 	c #E6636C",
"< 	c #F1A0A9",
"[ 	c #EC9198",
"} 	c #EF969F",
"| 	c #DF3C44",
"1 	c #E66069",
"2 	c #EE8F99",
"3 	c #EC8992",
"4 	c #ED8D97",
"5 	c #F09BA4",
"6 	c #EA7D85",
"7 	c #E55B64",
"8 	c #EC838C",
"9 	c #EC848B",
"0 	c #EE8E97",
"a 	c #ED9098",
"b 	c #F1A8AE",
"c 	c #EE959E",
"d 	c #EFA1A7",
"e 	c #E24E57",
"f 	c #E76B73",
"g 	c #EC8D95",
"h 	c #EF9BA4",
"i 	c #DCC5DD",
"j 	c #DD4853",
"k 	c #DE7D90",
"l 	c #F098A1",
"m 	c #B6A7DA",
"n 	c #A19BDB",
"o 	c #857BD0",
"p 	c #9188D7",
"q 	c #BDB8E6",
"r 	c #C6B8E0",
"s 	c #D47690",
"t 	c #C5A6D1",
"u 	c #C6A4CE",
"v 	c #C6A2C9",
"w 	c #917ECE",
"x 	c #766CCB",
"y 	c #7368CA",
"z 	c #6E63C7",
"A 	c #6256C2",
"B 	c #928AD5",
"C 	c #928AD6",
"D 	c #6F63CA",
"E 	c #9A92DA",
"F 	c #9868AE",
"G 	c #8F87D4",
"H 	c #9F71B0",
"I 	c #9285D0",
"J 	c #9F62A0",
"K 	c #9E92D8",
"L 	c #A39BDD",
"M 	c #8980D4",
"N 	c #9B93DA",
"O 	c #968DD8",
"P 	c #988ED8",
"Q 	c #8F86D4",
"R 	c #AE85BC",
"S 	c #DEBAD1",
"T 	c #E692A0",
"U 	c #F0A5AB",
"V 	c #DB98AE",
"W 	c #B5AFE4",
"X 	c #9C93DA",
"Y 	c #A79FDE",
"Z 	c #B2ACE3",
"` 	c #AAA2DF",
" .	c #8A81D3",
"..	c #7C72CD",
"+.	c #A29BDC",
"@.	c #9588D4",
"#.	c #998CD5",
"$.	c #AEA1DD",
"%.	c #B1A9E3",
"&.	c #C5BFE9",
"*.	c #C0BAE6",
"=.	c #A9A3DF",
"-.	c #A39DDC",
";.	c #9D95DA",
">.	c #7A6FCD",
",.	c #A59EDD",
"'.	c #ABA4DE",
").	c #BBB6E6",
"!.	c #B4AEE3",
"~.	c #A9A0DF",
"{.	c #BAB4E6",
"].	c #A29ADD",
"^.	c #A8A1DE",
"/.	c #6B5FC7",
"(.	c #594DBE",
"_.	c #6155C3",
":.	c #665AC6",
"<.	c #7065C8",
"[.	c #ACA5E0",
"}.	c #A098DC",
"|.	c #8077D0",
"1.	c #B1ABE2",
"2.	c #9C94D9",
"3.	c #857BCF",
"4.	c #8D84D3",
"5.	c #A59CDE",
"6.	c #877DD1",
"7.	c #8F85D5",
"8.	c #675CC4",
"9.	c #6F64C8",
"0.	c #766CCA",
"a.	c #7C72CC",
"b.	c #8178CE",
"c.	c #8076CD",
"d.	c #796FCB",
"e.	c #7B71CC",
"f.	c #A9A1DF",
"g.	c #9C92DB",
"h.	c #BFB9E7",
"i.	c #BEB6E7",
"j.	c #867DD1",
"k.	c #9C94DA",
"l.	c #B3ADE2",
"m.	c #A8A0DE",
"n.	c #9A92D9",
"o.	c #9C95DA",
"p.	c #9189D6",
"q.	c #8B83D2",
"r.	c #6E63C8",
"s.	c #988DD9",
"  . +     @ # $       %         ",
"  & *     = - ; > , ' )         ",
"  ! ~     { ] ^ / ( _ :         ",
"  <   [ } | 1 2 3 4 /           ",
"    5   6 7 8 9 0     a         ",
"    b c d e f g h     (         ",
"        i   j k l       m n     ",
"    o p q r s t u v w x y z A B ",
"    C D E F G H I J K L   M N O ",
"      P Q R S T U V W   X Y Z ` ",
"       ...+.@.#.$.%.&.  *.=.-.  ",
"      ;.>.,.'.).!.~.{.  ].^.    ",
"        /.(.(._.:.<.[.          ",
"}.|.1.    2.3.3.4.,.      5.    ",
"6.7.8.9.0.a.b.c.c.d.0.e.f.g.h.i.",
"      j.k.l.m.n.o.p.q.r.s.      "};
