/* XPM */
static char * kchart_xpm[] = {
"16 16 142 2",
"  	c None",
". 	c #545452",
"+ 	c #392E20",
"@ 	c #545453",
"# 	c #BCB8A5",
"$ 	c #FBF4D7",
"% 	c #8F7C5B",
"& 	c #555554",
"* 	c #BCB8A8",
"= 	c #FAEFC5",
"- 	c #FAEFC4",
"; 	c #FAF2D0",
"> 	c #E7DAB9",
", 	c #302310",
"' 	c #555555",
") 	c #BDB9A8",
"! 	c #F8EBB5",
"~ 	c #F8EAAE",
"{ 	c #B4AD93",
"] 	c #B2AD96",
"^ 	c #D3CCB0",
"/ 	c #FAF4D6",
"( 	c #907D5E",
"_ 	c #F8EAB2",
": 	c #F6E498",
"< 	c #D8CC98",
"[ 	c #82B582",
"} 	c #87FD87",
"| 	c #85FD85",
"1 	c #D6A370",
"2 	c #9E876A",
"3 	c #E3D4B4",
"4 	c #000000",
"5 	c #FAF0C8",
"6 	c #F6E49B",
"7 	c #84B084",
"8 	c #6CAA6C",
"9 	c #637C60",
"0 	c #AFBC7A",
"a 	c #FEBF80",
"b 	c #FEA851",
"c 	c #908E84",
"d 	c #2C261A",
"e 	c #554000",
"f 	c #7E7D77",
"g 	c #F7E6A1",
"h 	c #B7AF8C",
"i 	c #67A867",
"j 	c #BFB5AC",
"k 	c #FFE4CC",
"l 	c #645C53",
"m 	c #E3BB72",
"n 	c #FEEA51",
"o 	c #88881C",
"p 	c #FFBFBF",
"q 	c #DF7F00",
"r 	c #FAF1CC",
"s 	c #989172",
"t 	c #BFAC9C",
"u 	c #FFECDC",
"v 	c #B07E53",
"w 	c #7C7C37",
"x 	c #F4F440",
"y 	c #868615",
"z 	c #FD80FD",
"A 	c #BD007D",
"B 	c #3F3E38",
"C 	c #BFA48B",
"D 	c #FFD2A9",
"E 	c #BFAE9F",
"F 	c #80542C",
"G 	c #2F582F",
"H 	c #4EBF4E",
"I 	c #4F7319",
"J 	c #423202",
"K 	c #F480F4",
"L 	c #B50075",
"M 	c #808040",
"N 	c #BF7F00",
"O 	c #BF9B7B",
"P 	c #FFCB9B",
"Q 	c #BFA58D",
"R 	c #B07848",
"S 	c #245524",
"T 	c #48C048",
"U 	c #1D671D",
"V 	c #FFBF80",
"W 	c #EC80EC",
"X 	c #AC006C",
"Y 	c #FF8080",
"Z 	c #C03000",
"` 	c #BF936A",
" .	c #FFCA9A",
"..	c #BF9C7C",
"+.	c #B07642",
"@.	c #4C4A42",
"#.	c #246224",
"$.	c #217021",
"%.	c #0E390E",
"&.	c #FD7C7C",
"*.	c #C00000",
"=.	c #E17CDF",
"-.	c #A40064",
";.	c #553E2A",
">.	c #FFB878",
",.	c #BF956E",
"'.	c #64625A",
").	c #E5DFC6",
"!.	c #FCF6DD",
"~.	c #FCF7E2",
"{.	c #7E7C73",
"].	c #EB6C6C",
"^.	c #B60000",
"/.	c #D16CC7",
"(.	c #9B005B",
"_.	c #553F2B",
":.	c #B07038",
"<.	c #7F7E79",
"[.	c #FCF8E6",
"}.	c #FDF9EA",
"|.	c #D65C5C",
"1.	c #A90000",
"2.	c #C05CAE",
"3.	c #930053",
"4.	c #FDFAF0",
"5.	c #FDFAEE",
"6.	c #FEFCF3",
"7.	c #78756F",
"8.	c #C24C4C",
"9.	c #9C0000",
"0.	c #B04C96",
"a.	c #8A004A",
"b.	c #7C7A74",
"c.	c #D7C8B1",
"d.	c #867254",
"e.	c #2A0000",
"f.	c #522042",
"g.	c #620042",
"h.	c #AD3C3C",
"i.	c #900000",
"j.	c #2F220F",
"k.	c #430000",
"                . +             ",
"            @ # $ %             ",
"        & * = - ; > ,           ",
"    ' ) ! ~ { ] ^ / (           ",
"' ) _ : < [ } | 1 2 3 ,         ",
"4 5 : 6 7 8 9 0 a b c d e       ",
"  f g h i j k l m n o p q 4     ",
"  4 r s t u j v w x y z A 4     ",
"    B C D E F G H I J K L M N   ",
"    O P Q R S T U V q W X Y Z 4 ",
"  `  ...+.@.#.$.%.&.*.=.-.&.*.4 ",
";.>.,.F '.).!.~.{.].^./.(.].^.4 ",
"  _.:.  <.~.[.}.f |.1.2.3.|.1.4 ",
"        4 4.5.6.7.8.9.0.a.8.9.4 ",
"          b.c.d., 4 e.f.g.h.i.4 ",
"          4 j.          4 4 k.  "};
