/* XPM */
static char * mini_keyb_no_xpm[] = {
"16 16 5 1",
" 	c None",
".	c #E5E5E5",
"+	c #999999",
"@	c #000000",
"#	c #4C4C4C",
"      .......+  ",
"      .+++@++#  ",
"      .++++++#  ",
"      .+++@++#  ",
"      .++@+@+#  ",
"      .++@@@+#  ",
"      .++@+@+#  ",
"      +#######  ",
".......+.......+",
".++++++#.++++++#",
".++@@@+#.+++@@+#",
".+@+@@+#.++@@++#",
".+@++@+#.+@+@@+#",
".+@@+@+#.+@@@++#",
".+@@@++#.+@+@@+#",
"+#######+#######"};
