/* XPM */
static char * klipper_xpm[] = {
"16 16 134 2",
"  	c None",
". 	c #4F3110",
"+ 	c #4A3010",
"@ 	c #462E10",
"# 	c #848484",
"$ 	c #515151",
"% 	c #452E11",
"& 	c #442B10",
"* 	c #462C10",
"= 	c #442E13",
"- 	c #FFFFFF",
"; 	c #F2EFEB",
"> 	c #E9E0D8",
", 	c #F6F6F6",
"' 	c #EDEDED",
") 	c #E4E4E4",
"! 	c #303030",
"~ 	c #9A7852",
"{ 	c #8F6F41",
"] 	c #84612E",
"^ 	c #472E10",
"/ 	c #4C300E",
"( 	c #F6F2ED",
"_ 	c #895216",
": 	c #7E4D19",
"< 	c #A0A0A4",
"[ 	c #B2B2B2",
"} 	c #888888",
"| 	c #5F5F5F",
"1 	c #66451F",
"2 	c #64431D",
"3 	c #66431E",
"4 	c #3E2813",
"5 	c #472F10",
"6 	c #EDE6DD",
"7 	c #89561A",
"8 	c #7E5019",
"9 	c #80541C",
"0 	c #4E3210",
"a 	c #472F11",
"b 	c #E0D8CE",
"c 	c #70491B",
"d 	c #855B23",
"e 	c #7B5018",
"f 	c #4F3310",
"g 	c #462C0E",
"h 	c #D7CBBD",
"i 	c #764D19",
"j 	c #606060",
"k 	c #956B2F",
"l 	c #895915",
"m 	c #58390E",
"n 	c #55350D",
"o 	c #D5C3AB",
"p 	c #875A1A",
"q 	c #986D3A",
"r 	c #764C1A",
"s 	c #4D3211",
"t 	c #442C10",
"u 	c #C2B09C",
"v 	c #6F491C",
"w 	c #DFDFDF",
"x 	c #8A6B47",
"y 	c #654218",
"z 	c #402A12",
"A 	c #51320D",
"B 	c #C4A989",
"C 	c #895416",
"D 	c #9D7A51",
"E 	c #724715",
"F 	c #4C3110",
"G 	c #5E3A0B",
"H 	c #C5A378",
"I 	c #9C5D13",
"J 	c #FEFEFE",
"K 	c #AD855A",
"L 	c #784912",
"M 	c #50340F",
"N 	c #5E380B",
"O 	c #BF9667",
"P 	c #AA8D6A",
"Q 	c #6A4616",
"R 	c #503411",
"S 	c #AE8E5C",
"T 	c #895F1C",
"U 	c #A58F76",
"V 	c #553919",
"W 	c #3A2611",
"X 	c #432F12",
"Y 	c #8E744E",
"Z 	c #764B1D",
"` 	c #BEA07D",
" .	c #704212",
"..	c #4F310E",
"+.	c #593E10",
"@.	c #A97936",
"#.	c #A66511",
"$.	c #AB6C12",
"%.	c #AD721F",
"&.	c #B2782D",
"*.	c #B8823C",
"=.	c #B98D4E",
"-.	c #BF995E",
";.	c #BC9B6B",
">.	c #B79E7B",
",.	c #B8A38A",
"'.	c #593A15",
").	c #3E2910",
"!.	c #57370D",
"~.	c #976525",
"{.	c #925F15",
"].	c #8F5E17",
"^.	c #845517",
"/.	c #7D4F14",
"(.	c #734A15",
"_.	c #744814",
":.	c #764613",
"<.	c #764612",
"[.	c #6F4416",
"}.	c #724613",
"|.	c #704210",
"1.	c #53330D",
"2.	c #4A3311",
"3.	c #492F10",
"4.	c #4D2D0E",
"5.	c #4F3210",
"6.	c #533710",
"7.	c #543810",
"8.	c #503410",
"9.	c #4B3211",
"0.	c #4B3112",
"a.	c #50330D",
"b.	c #4D320F",
"c.	c #442C11",
"    . + @ # $ $ $ $ $ % & *     ",
"  = - ; > $ - , ' ) ! ~ { ] ^   ",
"  / ( _ : $ < [ } | ! 1 2 3 4   ",
"  5 6 7 - - ! ! ! ! - - 8 9 0   ",
"  a b c - - - - - - - - d e f   ",
"  g h i - j j j j j j - k l m   ",
"  n o p - - - - - - - - q r s   ",
"  t u v - j j j j j w - x y z   ",
"  A B C - - - - - - - - D E F   ",
"  G H I - - j J j - - - K L M   ",
"  N O I - - j j - - - - P Q @   ",
"  R S T - - j - j - - - U V W   ",
"  X Y Z - - - - - - - - `  ...  ",
"  +.@.#.$.%.&.*.=.-.;.>.,.'.).  ",
"  !.~.{.].^./.(._.:.<.[.}.|.1.  ",
"    2.3.4.5.6.7.8.9.0.a.b.c.    "};
