/* XPM */
static char * kmail_xpm[] = {
"16 16 76 1",
" 	c None",
".	c #1E1E1F",
"+	c #000000",
"@	c #7F7E7D",
"#	c #7F7972",
"$	c #7F7466",
"%	c #554B3E",
"&	c #5D5D5E",
"*	c #CFCFCE",
"=	c #707070",
"-	c #FEF0E2",
";	c #FEF2E1",
">	c #FEE4C0",
",	c #FEDAAA",
"'	c #554837",
")	c #404040",
"!	c #A8A8AA",
"~	c #DEDEDE",
"{	c #FFFFFF",
"]	c #EFEFEF",
"^	c #BFB2A6",
"/	c #FEE6C4",
"(	c #FED7A4",
"_	c #ACACAC",
":	c #D5D5D5",
"<	c #5C5C5C",
"[	c #BFA38A",
"}	c #FEE1BB",
"|	c #F7F7F7",
"1	c #9C9C9C",
"2	c #C6C6C6",
"3	c #705F50",
"4	c #FEBA7C",
"5	c #FEC590",
"6	c #FEEBD2",
"7	c #555555",
"8	c #B5B5B4",
"9	c #C2B0B0",
"0	c #925732",
"a	c #A02A16",
"b	c #FEA85A",
"c	c #FEC07C",
"d	c #FE9E44",
"e	c #FE9634",
"f	c #7F4814",
"g	c #433030",
"h	c #D27E44",
"i	c #DF772A",
"j	c #BF4A16",
"k	c #FEBD76",
"l	c #FE9839",
"m	c #FE9028",
"n	c #7F450E",
"o	c #B0B0B0",
"p	c #460101",
"q	c #FEB56E",
"r	c #FF972A",
"s	c #C04000",
"t	c #602000",
"u	c #818182",
"v	c #E0E0E0",
"w	c #303030",
"x	c #B2542E",
"y	c #FEAD56",
"z	c #554938",
"A	c #3F3F3F",
"B	c #CBCBCA",
"C	c #ACACAB",
"D	c #C5C5C4",
"E	c #EFEFEE",
"F	c #DE7E44",
"G	c #A5A5A5",
"H	c #EAEAEA",
"I	c #A2A2A3",
"J	c #BE7E44",
"K	c #909090",
"    .+  @#$%    ",
"    &*=+-;>,'   ",
"   )!~{]=^/(('  ",
"   _!~{{:<[}((' ",
"  )|!~{123456667",
"  _|!81]90abcdef",
" )||!*{{ghijklmn",
" _||!~{opbqrsst ",
".!!!uv{wxbbqyyyz",
"ABBCDEo+Fbabcdef",
" GHIv{)+bbijklmn",
" )HIvo  Jbqrsst ",
"  GIv)   Jbqyyyz",
"  )IK     Jbcdef",
"   &)      Jklmn",
"   .        +++ "};
