/* XPM */
static char * kpresenter_xpm[] = {
"16 16 143 2",
"  	c None",
". 	c #765676",
"+ 	c #A950A9",
"@ 	c #452B45",
"# 	c #000000",
"$ 	c #664066",
"% 	c #520252",
"& 	c #4C154C",
"* 	c #2E1D2E",
"= 	c #336060",
"- 	c #F4F4C1",
"; 	c #F2F293",
"> 	c #F4F492",
", 	c #B6B676",
"' 	c #79795C",
") 	c #6C7B7B",
"! 	c #A23838",
"~ 	c #34C0C0",
"{ 	c #03A4A4",
"] 	c #003232",
"^ 	c #D2D2A0",
"/ 	c #242404",
"( 	c #AFAF6C",
"_ 	c #6D6D00",
": 	c #6E7E7E",
"< 	c #62B4B4",
"[ 	c #52E3E3",
"} 	c #12CFCF",
"| 	c #806262",
"1 	c #00B0AE",
"2 	c #007E7E",
"3 	c #005A5A",
"4 	c #8B8B57",
"5 	c #525555",
"6 	c #8DBCBC",
"7 	c #62F8F8",
"8 	c #10F1F1",
"9 	c #00E7E7",
"0 	c #00D8D6",
"a 	c #409B9B",
"b 	c #FFBF40",
"c 	c #BF6420",
"d 	c #008080",
"e 	c #008686",
"f 	c #585839",
"g 	c #252505",
"h 	c #532753",
"i 	c #7D7F7F",
"j 	c #8EF2F2",
"k 	c #0BEFEF",
"l 	c #00F7F7",
"m 	c #00C7E0",
"n 	c #50938C",
"o 	c #806414",
"p 	c #BF6B0C",
"q 	c #FFFFBF",
"r 	c #804034",
"s 	c #804F4F",
"t 	c #002F2F",
"u 	c #262603",
"v 	c #545555",
"w 	c #40E7E7",
"x 	c #00E8E8",
"y 	c #00C3DD",
"z 	c #DFF485",
"A 	c #40AD56",
"B 	c #80B24B",
"C 	c #808040",
"D 	c #BF7400",
"E 	c #809A0E",
"F 	c #008155",
"G 	c #007575",
"H 	c #005252",
"I 	c #121200",
"J 	c #62E7E7",
"K 	c #00CEDA",
"L 	c #80CCE6",
"M 	c #80BB37",
"N 	c #008C0A",
"O 	c #A8A8A8",
"P 	c #283F30",
"Q 	c #FF8000",
"R 	c #79C836",
"S 	c #009210",
"T 	c #007271",
"U 	c #007676",
"V 	c #276F6F",
"W 	c #02C4D0",
"X 	c #80DF57",
"Y 	c #007C0C",
"Z 	c #000080",
"` 	c #485C2E",
" .	c #00B215",
"..	c #A09C10",
"+.	c #0D8530",
"@.	c #80D70A",
"#.	c #007054",
"$.	c #002B2B",
"%.	c #3F5050",
"&.	c #22CFCF",
"*.	c #208A70",
"=.	c #404000",
"-.	c #007E12",
";.	c #80EE08",
">.	c #60A614",
",.	c #00AC10",
"'.	c #60D20C",
").	c #003220",
"!.	c #006464",
"~.	c #004848",
"{.	c #63A8A8",
"].	c #004000",
"^.	c #60A514",
"/.	c #00B00E",
"(.	c #60C609",
"_.	c #004718",
":.	c #406626",
"<.	c #004440",
"[.	c #008A8A",
"}.	c #005858",
"|.	c #002C2C",
"1.	c #80CC66",
"2.	c #004708",
"3.	c #40692A",
"4.	c #005151",
"5.	c #009793",
"6.	c #008D8D",
"7.	c #007171",
"8.	c #003333",
"9.	c #0D2316",
"0.	c #101000",
"a.	c #3ABABA",
"b.	c #005050",
"c.	c #009F9F",
"d.	c #009292",
"e.	c #007C7C",
"f.	c #003939",
"g.	c #002020",
"h.	c #7E7E7E",
"i.	c #353535",
"j.	c #76B6B6",
"k.	c #001E1E",
"l.	c #1D1D1D",
"                                ",
"          . + @                 ",
"      # # $ % & * # # = # #     ",
"    # - ; > , ' ) ! ~ { ] ^ /   ",
"    # ( _ : < [ } | 1 2 3 4 /   ",
"    5 6 7 8 9 0 a b c d e f g h ",
"  i j k l m n o p q b r s t u # ",
"  v w x y z A B C D E F G H I   ",
"  # J K L M N O P Q R S T U #   ",
"    V W X Y Z `  ...+.@.#.e $.  ",
"    %.&.*.Z =.-.;.>.,.'.).!.~.  ",
"    # {.Z ].^./.(._.:.<.[.U }.# ",
"      Z |.1.2.3.4.5.6.7.8.9.0.  ",
"    O # a.b.c.d.e.f.g.# # #     ",
"  h.i.# j.U ] k.#               ",
"  l.    # #                     "};
