/* XPM */
static char * kspread_xpm[] = {
"16 16 130 2",
"  	c None",
". 	c #002D2D",
"+ 	c #002A2A",
"@ 	c #003939",
"# 	c #004E4E",
"$ 	c #008E8E",
"% 	c #006161",
"& 	c #004444",
"* 	c #006060",
"= 	c #00B1B1",
"- 	c #007A7A",
"; 	c #004949",
"> 	c #575757",
", 	c #3A3A3A",
"' 	c #005050",
") 	c #007171",
"! 	c #00D3D3",
"~ 	c #009393",
"{ 	c #005A5A",
"] 	c #585858",
"^ 	c #5A5A5A",
"/ 	c #B7B7B7",
"( 	c #8C8C8C",
"_ 	c #004D4D",
": 	c #00B5B5",
"< 	c #00EDED",
"[ 	c #00A9A9",
"} 	c #006969",
"| 	c #545454",
"1 	c #B8B8B8",
"2 	c #909090",
"3 	c #606060",
"4 	c #656565",
"5 	c #434343",
"6 	c #000000",
"7 	c #00E2E2",
"8 	c #007272",
"9 	c #006A6A",
"0 	c #295C5C",
"a 	c #ADADAD",
"b 	c #8A8A8A",
"c 	c #666666",
"d 	c #686868",
"e 	c #D3D3D3",
"f 	c #9F9F9F",
"g 	c #003434",
"h 	c #00D2D2",
"i 	c #00CACA",
"j 	c #003232",
"k 	c #565656",
"l 	c #444444",
"m 	c #626262",
"n 	c #A6A6A6",
"o 	c #6F6F6F",
"p 	c #717171",
"q 	c #4A4A4A",
"r 	c #009292",
"s 	c #969696",
"t 	c #FFE280",
"u 	c #FFDC80",
"v 	c #F0C670",
"w 	c #7B7646",
"x 	c #777777",
"y 	c #EBEBEB",
"z 	c #ABABAB",
"A 	c #EFC16A",
"B 	c #602C00",
"C 	c #4C2200",
"D 	c #8C4A00",
"E 	c #CC6E00",
"F 	c #663600",
"G 	c #204040",
"H 	c #7C7C7C",
"I 	c #737373",
"J 	c #808070",
"K 	c #BFB270",
"L 	c #E6A016",
"M 	c #808060",
"N 	c #004040",
"O 	c #00A7A7",
"P 	c #00CDCD",
"Q 	c #80A0A0",
"R 	c #2B2B2B",
"S 	c #331700",
"T 	c #CC9830",
"U 	c #FFC216",
"V 	c #CC8200",
"W 	c #CC7A00",
"X 	c #CC7200",
"Y 	c #562700",
"Z 	c #688888",
"` 	c #50AEAE",
" .	c #80EDED",
"..	c #A0A0A0",
"+.	c #808080",
"@.	c #404040",
"#.	c #555555",
"$.	c #FFDE70",
"%.	c #A67B46",
"&.	c #191919",
"*.	c #3C8C8C",
"=.	c #647676",
"-.	c #B0B0B0",
";.	c #404444",
">.	c #202F2F",
",.	c #CC9330",
"'.	c #FFB316",
").	c #CC7800",
"!.	c #CC7000",
"~.	c #964D00",
"{.	c #404030",
"].	c #003F3F",
"^.	c #287777",
"/.	c #808B8B",
"(.	c #404A4A",
"_.	c #001F1F",
":.	c #BC8A17",
"<.	c #E68800",
"[.	c #261100",
"}.	c #50491F",
"|.	c #BF9F60",
"1.	c #804000",
"2.	c #002020",
"3.	c #4B3F13",
"4.	c #D07600",
"5.	c #EE8200",
"6.	c #E28605",
"7.	c #F78E0E",
"8.	c #CC6200",
"9.	c #492500",
"                . +             ",
"            @ # $ %             ",
"        & * = - ; > ,           ",
"    ' ) ! ~ { ] ^ / (           ",
"_ : < [ } | ] 1 2 3 4 5         ",
"6 7 8 9 0 a b 3 c d e f         ",
"  g h i j k l m e n o p q       ",
"  6 r s t u v w m , x y z       ",
"    k A B C D E F 4 G H I       ",
"  J K L M M M 6 N O P Q R       ",
"S T U V W X Y Z `  ...+...@.#.  ",
"6 J $.%.M M &.N *.=.-.3 +.+.;.>.",
"S ,.'.).!.~.    {.].^./.(.G _.  ",
"  6 :.<.[.6 }.|.1.  6 g 2.6     ",
"    3.4.5.6.7.8.S               ",
"      6 9.C C 6                 "};
