/* XPM */
static char * kword_xpm[] = {
"16 16 159 2",
"  	c None",
". 	c #555555",
"+ 	c #4F4235",
"@ 	c #BFBFBF",
"# 	c #FFFFFF",
"$ 	c #B7A898",
"% 	c #FEFEFE",
"& 	c #FEFEFB",
"* 	c #FDFAF3",
"= 	c #4B3722",
"- 	c #FEFEFC",
"; 	c #D3D2D0",
"> 	c #C4C3BE",
", 	c #FEFBF2",
"' 	c #FDFAEE",
") 	c #FDF9EA",
"! 	c #B8AA94",
"~ 	c #555554",
"{ 	c #BFBEBC",
"] 	c #FEFDF8",
"^ 	c #CDCBC6",
"/ 	c #9A9992",
"( 	c #ACAAA0",
"_ 	c #A19E94",
": 	c #F2EDDB",
"< 	c #FCF7E0",
"[ 	c #FCF6DC",
"} 	c #FAF0D1",
"| 	c #060001",
"1 	c #3D0103",
"2 	c #550308",
"3 	c #55060E",
"4 	c #000000",
"5 	c #FEFCF4",
"6 	c #D4D0C4",
"7 	c #ACA99D",
"8 	c #9A978B",
"9 	c #B0AC9B",
"0 	c #F4EED5",
"a 	c #FAF3D6",
"b 	c #BEB8A1",
"c 	c #A49E88",
"d 	c #82221E",
"e 	c #AB070C",
"f 	c #900815",
"g 	c #860816",
"h 	c #4A050D",
"i 	c #808080",
"j 	c #FCF6DE",
"k 	c #BCB7A2",
"l 	c #F7F0D2",
"m 	c #F7EFCF",
"n 	c #B5AF96",
"o 	c #9A947C",
"p 	c #816652",
"q 	c #9E1011",
"r 	c #7D060E",
"s 	c #8A0A19",
"t 	c #930A19",
"u 	c #9A0C1A",
"v 	c #FDF9E8",
"w 	c #F4ECC8",
"x 	c #AFA88D",
"y 	c #989278",
"z 	c #AEA787",
"A 	c #94745C",
"B 	c #A62826",
"C 	c #610E0A",
"D 	c #820D13",
"E 	c #A80B1C",
"F 	c #B60F20",
"G 	c #370A0C",
"H 	c #EBE0B4",
"I 	c #ABA281",
"J 	c #989070",
"K 	c #856B52",
"L 	c #9B241F",
"M 	c #66100A",
"N 	c #960C18",
"O 	c #BB0E20",
"P 	c #C7212E",
"Q 	c #884C34",
"R 	c #251908",
"S 	c #FCF5D8",
"T 	c #C6BA8C",
"U 	c #846C51",
"V 	c #953B29",
"W 	c #791010",
"X 	c #AB0B1D",
"Y 	c #CE1B2C",
"Z 	c #C8383F",
"` 	c #6A422E",
" .	c #3F3A36",
"..	c #1C1004",
"+.	c #867A58",
"@.	c #A25B41",
"#.	c #950F17",
"$.	c #C91A2D",
"%.	c #DA3846",
"&.	c #B64E48",
"*.	c #806C44",
"=.	c #215E61",
"-.	c #008AC8",
";.	c #003AED",
">.	c #000E55",
",.	c #51503C",
"'.	c #8F4632",
").	c #BA1B28",
"!.	c #DF404D",
"~.	c #D24F54",
"{.	c #6B3426",
"].	c #74693D",
"^.	c #666359",
"/.	c #5A64C5",
"(.	c #376EDA",
"_.	c #0006BD",
":.	c #00009B",
"<.	c #000055",
"[.	c #554F3B",
"}.	c #A4523C",
"|.	c #DA495A",
"1.	c #803E42",
"2.	c #95674D",
"3.	c #615830",
"4.	c #98884A",
"5.	c #B6A255",
"6.	c #006B80",
"7.	c #17B7FC",
"8.	c #76A1F4",
"9.	c #0F26BF",
"0.	c #000496",
"a.	c #000073",
"b.	c #3F3828",
"c.	c #6A4C30",
"d.	c #BBB28C",
"e.	c #C0AC5A",
"f.	c #CDB65E",
"g.	c #D6AD4C",
"h.	c #9E6B20",
"i.	c #004F80",
"j.	c #0087F7",
"k.	c #3A79E6",
"l.	c #1632B0",
"m.	c #000886",
"n.	c #000061",
"o.	c #000071",
"p.	c #7D7D7D",
"q.	c #E8BD55",
"r.	c #A46E20",
"s.	c #442301",
"t.	c #002755",
"u.	c #003684",
"v.	c #3A58C0",
"w.	c #16238A",
"x.	c #000443",
"y.	c #00002B",
"z.	c #442200",
"A.	c #181855",
"B.	c #080830",
"                . +             ",
"            . @ # $             ",
"        . @ # % & * =           ",
"    . @ - ; > , ' ) !           ",
"~ { ] ^ / ( _ : < [ } | 1 2 3   ",
"4 5 6 7 8 9 0 a b c d e f g h   ",
"  i j k l m n o p q r s t u 4   ",
"  4 v w x y z A B C D E F G     ",
"    i H I J K L M N O P Q R     ",
"    4 S T U V W X Y Z `  ...    ",
"      i +.@.#.$.%.&.*.=.-.;.>.  ",
"      ,.'.).!.~.{.].^./.(._.:.<.",
"    [.}.|.1.2.3.4.5.6.7.8.9.0.a.",
"  b.c.4 4 d.e.f.g.h.i.j.k.l.m.n.",
"<.o.      p.q.r.s.  t.u.v.w.x.y.",
"4         4 z.          A.B.    "};
