/* XPM */
static char * kwrite_xpm[] = {
"16 16 88 1",
" 	c None",
".	c #A5A29F",
"+	c #9B8F7E",
"@	c #FAF5EE",
"#	c #FAF2E8",
"$	c #0A0A0A",
"%	c #4C4C4C",
"&	c #989898",
"*	c #424242",
"=	c #FCF9F5",
"-	c #BAB3A9",
";	c #FEFEFC",
">	c #C6B67F",
",	c #373220",
"'	c #000000",
")	c #FFFFFF",
"!	c #E0D8C5",
"~	c #B6A15A",
"{	c #EDE4C5",
"]	c #C0B38B",
"^	c #AC9958",
"/	c #EFE6C6",
"(	c #FBF7E6",
"_	c #E1D4A4",
":	c #F2EEDE",
"<	c #AD9F6E",
"[	c #EBE2C1",
"}	c #D5C58D",
"|	c #E3D6A6",
"1	c #C5B274",
"2	c #C5B16E",
"3	c #2E2816",
"4	c #6B6358",
"5	c #605C57",
"6	c #E4E0D1",
"7	c #E7DEBA",
"8	c #DDD0A2",
"9	c #A69352",
"0	c #B6A25A",
"a	c #6B5E33",
"b	c #908153",
"c	c #C5B59D",
"d	c #F3EEDF",
"e	c #EBE2BE",
"f	c #FBF5DE",
"g	c #DFD19E",
"h	c #C9B676",
"i	c #C1AE6C",
"j	c #867C69",
"k	c #9B9083",
"l	c #B9AB98",
"m	c #E1CFB4",
"n	c #C3AE67",
"o	c #B4A059",
"p	c #847A5E",
"q	c #9E9488",
"r	c #C5B8A6",
"s	c #E3D2B9",
"t	c #877842",
"u	c #888170",
"v	c #A29A90",
"w	c #C4B8A8",
"x	c #E5D6C1",
"y	c #C3B68B",
"z	c #98874B",
"A	c #898274",
"B	c #A59F96",
"C	c #CCC3B6",
"D	c #EADCCA",
"E	c #A6996A",
"F	c #99884B",
"G	c #BDA864",
"H	c #9C8A4C",
"I	c #9A9693",
"J	c #ACA69F",
"K	c #CFC8BD",
"L	c #EDE2D2",
"M	c #887843",
"N	c #96895B",
"O	c #7C6E3D",
"P	c #676767",
"Q	c #AFACAA",
"R	c #C6C2BC",
"S	c #E0D8CF",
"T	c #F1E8DB",
"U	c #6B5F34",
"V	c #F2ECE6",
"W	c #F8F0E6",
"       .+       ",
"      .@#+ $%&* ",
"     .=@#-$%&%$ ",
"    .;=@>,%&%$' ",
"   .);=!~{&%$'' ",
"  .));]^/(_,''' ",
" .))):<[}|12345 ",
".)))6^7(890ab+c+",
"+))d^efghiajklm4",
" +)^e9gnoapqrs4 ",
"  +entnoauvwx4  ",
"  ynznoaABCD4   ",
"  EFGHIIJKL4    ",
" MNO PQRST4     ",
" U    +VW4      ",
"       +4       "};
