/* XPM */
static char * mini_laptop_xpm[] = {
"16 16 7 1",
" 	c None",
".	c #000000",
"+	c #4C4C4C",
"@	c #356390",
"#	c #709CF8",
"$	c #FFE4C4",
"%	c #999999",
"         .      ",
"       ...      ",
"     ...+.      ",
"   ...@++.      ",
" ...##@@@.      ",
"..##$$@##.      ",
"..$$$##$$.      ",
"..$$@$$$$.      ",
"..@@@$$@...     ",
"..@@@@..%+%..   ",
"..@@..+%+%+%+.. ",
"....%+%+%%+++...",
" ...+%+%+++...  ",
"   ...+++...    ",
"     .....      ",
"       .        "};
