/* XPM */
static char * mini_ldap_xpm[] = {
"16 16 44 1",
" 	c None",
".	c #C2204A",
"+	c #BC0E3B",
"@	c #C3214B",
"#	c #11457E",
"$	c #C11B46",
"%	c #D42E59",
"&	c #E05478",
"*	c #D22C57",
"=	c #A6002B",
"-	c #C72B53",
";	c #C4244D",
">	c #BC103D",
",	c #BE1641",
"'	c #D12B56",
")	c #BD113E",
"!	c #BF1742",
"~	c #B70332",
"{	c #C11944",
"]	c #6F7684",
"^	c #C4A543",
"/	c #BA9726",
"(	c #AF8821",
"_	c #AE8820",
":	c #AF8820",
"<	c #5B9E6F",
"[	c #43925B",
"}	c #5EA071",
"|	c #559B6B",
"1	c #74B071",
"2	c #A1C686",
"3	c #71AE70",
"4	c #559B6A",
"5	c #268048",
"6	c #6BA967",
"7	c #62A463",
"8	c #6CA968",
"9	c #4C9363",
"0	c #54965B",
"a	c #7AA86B",
"b	c #51955A",
"c	c #539767",
"d	c #398752",
"e	c #56986A",
" .+@   #        ",
"$%&*$  #        ",
"=-;-=  #   ##   ",
">,')>  ### # #  ",
" !~{       # #  ",
"  ]        ##   ",
"  ]   ^^^     # ",
"  ]]]]/ /    # #",
"  ]   (_:    ###",
"  ]          # #",
"  ]   <[}       ",
"  ]  |1234   ## ",
"  ]]]56785   # #",
"  ]  90ab9   ## ",
"  ]   cde    #  ",
"  ]             "};
