/* XPM */
static char * mini_linux2_xpm[] = {
"16 16 6 1",
" 	c None",
".	c #000000",
"+	c #C7C3C7",
"@	c #E7A208",
"#	c #868286",
"$	c #FFFFFF",
"      ...       ",
"     .....      ",
"     .+.+.      ",
"     .@@@.#     ",
"     .@@@+.     ",
"     .@@$$.#    ",
"    .#$$$$$.#   ",
"   #.$$$$$$#.#  ",
"   .$$$+$$$$..  ",
"  .+$$+$$$$$... ",
"  @+$$+$$$$$... ",
" @@@$$$$$$$@..@ ",
"@@@@@$$$$$+@@@@@",
"@@@@@$$$$$.@@@@@",
" @@@@@$$...@@@@ ",
"  @@@#.....#@@  "};
