/* XPM */
static char * mini_lyx_xpm[] = {
"16 16 4 1",
" 	c None",
".	c #6CA7D1",
"+	c #E85414",
"@	c #E0DA9A",
"   ..           ",
"   ..           ",
"  ...      ++   ",
"  ..       ++  +",
" ...       ++ ++",
" ..  @@    +++++",
"...  @@  @ ++++ ",
"..   @@ @@@+++  ",
".... @@@@@+++   ",
" ....@@@@++++   ",
"   ..@@@+++++   ",
"    @@@+++ ++   ",
"    @@  +  ++   ",
"   @@@     ++   ",
"   @@           ",
"   @@           "};
