/* XPM */
static char * mini_mahjongg_xpm[] = {
"16 16 9 1",
" 	c None",
".	c #020202",
"+	c #FEF6EB",
"@	c #FABEB7",
"#	c #868282",
"$	c #F29E9B",
"%	c #FE0202",
"&	c #FB7675",
"*	c #F4B0AA",
" .............  ",
".++++++@++++++.#",
".+++++$%@+++++.#",
".++++++%++++++.#",
".++&&+@%*&@+++.#",
".+*%%**%++%&++.#",
".++%&++%+++%@+.#",
".++@%+$%++@%*+.#",
".+++@$+%*$%@++.#",
".++++++%++++++.#",
".++++++%++++++.#",
".++++++%++++++.#",
".++++++$++++++.#",
".+++++$+++++++.#",
" .............##",
" ############## "};
