/* XPM */
static char * mini_mayatemple_xpm[] = {
"16 16 6 1",
" 	c None",
".	c #866959",
"+	c #CFBAB6",
"@	c #000000",
"#	c #F7E7D7",
"$	c #8E7969",
"      ....      ",
"      ++++      ",
"      +@@+      ",
"      +@@+      ",
"     .#..#.     ",
"     ++$$++     ",
"    .##..##.    ",
"    +++$$+++    ",
"   .###..###.   ",
"   ++++$$++++   ",
"  .####..####.  ",
"  +++++$$+++++  ",
" .#####..#####. ",
" ++++++$$++++++ ",
".######..######.",
"+++++++$$+++++++"};
