/* XPM */
static char * mini_menu_big_xpm[] = {
"16 16 10 1",
" 	c None",
".	c #000000",
"+	c #AAAAAA",
"@	c #FFFFFF",
"#	c #1C1C1C",
"$	c #717171",
"%	c #8D8D8D",
"&	c #E2E2E2",
"*	c #C6C6C6",
"=	c #383838",
"    ........    ",
"  .....+@.....  ",
" .....#@@$..... ",
" .....%@&&..... ",
"......@*$@=.....",
".....$@$#@*.....",
".....&&..%@=....",
"....=@$..#@%....",
"....*@*+++&@#...",
"...=@@@@@@@@%...",
"...%@=.....&&...",
"..#@*......$@$..",
" .$@=.......&*. ",
" .%+........$+# ",
"  ............  ",
"    ........    "};
