/* XPM */
static char * mini_menu_small_xpm[] = {
"16 16 11 1",
" 	c None",
".	c #000000",
"+	c #8D8D8D",
"@	c #555555",
"#	c #383838",
"$	c #FFFFFF",
"%	c #E2E2E2",
"&	c #C6C6C6",
"*	c #1C1C1C",
"=	c #717171",
"-	c #AAAAAA",
"                ",
"      ....      ",
"    ...+@...    ",
"   ...#$%....   ",
"  ....+&$#....  ",
"  ...*$=&&....  ",
" ....+%.#$#.... ",
" ....%=..&+.... ",
" ...=$$$$$$*... ",
" ...%-@@@@%+... ",
"  .@$*....=$..  ",
"  .&-......$=.  ",
"   ..........   ",
"    ........    ",
"      ....      ",
"                "};
