/* XPM */
static char * mini_mh_xpm[] = {
"16 16 108 2",
"  	c None",
". 	c #888888",
"+ 	c #1C1C1C",
"@ 	c #1F1F1F",
"# 	c #7F7F7F",
"$ 	c #2A2A2A",
"% 	c #1F1F20",
"& 	c #424242",
"* 	c #242424",
"= 	c #3A3A3A",
"- 	c #4B4B4C",
"; 	c #5E5E5E",
"> 	c #383838",
", 	c #121212",
"' 	c #171717",
") 	c #6B6B6B",
"! 	c #050505",
"~ 	c #161616",
"{ 	c #707070",
"] 	c #9B9B9B",
"^ 	c #343434",
"/ 	c #2E2E2E",
"( 	c #B0B0B0",
"_ 	c #8F8F8F",
": 	c #3C3C3C",
"< 	c #272727",
"[ 	c #4E4E4E",
"} 	c #444444",
"| 	c #474747",
"1 	c #8D8D8D",
"2 	c #646464",
"3 	c #333333",
"4 	c #222222",
"5 	c #4B4B4B",
"6 	c #565656",
"7 	c #6D6D6E",
"8 	c #3B3B3B",
"9 	c #A8A8A8",
"0 	c #A3A3A3",
"a 	c #757576",
"b 	c #B2B2B2",
"c 	c #282828",
"d 	c #2B2B2B",
"e 	c #616162",
"f 	c #404040",
"g 	c #737373",
"h 	c #4F4F4F",
"i 	c #7A7A7B",
"j 	c #989898",
"k 	c #7E7E7E",
"l 	c #B2B2B5",
"m 	c #6B6B6C",
"n 	c #4D4D4D",
"o 	c #676767",
"p 	c #5B5B5B",
"q 	c #515151",
"r 	c #717172",
"s 	c #3E3E3E",
"t 	c #6A6A6B",
"u 	c #5C5C5D",
"v 	c #8C8C8C",
"w 	c #787879",
"x 	c #575757",
"y 	c #5F5F60",
"z 	c #606060",
"A 	c #6F6F70",
"B 	c #616161",
"C 	c #626263",
"D 	c #757575",
"E 	c #AAAAAA",
"F 	c #808081",
"G 	c #B0B0B2",
"H 	c #69696A",
"I 	c #5C5C5C",
"J 	c #585859",
"K 	c #515152",
"L 	c #5E5E5F",
"M 	c #7B7B7B",
"N 	c #696969",
"O 	c #585858",
"P 	c #858585",
"Q 	c #79797A",
"R 	c #9E9EA0",
"S 	c #818181",
"T 	c #5D5D5D",
"U 	c #959595",
"V 	c #656566",
"W 	c #5F5F5F",
"X 	c #727272",
"Y 	c #747474",
"Z 	c #6E6E6E",
"` 	c #7A7A7A",
" .	c #636363",
"..	c #606061",
"+.	c #787878",
"@.	c #8E8E8E",
"#.	c #919192",
"$.	c #A8A8AA",
"%.	c #939393",
"&.	c #8C8C8D",
"*.	c #828282",
"=.	c #808080",
"-.	c #A3A1A7",
";.	c #807E85",
">.	c #9E99A3",
",.	c #747475",
"'.	c #7B7B7E",
").	c #918F93",
"            . + @ #             ",
"            $ % & *             ",
"            = - ; >             ",
"            . , ' #             ",
"            ) ! ~ {             ",
"]           ^ , ' / (           ",
"  _       / : < [ } |     _     ",
"1 .     2 3 4 5 6 7 8 9 ]     0 ",
"a   b   c } d e f g h i j k . l ",
"m _ ] n o p q r s t p u v   w   ",
"  r x v y   z A B C   2 D E F G ",
"  H A I J K L M N O 7 D P w   . ",
"Q R   S L a T U V U W ; X   k   ",
"  Y Z `  ...+.  6   . Z   S @.#.",
"$.%.E   &.      { *.Y Y     ) =.",
"    -.;.          >.    ,.'.).  "};
