/* XPM */
static char * mini_mosaic_xpm[] = {
"16 16 176 2",
"  	c None",
". 	c #64649A",
"+ 	c #676787",
"@ 	c #695B8B",
"# 	c #3741A9",
"$ 	c #260A98",
"% 	c #02008E",
"& 	c #7E736C",
"* 	c #5C5C58",
"= 	c #666673",
"- 	c #646464",
"; 	c #645F91",
"> 	c #2F339C",
", 	c #03038D",
"' 	c #0F0991",
") 	c #3C259A",
"! 	c #71706A",
"~ 	c #746340",
"{ 	c #696332",
"] 	c #616038",
"^ 	c #686452",
"/ 	c #545496",
"( 	c #0F0F96",
"_ 	c #00008C",
": 	c #00008E",
"< 	c #00008F",
"[ 	c #08008F",
"} 	c #402D9A",
"| 	c #494966",
"1 	c #6B5643",
"2 	c #9C6363",
"3 	c #966351",
"4 	c #85654F",
"5 	c #7F7285",
"6 	c #555DB7",
"7 	c #2228B1",
"8 	c #1C0095",
"9 	c #02008D",
"0 	c #000097",
"a 	c #000095",
"b 	c #08088F",
"c 	c #39399A",
"d 	c #141461",
"e 	c #6A5567",
"f 	c #976565",
"g 	c #6C628D",
"h 	c #313BBF",
"i 	c #3159CE",
"j 	c #3148CE",
"k 	c #310DB4",
"l 	c #381BB0",
"m 	c #2F2AB7",
"n 	c #151FA0",
"o 	c #0D0196",
"p 	c #0E0A93",
"q 	c #25255C",
"r 	c #080262",
"s 	c #331F85",
"t 	c #5D4594",
"u 	c #7D5B77",
"v 	c #666684",
"w 	c #5C5FA3",
"x 	c #5C61B0",
"y 	c #4858DF",
"z 	c #4E47C3",
"A 	c #676673",
"B 	c #7C6566",
"C 	c #6A5F7A",
"D 	c #444B9D",
"E 	c #353092",
"F 	c #1D0A8A",
"G 	c #000051",
"H 	c #000066",
"I 	c #090184",
"J 	c #0E0E91",
"K 	c #322A96",
"L 	c #38268C",
"M 	c #381C9C",
"N 	c #3F35AF",
"O 	c #423CE7",
"P 	c #6060C9",
"Q 	c #68633E",
"R 	c #636331",
"S 	c #636339",
"T 	c #75633F",
"U 	c #695A66",
"V 	c #2D1485",
"W 	c #000049",
"X 	c #000063",
"Y 	c #000074",
"Z 	c #000094",
"` 	c #000098",
" .	c #0000A1",
"..	c #2C00CA",
"+.	c #3405F0",
"@.	c #594BE6",
"#.	c #716349",
"$.	c #6F6331",
"%.	c #835A62",
"&.	c #141484",
"*.	c #000062",
"=.	c #000071",
"-.	c #00009F",
";.	c #1900B9",
">.	c #2203BB",
",.	c #5941B9",
"'.	c #636360",
").	c #75633A",
"!.	c #996356",
"~.	c #A96340",
"{.	c #665A62",
"].	c #000040",
"^.	c #00005F",
"/.	c #00007D",
"(.	c #00008B",
"_.	c #00009B",
":.	c #00009C",
"<.	c #01009C",
"[.	c #191698",
"}.	c #494994",
"|.	c #8A5F75",
"1.	c #B0635B",
"2.	c #9D6551",
"3.	c #433A89",
"4.	c #030382",
"5.	c #00003F",
"6.	c #000055",
"7.	c #000073",
"8.	c #000088",
"9.	c #000090",
"0.	c #000093",
"a.	c #000096",
"b.	c #00009A",
"c.	c #0E0596",
"d.	c #664D94",
"e.	c #9C634B",
"f.	c #866272",
"g.	c #2E1E90",
"h.	c #000078",
"i.	c #000060",
"j.	c #00006E",
"k.	c #070082",
"l.	c #09008F",
"m.	c #523891",
"n.	c #61508B",
"o.	c #0C0C7D",
"p.	c #000045",
"q.	c #000067",
"r.	c #000076",
"s.	c #000086",
"t.	c #130092",
"u.	c #572C91",
"v.	c #8E6383",
"w.	c #2A218A",
"x.	c #260067",
"y.	c #000052",
"z.	c #000057",
"A.	c #0D0082",
"B.	c #0B0089",
"C.	c #08008A",
"D.	c #000085",
"E.	c #140088",
"F.	c #4D2A8D",
"G.	c #484598",
"H.	c #322C96",
"I.	c #000047",
"J.	c #000048",
"K.	c #000058",
"L.	c #000064",
"M.	c #000070",
"N.	c #00006C",
"O.	c #050065",
"P.	c #2C136A",
"Q.	c #313181",
"R.	c #00004B",
"S.	c #000050",
"          . + @ # $ %           ",
"      & * = - ; > , % ' )       ",
"    ! ~ { ] ^ / ( _ : < [ }     ",
"  | 1 2 3 4 5 6 7 8 9 0 a b c   ",
"  d e 2 f g h i j k l m n o p   ",
"q r s t u v w x y z A B C D E F ",
"G H I J K L M N O P Q R S T U V ",
"W X Y _ Z `  ...+.@.#.R R $.%.&.",
"W *.=._ : a -.;.>.,.'.).!.~.{.&.",
"].^.=./.(.a _.:.<.[.}.|.1.2.3.4.",
"5.6.H 7.8.9.0.a.` b.c.d.e.f.g.h.",
"  W i.j.k.l._ : < a ` m.2 n.o.  ",
"  p.6.q.r.8._ s._ _ t.u.v.w.x.  ",
"    y.z.X =.A.B.C.D.E.F.G.H.    ",
"      I.J.K.L.M.7.N.O.P.Q.      ",
"          J.p.R.S.6.P.          "};
