/* XPM */
static char * mini_mplayer_xpm[] = {
"16 16 176 2",
"  	c None",
". 	c #6C87B2",
"+ 	c #1B66EF",
"@ 	c #1A63E8",
"# 	c #195FDF",
"$ 	c #185BD5",
"% 	c #5172AD",
"& 	c #1C6AF8",
"* 	c #1C69F6",
"= 	c #1C68F3",
"- 	c #1B64EA",
"; 	c #195FDE",
"> 	c #1859D1",
", 	c #1654C5",
"' 	c #447FEA",
") 	c #1D6BFB",
"! 	c #1D69F4",
"~ 	c #1E6DFD",
"{ 	c #1A63E7",
"] 	c #195DD9",
"^ 	c #1757CB",
"/ 	c #1551BC",
"( 	c #3F67B3",
"_ 	c #447FE9",
": 	c #2371FE",
"< 	c #41639B",
"[ 	c #3E6EC1",
"} 	c #246CEF",
"| 	c #1D6CFC",
"1 	c #1C69F7",
"2 	c #1B66EE",
"3 	c #1859CF",
"4 	c #1652C0",
"5 	c #144BB0",
"6 	c #3E62A7",
"7 	c #1C6AF7",
"8 	c #1D6CFD",
"9 	c #3C81FF",
"0 	c #5F81B6",
"a 	c #88AEE5",
"b 	c #7796C3",
"c 	c #4070C4",
"d 	c #1C65EA",
"e 	c #1C67F1",
"f 	c #1A60E2",
"g 	c #185AD2",
"h 	c #1653C3",
"i 	c #144CB2",
"j 	c #12429A",
"k 	c #447CE5",
"l 	c #1D6DFD",
"m 	c #4285FF",
"n 	c #6584B4",
"o 	c #96B9EA",
"p 	c #A7C6EF",
"q 	c #AECCF1",
"r 	c #85A1C8",
"s 	c #3C6BBC",
"t 	c #1A5CD6",
"u 	c #144CB3",
"v 	c #3C5B96",
"w 	c #2975FF",
"x 	c #6484B5",
"y 	c #9CBEEC",
"z 	c #B1CEF3",
"A 	c #C0DAF8",
"B 	c #B3CFF3",
"C 	c #9DBEEB",
"D 	c #6C8DC0",
"E 	c #2D59A7",
"F 	c #164FB8",
"G 	c #144CB1",
"H 	c #114198",
"I 	c #103882",
"J 	c #5F81B4",
"K 	c #99BBEB",
"L 	c #ACCAF1",
"M 	c #B6D2F4",
"N 	c #ADCBF1",
"O 	c #9ABCEB",
"P 	c #86ADE5",
"Q 	c #719CDD",
"R 	c #4C74B4",
"S 	c #204A93",
"T 	c #113F93",
"U 	c #0F357C",
"V 	c #1B64EB",
"W 	c #1C68F4",
"X 	c #5A7CB1",
"Y 	c #8EB3E8",
"Z 	c #9CBDEC",
"` 	c #A2C2EE",
" .	c #9DBEEC",
"..	c #8FB4E8",
"+.	c #7EA6E3",
"@.	c #6996DB",
"#.	c #3E71C7",
"$.	c #194CA7",
"%.	c #103C8C",
"&.	c #0E3276",
"*.	c #185BD6",
"=.	c #1960E0",
"-.	c #1B64E9",
";.	c #1B67F0",
">.	c #5175AE",
",.	c #7EA7E3",
"'.	c #89AFE6",
").	c #8DB2E7",
"!.	c #7BA4E1",
"~.	c #4B7ED3",
"{.	c #1E57C0",
"].	c #144CB0",
"^.	c #0F3882",
"/.	c #0E306F",
"(.	c #4071C9",
"_.	c #185AD3",
":.	c #195EDB",
"<.	c #1A60E1",
"[.	c #486EAA",
"}.	c #6E9ADE",
"|.	c #75A0E0",
"1.	c #749EDF",
"2.	c #4D80D7",
"3.	c #205DCC",
"4.	c #1653C2",
"5.	c #154EB6",
"6.	c #1346A4",
"7.	c #103D8E",
"8.	c #0E3377",
"9.	c #39517E",
"0.	c #1755C7",
"a.	c #1758CE",
"b.	c #426CAF",
"c.	c #5B8BD7",
"d.	c #4177D4",
"e.	c #1E5DCE",
"f.	c #1756C9",
"g.	c #154EB7",
"h.	c #1348A8",
"i.	c #113F94",
"j.	c #0E367F",
"k.	c #0C2D6A",
"l.	c #406CBD",
"m.	c #1654C4",
"n.	c #2759B1",
"o.	c #1B58C6",
"p.	c #1652C1",
"q.	c #1550BB",
"r.	c #144DB3",
"s.	c #1347A6",
"t.	c #114095",
"u.	c #0F3883",
"v.	c #0D2F6F",
"w.	c #394F7A",
"x.	c #3F69B6",
"y.	c #154EB5",
"z.	c #154FB8",
"A.	c #1349AA",
"B.	c #12449F",
"C.	c #103E91",
"D.	c #0F3781",
"E.	c #0D3070",
"F.	c #3D64AB",
"G.	c #1345A2",
"H.	c #1245A2",
"I.	c #1244A0",
"J.	c #113F92",
"K.	c #0F3A88",
"L.	c #0E357B",
"M.	c #0D2F6D",
"N.	c #394F7B",
"O.	c #3C5D9B",
"P.	c #103B89",
"Q.	c #0F357B",
"R.	c #0E3173",
"S.	c #395280",
"          . + @ # $ %           ",
"      . & & * = - ; > , %       ",
"    ' ) ! ~ ) & = { ] ^ / (     ",
"  _ ) : < [ } | 1 2 ; 3 4 5 6   ",
"  7 8 9 0 a b c d e f g h i j   ",
"k 7 l m n o p q r s t g h u j v ",
"2 * ) w x y z A B C D E F G H I ",
"{ = & | J K L M N O P Q R S T U ",
"# V W 7 X Y Z `  ...+.@.#.$.%.&.",
"*.=.-.;.>.,.'.).'.!.~.{.].j ^./.",
"(._.:.<.[.}.|.1.2.3.4.5.6.7.8.9.",
"  0.a.g b.c.d.e.f.4 g.h.i.j.k.  ",
"  l.4 m.n.o., p.q.r.s.t.u.v.w.  ",
"    x.y.z.z.5.i A.B.C.D.E.w.    ",
"      F.G.H.I.j J.K.L.M.N.      ",
"          O.P.u.Q.R.S.          "};
