/* XPM */
static char * mini_mrproject_xpm[] = {
"16 16 25 1",
" 	c None",
".	c #000000",
"+	c #495F6B",
"@	c #4A606C",
"#	c #2F3D45",
"$	c #4B626F",
"%	c #8CB6CE",
"&	c #556F7D",
"*	c #1E272D",
"=	c #2F3E45",
"-	c #2D3A42",
";	c #2D3A41",
">	c #2C3A41",
",	c #1E272C",
"'	c #4A616D",
")	c #91BDD6",
"!	c #35444D",
"~	c #2F3E46",
"{	c #1E282D",
"]	c #648394",
"^	c #638091",
"/	c #242F36",
"(	c #8AB4CB",
"_	c #84ACC2",
":	c #2E3C43",
"                ",
"                ",
" .............  ",
"                ",
"  ++@@@@@#      ",
" $%%%%%%%&      ",
" *=-;>>>>,      ",
"                ",
"       ')))))!  ",
"       ~&&&&&{  ",
"                ",
"    ]^^^/       ",
"    (___:       ",
"    .....       ",
"                ",
"                "};
