/* XPM */
static char * mini_msx_xpm[] = {
"16 16 2 1",
" 	c None",
".	c #FFFFFFFFFFFF",
"                ",
"                ",
"                ",
"                ",
"                ",
".   .  .....   .",
".. .. .    .   .",
". . . .     . . ",
".   .  ..    .  ",
".   .    .  . . ",
".   .    . .   .",
".   .....  .   .",
"                ",
"                ",
"                ",
"                "};
