/* XPM */
static char * mini_next_xpm[] = {
"16 16 5 1",
" 	c None",
".	c #FFFF3CF30000",
"X	c #FFFFFFFF0000",
"o	c #0000B2CA30C2",
"O	c #FFFF000079E7",
".     .   XXX   ",
"..    .  X   X  ",
". .   . X     X ",
".  .  . XXXXXXX ",
".   . . X       ",
".    ..  X   X  ",
".     .   XXX   ",
"                ",
"o     o OOOOOOO ",
" o   o     O    ",
"  o o      O    ",
"   o       O    ",
"  o o      O    ",
" o   o     O    ",
"o     o    O    ",
"                "};
