/* XPM */
static char * mini_nvg_xpm[] = {
"16 16 9 1",
" 	c None",
".	c #AAAAAA",
"+	c #8E8E8E",
"@	c #555555",
"#	c #C7C7C7",
"$	c #000000",
"%	c #1D1D1D",
"&	c #393939",
"*	c #727272",
"     .+@@@+#    ",
"    @$%@@&$%+   ",
"   &%*#  #.@$*  ",
"  &%#       @%. ",
" #$+  .@@**+ &@ ",
" &&  #$&*$$@ +%#",
"#$@ #$&  +$. .$.",
".$  &$   .$. .$.",
".$  $@   @@  @& ",
".$  $%  #%@ #%+ ",
"#$@ *$@@%$%@%&  ",
" *$  *$$+ &$*   ",
"  $%            ",
"  .$$.#  #.#    ",
"   #$$$$$$$@    ",
"     #@@@@#     "};
