/* XPM */
static char * mini_ooffice_xpm[] = {
"16 16 7 1",
" 	c None",
".	c #FFFFFF",
"+	c #808080",
"@	c #000000",
"#	c #0000FF",
"$	c #00FFFF",
"%	c #008080",
"................",
"............+@@+",
"...........+@+..",
"........+@@@+...",
"#$#$#$$@@%%%$$#$",
"$#$#$$%%$$$$$#$#",
"#$#$#$%$$%%+%$#$",
"$#$#$#$$%@@+$#$#",
"#$#$#$$+@%$$#$#$",
"$#$$$$+@@$$#$#$#",
"#$$++@@@$$#$#$#$",
"$$+@@++%$#$#$#$#",
"$@@%$$$$#$#$#$#$",
"%@%$$#$#$#$#$#$#",
"%$$$#$#$#$#$#$#$",
"$#$#$#$#$#$#$#$#"};
