/* XPM */
static char * package_editors_xpm[] = {
"16 16 80 1",
" 	c None",
".	c #000000",
"+	c #B7B7B7",
"@	c #7F7F7F",
"#	c #E7E7E7",
"$	c #E9E9E9",
"%	c #ECECEC",
"&	c #EAEAEA",
"*	c #E8E8E8",
"=	c #F1F1F1",
"-	c #EFEFEF",
";	c #F4F4F4",
">	c #F3F3F3",
",	c #BDBDBD",
"'	c #F7F7F7",
")	c #F5F5F5",
"!	c #F0F0F0",
"~	c #C0C0C0",
"{	c #FAFAFA",
"]	c #FBFBFB",
"^	c #C4C4C4",
"/	c #EEEEEE",
"(	c #7A7A7A",
"_	c #876C39",
":	c #764E33",
"<	c #F2F2F2",
"[	c #FFFFFF",
"}	c #F8F8F8",
"|	c #C7C7C7",
"1	c #B88C77",
"2	c #B7824B",
"3	c #D1A69A",
"4	c #E2BABA",
"5	c #FFE4D9",
"6	c #FFE6CF",
"7	c #848484",
"8	c #F9F9F9",
"9	c #4B4B4B",
"0	c #4F4F4F",
"a	c #978165",
"b	c #F0D0C0",
"c	c #F4CBB3",
"d	c #F7C9B0",
"e	c #F6BB88",
"f	c #F7AD8B",
"g	c #DF8B66",
"h	c #6B6B6B",
"i	c #EDEDED",
"j	c #333333",
"k	c #3D3D3D",
"l	c #755B4F",
"m	c #A66A51",
"n	c #B66842",
"o	c #BA6B48",
"p	c #BC7049",
"q	c #CE673F",
"r	c #E67B33",
"s	c #BEBEBE",
"t	c #B3B3B3",
"u	c #AFAFAF",
"v	c #302A2A",
"w	c #4D4345",
"x	c #574438",
"y	c #5B492E",
"z	c #704E2F",
"A	c #A15314",
"B	c #E6E6E6",
"C	c #E3E3E3",
"D	c #DADADA",
"E	c #ACACAC",
"F	c #A7A7A7",
"G	c #373939",
"H	c #473D37",
"I	c #6F3103",
"J	c #DFDFDF",
"K	c #DCDCDC",
"L	c #D3D3D3",
"M	c #B2B2B2",
"N	c #AAAAAA",
"O	c #B4B4B4",
"                ",
"        . .     ",
"       . .+.    ",
"      ...+@#.   ",
"     . .+$.##.  ",
"    ...+@%&*##. ",
"   . .+=.-%&###.",
"  . .+@;>=-%,###",
" ...+'.')>!~&###",
". .+@{]{';^/$(_:",
"..<).][]}|123456",
"..7;'{890abcdefg",
" .h7)'ijklmnopqr",
"  .h7;&stuvwxyzA",
"   .h7!BCD~EFGHI",
"    .h7/i~JKLMNO"};
