/* XPM */
static char * mini_photo_xpm[] = {
"16 16 6 1",
" 	c None",
".	c #000000",
"+	c #030305",
"@	c #767677",
"#	c #B6B6B6",
"$	c #FDFDFB",
"                ",
"                ",
"      ....      ",
"     ......  .  ",
"+++++@#$$#@+++++",
"++++##@++@##++++",
"+++@#++++++#@+++",
"+++#@+@$$@+@#+++",
"+++$++$$$$++$+++",
"+++$++$$$$++$+++",
"+++#@+@$$@+@#+++",
"+++@#++++++#@+++",
"++++##@++@##++++",
"+++++@#$$#@+++++",
"                ",
"                "};
