/* XPM */
static char * mini_postit_xpm[] = {
"16 16 2 1",
" 	c #000000000000",
".	c #FFFF7DF75144",
" . . . ...... ..",
".   . . ..... ..",
"                ",
".   . . ..... ..",
" . . . ...... ..",
".   . . ..... ..",
" . . . ...... ..",
".   . . ..... ..",
"         . .   .",
"  .     . . . . ",
"         . .   .",
"  .     . . . . ",
"         . .   .",
" . . . .        ",
"         . .   .",
"  .     . . . . "};
