/* XPM */
static char * mini_pvv_xpm[] = {
"16 16 10 1",
" 	c None",
".	c #7F7F7F",
"+	c #040404",
"@	c #000000",
"#	c #131313",
"$	c #2B2B2B",
"%	c #4C4C4C",
"&	c #767676",
"*	c #353535",
"=	c #717171",
"..              ",
"..+@@@@@@@@@@@@ ",
"..#@@@@@@@@@@@@ ",
"..$@@@@@@@@@@@  ",
"..%@@@@@@@@@@@@ ",
"..&@@@&  &@@@@@ ",
"...*@&    &@@@@ ",
"...=+      @@@@ ",
"....%      @@@@ ",
".....&    &@@@@ ",
"......&  &@@@@@ ",
".......%+@@@@@@ ",
"........=*@@@@@ ",
"..........&%$#+ ",
"................",
"................"};
