/* XPM */
static char * mini_qcad_xpm[] = {
"16 16 113 2",
"  	c None",
". 	c #FF6730",
"+ 	c #FF5D37",
"@ 	c #6A6767",
"# 	c #242424",
"$ 	c #FF7400",
"% 	c #010101",
"& 	c #727272",
"* 	c #FFC639",
"= 	c #FFB52C",
"- 	c #3F3F3F",
"; 	c #232323",
"> 	c #6E6E6E",
", 	c #C1B2A1",
"' 	c #FFA502",
") 	c #DFC67D",
"! 	c #6AA4EA",
"~ 	c #72B9FE",
"{ 	c #85B8E1",
"] 	c #83AFC7",
"^ 	c #C6F1FA",
"/ 	c #CAF3FA",
"( 	c #000000",
"_ 	c #C97A5A",
": 	c #FF5E01",
"< 	c #7F8FB8",
"[ 	c #0064DA",
"} 	c #0D88FD",
"| 	c #3BA9FF",
"1 	c #6ACAFF",
"2 	c #99ECFE",
"3 	c #A2E9F6",
"4 	c #74B6DC",
"5 	c #4782C1",
"6 	c #94AFD7",
"7 	c #AEC9BA",
"8 	c #FA413A",
"9 	c #FE4430",
"0 	c #D0BFA3",
"a 	c #C9B184",
"b 	c #A7B8D3",
"c 	c #59A676",
"d 	c #B3DBBF",
"e 	c #D20202",
"f 	c #ED6B6B",
"g 	c #D3B77C",
"h 	c #B7830D",
"i 	c #808080",
"j 	c #0A0A0A",
"k 	c #A9D5B7",
"l 	c #8FD29E",
"m 	c #CEF4D2",
"n 	c #D29490",
"o 	c #A40200",
"p 	c #CE9C07",
"q 	c #E6CC79",
"r 	c #646464",
"s 	c #595959",
"t 	c #CDF0D2",
"u 	c #C4F8C3",
"v 	c #C1ECB7",
"w 	c #C4A390",
"x 	c #E3C151",
"y 	c #E5C24E",
"z 	c #2F2F2F",
"A 	c #5F5F5F",
"B 	c #B0DF9F",
"C 	c #98CA7E",
"D 	c #BBD7A7",
"E 	c #B880C2",
"F 	c #D5B294",
"G 	c #ECC745",
"H 	c #DCD6C0",
"I 	c #61655E",
"J 	c #A5CB8D",
"K 	c #74A849",
"L 	c #80AD68",
"M 	c #BF52BF",
"N 	c #8A0291",
"O 	c #BC86B6",
"P 	c #F7D862",
"Q 	c #FCECA9",
"R 	c #4F4F4F",
"S 	c #202020",
"T 	c #A9C791",
"U 	c #3E8742",
"V 	c #ACA6B6",
"W 	c #CE47CE",
"X 	c #B51EB5",
"Y 	c #C975CA",
"Z 	c #FAE387",
"` 	c #F7DF86",
" .	c #272727",
"..	c #F5C8F6",
"+.	c #E773E7",
"@.	c #DB62DB",
"#.	c #AE8DAE",
"$.	c #F1DA8D",
"%.	c #E5C049",
"&.	c #535353",
"*.	c #8B8A8B",
"=.	c #E395E3",
"-.	c #F59EF5",
";.	c #F7B3F7",
">.	c #A8A0A8",
",.	c #292929",
"'.	c #EBD696",
").	c #DDB84C",
"!.	c #CF95CF",
"~.	c #AE3DAE",
"{.	c #D27BD2",
"].	c #313131",
"^.	c #BCB5A0",
"            . + @ #             ",
"            $     % &           ",
"          * =     - ;           ",
"    > > , ' ) ! ~ { ] ^ /       ",
"  % ( ( _ : < [ } | 1 2 3 4 5 6 ",
"7       8 9         0 a       b ",
"c d     e f         g h     i j ",
"k l m n o             p q r % s ",
"  t u v w             x y z A   ",
"      B C D         E F G H     ",
"      I J K L     M N O P Q     ",
"    R S   T U V W X Y   Z `     ",
"     .s     ..+.@.#.    $.%.    ",
"    &.*.  =.-.;.>.( ,.  '.).    ",
"      !.~.{.        ].( ^.      ",
"                                "};
