/* XPM */
static char * mini_remedy_xpm[] = {
"16 16 2 1",
" 	c None",
".	c #00009A6969A6",
"......  ....... ",
".     .    .  . ",
".     .    .  . ",
"......     .  . ",
".   .     ..  . ",
".    .   . .  . ",
".     . .   ..  ",
"       .        ",
" ..   . .     . ",
".  . .   .    . ",
".  ..     .   . ",
".  .     ...... ",
".  .    .     . ",
".  .    .     . ",
".......  ...... ",
"                "};
