/* XPM */
static char * mini_rpm_xpm[] = {
"16 16 7 1",
" 	c None",
".	c #000000",
"+	c #FF0000",
"@	c #020202",
"#	c #010101",
"$	c #212121",
"%	c #414141",
"                ",
"                ",
"                ",
"     ......     ",
"   ..      ++   ",
"  @.        ++  ",
" #$    ...   ++ ",
"%.        ....++",
"                ",
"... ...  ... .. ",
".   .  . .  .  .",
".   .  . .  .  .",
".   ...  .  .  .",
"    .           ",
"                ",
"                "};
