/* XPM */
static char * mini_same_xpm[] = {
"16 16 189 2",
"  	c None",
". 	c #32321E",
"+ 	c #4A4B30",
"@ 	c #4C4C30",
"# 	c #858330",
"$ 	c #50512E",
"% 	c #3F3E20",
"& 	c #141210",
"* 	c #383C36",
"= 	c #616442",
"- 	c #A8A438",
"; 	c #C0BC28",
"> 	c #575436",
", 	c #E3DF28",
"' 	c #828348",
") 	c #A3A13E",
"! 	c #4C4B12",
"~ 	c #32342E",
"{ 	c #2C2C2C",
"] 	c #3C3C3C",
"^ 	c #6D6E61",
"/ 	c #9A954D",
"( 	c #DBD71C",
"_ 	c #555751",
": 	c #A0A259",
"< 	c #EDEA2E",
"[ 	c #54564E",
"} 	c #C8C784",
"| 	c #8B8B2C",
"1 	c #444724",
"2 	c #767640",
"3 	c #76734F",
"4 	c #7F7A5D",
"5 	c #87845B",
"6 	c #AEAC4D",
"7 	c #DFDB1E",
"8 	c #8B8B66",
"9 	c #6B6A5B",
"0 	c #F3F23A",
"a 	c #9D9C82",
"b 	c #5F5E59",
"c 	c #DFDF73",
"d 	c #676622",
"e 	c #6C6F3E",
"f 	c #BAB630",
"g 	c #B2AF3C",
"h 	c #B4B149",
"i 	c #CBC746",
"j 	c #EDE91A",
"k 	c #A5A56A",
"l 	c #51514B",
"m 	c #E9ECA7",
"n 	c #E0E0DB",
"o 	c #5C5C5C",
"p 	c #BAB6A6",
"q 	c #AAA88A",
"r 	c #4C4B2C",
"s 	c #282822",
"t 	c #7F7E47",
"u 	c #C8C42C",
"v 	c #E3DF20",
"w 	c #E7E31E",
"x 	c #FFFB10",
"y 	c #B0AE6D",
"z 	c #454341",
"A 	c #E7E75E",
"B 	c #F9F8ED",
"C 	c #A09FA0",
"D 	c #909190",
"E 	c #434345",
"F 	c #060606",
"G 	c #777538",
"H 	c #6E713C",
"I 	c #302E2C",
"J 	c #A6A249",
"K 	c #E1DD22",
"L 	c #FBF712",
"M 	c #BAB873",
"N 	c #343130",
"O 	c #D8D871",
"P 	c #E9E8A7",
"Q 	c #A5A4A5",
"R 	c #2A2B2A",
"S 	c #040506",
"T 	c #626442",
"U 	c #3A3B26",
"V 	c #635F3C",
"W 	c #44413A",
"X 	c #B2B051",
"Y 	c #DBD94D",
"Z 	c #717363",
"` 	c #5D5A51",
" .	c #D6D452",
"..	c #88857C",
"+.	c #676667",
"@.	c #96944D",
"#.	c #5C5F3E",
"$.	c #B4B232",
"%.	c #4D4D3A",
"&.	c #5D5D49",
"*.	c #C0BD38",
"=.	c #F7F314",
"-.	c #F7F420",
";.	c #C4C15E",
">.	c #303030",
",.	c #ABAB5C",
"'.	c #D5D138",
").	c #B0AF36",
"!.	c #A7A53A",
"~.	c #817F3C",
"{.	c #797649",
"].	c #282826",
"^.	c #9A9951",
"/.	c #DAD626",
"(.	c #CFCB3C",
"_.	c #E9E524",
":.	c #8F8E69",
"<.	c #2E2F2E",
"[.	c #A9A74A",
"}.	c #D6D224",
"|.	c #C4C02A",
"1.	c #7C7C32",
"2.	c #4E4D34",
"3.	c #262526",
"4.	c #757444",
"5.	c #CECA28",
"6.	c #AEAC40",
"7.	c #A09B6B",
"8.	c #878B7B",
"9.	c #C0BD46",
"0.	c #F1ED18",
"a.	c #D9D52E",
"b.	c #797756",
"c.	c #202322",
"d.	c #5A5944",
"e.	c #6E6D4F",
"f.	c #34352A",
"g.	c #636542",
"h.	c #BAB628",
"i.	c #B4B030",
"j.	c #818355",
"k.	c #3C3C34",
"l.	c #141414",
"m.	c #0A090C",
"n.	c #666960",
"o.	c #B8B53E",
"p.	c #E9E51C",
"q.	c #B6B334",
"r.	c #6E6B50",
"s.	c #1A1A1A",
"t.	c #080706",
"u.	c #6A6936",
"v.	c #7D7B3E",
"w.	c #4A4A3E",
"x.	c #1C1A1A",
"y.	c #42433E",
"z.	c #757453",
"A.	c #777459",
"B.	c #0E0F0E",
"C.	c #5A5948",
"D.	c #ACA73C",
"E.	c #C7C320",
"F.	c #939345",
"G.	c #555741",
"H.	c #060506",
"I.	c #44422E",
"J.	c #121212",
"K.	c #606048",
"L.	c #9A9545",
"M.	c #AEAA38",
"N.	c #AEAC3A",
"O.	c #484A42",
"P.	c #1A1B1A",
"Q.	c #7C7E4B",
"R.	c #818040",
"S.	c #323126",
"T.	c #1E1D1E",
"U.	c #636438",
"V.	c #A8A441",
"W.	c #4A4A42",
"X.	c #1E1E20",
"Y.	c #696C3E",
"Z.	c #303120",
"`.	c #40402A",
" +	c #64643A",
".+	c #54583A",
"++	c #24211E",
"@+	c #4A4B2C",
"#+	c #404326",
"          . + @ # $ %           ",
"      & * = - ; > , ' ) !       ",
"    ~ { ] ^ / ( _ : < [ } |     ",
"  1 2 3 4 5 6 7 8 9 0 a b c d   ",
"  e ; f g h i j k l m n o p q   ",
"r s t u v v w x y z A B C D E F ",
"G H I J K x L x M N O P Q R S T ",
"U f V W X w x x Y Z ` <  ...+.@.",
"#.$.%.&.*.L =.L -.;.>.,.=.'.).!.",
"~.{.].^./.j (.(.L _.:.<.[.}.|.1.",
"2.3.4.|.5.6.7.8.9.0.a.b.c.d.e.f.",
"  g.h.i.j.k.l.m.n.o.p.q.r.s.t.  ",
"  u.v.w.x.y.z.A.B.C.D.E.F.G.H.  ",
"    I.J.K.L.M.N.O.P.Q.f R.S.    ",
"      T.U.V.f f W.X.Y.U.Z.      ",
"          `. +.+++@+#+          "};
