/* XPM */
static char * mini_sane_xpm[] = {
"16 16 171 2",
"  	c None",
". 	c #404DF5",
"+ 	c #5B6EF9",
"@ 	c #3945FD",
"# 	c #3844FC",
"$ 	c #5365F6",
"% 	c #3741F2",
"& 	c #2D36EC",
"* 	c #2A33FC",
"= 	c #343FFF",
"- 	c #758CFF",
"; 	c #4454FF",
"> 	c #4353FF",
", 	c #6075FF",
"' 	c #3A47FF",
") 	c #2F38FD",
"! 	c #323AED",
"~ 	c #3A46F7",
"{ 	c #3F4EFF",
"] 	c #3440FF",
"^ 	c #2E37FF",
"/ 	c #8298FF",
"( 	c #5B6FFF",
"_ 	c #5568FF",
": 	c #6477FF",
"< 	c #4351FF",
"[ 	c #2C35FF",
"} 	c #3E4CFF",
"| 	c #363EF5",
"1 	c #2931F3",
"2 	c #313BFF",
"3 	c #4B5CFF",
"4 	c #6F80FF",
"5 	c #8A9FFF",
"6 	c #8197FF",
"7 	c #7084FF",
"8 	c #4452FF",
"9 	c #4A5BFF",
"0 	c #3946FF",
"a 	c #434AEE",
"b 	c #333DFF",
"c 	c #3945FF",
"d 	c #5C71FF",
"e 	c #6579FF",
"f 	c #6C7FFF",
"g 	c #D9E8FF",
"h 	c #D4E3FF",
"i 	c #8EA3FF",
"j 	c #5F72FF",
"k 	c #3845FF",
"l 	c #4D5DFF",
"m 	c #687BFA",
"n 	c #2D36F4",
"o 	c #3B48FF",
"p 	c #4C5EFF",
"q 	c #4A5AFF",
"r 	c #5164FF",
"s 	c #B3C7FF",
"t 	c #DAE7FF",
"u 	c #FAFDFF",
"v 	c #FEFFFF",
"w 	c #DBEAFF",
"x 	c #ABBFFF",
"y 	c #6E82FF",
"z 	c #96AAFF",
"A 	c #8FA6FF",
"B 	c #5D72FF",
"C 	c #4D59F9",
"D 	c #313BF6",
"E 	c #414FFF",
"F 	c #576AFF",
"G 	c #90A6FF",
"H 	c #FFFFFF",
"I 	c #F2F9FF",
"J 	c #E7F2FF",
"K 	c #92A8FF",
"L 	c #657AFF",
"M 	c #5A6AF8",
"N 	c #2931F6",
"O 	c #303AFF",
"P 	c #3744FF",
"Q 	c #4757FF",
"R 	c #93AAFF",
"S 	c #F1FAFF",
"T 	c #F2FAFF",
"U 	c #AABFFF",
"V 	c #7F95FF",
"W 	c #6073FF",
"X 	c #5B69FB",
"Y 	c #323CF4",
"Z 	c #3C49FF",
"` 	c #4E5EFF",
" .	c #6F83FF",
"..	c #C5D6FF",
"+.	c #FBFEFF",
"@.	c #FCFEFF",
"#.	c #CBDDFF",
"$.	c #7E92FF",
"%.	c #5E6FFF",
"&.	c #4E5DFF",
"*.	c #535FFC",
"=.	c #4E5FF6",
"-.	c #6A7FFF",
";.	c #8094FF",
">.	c #9CB1FF",
",.	c #E8F4FF",
"'.	c #EBF4FF",
").	c #8BA1FF",
"!.	c #5566FF",
"~.	c #5265FF",
"{.	c #4B5DFF",
"].	c #4B58F9",
"^.	c #3C49F2",
"/.	c #5B6EFF",
"(.	c #768CFF",
"_.	c #B0C6FF",
":.	c #EAF5FF",
"<.	c #FBFFFF",
"[.	c #F3F8FF",
"}.	c #D6E2FF",
"|.	c #D2E2FF",
"1.	c #8296FF",
"2.	c #5C6EFF",
"3.	c #3F4CFF",
"4.	c #2E38FF",
"5.	c #434BFA",
"6.	c #4D5FFF",
"7.	c #7F96FF",
"8.	c #879EFF",
"9.	c #BBD0FF",
"0.	c #DCEAFF",
"a.	c #5C6CFF",
"b.	c #95A8FF",
"c.	c #596AFF",
"d.	c #4554FF",
"e.	c #4855FD",
"f.	c #353FF0",
"g.	c #3743FF",
"h.	c #3D4BFF",
"i.	c #5A6EFF",
"j.	c #5A6DFF",
"k.	c #6479FF",
"l.	c #97AEFF",
"m.	c #3842FF",
"n.	c #4B59FF",
"o.	c #6376FF",
"p.	c #4E60FF",
"q.	c #5062FF",
"r.	c #5157F4",
"s.	c #343EF5",
"t.	c #495AFF",
"u.	c #404EFF",
"v.	c #4C5DFF",
"w.	c #7087FF",
"x.	c #2931FF",
"y.	c #5C6FFF",
"z.	c #4453FF",
"A.	c #515CF7",
"B.	c #3741F0",
"C.	c #3541FE",
"D.	c #596EFF",
"E.	c #4251FF",
"F.	c #272EFF",
"G.	c #323CFE",
"H.	c #6674F7",
"I.	c #414BF2",
"J.	c #3B43F6",
"K.	c #4551F8",
"L.	c #5160F8",
"M.	c #515DF6",
"N.	c #3D42F6",
"          . + @ # $ %           ",
"      & * = - ; > , ' ) !       ",
"    ~ { ] ^ / ( _ : < [ } |     ",
"  1 2 ; 3 ' 4 5 6 7 8 9 0 ^ a   ",
"  = b c d e f g h i j 9 k l m   ",
"n o p q r s t u v w x y z A B C ",
"D k E F G w H H H H I J K L _ M ",
"N O P Q R S H H H H H T U V W X ",
"Y Z `  ...+.H H H H @.#.$.%.&.*.",
"=.-.V ;.>.,.H H H H '.).!.~.{.].",
"^.c Z /.(._.:.<.[.}.|.1.2.3.4.5.",
"  Z 6.9 F 7.8.9.0.a.b.7 c.d.e.  ",
"  f.g.h.i.9 j.k.l.m.n.o.p.q.r.  ",
"    s.t.u.c v.p.w.3.x.y.z.A.    ",
"      B.C.g.' > D.E.F.G.H.      ",
"          I.J.K.L.M.N.          "};
