/* XPM */
static char * mini_serve_xpm[] = {
"16 16 3 1",
" 	c None",
".	c #000000",
"+	c #3D3C39",
"     ...        ",
"    .....       ",
"    .....       ",
"     ...        ",
"                ",
"    ...         ",
"   .....        ",
"  ...... +......",
" ........  ...  ",
" ........ ...   ",
"............    ",
"...........     ",
"..........      ",
" ........       ",
"   ......       ",
"   ......       "};
