/* XPM */
static char * soffice_small_xpm[] = {
"16 16 112 2",
"  	c None",
". 	c #584888",
"+ 	c #89659B",
"@ 	c #5C5C87",
"# 	c #956B95",
"$ 	c #C7C7C7",
"% 	c #9090B0",
"& 	c #9587B2",
"* 	c #C772C7",
"= 	c #AB9CAB",
"- 	c #905090",
"; 	c #64558E",
"> 	c #8E6380",
", 	c #ABABAB",
"' 	c #C0C0C0",
") 	c #9A669A",
"! 	c #73738D",
"~ 	c #64648E",
"{ 	c #CECE5C",
"] 	c #B9B9B9",
"^ 	c #CECE95",
"/ 	c #D5D5D5",
"( 	c #B295B2",
"_ 	c #8D738D",
": 	c #805B92",
"< 	c #C78E8E",
"[ 	c #A387A3",
"} 	c #9C9C9C",
"| 	c #957995",
"1 	c #DCDC4E",
"2 	c #AA9555",
"3 	c #906060",
"4 	c #787898",
"5 	c #8E8E8E",
"6 	c #9C809C",
"7 	c #ABAB8E",
"8 	c #805572",
"9 	c #804772",
"0 	c #72398E",
"a 	c #A08A60",
"b 	c #9C8E9C",
"c 	c #9C9CB9",
"d 	c #B9ABB9",
"e 	c #AB64AB",
"f 	c #705090",
"g 	c #9080B0",
"h 	c #9C729C",
"i 	c #9C9CAB",
"j 	c #B980B9",
"k 	c #B2B279",
"l 	c #802B80",
"m 	c #726355",
"n 	c #AA8055",
"o 	c #B98E9C",
"p 	c #DCDC6A",
"q 	c #D59CB8",
"r 	c #B964B9",
"s 	c #A395B2",
"t 	c #795C95",
"u 	c #65659B",
"v 	c #871587",
"w 	c #558E8E",
"x 	c #9C559C",
"y 	c #551C80",
"z 	c #797987",
"A 	c #805580",
"B 	c #655289",
"C 	c #7070A0",
"D 	c #C0876B",
"E 	c #B25CB2",
"F 	c #B9AA9C",
"G 	c #640E80",
"H 	c #5C326B",
"I 	c #956BA3",
"J 	c #AA55AA",
"K 	c #959595",
"L 	c #80398E",
"M 	c #9878A8",
"N 	c #40408D",
"O 	c #A37987",
"P 	c #B8AA55",
"Q 	c #473980",
"R 	c #87A4A4",
"S 	c #80809C",
"T 	c #A495A4",
"U 	c #A4A4A4",
"V 	c #B9B980",
"W 	c #9C9C8E",
"X 	c #A080A0",
"Y 	c #6B7995",
"Z 	c #9595A3",
"` 	c #8E8072",
" .	c #35358B",
"..	c #C7C780",
"+.	c #CEB195",
"@.	c #A487A4",
"#.	c #A36BA3",
"$.	c #4B4B8B",
"%.	c #6060A0",
"&.	c #6E4980",
"*.	c #004D80",
"=.	c #333380",
"-.	c #877979",
";.	c #643980",
">.	c #A340A3",
",.	c #AA63AA",
"'.	c #874095",
").	c #5C796B",
"!.	c #877987",
"~.	c #A4A4B2",
"{.	c #555595",
"].	c #552B80",
"  . +                           ",
"@ # $ %                         ",
"& # * = -                       ",
"; > , ' ' ) !                   ",
"~ { ] ^ / ( _                   ",
": < [ } | 1 2 3                 ",
"  4 5 6 7 8 9 0 a b c d e [ f   ",
"  g h i j k l m n o p q ' r s t ",
"u v r w ' x y z 7 b ] $ , ( A B ",
"C D E ] F G H ] I J K , { L M   ",
"N , 8 O P Q 7 R S T U V W X     ",
"  Y Z `  ...+.] @.#.$.%.        ",
"&.  *.=.  -.;.>.,.'.            ",
"          ).!.#.~.{.            ",
"            @                   ",
"            ].                  "};
