/* XPM */
static char * mini_solaris_xpm[] = {
"16 16 4 1",
" 	c None",
".	c #FFFFFF",
"+	c #000000",
"@	c #FF0000",
"     ...+.+     ",
"   ..@....+.+   ",
"  @.........++  ",
" ..@..........+ ",
" @......@@@@..+ ",
"......++..@@...+",
".....+++...@..++",
"@@...+++...@....",
".....+++...@..++",
"......++..@@...+",
" @......@@@@..+ ",
" ..@..........+ ",
"  @.........++  ",
"   ..@....+.+   ",
"     ...+.+     ",
"                "};
