/* XPM */
static char * mini_spreadsheet_xpm[] = {
"16 16 38 1",
" 	c None",
".	c #000000",
"+	c #0C0C0D",
"@	c #F8F8F8",
"#	c #F7F7F8",
"$	c #F7F7F7",
"%	c #F5F5F4",
"&	c #F4F3F3",
"*	c #F1F1F0",
"=	c #EFEFEE",
"-	c #EBEAE8",
";	c #E8E8E5",
">	c #B2AD93",
",	c #8A8C6B",
"'	c #8D8F70",
")	c #E5E4E0",
"!	c #A3A186",
"~	c #D6D4CB",
"{	c #9D9B7C",
"]	c #CFCDC0",
"^	c #959576",
"/	c #D8D6CD",
"(	c #919271",
"_	c #858867",
":	c #F4F4F3",
"<	c #898B6C",
"[	c #F2F1F1",
"}	c #8F8F70",
"|	c #2F2F2F",
"1	c #888A6D",
"2	c #E4E2DD",
"3	c #8C8D6E",
"4	c #D9D7CE",
"5	c #E0DED9",
"6	c #E5E3DE",
"7	c #F3F3F2",
"8	c #838665",
"9	c #66674E",
" .............  ",
" +@##@$$%&*=-;. ",
" .&>>>>>>>>>>,. ",
"  .=>>......>'. ",
"   .)>!.    .>. ",
"    .~>{.    .. ",
"     .]>^.      ",
"      ./>(.     ",
"      +*>_.     ",
"     +:><.      ",
"    .[>}.    .. ",
"   |;>1.    .=. ",
"  .2><......*3. ",
" .4>>]56**77>8. ",
" .{{{{{{{{{,_9. ",
" .............  "};
