/* XPM */
static char * mini_sun_xpm[] = {
"16 16 2 1",
" 	c None",
".	c #FFFFFBEE0000",
"        .       ",
"    .  ..  .    ",
"    .. .  ..    ",
"     ......     ",
" .. ........ .. ",
"  ............  ",
"   ..........   ",
" ............ ..",
".. ............ ",
"   ..........   ",
"  ............  ",
" .. ........ .. ",
"     ......     ",
"    ..  . ..    ",
"    .  ..  .    ",
"       .        "};
