/* XPM */
static char * mini_sysmon_xpm[] = {
"16 16 8 1",
" 	c None",
".	c #000000",
"+	c #009F00",
"@	c #00BF00",
"#	c #007F00",
"$	c #005F00",
"%	c #00FF00",
"&	c #00DF00",
"                ",
"                ",
" .............. ",
".......+........",
"......+@........",
".....+#@........",
"....#+.@...####.",
".$$#+..@..#%%%%.",
".......@.#&+###.",
".......@$&@.....",
".......@@@......",
".......@&.......",
".......&........",
" .............. ",
"                ",
"                "};
