/* XPM */
static char * mini_tamaya_xpm[] = {
"16 16 58 1",
" 	c None",
".	c #005800",
"+	c #805438",
"@	c #78480C",
"#	c #008C00",
"$	c #A07C64",
"%	c #008400",
"&	c #005000",
"*	c #5C3838",
"=	c #007000",
"-	c #004800",
";	c #684844",
">	c #004400",
",	c #80544C",
"'	c #845840",
")	c #88504C",
"!	c #5C1828",
"~	c #A47454",
"{	c #009800",
"]	c #7C4C40",
"^	c #746050",
"/	c #004000",
"(	c #006400",
"_	c #005C00",
":	c #004C00",
"<	c #002800",
"[	c #A05448",
"}	c #946050",
"|	c #44242C",
"1	c #683C20",
"2	c #A06454",
"3	c #845C50",
"4	c #68383C",
"5	c #503C44",
"6	c #8C7454",
"7	c #AC805C",
"8	c #2C281C",
"9	c #D02000",
"0	c #B04000",
"a	c #B8683C",
"b	c #602C24",
"c	c #F01000",
"d	c #CC0814",
"e	c #F00000",
"f	c #D02C04",
"g	c #906000",
"h	c #744438",
"i	c #E02004",
"j	c #F02000",
"k	c #C03000",
"l	c #D03808",
"m	c #A05000",
"n	c #E02C04",
"o	c #F03000",
"p	c #E01000",
"q	c #70242C",
"r	c #7C382C",
"s	c #000000",
"    .  .    -.  ",
" *&%-.)-..=( ../",
". .  !!  !.+  /.",
" (&  '  @-..:.. ",
"..   !  &(=  =  ",
"     [      . ..",
"     [     ..   ",
"     '         &",
"     !      . (:",
"     [     .&.. ",
"    ' 790       ",
"  c9 decfg      ",
" ei9g  jf       ",
"  9k  ci9       ",
"      e99m      ",
"       io       "};
