/* XPM */
static char * mini_thunderbird_xpm[] = {
"16 16 4 1",
" 	c None",
".	c #042F4D",
"+	c #1147F8",
"@	c #0B98FA",
"                ",
"        .       ",
"      . +.      ",
" .   .@ ++.  .  ",
" .  .@@ .++. .. ",
".@. @@ .+++. @. ",
".@@.@@.@.+++.@. ",
".@@@@@@..+++.@. ",
".@@.@@@@.+++.@..",
".@@..@@@@.+.@@@.",
" .@.+.@@@@.@@@. ",
".@@.++@@@@@@@@. ",
" .@@.+@@@@@@@.  ",
"  ..@.@@@@@..   ",
"    .......     ",
"                "};
