/* XPM */
static char * mini_titan_xpm[] = {
"16 16 10 1",
" 	c None",
".	c #545454",
"+	c #7F7F7F",
"@	c #000000",
"#	c #030303",
"$	c #020202",
"%	c #050505",
"&	c #FFFFFF",
"*	c #040404",
"=	c #060606",
"                ",
"      .++.      ",
"      @@@@      ",
"      ....      ",
"   + #.$$.% +   ",
"   .@$$$$$$@.   ",
"  +@$$$$$$$$@+  ",
" &&&+&&&@&.@&@& ",
" @&@&@&@&+&@&&& ",
" @&@&@&@&@&.&@& ",
"+@@@@@@@@@@@@@@+",
".@@@@@@@@@@@@@@.",
"@@@@@@@@@@@@@@@@",
"@@@%@@@@@@$$$$$@",
"@$*@..++++..@=$@",
"@.+          +.@"};
