/* XPM */
static char * mini_tv_xpm[] = {
"16 16 15 1",
" 	c None",
".	c #808080",
"+	c #604000",
"@	c #78FF78",
"#	c #6DFF6D",
"$	c #56FF56",
"%	c #3FFF3F",
"&	c #27FF27",
"*	c #00FF00",
"=	c #76FF76",
"-	c #00EF00",
";	c #00DF00",
">	c #00CF00",
",	c #00BF00",
"'	c #FFFFFF",
"     .    .     ",
"      .  .      ",
"++++++++++++++++",
"++@#$$%%%&&&**++",
"+=#$$%%%&&&****+",
"+$$%%%&&&*****-+",
"+$%%%&&&*****--+",
"+%%&&&*****---;+",
"+%&&&*****---;;+",
"+&&*****---;;;>+",
"+&*****---;;;>>+",
"+****---;;;>>,,+",
"++**---;;;>>,,++",
"++++++++++++++++",
"+'+'+'++++++++'+",
"++++++++++++++++"};
