/* XPM */
static char * mini_uninett_xpm[] = {
"16 16 5 1",
" 	c None",
".	c #DA0000",
"+	c #DA6464",
"@	c #000000",
"#	c #808080",
"       .        ",
"       ..       ",
"      ....      ",
"    +...... .   ",
"   +......  +.  ",
"  +..+ ..    .+ ",
"  +.+  .     .. ",
"  ..         .. ",
"  @@         @@ ",
"  @@     @  #@# ",
"  #@    @@ #@@# ",
"   @#  @@@@@@#  ",
"    @ @@@@@@#   ",
"       @@@@     ",
"        @@      ",
"         @      "};
