/* XPM */
static char * mini_usbrestart_xpm[] = {
"16 16 5 1",
" 	c None",
".	c #FFFFFF",
"+	c #E5E5E5",
"@	c #7F7F7F",
"#	c #000000",
"      .         ",
"      ..        ",
"     ....       ",
"   +...... .    ",
"  +.....@#@+.   ",
" +..+ .#### .+  ",
" ##+  # @#@ ..  ",
"#### #      .#@ ",
"################",
"####   #.  +.#@ ",
" ##    .# ###+  ",
"  .+  ...####   ",
"   . .....###   ",
"      ....      ",
"       ..       ",
"        .       "};
