/* XPM */
static char * mini_vms_xpm[] = {
"16 16 3 1",
" 	c None",
".	c #AE0000",
"+	c #FFFFFF",
".. . .. . . .. .",
".+ + .. + + .. +",
".+ . .. . + .. +",
"++ + ++ + ++++ +",
"++ + ++ + + .+ +",
"++ + ++ + + ++ +",
"++ + ++ + ++++ +",
".. . .+ . . .. .",
".. . ++ . . .. .",
".. . .. . . .. .",
"                ",
".   . .   .  ...",
".   . .. .. .   ",
" . .  . . .  .. ",
" . .  .   .    .",
"  .   .   . ... "};
