/* XPM */
static char * wp_xpm[] = {
"16 16 4 1",
" 	c None",
".	c #0000F8",
"+	c #000000",
"@	c #0707F5",
"..+ ..+ .+ ...  ",
".+  .+  . ..+.. ",
".+  .+  . ..  ..",
".+ ..+ .+ .+  ..",
".+ ..+ . ..+  .+",
".+.+.+.+ ..   @ ",
"... ...  .+  .+ ",
"..+ ..+ ..+ .+  ",
"+++ +++ ....+   ",
"        .+    + ",
"  ++++ ..+     +",
" +    +.+      +",
"+     + +++   + ",
"+    + +   +++  ",
" +   ++         ",
"  +++           "};
