/* XPM */
static char * mini_xchat_xpm[] = {
"16 16 158 2",
"  	c None",
". 	c #224838",
"+ 	c #234638",
"@ 	c #204136",
"# 	c #19372C",
"$ 	c #153023",
"% 	c #0B1510",
"& 	c #1A372B",
"* 	c #627E74",
"= 	c #5F8578",
"- 	c #346556",
"; 	c #306051",
"> 	c #336354",
", 	c #1E4434",
"' 	c #10231B",
") 	c #0A120E",
"! 	c #152C23",
"~ 	c #336454",
"{ 	c #37A518",
"] 	c #35A319",
"^ 	c #1D4132",
"/ 	c #4A7162",
"( 	c #528861",
"_ 	c #3A6A54",
": 	c #245142",
"< 	c #224C3C",
"[ 	c #13291F",
"} 	c #080B0A",
"| 	c #152E23",
"1 	c #336353",
"2 	c #285849",
"3 	c #2E8827",
"4 	c #32C706",
"5 	c #4F834E",
"6 	c #48BB24",
"7 	c #2FAB08",
"8 	c #2C9507",
"9 	c #22671E",
"0 	c #1C4232",
"a 	c #0D1914",
"b 	c #1D3E33",
"c 	c #316253",
"d 	c #2C6147",
"e 	c #2B6243",
"f 	c #34D806",
"g 	c #47DF1D",
"h 	c #34D406",
"i 	c #184710",
"j 	c #174314",
"k 	c #288707",
"l 	c #15311C",
"m 	c #19382B",
"n 	c #060607",
"o 	c #396D56",
"p 	c #2A5949",
"q 	c #265444",
"r 	c #367147",
"s 	c #52D92F",
"t 	c #36E506",
"u 	c #29A807",
"v 	c #0A130F",
"w 	c #1A3C2D",
"x 	c #1E4F2A",
"y 	c #11261B",
"z 	c #2B5747",
"A 	c #09100D",
"B 	c #1E3D32",
"C 	c #386959",
"D 	c #346A4F",
"E 	c #70BC66",
"F 	c #35DC06",
"G 	c #35E106",
"H 	c #227F07",
"I 	c #1B392B",
"J 	c #6D9771",
"K 	c #629462",
"L 	c #316252",
"M 	c #11221C",
"N 	c #396A5A",
"O 	c #6EA174",
"P 	c #36B80D",
"Q 	c #205E1D",
"R 	c #30B40D",
"S 	c #2CA107",
"T 	c #659665",
"U 	c #439D25",
"V 	c #1D5D15",
"W 	c #2B5A4B",
"X 	c #265141",
"Y 	c #12251D",
"Z 	c #679372",
"` 	c #389A18",
" .	c #1F6213",
"..	c #142C20",
"+.	c #317A36",
"@.	c #2D8C1B",
"#.	c #25750F",
"$.	c #1C5416",
"%.	c #0E1D14",
"&.	c #163425",
"*.	c #234F3F",
"=.	c #0E1C17",
"-.	c #193729",
";.	c #295748",
">.	c #235931",
",.	c #1E4B30",
"'.	c #0F2017",
").	c #1D4031",
"!.	c #508662",
"~.	c #296038",
"{.	c #1D3F30",
"].	c #1F4737",
"^.	c #204A3A",
"/.	c #080D0B",
"(.	c #21483B",
"_.	c #2A5B45",
":.	c #2B523C",
"<.	c #2D5748",
"[.	c #739380",
"}.	c #658F74",
"|.	c #678F75",
"1.	c #2A5B40",
"2.	c #336051",
"3.	c #245041",
"4.	c #487063",
"5.	c #1E4234",
"6.	c #11221B",
"7.	c #396153",
"8.	c #BACAC3",
"9.	c #7A998D",
"0.	c #4A7862",
"a.	c #5E8577",
"b.	c #91AA9F",
"c.	c #66906F",
"d.	c #C6D1CA",
"e.	c #3C6B5B",
"f.	c #94ABA1",
"g.	c #295041",
"h.	c #4D5D56",
"i.	c #63887A",
"j.	c #456F5F",
"k.	c #809C92",
"l.	c #6A9080",
"m.	c #6A8D80",
"n.	c #527667",
"o.	c #7B9A8D",
"p.	c #365D4E",
"q.	c #708B81",
"r.	c #1A231F",
"s.	c #326151",
"t.	c #2D5D4E",
"u.	c #224B3B",
"v.	c #1A3B2D",
"w.	c #0B130F",
"x.	c #1A332B",
"y.	c #1B382E",
"z.	c #1B392F",
"A.	c #132920",
"          . + @ # $ %           ",
"      & * = - ; ; > , ' )       ",
"    ! ~ { ] ^ / ( _ : < [ }     ",
"  | 1 2 3 4 5 6 7 8 9 0 < a     ",
"  b c d e f g h i j k l 0 m n   ",
"  o p q r s t u v w x y ^ z A n ",
"B > C D E F G H I J K ; - L M n ",
"B N D O P Q R S T U V w W X Y n ",
"B - Z `  ...+.@.#.$.%.&.q *.=.n ",
"-.;.>.,.'.).!.~.{.$ ].;.p ^./.n ",
"  (._.:.<.[.}.|.1.2.3.4.2 5.n n ",
"  6.7.8.9.0.a.b.c.d.e.f.g.A n   ",
"    h.i.j.k.l.m.n.o.p.q.r.n n   ",
"      M s.> z t.u.X v.w.n n     ",
"        % x.y.z.A.A n n n       ",
"            n n n n n n         "};
