/* XPM */
static char * mini_xine_xpm[] = {
"18 18 237 2",
"  	c None",
". 	c #C8C9DB",
"+ 	c #DEDEEC",
"@ 	c #E7E8F5",
"# 	c #E6E7F7",
"$ 	c #DDDEF4",
"% 	c #C9CAE7",
"& 	c #A7A8CE",
"* 	c #776004",
"= 	c #847F5A",
"- 	c #AFAFAF",
"; 	c #B0B0B0",
"> 	c #BEBECC",
", 	c #EBECF3",
"' 	c #FEFEFF",
") 	c #FBFBFF",
"! 	c #F6F7FF",
"~ 	c #F1F1FF",
"{ 	c #EBECFF",
"] 	c #E6E7FF",
"^ 	c #E0E1FE",
"/ 	c #C4C6ED",
"( 	c #8688BC",
"_ 	c #584E03",
": 	c #756208",
"< 	c #A49456",
"[ 	c #9F9F9F",
"} 	c #AAAAAC",
"| 	c #F2F2F7",
"1 	c #FDFDFF",
"2 	c #F7F8FF",
"3 	c #EAEBFF",
"4 	c #E4E5FF",
"5 	c #DDDFFF",
"6 	c #C1C3F7",
"7 	c #9598D2",
"8 	c #66699E",
"9 	c #C2A41D",
"0 	c #D1B727",
"a 	c #D5C139",
"b 	c #B8AE6F",
"c 	c #959593",
"d 	c #9D9E9F",
"e 	c #F4F4F8",
"f 	c #F9F9FF",
"g 	c #F0F1FF",
"h 	c #E8EAFF",
"i 	c #E1E3FF",
"j 	c #CACCFA",
"k 	c #9A9DD7",
"l 	c #777AB4",
"m 	c #6E71AA",
"n 	c #5B5C8E",
"o 	c #DBC532",
"p 	c #D3BA2C",
"q 	c #C9B13F",
"r 	c #C2AC4E",
"s 	c #89856F",
"t 	c #7D7D7D",
"u 	c #A1A1A3",
"v 	c #F5F5F8",
"w 	c #F8F8FF",
"x 	c #E8E9FF",
"y 	c #E5E6FF",
"z 	c #D7D9FE",
"A 	c #9C9FD9",
"B 	c #7578B2",
"C 	c #787BB5",
"D 	c #878AC4",
"E 	c #7174AB",
"F 	c #C0A11A",
"G 	c #C2A623",
"H 	c #C6B24E",
"I 	c #A19B6E",
"J 	c #D9D064",
"K 	c #B8B16B",
"L 	c #6D6D6D",
"M 	c #808084",
"N 	c #C9CBF4",
"O 	c #B8BBF4",
"P 	c #B0B3ED",
"Q 	c #A2A5DE",
"R 	c #7679B3",
"S 	c #8487C1",
"T 	c #9497D1",
"U 	c #9DA0DA",
"V 	c #9193CD",
"W 	c #494B77",
"X 	c #C5B449",
"Y 	c #D6C84A",
"Z 	c #A8A272",
"` 	c #EAE06F",
" .	c #E3D969",
"..	c #E7D663",
"+.	c #998E53",
"@.	c #666664",
"#.	c #707078",
"$.	c #8C8EC0",
"%.	c #AEB1E8",
"&.	c #BABCF3",
"*.	c #A4A7E1",
"=.	c #ABAEE8",
"-.	c #B1B4EE",
";.	c #4B4D7D",
">.	c #9A9A92",
",.	c #9D976B",
"'.	c #D3C35F",
").	c #CCB952",
"!.	c #B7A547",
"~.	c #B69F40",
"{.	c #A48E3A",
"].	c #6B623C",
"^.	c #4B4B4B",
"/.	c #4E4E51",
"(.	c #8788A7",
"_.	c #DBDDFF",
":.	c #BDC0F7",
"<.	c #C5C8FC",
"[.	c #C7CAFD",
"}.	c #C8CBFE",
"|.	c #C1C4F7",
"1.	c #474A7A",
"2.	c #888888",
"3.	c #7A7974",
"4.	c #928042",
"5.	c #8A752E",
"6.	c #786B2F",
"7.	c #7A7135",
"8.	c #6E6934",
"9.	c #6C6734",
"0.	c #484532",
"a.	c #3B3B3B",
"b.	c #4F5055",
"c.	c #DFE1EF",
"d.	c #D7D9FF",
"e.	c #DFE1FF",
"f.	c #DCDEFF",
"g.	c #D0D2F6",
"h.	c #484A77",
"i.	c #7F7F7F",
"j.	c #676663",
"k.	c #53502F",
"l.	c #635E2D",
"m.	c #928339",
"n.	c #A8943F",
"o.	c #6D6338",
"p.	c #B6A84C",
"q.	c #827A3E",
"r.	c #383836",
"s.	c #46474F",
"t.	c #DCDEF2",
"u.	c #E7E8FF",
"v.	c #E4E6FF",
"w.	c #E2E3FF",
"x.	c #C6C8EB",
"y.	c #41436B",
"z.	c #676665",
"A.	c #696763",
"B.	c #9B8C44",
"C.	c #D8C453",
"D.	c #766F3F",
"E.	c #BEB153",
"F.	c #D3C357",
"G.	c #C8B650",
"H.	c #6D622C",
"I.	c #1A1A1A",
"J.	c #5E5E63",
"K.	c #E1E2F2",
"L.	c #E7E9FF",
"M.	c #A4A6CE",
"N.	c #796D6C",
"O.	c #5D5C5F",
"P.	c #4A4A44",
"Q.	c #67623C",
"R.	c #B5A147",
"S.	c #C4AE48",
"T.	c #C2AE49",
"U.	c #C9B84E",
"V.	c #D2C357",
"W.	c #807B3A",
"X.	c #181818",
"Y.	c #434347",
"Z.	c #DDDFEE",
"`.	c #DDDFF5",
" +	c #5F618C",
".+	c #86828F",
"++	c #5B5B60",
"@+	c #383732",
"#+	c #A69643",
"$+	c #D8CA5A",
"%+	c #E0D664",
"&+	c #E7E06C",
"*+	c #E9E26F",
"=+	c #E5DD6C",
"-+	c #454220",
";+	c #272725",
">+	c #414246",
",+	c #8C8EB3",
"'+	c #8A8A9C",
")+	c #414145",
"!+	c #42423A",
"~+	c #B7B158",
"{+	c #E7DD6B",
"]+	c #DCD062",
"^+	c #CDBF56",
"/+	c #736B30",
"(+	c #6E6129",
"_+	c #524920",
":+	c #313237",
"<+	c #6F6F73",
"[+	c #2B2B2B",
"}+	c #181712",
"|+	c #8D7F37",
"1+	c #A8953E",
"2+	c #5D5222",
"3+	c #544D24",
"4+	c #716B35",
"5+	c #626134",
"6+	c #3B3A1F",
"7+	c #282828",
"8+	c #13120F",
"9+	c #393318",
"0+	c #404023",
"a+	c #696635",
"b+	c #7F7639",
"c+	c #9A8B3E",
"d+	c #B2A146",
"e+	c #6D652D",
"f+	c #18180B",
"g+	c #070704",
"h+	c #766A2F",
"i+	c #B1A145",
"j+	c #BEB24E",
"k+	c #C6BD56",
"l+	c #C7BF58",
"m+	c #C4BA56",
"n+	c #B3AB4F",
"                                    ",
"            . + @ # $ % &           ",
"* = - ; > , ' ) ! ~ { ] ^ / (       ",
"_ : < [ } | ' 1 2 ~ 3 4 5 6 7 8     ",
"9 0 a b c d e ' f g h i j k l m n   ",
"o p q r s t u v w x y z A B C D E   ",
"F G H I J K L M N O P Q R S T U V W ",
"X Y Z `  ...+.@.#.$.%.&.T *.=.-.=.;.",
">.,.'.).!.~.{.].^./.(._.:.<.[.}.|.1.",
"2.3.4.5.6.7.8.9.0.a.b.c.d.e.5 f.g.h.",
"  i.j.k.l.m.n.o.p.q.r.s.t.u.v.w.x.y.",
"    z.A.B.C.D.E.F.G.H.I.J.K.3 L.M.  ",
"    N.O.P.Q.R.S.T.U.V.W.X.Y.Z.`. +  ",
"      .+++@+#+$+%+&+*+=+-+;+>+,+    ",
"        '+)+!+~+{+]+^+/+(+_+X.:+    ",
"          <+[+}+|+1+2+3+4+5+6+X.X.  ",
"              7+8+9+0+a+b+c+d+e+f+  ",
"                I.g+h+i+j+k+l+m+n+  "};
