/* XPM */
static char * mini_xv_xpm[] = {
"16 16 2 1",
" 	c None",
".	c #FF0000",
"                ",
"                ",
"                ",
"    .     ..  . ",
"   ..  .. .. .. ",
"   .. ..  .. .. ",
"   ....  ..  ...",
"   ...   ..  .. ",
"   ..   ..  .   ",
"  ...  ...  .   ",
" .... .... .    ",
".. ...  ...     ",
".   .   ...     ",
"                ",
"                ",
"                "};
