/* XPM */
static char * mini_yinyan_xpm[] = {
"16 16 4 1",
" 	g None",
".	g #000000",
"+	g #FFFFFF",
"@	g #404040",
"     ......     ",
"   ..........   ",
"  .+..........  ",
" .++...++...... ",
" .++...++...... ",
".+++............",
".++++...........",
".+++++..........",
".+++++++........",
".+++++++++......",
".++++++++++.....",
" .+++++..++.... ",
" .+++++..++.... ",
"  .++++++++...  ",
"   ..+++++@..   ",
"     ......     "};
