/* XPM */
static char * abiword_xpm[] = {
"32 32 13 1",
" 	c None",
".	c #0E0F0F",
"+	c #283034",
"@	c #7A7D6F",
"#	c #3D4C58",
"$	c #5F615F",
"%	c #696C6B",
"&	c #455E75",
"*	c #519BE5",
"=	c #5C9BDC",
"-	c #4073A4",
";	c #457EB5",
">	c #699FD7",
"      ..                        ",
"   ...+.             ..@        ",
"#..+   ..            .#...@     ",
"+      #.           @.  $....@  ",
"        .           .%      ...+",
"        .#         @.           ",
"        ..         .%           ",
"         .$       $.            ",
"         .&&@.......            ",
"         ..*********..          ",
"        .&*********==*.         ",
"        .*******#+*&.**.        ",
"        .*******-+=;+==*.       ",
"       .********-#*;#**=*.      ",
"       .*>****************.     ",
"      @**>****************++    ",
"      .********************.    ",
"      .********************.%   ",
"      .****.***************#.   ",
"       .**&+.***************.   ",
"       .**&.=***************.   ",
"        .**.****************.   ",
"         ..*.***************.   ",
"           ..#*************.    ",
"            ....***********.    ",
"            .***..********..    ",
"            &****+..*****..     ",
"            .****.  .....#      ",
"           ...***..             ",
"           .>=...**.            ",
"         @.;=======;..          ",
"         .;=========*&.         "};
