/* XPM */
static char * access_xpm[] = {
"32 32 4 1",
" 	c None",
".	c #8F9FFF",
"+	c #1F3FFF",
"@	c #FFFFFF",
"                                ",
"           ..++++++..           ",
"         .++++++++++++.         ",
"       .++++.@@@@@@.++++.       ",
"      .++.@@@@@@@@@@@@.++.      ",
"     .++.@@@..++++..@@@.++.     ",
"    .++@@@.++++++++++.@@@++.    ",
"   .++@@@++++++++++++++@@@++.   ",
"   ++.@@+++++++@@+++++++@@.++   ",
"  .+.@@+++++++@@@@+++++++@@.+.  ",
"  ++@@.+++++++@@@@+++++++.@@++  ",
" .++@@+++++++++@@+++++++++@@++. ",
" .+.@.++++++++++++++++++++.@.+. ",
" ++@@.+++.@@@@@@@@@@@@.+++.@@++ ",
" ++@@+++++++.@@@@@@.+++++++@@++ ",
" ++@@+++++++++@@@@+++++++++@@++ ",
" ++@@+++++++++@@@@+++++++++@@++ ",
" ++@@+++++++++@@@@+++++++++@@++ ",
" ++@@.++++++++@@@@++++++++.@@++ ",
" .+.@.+++++++.@@@@.+++++++.@.+. ",
" .++@@+++++++@@..@@+++++++@@++. ",
"  ++@@.++++++@@++@@++++++.@@++  ",
"  .+.@@+++++.@@++@@.+++++@@.+.  ",
"   ++.@@++++@@.++.@@++++@@.++   ",
"   .++@@@+++@@++++@@+++@@@++.   ",
"    .++@@@.++++++++++.@@@++.    ",
"     .++.@@@..++++..@@@.++.     ",
"      .++.@@@@@@@@@@@@.++.      ",
"       .++++.@@@@@@.++++.       ",
"         .++++++++++++.         ",
"           ..++++++..           ",
"                                "};
