/* XPM */
static char * adobe_xpm[] = {
"32 32 2 1",
" 	c None",
".	c #FD0202",
"............        ............",
"............        ............",
"...........          ...........",
"...........          ...........",
"...........          ...........",
"..........            ..........",
"..........            ..........",
".........              .........",
".........              .........",
".........              .........",
"........                ........",
"........                ........",
".......                  .......",
".......        .         .......",
".......        .         .......",
"......        ...         ......",
"......        ...         ......",
".....         ....         .....",
".....        .....         .....",
".....        .....         .....",
"....        .......         ....",
"....        .......         ....",
"...         ........         ...",
"...        .........         ...",
"...        .........         ...",
"..              .....         ..",
"..              .....         ..",
".                .....         .",
".                .....         .",
".                .....         .",
"                  .....         ",
"                  .....         "};
