/* XPM */
static char * agresso_xpm[] = {
"32 26 3 1",
" 	c None",
".	c #00409D",
"+	c #FFFFFF",
" .                            . ",
" .                            . ",
".+.                          .+.",
".+.                          .+.",
".++..      ..........      ..++.",
".++++......++++++++++......++++.",
" .++++++++++++++++++++++++++++. ",
"  .++++++++++++++++++++++++++.  ",
"   ..++++++++++++++++++++++..   ",
"     .++++++++++++++++++++.     ",
"      .++++++++++++++++++.      ",
"     .++++++++++++++++++++.     ",
"      ..++++++++++++++++..      ",
"        .++++++++++++++.        ",
"         .++++++++++++.         ",
"          .++++++++++.          ",
"          .++++++++++.          ",
"          .++++++++++.          ",
"          .++++++++++.          ",
"           .++++++++.           ",
"           .++++++++.           ",
"           .++++++++.           ",
"           .++++++++.           ",
"            .++++++.            ",
"             ..++..             ",
"               ..               "};
