/* XPM */
static char * apple_xpm[] = {
"32 32 7 1",
" 	c None",
".	c #59CD29",
"+	c #FFD300",
"@	c #FF5B00",
"#	c #FD0204",
"$	c #9E019C",
"%	c #029ACE",
"                    ..          ",
"                   ...          ",
"                  ....          ",
"                 ....           ",
"                 ....           ",
"                ...             ",
"                ..              ",
"                                ",
"        .......    ........     ",
"      ......................    ",
"     ........................   ",
"    ........................    ",
"    +++++++++++++++++++++++     ",
"    ++++++++++++++++++++++      ",
"   +++++++++++++++++++++++      ",
"   ++++++++++++++++++++++       ",
"   @@@@@@@@@@@@@@@@@@@@@@       ",
"   @@@@@@@@@@@@@@@@@@@@@@       ",
"   @@@@@@@@@@@@@@@@@@@@@@       ",
"   @@@@@@@@@@@@@@@@@@@@@@@      ",
"   #######################      ",
"    #######################     ",
"    ########################    ",
"    #########################   ",
"     $$$$$$$$$$$$$$$$$$$$$$$$$  ",
"     $$$$$$$$$$$$$$$$$$$$$$$$   ",
"     $$$$$$$$$$$$$$$$$$$$$$$$   ",
"      $$$$$$$$$$$$$$$$$$$$$$    ",
"      %%%%%%%%%%%%%%%%%%%%%%    ",
"       %%%%%%%%%%%%%%%%%%%%     ",
"        %%%%%%%%  %%%%%%%%      ",
"         %%%%%      %%%%%       "};
