/* XPM */
static char * backgammon2_xpm[] = {
"32 32 8 1",
" 	c None",
".	c #6C3D0E",
"+	c #004C00",
"@	c #000000",
"#	c #808080",
"$	c #FFFFFF",
"%	c #80CC80",
"&	c #009900",
"................................",
"................................",
"..+@#$#@#$#@#$%..+@#$#@#$#@#$%..",
"..+@#$#@#$#@#$%..+@#$#@#$#@#$%..",
"..+@#$#@#$#@#$%..+@#$#@#$#@#$%..",
"..+@#$#@#$#@#$%..+@#$#@#$#@#$%..",
"..&@&$&@&$&@&$&..&@&$&@&$&@&$&..",
"..&@&$&@&$&@&$&..&@&$&@&$&@&$&..",
"..&+&%&+&%&+&%&..&+&%&+&%&+&%&..",
"..&+&%&+&%&+&%&..&+&%&+&%&+&%&..",
"..&+&%&+&%&+&%&..&+&%&+&%&+&%&..",
"..&+&%&+&%&+&%&..&+&%&+&%&+&%&..",
"..&&&&&&&&&&&&&..&&&&&&&&&&&&&..",
"..&&&&&&&&&&&&&..&&&&&&&&&&&&&..",
"..&&&&&&&&&&&&&..&&&&&&&&&&&&&..",
"..&&&&&&&&&&&&&..&&&&&&&&&&&&&..",
"..&&&&&&&&&&&&&..&&&&&&&&&&&&&..",
"..&&&&&&&&&&&&&..&&&&&&&&&&&&&..",
"..&&&&&&&&&&&&&..&&&&&&&&&&&&&..",
"..&&&&&&&&&&&&&..&&&&&&&&&&&&&..",
"..&%&+&%&+&%&+&..&%&+&%&+&%&+&..",
"..&%&+&%&+&%&+&..&%&+&%&+&%&+&..",
"..&%&+&%&+&%&+&..&%&+&%&+&%&+&..",
"..&%&+&%&+&%&+&..&%&+&%&+&%&+&..",
"..&$&@&$&@&$&@&..&$&@&$&@&$&@&..",
"..&$&@&$&@&$&@&..&$&@&$&@&$&@&..",
"..%$#@#$#@#$#@+..%$#@#$#@#$#@+..",
"..%$#@#$#@#$#@+..%$#@#$#@#$#@+..",
"..%$#@#$#@#$#@+..%$#@#$#@#$#@+..",
"..%$#@#$#@#$#@+..%$#@#$#@#$#@+..",
"................................",
"................................"};
