/* XPM */
static char * backgammon_xpm[] = {
"32 32 6 1",
" 	c None",
".	c #000000",
"+	c #004C00",
"@	c #009900",
"#	c #80CC80",
"$	c #FFFFFF",
"................................",
".++@@@@@@@@@@@@..@@@@@@@@@@@@##.",
"....+++@@@@@@@@..@@@@@@@@###$$$.",
".........++@@@@..@@@@##$$$$$$$$.",
"....+++@@@@@@@@..@@@@@@@@###$$$.",
".++@@@@@@@@@@@@..@@@@@@@@@@@@##.",
".##@@@@@@@@@@@@..@@@@@@@@@@@@++.",
".$$$###@@@@@@@@..@@@@@@@@+++....",
".$$$$$$$$##@@@@..@@@@++.........",
".$$$###@@@@@@@@..@@@@@@@@+++....",
".##@@@@@@@@@@@@..@@@@@@@@@@@@++.",
".++@@@@@@@@@@@@..@@@@@@@@@@@@##.",
"....+++@@@@@@@@..@@@@@@@@###$$$.",
".........++@@@@..@@@@##$$$$$$$$.",
"....+++@@@@@@@@..@@@@@@@@###$$$.",
".++@@@@@@@@@@@@..@@@@@@@@@@@@##.",
".##@@@@@@@@@@@@..@@@@@@@@@@@@++.",
".$$$###@@@@@@@@..@@@@@@@@+++....",
".$$$$$$$$##@@@@..@@@@++.........",
".$$$###@@@@@@@@..@@@@@@@@+++....",
".##@@@@@@@@@@@@..@@@@@@@@@@@@++.",
".++@@@@@@@@@@@@..@@@@@@@@@@@@##.",
"....+++@@@@@@@@..@@@@@@@@###$$$.",
".........++@@@@..@@@@##$$$$$$$$.",
"....+++@@@@@@@@..@@@@@@@@###$$$.",
".++@@@@@@@@@@@@..@@@@@@@@@@@@##.",
".##@@@@@@@@@@@@..@@@@@@@@@@@@++.",
".$$$###@@@@@@@@..@@@@@@@@+++....",
".$$$$$$$$##@@@@..@@@@++.........",
".$$$###@@@@@@@@..@@@@@@@@+++....",
".##@@@@@@@@@@@@..@@@@@@@@@@@@++.",
"................................"};
