/* XPM */
static char * battleship_xpm[] = {
"31 32 3 1",
" 	c None",
".	c #000000",
"+	c #AAAAAA",
"               .               ",
"              ...              ",
"               .               ",
"               .               ",
"               .               ",
"              ...              ",
"           .   .               ",
"          ...  .               ",
"           .   ..              ",
"           .   ..              ",
"          ..........           ",
"            ........           ",
"            ...++...           ",
"            ...++...           ",
"           ..........          ",
"           ..........          ",
"            ........           ",
"            ........           ",
"          ............         ",
"          ............         ",
"       .. ............         ",
"    .....................      ",
"      .......................  ",
"     ......................    ",
"  ..............+++........... ",
"     ...........+++++++.....   ",
" ...............+++++++++++... ",
"................++++++++++++++.",
" ...............+++++++++++++. ",
" ...............+++++++++++++. ",
"  ..............++++++++++++.  ",
"  ...........................  "};
