/* XPM */
static char * bill_xpm[] = {
"32 32 8 1",
" 	c None",
".	c #5D3C5D",
"+	c #DFBE5D",
"@	c #000000",
"#	c #FFFFFF",
"$	c #FFFBF3",
"%	c #DFDFBE",
"&	c #FFFF9E",
"          ........              ",
"        ..++++++++...           ",
"       .+++++++++++++..         ",
"      .++++++++++++++++..       ",
"      .+++++++++++++++.++.      ",
"      ..++++++++++++++.+++.     ",
"     .++++++++++++++++++++.     ",
"    .++++++++++++++++++++++.    ",
"    .++++++++++@@@@++++++++.    ",
"    .++@@@@+++@####@+++++++.    ",
"    .+@####@+@#####@+++++++.    ",
"     .@####@+@######@@@@+.+.    ",
"      @#####@@######@$%.+.+     ",
"    ..@#####@@######@%$...      ",
"    ..@#####@$@#####@.......    ",
"    .$@@###@$%@####@$..%.%$.    ",
"    .%$%@@@$%$%@@@@$...$%$..    ",
"    ....&&.%.%$%$%$.&&.%$%.     ",
"      .&&&.$%.%$%$.&&&.$%$.     ",
"       .&&&.$%$%$.&&&&.....     ",
"       .&&&&.$%$..&&&&&&..      ",
"        .&&.&...&&&&&&&..       ",
"         .&.&.&&.&&&&&&.        ",
"         .&.&.&.&&&&&&.         ",
"         .&&..&.&&&&&&.         ",
"         .&&...&&&&&&&.         ",
"         .&&&..&&&&&&&.         ",
"         .&&&.&&&&&&&&.         ",
"         .&&&.&&&&&&&..         ",
"          ............          ",
"           .&&&&&&&&.           ",
"           .&&&&&&&&.           "};
