/* XPM */
static char * bubble_xpm[] = {
"32 32 508 2",
"  	c None",
". 	c #80809E",
"+ 	c #686878",
"@ 	c #686778",
"# 	c #7E7E9C",
"$ 	c #777690",
"% 	c #706C78",
"& 	c #A39EA5",
"* 	c #B8B0BC",
"= 	c #C1B9C4",
"- 	c #888189",
"; 	c #625C6A",
"> 	c #70708A",
", 	c #696576",
"' 	c #867C89",
") 	c #B5AAB7",
"! 	c #CFC6D2",
"~ 	c #D4CCD6",
"{ 	c #CFC8D2",
"] 	c #B2A7B5",
"^ 	c #978B9A",
"/ 	c #726D77",
"( 	c #595967",
"_ 	c #635B68",
": 	c #978A9A",
"< 	c #A097A1",
"[ 	c #9D989D",
"} 	c #9F9DA0",
"| 	c #B9B6BA",
"1 	c #D8D5D9",
"2 	c #E4DDE5",
"3 	c #CCC3CF",
"4 	c #A698A8",
"5 	c #8B7E8D",
"6 	c #575560",
"7 	c #77758F",
"8 	c #6A646E",
"9 	c #716A75",
"0 	c #605B6A",
"a 	c #544D58",
"b 	c #73718B",
"c 	c #666072",
"d 	c #99899C",
"e 	c #8A828B",
"f 	c #B2B2B3",
"g 	c #E6E6E6",
"h 	c #F0F0F0",
"i 	c #C4C4C5",
"j 	c #9A999B",
"k 	c #CBC5CD",
"l 	c #E0D8E2",
"m 	c #C9BECD",
"n 	c #A999AC",
"o 	c #998D9C",
"p 	c #68666F",
"q 	c #4F4E5F",
"r 	c #726A74",
"s 	c #948897",
"t 	c #9D8FA1",
"u 	c #A595A9",
"v 	c #9A889D",
"w 	c #7F6E83",
"x 	c #625365",
"y 	c #4F4E60",
"z 	c #68687D",
"A 	c #E5E5E5",
"B 	c #E5E4E5",
"C 	c #474655",
"D 	c #605E74",
"E 	c #605E75",
"F 	c #4F4E5D",
"G 	c #484751",
"H 	c #736676",
"I 	c #928595",
"J 	c #B6B6B8",
"K 	c #FCFCFC",
"L 	c #FEFEFE",
"M 	c #E7E7E7",
"N 	c #908C90",
"O 	c #D6CCD8",
"P 	c #D5CAD8",
"Q 	c #C5B6C9",
"R 	c #9E8FA1",
"S 	c #5F5860",
"T 	c #8A7D8D",
"U 	c #AB9CAE",
"V 	c #BEB2C2",
"W 	c #C1B5C5",
"X 	c #C1B3C5",
"Y 	c #A08CA4",
"Z 	c #826B87",
"` 	c #443C4E",
" .	c #5C5B74",
"..	c #7F7F9C",
"+.	c #B3B3B3",
"@.	c #858285",
"#.	c #918B92",
"$.	c #988E98",
"%.	c #665D66",
"&.	c #9E9D9E",
"*.	c #F3F3F3",
"=.	c #949294",
"-.	c #837E83",
";.	c #F6F6F6",
">.	c #F9F9F9",
",.	c #D7D0D9",
"'.	c #D5CDD8",
").	c #FDFDFD",
"!.	c #BCBABC",
"~.	c #AFA5B1",
"{.	c #D0C3D4",
"].	c #BFB0C2",
"^.	c #A193A4",
"/.	c #A393A5",
"(.	c #C1B2C4",
"_.	c #CEC3D1",
":.	c #DBD1DD",
"<.	c #D5C9D8",
"[.	c #BFAFC2",
"}.	c #927E96",
"|.	c #5B4C60",
"1.	c #433F4F",
"2.	c #868686",
"3.	c #BBB6BB",
"4.	c #AAA1A9",
"5.	c #928791",
"6.	c #736C73",
"7.	c #DEDEDE",
"8.	c #C0B4C4",
"9.	c #AB9FAD",
"0.	c #908F90",
"a.	c #DFD8E1",
"b.	c #673474",
"c.	c #6C377A",
"d.	c #DCD8DD",
"e.	c #CECDD0",
"f.	c #ACA2AE",
"g.	c #C9BACE",
"h.	c #B2A1B5",
"i.	c #BAA9BF",
"j.	c #C4B4C8",
"k.	c #CBBBCE",
"l.	c #D3C6D6",
"m.	c #D5C9D7",
"n.	c #D0C2D2",
"o.	c #AF9DB3",
"p.	c #68576B",
"q.	c #33323E",
"r.	c #5D5D76",
"s.	c #6F6C72",
"t.	c #8B838B",
"u.	c #857984",
"v.	c #7D777D",
"w.	c #E1E1E1",
"x.	c #A289A8",
"y.	c #947C9B",
"z.	c #838284",
"A.	c #D8CEDA",
"B.	c #541764",
"C.	c #5F1E6F",
"D.	c #CFC9D0",
"E.	c #C8C6C9",
"F.	c #A498A6",
"G.	c #C3B2C8",
"H.	c #C1AFC6",
"I.	c #C2B0C7",
"J.	c #C3B1C7",
"K.	c #C5B4C9",
"L.	c #CABACE",
"M.	c #9F8EA2",
"N.	c #534A57",
"O.	c #413E50",
"P.	c #57566E",
"Q.	c #55505A",
"R.	c #6A5E69",
"S.	c #5C535B",
"T.	c #C4C3C4",
"U.	c #E7E5E8",
"V.	c #A6A5A7",
"W.	c #5D575E",
"X.	c #E2E2E2",
"Y.	c #F5F3F5",
"Z.	c #B8A9BD",
"`.	c #B5A5B9",
" +	c #FAFAFA",
".+	c #A09CA1",
"++	c #A898AB",
"@+	c #BEACC3",
"#+	c #C0AEC5",
"$+	c #B4A1B8",
"%+	c #9B8A9E",
"&+	c #635866",
"*+	c #292831",
"=+	c #525268",
"-+	c #3D353E",
";+	c #463845",
">+	c #494548",
",+	c #888786",
"'+	c #625A4B",
")+	c #5C513F",
"!+	c #959390",
"~+	c #F7F7F7",
"{+	c #CECECF",
"]+	c #7F7381",
"^+	c #B8A3BB",
"/+	c #B9A4BE",
"(+	c #BBA6BF",
"_+	c #BBA7C0",
":+	c #A995AD",
"<+	c #AD99B1",
"[+	c #806F84",
"}+	c #3F3441",
"|+	c #685A6C",
"1+	c #454550",
"2+	c #312C38",
"3+	c #7A746C",
"4+	c #CCB789",
"5+	c #CBAF74",
"6+	c #D4BC8D",
"7+	c #A5977C",
"8+	c #94918C",
"9+	c #C6C4C3",
"0+	c #C7C6C5",
"a+	c #888787",
"b+	c #534A55",
"c+	c #947E99",
"d+	c #A48CA9",
"e+	c #AD94B1",
"f+	c #B098B5",
"g+	c #AA91AE",
"h+	c #847088",
"i+	c #5B4A5E",
"j+	c #886D8E",
"k+	c #8C6D92",
"l+	c #826788",
"m+	c #5B5360",
"n+	c #65647F",
"o+	c #796C56",
"p+	c #CEAF6D",
"q+	c #E1C284",
"r+	c #F3DCAE",
"s+	c #F2E3C4",
"t+	c #D0C7B8",
"u+	c #9D9585",
"v+	c #7A705C",
"w+	c #4D4446",
"x+	c #594359",
"y+	c #615162",
"z+	c #655369",
"A+	c #937998",
"B+	c #A287A7",
"C+	c #A286A8",
"D+	c #9E80A5",
"E+	c #96779C",
"F+	c #94749B",
"G+	c #8F6C95",
"H+	c #7E5D85",
"I+	c #736576",
"J+	c #58586D",
"K+	c #746449",
"L+	c #D0AD64",
"M+	c #EACA88",
"N+	c #FBE3B2",
"O+	c #FAE9C6",
"P+	c #E9DCC5",
"Q+	c #C3B69A",
"R+	c #88795F",
"S+	c #6E5469",
"T+	c #AE78AB",
"U+	c #8A5E88",
"V+	c #634A62",
"W+	c #534156",
"X+	c #85698B",
"Y+	c #98799E",
"Z+	c #98779E",
"`+	c #94729A",
" @	c #8E6B95",
".@	c #896591",
"+@	c #7C5783",
"@@	c #87708C",
"#@	c #42414F",
"$@	c #675842",
"%@	c #C9A458",
"&@	c #E5C37A",
"*@	c #F4D89E",
"=@	c #EDD6A8",
"-@	c #D0BE99",
";@	c #928368",
">@	c #685459",
",@	c #C997C6",
"'@	c #EAB1E8",
")@	c #BF86BC",
"!@	c #8B5B89",
"~@	c #543C54",
"{@	c #523E56",
"]@	c #86668D",
"^@	c #906E97",
"/@	c #8D6994",
"(@	c #88638F",
"_@	c #835D8B",
":@	c #795281",
"<@	c #7A5980",
"[@	c #4D4953",
"}@	c #534A47",
"|@	c #B38F47",
"1@	c #D5B064",
"2@	c #DDBD7D",
"3@	c #CBB17D",
"4@	c #87785E",
"5@	c #6A565E",
"6@	c #BE97BD",
"7@	c #F7C4F4",
"8@	c #F4BFF1",
"9@	c #D09DCE",
"0@	c #A2719F",
"a@	c #6A4467",
"b@	c #433243",
"c@	c #705176",
"d@	c #896490",
"e@	c #86618E",
"f@	c #825B89",
"g@	c #7D5585",
"h@	c #754C7E",
"i@	c #6F4977",
"j@	c #5C5362",
"k@	c #604D2B",
"l@	c #8C6F3D",
"m@	c #816A4A",
"n@	c #62514D",
"o@	c #93768F",
"p@	c #E1BADF",
"q@	c #F8CFF6",
"r@	c #F9CFF6",
"s@	c #F0C4EE",
"t@	c #D3A6D1",
"u@	c #AC7EAA",
"v@	c #784E76",
"w@	c #533B52",
"x@	c #543A59",
"y@	c #805987",
"z@	c #7F5786",
"A@	c #7A5182",
"B@	c #764C7F",
"C@	c #704579",
"D@	c #6A4073",
"E@	c #6B5F71",
"F@	c #595971",
"G@	c #493F50",
"H@	c #7A5B72",
"I@	c #9E7C9D",
"J@	c #CEA9CE",
"K@	c #F2CCF0",
"L@	c #F9D7F7",
"M@	c #F6D6F4",
"N@	c #F0CFEE",
"O@	c #E6C1E4",
"P@	c #CCA3CB",
"Q@	c #A77CA5",
"R@	c #785076",
"S@	c #5A3F58",
"T@	c #49304C",
"U@	c #785080",
"V@	c #784E80",
"W@	c #74497D",
"X@	c #704479",
"Y@	c #6E4177",
"Z@	c #6B3F73",
"`@	c #6C6172",
" #	c #5A5A73",
".#	c #726784",
"+#	c #B689B3",
"@#	c #E6BAE4",
"##	c #EEC8EC",
"$#	c #F0D0EE",
"%#	c #EDD1EC",
"&#	c #E8CFE6",
"*#	c #E0C5DE",
"=#	c #D5B5D4",
"-#	c #BE97BC",
";#	c #9B7299",
">#	c #714B6F",
",#	c #533951",
"'#	c #4E3053",
")#	c #72487B",
"!#	c #714479",
"~#	c #6C4075",
"{#	c #6B3F74",
"]#	c #6C3F75",
"^#	c #6C4474",
"/#	c #5E5763",
"(#	c #6E5772",
"_#	c #C79FC6",
":#	c #D1AED0",
"<#	c #D4B7D3",
"[#	c #D2BAD2",
"}#	c #CEB8CD",
"|#	c #C5ADC5",
"1#	c #BB9DBA",
"2#	c #A783A5",
"3#	c #8A6488",
"4#	c #6A4769",
"5#	c #443045",
"6#	c #5B3563",
"7#	c #613A69",
"8#	c #5F4265",
"9#	c #6B566F",
"0#	c #6F5B72",
"a#	c #694F6E",
"b#	c #604A64",
"c#	c #393643",
"d#	c #6D6D82",
"e#	c #716C74",
"f#	c #796078",
"g#	c #AF8CAD",
"h#	c #B899B6",
"i#	c #B49AB2",
"j#	c #A38EA1",
"k#	c #AD93AC",
"l#	c #A889A7",
"m#	c #977495",
"n#	c #7F5B7D",
"o#	c #5D425C",
"p#	c #442948",
"q#	c #54325B",
"r#	c #655668",
"s#	c #9B929B",
"t#	c #C6BFC7",
"u#	c #D6D1D6",
"v#	c #C7C5C8",
"w#	c #9D9A9D",
"x#	c #53525A",
"y#	c #5B5B73",
"z#	c #7C7B86",
"A#	c #CCCACE",
"B#	c #D1CED2",
"C#	c #827C82",
"D#	c #50404F",
"E#	c #836882",
"F#	c #8E758C",
"G#	c #816F80",
"H#	c #90768E",
"I#	c #957794",
"J#	c #826480",
"K#	c #685168",
"L#	c #412A44",
"M#	c #4F2D55",
"N#	c #625364",
"O#	c #AB9CAB",
"P#	c #BAAEBB",
"Q#	c #C8BDC9",
"R#	c #D6CDD6",
"S#	c #E1DBE1",
"T#	c #DBD3DA",
"U#	c #BFB8C0",
"V#	c #79757C",
"W#	c #67667D",
"X#	c #8C8A92",
"Y#	c #DAD8DB",
"Z#	c #E0DDE0",
"`#	c #D4D0D5",
" $	c #BAB5BA",
".$	c #625E62",
"+$	c #2E2230",
"@$	c #533D54",
"#$	c #665167",
"$$	c #6B566C",
"%$	c #665067",
"&$	c #58415A",
"*$	c #4D2F52",
"=$	c #5C3563",
"-$	c #4F3B51",
";$	c #887287",
">$	c #998499",
",$	c #A896A8",
"'$	c #B8A9B8",
")$	c #C5B8C4",
"!$	c #CCC2CC",
"~$	c #BDAFBD",
"{$	c #B3A4B2",
"]$	c #7F767F",
"^$	c #636275",
"/$	c #83818A",
"($	c #CDC9CE",
"_$	c #D9D6D9",
":$	c #CBC6CC",
"<$	c #BDB7BD",
"[$	c #A8A0A7",
"}$	c #685F69",
"|$	c #2D1E30",
"1$	c #402345",
"2$	c #57335F",
"3$	c #593361",
"4$	c #613769",
"5$	c #693B71",
"6$	c #492E4D",
"7$	c #6A526A",
"8$	c #785B78",
"9$	c #866C85",
"0$	c #978096",
"a$	c #A894A7",
"b$	c #B2A1B2",
"c$	c #B8A8B7",
"d$	c #B5A5B5",
"e$	c #AC9AAB",
"f$	c #9E889D",
"g$	c #958094",
"h$	c #736B76",
"i$	c #5B5A6F",
"                                                                ",
"                                                                ",
"                                                                ",
"                                                                ",
"                                                                ",
"                                                                ",
"                                                                ",
"                                                                ",
"                          . + @ #                               ",
"                      $ % & * = - ; >                           ",
"                    , ' ) ! ~ { ] ^ / (                         ",
"                  _ : < [ } | 1 2 3 4 5 6       7 8 9 0 a b     ",
"                c d e f g h i j k l m n o p q r s t u v w x y   ",
"z A B C D E F G H I J K L L L M N O P Q R S T U V W X Y Z `  .  ",
"..+.@.#.$.%.&.*.=.-.;.>.,.'.).).!.~.{.].^./.(._.:.<.[.}.|.1.    ",
"  2.3.4.5.6.7.8.9.0.L a.b.c.d.L e.f.g.h.i.j.k.l.m.n.o.p.q.r.    ",
"    s.t.u.v.w.x.y.z.).A.B.C.D.L E.F.G.H.I.J.K.k.L.M.N.O.P.      ",
"      Q.R.S.T.U.V.W.X.Y.Z.`. +K .+++@+@+H.#+@+$+%+&+*+=+        ",
"        -+;+>+,+'+)+!+~+L L ).{+]+^+/+(+_+:+<+[+}+|+1+          ",
"          2+3+4+5+6+7+8+9+0+a+b+c+d+e+f+g+h+i+j+k+l+m+          ",
"          n+o+p+q+r+s+t+u+v+w+x+y+z+A+B+C+D+E+F+G+H+I+J+        ",
"            K+L+M+N+O+P+Q+R+S+T+U+V+W+X+Y+Z+`+ @.@+@@@#@        ",
"            $@%@&@*@=@-@;@>@,@'@)@!@~@{@]@^@/@(@_@:@<@[@        ",
"            }@|@1@2@3@4@5@6@7@8@9@0@a@b@c@d@e@f@g@h@i@j@        ",
"              k@l@m@n@o@p@q@r@s@t@u@v@w@x@y@z@A@B@C@D@E@F@      ",
"              G@H@I@J@K@L@M@N@O@P@Q@R@S@T@U@V@W@X@Y@Z@`@ #      ",
"              .#+#@###$#%#&#*#=#-#;#>#,#'#)#!#~#{#]#^#/#        ",
"                (#_#:#<#[#}#|#1#2#3#4#5#6#7#8#9#0#a#b#c#        ",
"              d#e#f#g#h#i#j#k#l#m#n#o#p#q#r#s#t#u#v#w#x#y#      ",
"            z#A#B#C#D#E#F#G#H#I#J#K#L#M#N#O#P#Q#R#S#T#U#V#W#    ",
"          X#Y#Z#`# $.$+$@$#$$$%$&$*$=$-$;$>$,$'$)$!$Q#~${$]$^$  ",
"        /$($_$`#:$<$[$}$|$1$2$3$4$5$6$7$8$9$0$a$b$c$d$e$f$g$h$i$"};
