/* XPM */
static char * calc_xpm[] = {
"32 32 5 1",
" 	c None",
".	c #808080",
"+	c #FFFFFF",
"@	c #000000",
"#	c #D9D9D9",
"                                ",
"                                ",
"                                ",
" .............................. ",
".++++++++++++++++++++++++++++++@",
".+#############################@",
".+#######@@@@@@@@@@@@@@@@@@@@@#@",
".+#######@+++++++++++++++++++.#@",
".+#######@+++++++++++++++++++.#@",
".+#######@+++++++++++++++++++.#@",
".+#######.....................#@",
".+#############################@",
".+#.....@#.....@#.....@#.....@#@",
".+#.....@#.....@#.....@#.....@#@",
".+#@@@@@@#@@@@@@#@@@@@@#@@@@@@#@",
".+#############################@",
".+#.....@#.....@#.....@#.....@#@",
".+#.....@#.....@#.....@#.....@#@",
".+#@@@@@@#@@@@@@#@@@@@@#@@@@@@#@",
".+#############################@",
".+#.....@#.....@#.....@#.....@#@",
".+#.....@#.....@#.....@#.....@#@",
".+#@@@@@@#@@@@@@#@@@@@@#@@@@@@#@",
".+#############################@",
".+#.....@#.....@#.....@#.....@#@",
".+#.....@#.....@#.....@#.....@#@",
".+#@@@@@@#@@@@@@#@@@@@@#@@@@@@#@",
".+#############################@",
" @@@@@@@@@@@@@@@@@@@@@@@@@@@@@@ ",
"                                ",
"                                ",
"                                "};
