/* XPM */
static char * camera_xpm[] = {
"32 32 500 2",
"  	c None",
". 	c #9C9CD9",
"+ 	c #5F5F7D",
"@ 	c #8F8FAE",
"# 	c #9292C7",
"$ 	c #6969C5",
"% 	c #5E5EC0",
"& 	c #9B9BBD",
"* 	c #16163D",
"= 	c #1B1B43",
"- 	c #1F1F42",
"; 	c #444457",
"> 	c #7F7F83",
", 	c #B4B4D3",
"' 	c #A0A0CD",
") 	c #202046",
"! 	c #25254C",
"~ 	c #26264F",
"{ 	c #43435E",
"] 	c #5B5B6B",
"^ 	c #767677",
"/ 	c #7A7A74",
"( 	c #7F7FC3",
"_ 	c #9191C6",
": 	c #2B2B4C",
"< 	c #212146",
"[ 	c #23234B",
"} 	c #40405C",
"| 	c #58586A",
"1 	c #747479",
"2 	c #7E7E7E",
"3 	c #575765",
"4 	c #9595A9",
"5 	c #464693",
"6 	c #BDBDEA",
"7 	c #F4F4FC",
"8 	c #C3C3DF",
"9 	c #C6C6DE",
"0 	c #B8B8DB",
"a 	c #8D8DCB",
"b 	c #8383BF",
"c 	c #7B7BB6",
"d 	c #3D3D7F",
"e 	c #303068",
"f 	c #393959",
"g 	c #49495A",
"h 	c #6B6B72",
"i 	c #828281",
"j 	c #61616E",
"k 	c #3B3B53",
"l 	c #585874",
"m 	c #5050A5",
"n 	c #D1D1F3",
"o 	c #C7C7E3",
"p 	c #E3E3F0",
"q 	c #C1C1DE",
"r 	c #8484BA",
"s 	c #7878B5",
"t 	c #6F6FAF",
"u 	c #6363AB",
"v 	c #8080BA",
"w 	c #6E6EB1",
"x 	c #4D4D9F",
"y 	c #4D4DA1",
"z 	c #7373B8",
"A 	c #ADADDB",
"B 	c #CBCBDF",
"C 	c #80807A",
"D 	c #61616D",
"E 	c #414156",
"F 	c #8F8FB3",
"G 	c #8F8FC2",
"H 	c #4F4FA3",
"I 	c #E7E7FF",
"J 	c #C7C7E5",
"K 	c #E9E9F3",
"L 	c #E3E3EE",
"M 	c #C1C1DD",
"N 	c #ABABD0",
"O 	c #9F9FCC",
"P 	c #9A9AC8",
"Q 	c #9090C4",
"R 	c #8A8AC3",
"S 	c #7979B7",
"T 	c #7070A5",
"U 	c #4D4D9E",
"V 	c #6666AB",
"W 	c #9B9BC8",
"X 	c #CECEE5",
"Y 	c #FFFFFF",
"Z 	c #C7C7DA",
"` 	c #3B3B4D",
" .	c #8B8BA7",
"..	c #4A4AA1",
"+.	c #F0F0FF",
"@.	c #E8E8F4",
"#.	c #F4F4F7",
"$.	c #E9E9F4",
"%.	c #DEDEED",
"&.	c #DDDDEC",
"*.	c #DADAEA",
"=.	c #AFAFD4",
"-.	c #8686BC",
";.	c #7474B4",
">.	c #7777B4",
",.	c #77779F",
"'.	c #66667E",
").	c #4F4FA1",
"!.	c #4E4E9F",
"~.	c #5D5DA6",
"{.	c #9494C4",
"].	c #C5C5E0",
"^.	c #E1E1EE",
"/.	c #B1B1DA",
"(.	c #6D6D8D",
"_.	c #5A5AB5",
":.	c #E4E4F2",
"<.	c #FBFBFD",
"[.	c #FFFFFE",
"}.	c #FDFDFD",
"|.	c #FDFDFF",
"1.	c #FBFBFC",
"2.	c #DDDDED",
"3.	c #A4A4CD",
"4.	c #6565AB",
"5.	c #5151A0",
"6.	c #4A4A9D",
"7.	c #4E4E9E",
"8.	c #4B4BA0",
"9.	c #4A4AA0",
"0.	c #4E4EA0",
"a.	c #4C4C9E",
"b.	c #9090C1",
"c.	c #BFBFDC",
"d.	c #F9F9FC",
"e.	c #EBEBF3",
"f.	c #B1B1D5",
"g.	c #8989C1",
"h.	c #7676BF",
"i.	c #F8F8FC",
"j.	c #D7D7ED",
"k.	c #8484BB",
"l.	c #5B5BA9",
"m.	c #4B4B9D",
"n.	c #49499C",
"o.	c #6363A9",
"p.	c #7B7BB7",
"q.	c #A7A7CE",
"r.	c #7A7AB7",
"s.	c #F5F5FA",
"t.	c #B9B9D8",
"u.	c #8181BC",
"v.	c #9A9ACD",
"w.	c #F8F8FE",
"x.	c #FDFDFC",
"y.	c #E3E3F1",
"z.	c #8F8FB8",
"A.	c #585887",
"B.	c #5E5E86",
"C.	c #6A6A91",
"D.	c #5353A0",
"E.	c #4D4DA0",
"F.	c #5A5AA4",
"G.	c #7373B3",
"H.	c #8B8BBF",
"I.	c #A1A1CC",
"J.	c #B4B4D7",
"K.	c #CCCCE3",
"L.	c #EEEEF6",
"M.	c #B9B9D9",
"N.	c #F6F6FB",
"O.	c #C4C4DE",
"P.	c #8989BF",
"Q.	c #9E9ECA",
"R.	c #F7F7F9",
"S.	c #ABABCD",
"T.	c #DDDBE7",
"U.	c #E5E0D6",
"V.	c #E8E4DA",
"W.	c #A3A3BA",
"X.	c #5F5F89",
"Y.	c #6E6E91",
"Z.	c #6D6DAF",
"`.	c #8383BC",
" +	c #ADADD2",
".+	c #F9F9FB",
"++	c #B8B8D7",
"@+	c #9797C7",
"#+	c #7F7FB8",
"$+	c #5353A9",
"%+	c #FBFBFB",
"&+	c #B4B4D5",
"*+	c #FFFFFA",
"=+	c #939599",
"-+	c #6EA8F0",
";+	c #C5DFFE",
">+	c #7386A6",
",+	c #AAAABC",
"'+	c #87879F",
")+	c #9898AC",
"!+	c #C1C1E0",
"~+	c #D5D5E9",
"{+	c #EFEFF7",
"]+	c #C5C5DF",
"^+	c #B1B1D4",
"/+	c #8181BB",
"(+	c #9494C6",
"_+	c #6767AE",
":+	c #AAAAC3",
"<+	c #48489B",
"[+	c #FBFBFF",
"}+	c #F1F1F8",
"|+	c #C7C7D9",
"1+	c #E7E0D4",
"2+	c #235CB8",
"3+	c #F8FFFF",
"4+	c #81B9FF",
"5+	c #989EAA",
"6+	c #FFFFF8",
"7+	c #A9A9B6",
"8+	c #B2B2B6",
"9+	c #E8E8E7",
"0+	c #E7E7F2",
"a+	c #CDCDE4",
"b+	c #B6B6D6",
"c+	c #7474B3",
"d+	c #5151A2",
"e+	c #7B7BC1",
"f+	c #34345E",
"g+	c #757584",
"h+	c #4D4DA2",
"i+	c #F4F4FF",
"j+	c #DBDBE1",
"k+	c #C7BEAF",
"l+	c #2977E9",
"m+	c #E9FFFF",
"n+	c #E8FAFF",
"o+	c #E8FFFF",
"p+	c #0A57D1",
"q+	c #EDE4D6",
"r+	c #D9D9D6",
"s+	c #B8B8BA",
"t+	c #B6B6C0",
"u+	c #A8A8D0",
"v+	c #9292C3",
"w+	c #49499D",
"x+	c #5A5AAF",
"y+	c #3B3B5C",
"z+	c #292946",
"A+	c #6B6B80",
"B+	c #4646A7",
"C+	c #EEEEFF",
"D+	c #CCCCE6",
"E+	c #D8D8DC",
"F+	c #C2B8A9",
"G+	c #2575ED",
"H+	c #C2EBFF",
"I+	c #CBEFFF",
"J+	c #CAEFFF",
"K+	c #4892FA",
"L+	c #9DA4AE",
"M+	c #DAD8D7",
"N+	c #9595A8",
"O+	c #9191A8",
"P+	c #8484C0",
"Q+	c #6B6BAE",
"R+	c #5151A1",
"S+	c #5050A2",
"T+	c #5353A8",
"U+	c #474785",
"V+	c #2F2F48",
"W+	c #35354E",
"X+	c #84848E",
"Y+	c #B1B1B2",
"Z+	c #F2F2ED",
"`+	c #46469E",
" @	c #E4E4FF",
".@	c #D6D6EB",
"+@	c #C6C6D1",
"@@	c #D0C8BA",
"#@	c #2F6FD2",
"$@	c #589AF4",
"%@	c #87BCF6",
"&@	c #9BCAF9",
"*@	c #82BDFF",
"=@	c #8495B1",
"-@	c #E0DDD7",
";@	c #747497",
">@	c #737395",
",@	c #48489F",
"'@	c #4F4F9F",
")@	c #46469D",
"!@	c #34345D",
"~@	c #71717A",
"{@	c #AAAAAC",
"]@	c #D8D8D7",
"^@	c #E4E4E3",
"/@	c #404098",
"(@	c #DADAFC",
"_@	c #E4E4F4",
":@	c #AAAAC5",
"<@	c #DBD7CD",
"[@	c #63789B",
"}@	c #8AC6FF",
"|@	c #D5F9FF",
"1@	c #E9FDFF",
"2@	c #C4EFFF",
"3@	c #889BB3",
"4@	c #D5D2CE",
"5@	c #61618C",
"6@	c #6B6B94",
"7@	c #5050A3",
"8@	c #47479C",
"9@	c #7676AD",
"0@	c #AAAAA6",
"a@	c #CACAC4",
"b@	c #FEFEFB",
"c@	c #FFFFFD",
"d@	c #D7D7D6",
"e@	c #41419A",
"f@	c #D1D1F9",
"g@	c #E3E3EF",
"h@	c #9696C5",
"i@	c #CFCFC9",
"j@	c #BCB5AC",
"k@	c #85ADD3",
"l@	c #E6FFFF",
"m@	c #D6FFFF",
"n@	c #95A0AE",
"o@	c #BAB8BC",
"p@	c #68688E",
"q@	c #616199",
"r@	c #49499E",
"s@	c #C4C4C5",
"t@	c #DEDEDA",
"u@	c #EFEFEF",
"v@	c #E9E9E9",
"w@	c #E3E3E3",
"x@	c #E0E0E0",
"y@	c #E3E3E1",
"z@	c #C6C6C7",
"A@	c #43439C",
"B@	c #DDDDE9",
"C@	c #C2C2E1",
"D@	c #9797B8",
"E@	c #C0BFB8",
"F@	c #AFA9A4",
"G@	c #8B9DAA",
"H@	c #B3D1DF",
"I@	c #92B4CF",
"J@	c #C2BDB2",
"K@	c #88889E",
"L@	c #59598F",
"M@	c #5555A2",
"N@	c #8D8DC1",
"O@	c #A9A9D1",
"P@	c #9393C7",
"Q@	c #B0B0B7",
"R@	c #C9C9C7",
"S@	c #DADADA",
"T@	c #D2D2D2",
"U@	c #D0D0D0",
"V@	c #CBCBCB",
"W@	c #C9C9C9",
"X@	c #C9C9C8",
"Y@	c #B7B7B7",
"Z@	c #D8D8E4",
"`@	c #ACACD6",
" #	c #9595B1",
".#	c #BCBCB4",
"+#	c #CBC9BF",
"@#	c #BCB8AD",
"##	c #BDBAB0",
"$#	c #7D7C9E",
"%#	c #6969AD",
"&#	c #A2A2CE",
"*#	c #B3B3D6",
"=#	c #A3A3CC",
"-#	c #9696C6",
";#	c #8888C2",
">#	c #A9A9B0",
",#	c #BEBEBC",
"'#	c #C0C0C0",
")#	c #BABABA",
"!#	c #B8B8B8",
"~#	c #B4B4B3",
"{#	c #B1B1B1",
"]#	c #B2B2AE",
"^#	c #A9A9A6",
"/#	c #4A4AA2",
"(#	c #C8C8D8",
"_#	c #BABADA",
":#	c #AFAFD3",
"<#	c #A9A9D2",
"[#	c #8080C0",
"}#	c #7878AF",
"|#	c #7070AB",
"1#	c #6464B0",
"2#	c #AFAFD6",
"3#	c #B9B9DA",
"4#	c #ABABD2",
"5#	c #A0A0CB",
"6#	c #9696C7",
"7#	c #8F8FC1",
"8#	c #8282C0",
"9#	c #9F9FA8",
"0#	c #B5B5B3",
"a#	c #A4A4A4",
"b#	c #A3A3A3",
"c#	c #A0A09F",
"d#	c #9C9C99",
"e#	c #94948F",
"f#	c #969698",
"g#	c #7979B8",
"h#	c #464692",
"i#	c #9F9FCB",
"j#	c #B2B2D5",
"k#	c #8787BD",
"l#	c #8989BE",
"m#	c #8787BE",
"n#	c #8585BE",
"o#	c #B7B7D7",
"p#	c #A9A9D0",
"q#	c #9797C6",
"r#	c #8F8FC3",
"s#	c #8888BD",
"t#	c #7979BC",
"u#	c #9797A1",
"v#	c #ADADAB",
"w#	c #8A8A8A",
"x#	c #8A8A88",
"y#	c #84847F",
"z#	c #8484B8",
"A#	c #4C4CAC",
"B#	c #9999D5",
"C#	c #C6C6DF",
"D#	c #8181BA",
"E#	c #8585BB",
"F#	c #8282BB",
"G#	c #7A7AB6",
"H#	c #6E6EB0",
"I#	c #BCBCDB",
"J#	c #9090C2",
"K#	c #8080B9",
"L#	c #7272B8",
"M#	c #8C8C98",
"N#	c #A5A5A0",
"O#	c #6A6A66",
"P#	c #7C7C78",
"Q#	c #8D8DB4",
"R#	c #4F4FB1",
"S#	c #C9C9DA",
"T#	c #7676B5",
"U#	c #7C7CB7",
"V#	c #7373B2",
"W#	c #6565AC",
"X#	c #C3C3DD",
"Y#	c #9898C7",
"Z#	c #9393C4",
"`#	c #7F7FBA",
" $	c #7575B4",
".$	c #7878BB",
"+$	c #8D8DA0",
"@$	c #93938A",
"#$	c #9B9BB7",
"$$	c #5656B8",
"%$	c #9898C2",
"&$	c #6D6DB0",
"*$	c #6D6DAE",
"=$	c #5D5DA7",
"-$	c #CBCBE3",
";$	c #8E8EC2",
">$	c #8686BE",
",$	c #7D7DBA",
"'$	c #9F9FBF",
")$	c #7D7DB7",
"!$	c #4848A0",
"~$	c #5454B5",
"{$	c #8282D5",
"]$	c #B0B0CF",
"^$	c #C9C9E2",
"/$	c #9A9AC9",
"($	c #5B5BA6",
"_$	c #5757A4",
":$	c #CFCFE5",
"<$	c #BCBCD8",
"[$	c #ADADC6",
"}$	c #6B6BB4",
"|$	c #4B4BA1",
"1$	c #5555AD",
"2$	c #7373B4",
"3$	c #D1D1E6",
"4$	c #BFBFDE",
"5$	c #CDCDD8",
"6$	c #B1B1CC",
"7$	c #5555B0",
"8$	c #464697",
"9$	c #3D3D88",
"0$	c #46469B",
"a$	c #4848A1",
"                                                                ",
"                                            . + @ # $ %         ",
"                                            & * = - ; > ,       ",
"                                          ' ) ! ~ { ] ^ / (     ",
"                                        _ : < [ } | 1 2 3 4 5   ",
"                          6 7 8 9 0 a b c d e f g h i j k l m   ",
"                    n o p q r s t u v w x y z A B C D E F G H   ",
"              I J K L M N O P Q R S T x U V W X Y Z `  ...      ",
"          +.@.#.$.%.&.*.=.-.;.>.,.'.).!.~.{.].Y ^./.(._.        ",
"      :.<.[.}.|.1.2.3.4.5.6.7.x 8.9.0.a.b.c.d.e.f.g.h.          ",
"  Y i.Y Y Y Y j.k.l.m.U 5.5.!.n.o.p.{.q.r.s.s.t.u.v.            ",
"  w.x.Y y.f.z.A.B.C.D.E.6.F.G.H.I.J.K.L.M.N.O.P.Q...            ",
"  R.Y S.T.U.V.Y W.X.Y.Z.`.P  +8 2..+Y s.++ +@+#+$+              ",
"Y %+&+*+=+-+;+>+Y ,+'+)+!+~+{+Y <.%.]+^+/+(+_+:+<+              ",
"[+}+|+1+2+3+Y 4+5+6+7+8+9+Y 0+a+b+I.H.c+d+e+f+g+h+              ",
"i+~+j+k+l+m+n+o+p+q+r+s+t+!+u+v+p.o.w+H x+y+z+A+B+).            ",
"C+D+E+F+G+H+I+J+K+L+M+N+O+P+Q+R+a.S+T+U+V+W+X+Y+Z+`+            ",
" @.@+@@@#@$@%@&@*@=@-@;@>@,@'@5.E.)@!@~@{@]@Y Y ^@/@            ",
"(@_@:@<@[@}@|@1@2@3@4@5@6@7@5.8@9@0@a@b@Y Y }.c@d@e@            ",
"f@g@h@i@j@k@l@Y m@n@o@p@q@r@5.# s@t@x.u@v@w@x@y@z@A@            ",
"  B@C@D@E@F@G@H@I@J@K@L@M@N@O@P@Q@R@S@T@U@V@W@X@Y@`+            ",
"  Z@c.`@ #.#+#@###$#%#&#*#=#-#;#>#,#'#)#!#~#{#]#^#/#            ",
"  (#_#:#<#[#}#|#1#2#3#4#5#6#7#8#9#0#a#b#c#d#e#f#g#h#            ",
"  i#j#k#l#P.m#n#r.o#p#I.q#r#s#t#u#v#w#x#y#w#z#A#                ",
"  B#C#D#E#F##+G#H#I#5#P J#P.K#L#M#N#O#P#Q#R#                    ",
"    S#T#U#S T#V#W#X#Y#Z#l#`# $.$+$@$#$$$                        ",
"    %$Q Q+&$H#*$=$-$;$>$,$@+'$)$!$~$                            ",
"    {$]$^$/$($_$w+:$>$<$[$}$|$                                  ",
"        1$2$3$3$4$5$6$7$8$                                      ",
"            9$0$a$a$                                            ",
"                                                                ",
"                                                                "};
