/* XPM */
static char * cbm_xpm[] = {
"32 32 3 1",
" 	c None",
".	c #2D5BE5",
"+	c #E52D2D",
"                                ",
"                                ",
"          .......               ",
"       ............             ",
"     ..............             ",
"    ...............             ",
"   ................             ",
"  .................             ",
"  .................             ",
" ...........    ...             ",
" .........         .............",
" ........          ............ ",
"........           ...........  ",
"........           ..........   ",
".......            .........    ",
".......                         ",
".......                         ",
".......            +++++++++    ",
"........           ++++++++++   ",
"........           +++++++++++  ",
" ........          ++++++++++++ ",
" .........         +++++++++++++",
" ...........    ...             ",
"  .................             ",
"  .................             ",
"   ................             ",
"    ...............             ",
"     ..............             ",
"       ............             ",
"          .......               ",
"                                ",
"                                "};
