/* XPM */
static char * cdred_xpm[] = {
"32 32 684 2",
"  	c None",
". 	c #331625",
"+ 	c #371B2A",
"@ 	c #351422",
"# 	c #512A38",
"$ 	c #895260",
"% 	c #9F646F",
"& 	c #A96F7A",
"* 	c #AF7682",
"= 	c #A46571",
"- 	c #95525C",
"; 	c #7F4048",
"> 	c #582730",
", 	c #310D19",
"' 	c #1F0814",
") 	c #663341",
"! 	c #A0666C",
"~ 	c #C58C8B",
"{ 	c #E1B1A9",
"] 	c #EABEAF",
"^ 	c #EDC5B2",
"/ 	c #ECC2B0",
"( 	c #E6B1A3",
"_ 	c #DEA092",
": 	c #D38F7D",
"< 	c #C17867",
"[ 	c #9C5955",
"} 	c #693239",
"| 	c #290A15",
"1 	c #1E0612",
"2 	c #A1615E",
"3 	c #D19583",
"4 	c #E1AA9A",
"5 	c #E9BAA7",
"6 	c #EEC7B2",
"7 	c #F1CCB7",
"8 	c #F1CCB8",
"9 	c #EEC5B2",
"0 	c #E8B7A7",
"a 	c #E4AA97",
"b 	c #DE9F83",
"c 	c #DC9878",
"d 	c #DB9A7E",
"e 	c #D2927F",
"f 	c #AB6C69",
"g 	c #4B1F2F",
"h 	c #0E000A",
"i 	c #210712",
"j 	c #5C212E",
"k 	c #AF5D52",
"l 	c #DA926D",
"m 	c #DFA183",
"n 	c #E4AC96",
"o 	c #E8B7A4",
"p 	c #EDC4B0",
"q 	c #F0CBB6",
"r 	c #F1CDB8",
"s 	c #EEC6B2",
"t 	c #E8B6A5",
"u 	c #E1A893",
"v 	c #DD9D7D",
"w 	c #DD9C79",
"x 	c #E0A186",
"y 	c #E3A992",
"z 	c #E6B3A1",
"A 	c #DBA399",
"B 	c #7C4558",
"C 	c #290F1C",
"D 	c #1A040F",
"E 	c #571C2A",
"F 	c #A24A46",
"G 	c #CA7053",
"H 	c #D88A63",
"I 	c #DD9979",
"J 	c #E2A790",
"K 	c #E6B39F",
"L 	c #EDC1AD",
"M 	c #F0C9B4",
"N 	c #E7B5A4",
"O 	c #E0A68E",
"P 	c #DD9B7B",
"Q 	c #DE9D7C",
"R 	c #E2A48B",
"S 	c #E5AF9A",
"T 	c #E9BBA8",
"U 	c #EDC6B2",
"V 	c #E0B4AB",
"W 	c #8D5B69",
"X 	c #311522",
"Y 	c #41101E",
"Z 	c #892F38",
"` 	c #AC4A45",
" .	c #C1624E",
"..	c #D37F5B",
"+.	c #DB916F",
"@.	c #E1A188",
"#.	c #E6AF9B",
"$.	c #EBBFAA",
"%.	c #EFC7B2",
"&.	c #F1CBB7",
"*.	c #EEC5B0",
"=.	c #E0A38A",
"-.	c #DD9C7B",
";.	c #E09F82",
">.	c #E3AA92",
",.	c #E8B6A3",
"'.	c #EDC3AF",
").	c #F4D5C0",
"!.	c #E1BAB1",
"~.	c #875766",
"{.	c #210B18",
"].	c #16000C",
"^.	c #9B303A",
"/.	c #A2333B",
"(.	c #A1383D",
"_.	c #B24C46",
":.	c #CA6C54",
"<.	c #D78464",
"[.	c #DE997D",
"}.	c #E3A997",
"|.	c #EABCA7",
"1.	c #EFC5B0",
"2.	c #F1C9B5",
"3.	c #EEC2AF",
"4.	c #E5AE9B",
"5.	c #DF9E83",
"6.	c #DD9C7A",
"7.	c #E6B2A0",
"8.	c #ECC1AF",
"9.	c #F4D5BF",
"0.	c #F8DCC8",
"a.	c #F9DFCB",
"b.	c #E1B8B3",
"c.	c #5B3246",
"d.	c #220411",
"e.	c #8C2D3A",
"f.	c #CE5046",
"g.	c #C34542",
"h.	c #B1393D",
"i.	c #A7383D",
"j.	c #BA5249",
"k.	c #CD6E55",
"l.	c #D9896B",
"m.	c #E1A28A",
"n.	c #E9B6A5",
"o.	c #EEC1AE",
"p.	c #F2C7B2",
"q.	c #EEBFAC",
"r.	c #E4A694",
"s.	c #DD9779",
"t.	c #DD997A",
"u.	c #E1A48D",
"v.	c #E8B9A8",
"w.	c #EFC9B5",
"x.	c #F4D4BF",
"y.	c #F8DCC7",
"z.	c #FBE2CE",
"A.	c #FCE5D1",
"B.	c #FDE6D2",
"C.	c #DCACAC",
"D.	c #260B19",
"E.	c #5C1B2B",
"F.	c #C3544B",
"G.	c #DB614C",
"H.	c #D55649",
"I.	c #CC4B44",
"J.	c #BD403F",
"K.	c #B23E3F",
"L.	c #BF554B",
"M.	c #D1755B",
"N.	c #DE9377",
"O.	c #E7B09F",
"P.	c #EABAA9",
"Q.	c #EABAAD",
"R.	c #E5AFA4",
"S.	c #D99587",
"T.	c #D88C73",
"U.	c #DC967B",
"V.	c #E1A794",
"W.	c #E9BCAD",
"X.	c #EFCBB8",
"Y.	c #F5D5C3",
"Z.	c #F8DECA",
"`.	c #FBE3CF",
" +	c #FBE3D0",
".+	c #7F495C",
"++	c #0F030B",
"@+	c #913B44",
"#+	c #DA6C5B",
"$+	c #E16F57",
"%+	c #DF6651",
"&+	c #DB5D4B",
"*+	c #D45447",
"=+	c #C54241",
"-+	c #BC4242",
";+	c #C5574C",
">+	c #D67E62",
",+	c #DA988C",
"'+	c #D9A0A6",
")+	c #E1AFBE",
"!+	c #EABECB",
"~+	c #DBA1AE",
"{+	c #CD8388",
"]+	c #D18880",
"^+	c #DFA69B",
"/+	c #EABFB3",
"(+	c #F0CDBD",
"_+	c #F5D6C6",
":+	c #F8DBCA",
"<+	c #F8DCCA",
"[+	c #F8DBC9",
"}+	c #C28F95",
"|+	c #371323",
"1+	c #4E192C",
"2+	c #B95E60",
"3+	c #E6856F",
"4+	c #E57F67",
"5+	c #E37760",
"6+	c #E2715A",
"7+	c #E06952",
"8+	c #DB5B4A",
"9+	c #D14E45",
"0+	c #C34442",
"a+	c #BD504D",
"b+	c #D492A0",
"c+	c #EFD0E3",
"d+	c #F9EAF6",
"e+	c #FDF2FB",
"f+	c #FAEBF6",
"g+	c #F1D7E6",
"h+	c #DDAAC0",
"i+	c #D498A5",
"j+	c #EAC0B7",
"k+	c #F1CCBF",
"l+	c #F3D0C2",
"m+	c #F3D1C3",
"n+	c #F3D1C2",
"o+	c #F3D1C1",
"p+	c #F3CFC0",
"q+	c #F2CCBE",
"r+	c #DAA9A7",
"s+	c #66354A",
"t+	c #7C3847",
"u+	c #D9857A",
"v+	c #EC9A82",
"w+	c #EA957C",
"x+	c #E98F77",
"y+	c #E78770",
"z+	c #E68169",
"A+	c #E3755D",
"B+	c #E06953",
"C+	c #D2534C",
"D+	c #C5647C",
"E+	c #FAE7F9",
"F+	c #FFF6FF",
"G+	c #FBEFFB",
"H+	c #F7E8F7",
"I+	c #FAEDFA",
"J+	c #FEF5FE",
"K+	c #FDEEFD",
"L+	c #E3BAD6",
"M+	c #DEA8B2",
"N+	c #ECC1B9",
"O+	c #EDC2B9",
"P+	c #ECC1B8",
"Q+	c #EBBDB7",
"R+	c #EABBB4",
"S+	c #E9B9B2",
"T+	c #E8B7B0",
"U+	c #E1AAA8",
"V+	c #925666",
"W+	c #914B58",
"X+	c #E89B8B",
"Y+	c #F0A68F",
"Z+	c #EFA48C",
"`+	c #EEA18A",
" @	c #ED9D86",
".@	c #EB9982",
"+@	c #E98F78",
"@@	c #E5826F",
"#@	c #D67173",
"$@	c #EBB9CD",
"%@	c #FFF7FF",
"&@	c #F4E0F4",
"*@	c #C79FC7",
"=@	c #9D719D",
"-@	c #BA8EBA",
";@	c #EDD3ED",
">@	c #FAEAF9",
",@	c #D398B3",
"'@	c #E1A7AE",
")@	c #E5ADAE",
"!@	c #E3ABAC",
"~@	c #E3A8A9",
"{@	c #E1A6A7",
"]@	c #E1A5A4",
"^@	c #E1A4A3",
"/@	c #DC9D9D",
"(@	c #A15D6B",
"_@	c #46172B",
":@	c #9A5864",
"<@	c #F0AD98",
"[@	c #F3B39A",
"}@	c #F3B299",
"|@	c #F2B199",
"1@	c #F2AF97",
"2@	c #F1AE95",
"3@	c #F0A991",
"4@	c #E99D8C",
"5@	c #E09AA5",
"6@	c #F8DFEF",
"7@	c #FCF1FC",
"8@	c #CDAACD",
"9@	c #B48AB4",
"0@	c #F8E7F8",
"a@	c #FFF8FF",
"b@	c #DCA6C4",
"c@	c #D28795",
"d@	c #DC939A",
"e@	c #DB9298",
"f@	c #DA9296",
"g@	c #D99195",
"h@	c #D99194",
"i@	c #D99193",
"j@	c #D78F8E",
"k@	c #A85F6C",
"l@	c #501D33",
"m@	c #9F626E",
"n@	c #F5BDA3",
"o@	c #F5BEA5",
"p@	c #F4BFA4",
"q@	c #F4BFA5",
"r@	c #EDB2A1",
"s@	c #EBB8C1",
"t@	c #FCEDF8",
"u@	c #AE8AAE",
"v@	c #F2DDF2",
"w@	c #E8BBD2",
"x@	c #C86F82",
"y@	c #D47D8A",
"z@	c #D37D8A",
"A@	c #D27E8A",
"B@	c #D17E8B",
"C@	c #D17F8A",
"D@	c #D17F88",
"E@	c #D27F85",
"F@	c #AB5C6E",
"G@	c #551F39",
"H@	c #9D5E6B",
"I@	c #F3B8A1",
"J@	c #F6BDA3",
"K@	c #F6BDA2",
"L@	c #F5BCA1",
"M@	c #F5BBA0",
"N@	c #F5BAA0",
"O@	c #F4B89E",
"P@	c #EEAA99",
"Q@	c #E4A3AF",
"R@	c #F9E1F1",
"S@	c #CCA7CC",
"T@	c #B88EB8",
"U@	c #F8E8F8",
"V@	c #D99EC0",
"W@	c #C77089",
"X@	c #D17A8F",
"Y@	c #D0788F",
"Z@	c #CE778D",
"`@	c #CD758D",
" #	c #CD748C",
".#	c #CD738B",
"+#	c #CC7486",
"@#	c #A2516A",
"##	c #4E1934",
"$#	c #975460",
"%#	c #EDA894",
"&#	c #F5B399",
"*#	c #F4B296",
"=#	c #F3AE94",
"-#	c #F3AC92",
";#	c #F2A78D",
">#	c #F19F87",
",#	c #EC917D",
"'#	c #DC7980",
")#	c #EEBCD3",
"!#	c #F4DEF4",
"~#	c #C59EC5",
"{#	c #977697",
"]#	c #BB94BB",
"^#	c #F0D5F0",
"/#	c #FFF5FF",
"(#	c #C47FA5",
"_#	c #CB7F99",
":#	c #D1839C",
"<#	c #CF7F99",
"[#	c #CE7D98",
"}#	c #CD7997",
"|#	c #CC7794",
"1#	c #CC7590",
"2#	c #C9728C",
"3#	c #994A65",
"4#	c #44162C",
"5#	c #833F4E",
"6#	c #E19083",
"7#	c #F3A68B",
"8#	c #F2A087",
"9#	c #F29A82",
"0#	c #F0947D",
"a#	c #EF8D75",
"b#	c #ED7B6A",
"c#	c #E8695E",
"d#	c #D75159",
"e#	c #CB6988",
"f#	c #F9E8F8",
"g#	c #FBEDFB",
"h#	c #F7E5F7",
"i#	c #FAEBFA",
"j#	c #FCEFFC",
"k#	c #DCABCD",
"l#	c #C07798",
"m#	c #D089A6",
"n#	c #D189A8",
"o#	c #D086A6",
"p#	c #CF84A5",
"q#	c #CD80A3",
"r#	c #CD7FA1",
"s#	c #CD7B9C",
"t#	c #C77693",
"u#	c #87415C",
"v#	c #300E1D",
"w#	c #5A2135",
"x#	c #C86C6B",
"y#	c #F08F77",
"z#	c #F08772",
"A#	c #EF7F6B",
"B#	c #ED7164",
"C#	c #EA615A",
"D#	c #E34F51",
"E#	c #D84251",
"F#	c #C3364C",
"G#	c #A02D4B",
"H#	c #CC7B9D",
"I#	c #F2D0E8",
"J#	c #FEEFFD",
"K#	c #FFF1FE",
"L#	c #F7DBEF",
"M#	c #DC9EBD",
"N#	c #C46C8C",
"O#	c #C97895",
"P#	c #CF85A4",
"Q#	c #D18CAE",
"R#	c #D18DB1",
"S#	c #D08AB0",
"T#	c #CF88AF",
"U#	c #CF88AC",
"V#	c #CF86A9",
"W#	c #C07599",
"X#	c #612C49",
"Y#	c #A0414D",
"Z#	c #E86C61",
"`#	c #ED635A",
" $	c #EA5451",
".$	c #E5474C",
"+$	c #DD3C4B",
"@$	c #C92F49",
"#$	c #B32446",
"$$	c #A02043",
"%$	c #B62F4D",
"&$	c #D35867",
"*$	c #D87F91",
"=$	c #E2A3BB",
"-$	c #ECBED2",
";$	c #E09AB5",
">$	c #CF667F",
",$	c #CC516A",
"'$	c #D3647B",
")$	c #D07593",
"!$	c #CD7CA1",
"~$	c #CE84AD",
"{$	c #D08DB4",
"]$	c #D391BB",
"^$	c #D290BA",
"/$	c #D28FB7",
"($	c #D18DB6",
"_$	c #AA6489",
":$	c #381325",
"<$	c #681E32",
"[$	c #D2434C",
"}$	c #E7424A",
"|$	c #E03748",
"1$	c #D52D48",
"2$	c #C52347",
"3$	c #A71641",
"4$	c #97143E",
"5$	c #A91F45",
"6$	c #CC3A53",
"7$	c #E66F72",
"8$	c #EC9691",
"9$	c #ECA5A4",
"0$	c #E9A7AC",
"a$	c #E0868E",
"b$	c #DD656D",
"c$	c #D95869",
"d$	c #D76379",
"e$	c #D47393",
"f$	c #D07BA1",
"g$	c #CE80AC",
"h$	c #CE87B5",
"i$	c #D28FBE",
"j$	c #D493C0",
"k$	c #D595C1",
"l$	c #D494BF",
"m$	c #773C5B",
"n$	c #11030C",
"o$	c #290815",
"p$	c #9C263C",
"q$	c #D92946",
"r$	c #CC1F46",
"s$	c #BB1543",
"t$	c #A20C3C",
"u$	c #870636",
"v$	c #9A113D",
"w$	c #C02649",
"x$	c #DC4454",
"y$	c #EC7C7A",
"z$	c #F19F95",
"A$	c #F3B3A9",
"B$	c #F2B7B2",
"C$	c #EA999B",
"D$	c #E37578",
"E$	c #DB5C6A",
"F$	c #D85F78",
"G$	c #D66F92",
"H$	c #D47BA2",
"I$	c #D182AE",
"J$	c #CF86B7",
"K$	c #D18CBF",
"L$	c #D392C2",
"M$	c #D696C5",
"N$	c #C27FA5",
"O$	c #2C0E1E",
"P$	c #230812",
"Q$	c #B21F44",
"R$	c #AF0B3F",
"S$	c #950337",
"T$	c #7C012F",
"U$	c #910336",
"V$	c #B61542",
"W$	c #D42C49",
"X$	c #E64C56",
"Y$	c #EE8780",
"Z$	c #F3A298",
"`$	c #F3B2AC",
" %	c #F2B7B4",
".%	c #EB9EA2",
"+%	c #E57F85",
"@%	c #DD626F",
"#%	c #D75A74",
"$%	c #D66B92",
"%%	c #D67AA4",
"&%	c #D483B1",
"*%	c #D389BB",
"=%	c #D28DC0",
"-%	c #D490C3",
";%	c #C983B4",
">%	c #5B2E4B",
",%	c #090007",
"'%	c #4A0922",
")%	c #800633",
"!%	c #7A002E",
"~%	c #860032",
"{%	c #B00B3F",
"]%	c #CB1D45",
"^%	c #E23347",
"/%	c #EB5B5C",
"(%	c #F08985",
"_%	c #F3A49E",
":%	c #F4B3AF",
"<%	c #F2B7B8",
"[%	c #ECA1AB",
"}%	c #E78791",
"|%	c #DF6A77",
"1%	c #D75975",
"2%	c #D5658D",
"3%	c #D575A5",
"4%	c #D682B5",
"5%	c #D489BF",
"6%	c #D38EC3",
"7%	c #C680B5",
"8%	c #7C4069",
"9%	c #21091A",
"0%	c #18020E",
"a%	c #460621",
"b%	c #780530",
"c%	c #A0063B",
"d%	c #C41744",
"e%	c #DB2945",
"f%	c #E9424C",
"g%	c #ED6B67",
"h%	c #F1908B",
"i%	c #F2A5A1",
"j%	c #F3B2B1",
"k%	c #F2B7BA",
"l%	c #EDA4B0",
"m%	c #E78D9C",
"n%	c #E17483",
"o%	c #D85B77",
"p%	c #D3638D",
"q%	c #D371A3",
"r%	c #D47DB5",
"s%	c #D486C0",
"t%	c #C87FB5",
"u%	c #864770",
"v%	c #38132A",
"w%	c #1D0310",
"x%	c #4F0A25",
"y%	c #9F1C41",
"z%	c #D32346",
"A%	c #E53646",
"B%	c #EC5456",
"C%	c #EE7771",
"D%	c #F19691",
"E%	c #F2A8A5",
"F%	c #F3B3B4",
"G%	c #F2B7BD",
"H%	c #EDA5B5",
"I%	c #E892A6",
"J%	c #E27C8F",
"K%	c #D9627E",
"L%	c #D05E8D",
"M%	c #D16CA2",
"N%	c #D176B4",
"O%	c #CD73A9",
"P%	c #783B60",
"Q%	c #351126",
"R%	c #270914",
"S%	c #B5344B",
"T%	c #E3424D",
"U%	c #ED6662",
"V%	c #F0827B",
"W%	c #F29D98",
"X%	c #F2ACAA",
"Y%	c #F3B4B7",
"Z%	c #F2B7BE",
"`%	c #EDA7B8",
" &	c #E896AC",
".&	c #E38498",
"+&	c #DB6E87",
"@&	c #CD5A8A",
"#&	c #CB6099",
"$&	c #B25183",
"%&	c #551F3A",
"&&	c #1A0713",
"*&	c #200614",
"=&	c #71273E",
"-&	c #B14D5C",
";&	c #D47376",
">&	c #E89796",
",&	c #EFA9A9",
"'&	c #F1B3B6",
")&	c #F2B6C0",
"!&	c #ECA9B9",
"~&	c #E595AC",
"{&	c #DB7F97",
"]&	c #CC667F",
"^&	c #A53E5F",
"/&	c #712143",
"(&	c #320919",
"_&	c #0A0007",
":&	c #3B1224",
"<&	c #5F223C",
"[&	c #964D60",
"}&	c #AF6977",
"|&	c #B77688",
"1&	c #B97C95",
"2&	c #B36F87",
"3&	c #A95E73",
"4&	c #92455A",
"5&	c #68243F",
"6&	c #501226",
"7&	c #3C142A",
"8&	c #421733",
"9&	c #441839",
"0&	c #401532",
"a&	c #3B1227",
"                            . +                                 ",
"                    @ # $ % & * = - ; > ,                       ",
"                ' ) ! ~ { ] ^ / ( _ : < [ } |                   ",
"              1 2 3 4 5 6 7 8 9 0 a b c d e f g h               ",
"          i j k l m n o p q r s t u v w x y z A B C             ",
"        D E F G H I J K L M 8 s N O P Q R S T U V W X           ",
"        Y Z `  ...+.@.#.$.%.&.*.z =.-.;.>.,.'.r ).!.~.{.        ",
"      ].^./.(._.:.<.[.}.|.1.2.3.4.5.6.x 7.8.8 9.0.a.b.c.        ",
"    d.e.f.g.h.i.j.k.l.m.n.o.p.q.r.s.t.u.v.w.x.y.z.A.B.C.D.      ",
"    E.F.G.H.I.J.K.L.M.N.O.P.Q.R.S.T.U.V.W.X.Y.Z.`. +`.z..+++    ",
"    @+#+$+%+&+*+=+-+;+>+,+'+)+!+~+{+]+^+/+(+_+:+<+<+<+[+}+|+    ",
"  1+2+3+4+5+6+7+8+9+0+a+b+c+d+e+f+g+h+i+j+k+l+m+n+o+p+q+r+s+    ",
"  t+u+v+w+x+y+z+A+B+C+D+E+F+G+H+I+J+K+L+M+N+O+P+Q+R+S+T+U+V+    ",
"  W+X+Y+Z+`+ @.@+@@@#@$@%@&@*@=@-@;@J+>@,@'@)@!@~@{@]@^@/@(@_@  ",
"  :@<@[@}@|@1@2@3@4@5@6@7@8@      9@0@a@b@c@d@e@f@g@h@i@j@k@l@  ",
"  m@n@o@o@o@o@p@q@r@s@t@I+u@        v@a@w@x@y@z@A@B@C@D@E@F@G@  ",
"  H@I@J@K@L@M@N@O@P@Q@R@7@S@      T@U@a@V@W@X@Y@Z@`@ #.#+#@###  ",
"  $#%#&#*#=#-#;#>#,#'#)#F+!#~#{#]#^#/#>@(#_#:#<#[#}#|#1#2#3#4#  ",
"  5#6#7#8#9#0#a#b#c#d#e#f#F+g#h#i#/#j#k#l#m#n#o#p#q#r#s#t#u#v#  ",
"  w#x#y#z#A#B#C#D#E#F#G#H#I#J#F+K#L#M#N#O#P#Q#R#S#T#U#V#W#X#    ",
"    Y#Z#`# $.$+$@$#$$$%$&$*$=$-$;$>$,$'$)$!$~${$]$^$/$($_$:$    ",
"    <$[$}$|$1$2$3$4$5$6$7$8$9$0$a$b$c$d$e$f$g$h$i$j$k$l$m$n$    ",
"    o$p$q$r$s$t$u$v$w$x$y$z$A$B$C$D$E$F$G$H$I$J$K$L$M$N$O$      ",
"      P$Q$R$S$T$U$V$W$X$Y$Z$`$ %.%+%@%#%$%%%&%*%=%-%;%>%,%      ",
"        '%)%!%~%{%]%^%/%(%_%:%<%[%}%|%1%2%3%4%5%6%7%8%9%        ",
"        0%a%b%c%d%e%f%g%h%i%j%k%l%m%n%o%p%q%r%s%t%u%v%          ",
"          w%x%y%z%A%B%C%D%E%F%G%H%I%J%K%L%M%N%O%P%Q%            ",
"              R%S%T%U%V%W%X%Y%Z%`% &.&+&@&#&$&%&&&              ",
"                *&=&-&;&>&,&'&)&!&~&{&]&^&/&(&_&                ",
"                    :&<&[&}&|&1&2&3&4&5&6&                      ",
"                          7&8&9&0&a&                            ",
"                                                                "};
