/* XPM */
static char * cdwriter_xpm[] = {
"32 32 389 2",
"  	c None",
". 	c #FFFFFF",
"+ 	c #FF9C99",
"@ 	c #FD0000",
"# 	c #FF9B68",
"$ 	c #FF1600",
"% 	c #FCC17D",
"& 	c #F6B515",
"* 	c #F4B830",
"= 	c #F0B127",
"- 	c #F0A300",
"; 	c #FFAC00",
"> 	c #FFA200",
", 	c #FFF2A7",
"' 	c #FD4C00",
") 	c #FF5200",
"! 	c #FF6710",
"~ 	c #FFFFF8",
"{ 	c #F1D387",
"] 	c #DE8F00",
"^ 	c #EB9700",
"/ 	c #FFD907",
"( 	c #FFFCBF",
"_ 	c #FF7A33",
": 	c #FF6C00",
"< 	c #FF8100",
"[ 	c #FF7600",
"} 	c #FF9543",
"| 	c #FFFFEE",
"1 	c #FFFBE6",
"2 	c #FFFCEA",
"3 	c #FFFFF7",
"4 	c #EFD692",
"5 	c #CD7E00",
"6 	c #FFE7BC",
"7 	c #FF5A0C",
"8 	c #FF7100",
"9 	c #FF9700",
"0 	c #FFA900",
"a 	c #FFA800",
"b 	c #FF8A00",
"c 	c #FF8C2F",
"d 	c #FFFFFE",
"e 	c #FFFFEF",
"f 	c #FFFFEB",
"g 	c #FEFFFF",
"h 	c #FFDB0D",
"i 	c #FFFEA3",
"j 	c #D59616",
"k 	c #D48300",
"l 	c #FFD3D6",
"m 	c #FFA492",
"n 	c #FF5113",
"o 	c #FF2E00",
"p 	c #FF6300",
"q 	c #FF8E00",
"r 	c #FFB400",
"s 	c #FFD900",
"t 	c #FFD700",
"u 	c #FFB000",
"v 	c #FF8300",
"w 	c #FF4B00",
"x 	c #FF6D3B",
"y 	c #FFC1AF",
"z 	c #FFD9D7",
"A 	c #FDF8CD",
"B 	c #FFCE00",
"C 	c #FFD200",
"D 	c #FFF35D",
"E 	c #D1A346",
"F 	c #B66E00",
"G 	c #FDB976",
"H 	c #FF6E49",
"I 	c #FF2D00",
"J 	c #FF6600",
"K 	c #FF9400",
"L 	c #FFC100",
"M 	c #FFF800",
"N 	c #FFF500",
"O 	c #FFBC00",
"P 	c #FF5300",
"Q 	c #FF885B",
"R 	c #FFE3D7",
"S 	c #FFE250",
"T 	c #FFD100",
"U 	c #FFDA02",
"V 	c #FFF75C",
"W 	c #C9973B",
"X 	c #BD7000",
"Y 	c #FDA900",
"Z 	c #FF710C",
"` 	c #FFCF00",
" .	c #FFCC00",
"..	c #FF9E32",
"+.	c #FFFFF9",
"@.	c #FFFFF2",
"#.	c #FDFAE8",
"$.	c #FFDA18",
"%.	c #FFDD1E",
"&.	c #FFDB05",
"*.	c #FFFF89",
"=.	c #B67609",
"-.	c #FDCF62",
";.	c #FF2D42",
">.	c #FF8F00",
",.	c #FFA100",
"'.	c #FFAB43",
").	c #FFFFF0",
"!.	c #FFFAE3",
"~.	c #FFFEFA",
"{.	c #FFE567",
"].	c #FFD917",
"^.	c #FFE23A",
"/.	c #FFDF28",
"(.	c #FFDC1A",
"_.	c #FFDC00",
":.	c #FFFFC0",
"<.	c #A35B00",
"[.	c #FFC400",
"}.	c #FDEAA1",
"|.	c #FF4343",
"1.	c #FF0000",
"2.	c #FFE5F5",
"3.	c #FF6F00",
"4.	c #FF8014",
"5.	c #FFFACC",
"6.	c #FDFFFF",
"7.	c #FFFFF6",
"8.	c #FFD000",
"9.	c #FFD60A",
"0.	c #FFE75A",
"a.	c #FFE341",
"b.	c #FFE133",
"c.	c #FFDE27",
"d.	c #FFDC17",
"e.	c #FFE81E",
"f.	c #D4B268",
"g.	c #A25C00",
"h.	c #FFC600",
"i.	c #FFFFBC",
"j.	c #FF5519",
"k.	c #FFCEC4",
"l.	c #FFC2AE",
"m.	c #FFE8E2",
"n.	c #FFF2CB",
"o.	c #FFDA7F",
"p.	c #FCD78D",
"q.	c #FDDB71",
"r.	c #FFD500",
"s.	c #FFEC7F",
"t.	c #FFE763",
"u.	c #FFE450",
"v.	c #FFE340",
"w.	c #FFDE26",
"x.	c #FFDC0E",
"y.	c #FFFFA9",
"z.	c #985200",
"A.	c #FFDE00",
"B.	c #FD7A5F",
"C.	c #FFAA4A",
"D.	c #FFFD7A",
"E.	c #FFF4A2",
"F.	c #FF3001",
"G.	c #FFF6E0",
"H.	c #FFCC62",
"I.	c #FEE8B5",
"J.	c #FCF3E1",
"K.	c #FABA00",
"L.	c #F5BE4D",
"M.	c #FFF494",
"N.	c #FFEB76",
"O.	c #FFE660",
"P.	c #FFDE21",
"Q.	c #FFEB2C",
"R.	c #C19A4D",
"S.	c #FF6D00",
"T.	c #FF902B",
"U.	c #FFFC62",
"V.	c #FFEB6A",
"W.	c #FFEA74",
"X.	c #FFFAA1",
"Y.	c #FFB9B2",
"Z.	c #FFFFE5",
"`.	c #FDDA8D",
" +	c #FDF0D2",
".+	c #FDCB60",
"++	c #ECBE47",
"@+	c #FDDB90",
"#+	c #F3C561",
"$+	c #FFF48E",
"%+	c #FFE974",
"&+	c #FFE032",
"*+	c #FFE117",
"=+	c #F5E8A9",
"-+	c #965000",
";+	c #FC7B52",
">+	c #FFFB3D",
",+	c #FFE74A",
"'+	c #FFE559",
")+	c #FFE868",
"!+	c #FFED79",
"~+	c #FFF3DE",
"{+	c #FFF6A2",
"]+	c #FFCF54",
"^+	c #FEF4D0",
"/+	c #FFAA00",
"(+	c #C57600",
"_+	c #DFCA90",
":+	c #EFB14F",
"<+	c #FEF09F",
"[+	c #FFEF87",
"}+	c #FFE973",
"|+	c #FFDF26",
"1+	c #FFFF9F",
"2+	c #894600",
"3+	c #FC1B00",
"4+	c #F7F07B",
"5+	c #FFE528",
"6+	c #FFE13B",
"7+	c #FFE349",
"8+	c #FFE967",
"9+	c #FFEA75",
"0+	c #FFF193",
"a+	c #FCD462",
"b+	c #FEE9A6",
"c+	c #F09B00",
"d+	c #B1884E",
"e+	c #F4C67A",
"f+	c #F7DD98",
"g+	c #FFF3A0",
"h+	c #FFEE85",
"i+	c #FFE138",
"j+	c #FFFD73",
"k+	c #925D0F",
"l+	c #F0B625",
"m+	c #FFEE58",
"n+	c #FFE13C",
"o+	c #FFE969",
"p+	c #FFEC7E",
"q+	c #FEEA8D",
"r+	c #F8BD34",
"s+	c #FBDB5D",
"t+	c #B56B00",
"u+	c #945100",
"v+	c #EAEDF1",
"w+	c #EBB277",
"x+	c #F9EACA",
"y+	c #FFF5B5",
"z+	c #FFF097",
"A+	c #FFED82",
"B+	c #FFE44C",
"C+	c #FFF863",
"D+	c #A4762A",
"E+	c #F29A00",
"F+	c #FFFCAF",
"G+	c #FFDD15",
"H+	c #FFDF2F",
"I+	c #FFE55A",
"J+	c #FFEA6F",
"K+	c #FBC000",
"L+	c #F3C078",
"M+	c #FFF1D8",
"N+	c #FFFBE7",
"O+	c #F2CA9B",
"P+	c #E6A86F",
"Q+	c #FFF3AB",
"R+	c #FFEC7A",
"S+	c #FFE86D",
"T+	c #FFF86A",
"U+	c #A87D34",
"V+	c #FFA700",
"W+	c #F3D47D",
"X+	c #FFE115",
"Y+	c #FFDE20",
"Z+	c #FFE44B",
"`+	c #FFE761",
" @	c #FFE54F",
".@	c #FBEEDC",
"+@	c #EEBE78",
"@@	c #E9AF65",
"#@	c #ECC08D",
"$@	c #FEFDFC",
"%@	c #FFFEFE",
"&@	c #FDFBF1",
"*@	c #FFF4B3",
"=@	c #FFFB77",
"-@	c #9E6E24",
";@	c #E59400",
">@	c #FFFEA0",
",@	c #FFDB0A",
"'@	c #FFDF23",
")@	c #FFE030",
"!@	c #FFE445",
"~@	c #FFD60B",
"{@	c #FFCD00",
"]@	c #FDF7D2",
"^@	c #FFFFF4",
"/@	c #FFFABD",
"(@	c #FFFFFD",
"_@	c #FFFDFA",
":@	c #FFFEFB",
"<@	c #FFFFE1",
"[@	c #894E03",
"}@	c #F79D00",
"|@	c #EBC360",
"1@	c #FFE72A",
"2@	c #FFDC11",
"3@	c #FFE029",
"4@	c #FFD812",
"5@	c #FFD920",
"6@	c #FFFAE4",
"7@	c #FFF4B8",
"8@	c #FFF8D3",
"9@	c #FFFEFF",
"0@	c #FFFFFC",
"a@	c #FFFDF9",
"b@	c #FFFEF8",
"c@	c #813D00",
"d@	c #DF8A00",
"e@	c #FDF4C1",
"f@	c #FFDE02",
"g@	c #FFD80A",
"h@	c #FFF0A8",
"i@	c #FFFDF3",
"j@	c #FFFCF3",
"k@	c #FFF9DE",
"l@	c #FFED8A",
"m@	c #FFFDF7",
"n@	c #FFFEFD",
"o@	c #FFFFFB",
"p@	c #DBC58C",
"q@	c #793700",
"r@	c #DA8900",
"s@	c #FFFFCE",
"t@	c #FDFEFF",
"u@	c #FFFBE9",
"v@	c #FFFCEE",
"w@	c #FFEB82",
"x@	c #FFF3AD",
"y@	c #854A04",
"z@	c #D58700",
"A@	c #FFFFD4",
"B@	c #FFE775",
"C@	c #FFFEF7",
"D@	c #FFFAE5",
"E@	c #FFFCEB",
"F@	c #FFF2A5",
"G@	c #FFEB7C",
"H@	c #FFFADB",
"I@	c #D5BC81",
"J@	c #773900",
"K@	c #CD7C00",
"L@	c #FFFECC",
"M@	c #FFFDEF",
"N@	c #FFFAE8",
"O@	c #FFFEF5",
"P@	c #FFF9D7",
"Q@	c #FFE767",
"R@	c #FFED88",
"S@	c #FDFEFE",
"T@	c #FFF3C0",
"U@	c #713400",
"V@	c #C87500",
"W@	c #E7C67C",
"X@	c #FFFDEC",
"Y@	c #FFFCEF",
"Z@	c #FDFDFF",
"`@	c #FFE75F",
" #	c #FFE96D",
".#	c #FFFBB6",
"+#	c #EAD79E",
"@#	c #723300",
"##	c #AB6100",
"$#	c #BD7100",
"%#	c #EACE85",
"&#	c #FFFFAE",
"*#	c #FFFF9C",
"=#	c #F2DE92",
"-#	c #9D6F2D",
";#	c #703100",
">#	c #935000",
",#	c #B26400",
"'#	c #A75A00",
")#	c #BC8421",
"!#	c #C29749",
"~#	c #C1984E",
"{#	c #A87A2E",
"]#	c #7F3D00",
"^#	c #814000",
"                                                                ",
"                  .                                             ",
"                  +                                             ",
"                  @                                             ",
"                # $ % & * = - ; >                               ",
"              , ' ) ! . . . . ~ { ] ^                           ",
"          / ( _ : < [ } . | 1 2 3 . 4 5                         ",
"          6 7 8 9 0 a b c . d e f g h i j k                     ",
"    l m n o p q r s t u v w x y z A B C D E F                   ",
"    . G H I J K L M N O b P Q R . S T C U V W X                 ",
"      Y . . Z q u `  .> ... +.@.#.B T $.%.&.*.=.                ",
"      -.. . ;.w >.,.9 '.).. !.~.{.` ].^./.(._.:.<.              ",
"    [.}.. |.1.2.: 3.4.. 5.6.7.. 8.9.0.a.b.c.d.e.f.g.            ",
"    h.i.j.1.k.. l.I m.. n.o.p.q.r.s.t.u.v.b.w.x.y.z.            ",
"    A.B.1.C.D.E.. F.. G.H.I.J.K.L.M.N.O.u.v.b.P.Q.R.            ",
"    S.1.T.U.V.W.X.Y.Z.`. +.+0 ++@+#+$+%+O.u.v.&+*+=+-+          ",
"    1.;+>+,+'+)+!+~+{+]+^+/+  (+_+:+<+[+}+O.u.v.|+1+2+          ",
"  1.3+4+5+6+7+'+8+9+0+a+b+c+    d+e+f+g+h+}+O.u.i+j+k+          ",
"1.1.  l+m+c.n+7+'+o+p+q+r+s+t+u+v+w+x+y+z+A+}+O.B+C+D+          ",
"      E+F+G+H+n+7+I+J+!+K+L+M+N+O+P+. . !.Q+R+S+I+T+U+          ",
"      V+W+X+Y+H+n+Z+`+C  @.@+@@@#@$@. d %@. &@*@)+=@-@          ",
"        ;@>@,@'@)@!@~@{@]@^@).. /@g (@. (@_@:@. . <@[@          ",
"        }@|@1@2@3@4@T 5@. N+6@~.7@8@9@0@. (@a@b@(@3 c@          ",
"          d@e@f@g@C ` h@i@1 6@j@k@l@m@n@o@. (@_@. p@q@          ",
"            r@s@C T C t@u@1 6@v@. w@x@t@:@o@. . . y@            ",
"              z@A@T B@C@1 1 D@E@:@F@G@H@. _@. . I@J@            ",
"                K@L@~ M@1 1 D@N@O@P@Q@R@S@. . T@U@              ",
"                  V@W@. 7.X@N+N@Y@Z@`@ #.#. +#@#                ",
"                    ##$#%#).+.o@. . &#*#=#-#;#                  ",
"                        >#,#'#)#!#~#{#]#^#                      ",
"                                                                ",
"                                                                "};
