/* XPM */
static char * change_xpm[] = {
"32 32 5 1",
" 	c None",
".	c #818181",
"+	c #000000",
"@	c #FFFFFF",
"#	c #EFEFEF",
"                                ",
"                                ",
"                                ",
"              ..+++..           ",
"            .+++++++++.         ",
"          .+++++++++++++        ",
"         ++++++.     .+++       ",
"        +++++.         .++      ",
"       +++++             .      ",
"      +++++                     ",
"     .++++.                     ",
"     +++++               @      ",
"    .+++++.             @@@     ",
" +++++++++++++         @@@@@    ",
"  +++++++++++         @@@@@@@   ",
"   +++++++++         @@@@@@@@@  ",
"    +++++++         @@@@@@@@@@@ ",
"     +++++         @@@@@@@@@@@@@",
"      +++             #@@@@@#   ",
"       +               @@@@@    ",
"                      #@@@@#    ",
"                      @@@@@     ",
"       #             @@@@@      ",
"       @@#         #@@@@@       ",
"        @@@#     #@@@@@@        ",
"         @@@@@@@@@@@@@#         ",
"          #@@@@@@@@@#           ",
"            ##@@@##             ",
"                                ",
"                                ",
"                                ",
"                                "};
