/* XPM */
static char * charmap_xpm[] = {
"32 32 5 1",
" 	c None",
".	c #000000",
"+	c #FFFFFF",
"@	c #7F7F7F",
"#	c #3F3F3F",
"                                ",
"              ............      ",
"             ..............     ",
"             ..  ..      ..     ",
"            ...  ..       .     ",
"            ..   ..             ",
"           ...   ..   .         ",
"           ............         ",
"          .............         ",
"          ..     ..   .         ",
"         ...     ..             ",
"         ..      ..       .     ",
"        ...      ..      ..     ",
"       .....    ...........     ",
"      .......  ...........      ",
"                                ",
"                                ",
"    ............  ...........   ",
"     ..........    ...........  ",
"      ..    ..      ...     ..  ",
"      ..    ..       ...     .  ",
"      ..    ..        ...       ",
"      ..    ..         ...      ",
"      ..    ..          ...     ",
"      ..    ..          ...     ",
"      ..    ..         ...      ",
"      ..    ..        ...       ",
"   .  ..    ..       ...     .  ",
"  ... ..    ..      ...     ..  ",
"   ....    ....    ...........  ",
"    ..    ......  ...........   ",
"                                "};
