/* XPM */
static char * civ_xpm[] = {
"32 32 637 2",
"  	c None",
". 	c #EEF1F1",
"+ 	c #EDF4F2",
"@ 	c #F0F3F2",
"# 	c #EFF1F0",
"$ 	c #EDF0F0",
"% 	c #EBEDED",
"& 	c #E4EBE9",
"* 	c #DEE3E2",
"= 	c #DDE8E7",
"- 	c #E8F2F0",
"; 	c #EBF4F2",
"> 	c #E9F2F0",
", 	c #E7F0EF",
"' 	c #E7F0EE",
") 	c #E4EDEC",
"! 	c #E1EDEC",
"~ 	c #E3ECEB",
"{ 	c #DFE8E7",
"] 	c #DAE3E3",
"^ 	c #D7E0E0",
"/ 	c #CCD5D6",
"( 	c #CFD7D9",
"_ 	c #D5DEDE",
": 	c #A8C3CE",
"< 	c #98BACB",
"[ 	c #9ABBCC",
"} 	c #9BBCCC",
"| 	c #A9C0C9",
"1 	c #A6BEC6",
"2 	c #9DB9C6",
"3 	c #93B7C8",
"4 	c #99B6C4",
"5 	c #92B4C6",
"6 	c #9AB6C3",
"7 	c #9BB5B7",
"8 	c #A0B8C0",
"9 	c #A5B7BA",
"0 	c #819AA2",
"a 	c #ECEDED",
"b 	c #E0E2E2",
"c 	c #89ABBD",
"d 	c #2179AA",
"e 	c #0E6EA7",
"f 	c #0F6EA7",
"g 	c #116FA7",
"h 	c #0E64A2",
"i 	c #2177A7",
"j 	c #2977A4",
"k 	c #3C7CA1",
"l 	c #3A7CA2",
"m 	c #2B719F",
"n 	c #0E629D",
"o 	c #145E91",
"p 	c #186191",
"q 	c #49778F",
"r 	c #2B6A90",
"s 	c #356481",
"t 	c #4C6168",
"u 	c #CFD8DB",
"v 	c #A9BBC7",
"w 	c #8CA5B5",
"x 	c #2984AF",
"y 	c #0C6DA8",
"z 	c #0C6DA7",
"A 	c #146FA6",
"B 	c #2E7CA5",
"C 	c #7D939D",
"D 	c #939BA0",
"E 	c #979C9F",
"F 	c #969B9C",
"G 	c #9E9784",
"H 	c #7F8990",
"I 	c #79868D",
"J 	c #8B8B7D",
"K 	c #8A8D89",
"L 	c #8B876F",
"M 	c #817D6B",
"N 	c #797761",
"O 	c #786D49",
"P 	c #87A8B9",
"Q 	c #0C6FA9",
"R 	c #0C71AA",
"S 	c #1878AA",
"T 	c #0F72A9",
"U 	c #1D7CAB",
"V 	c #1F72A5",
"W 	c #0C74AC",
"X 	c #7191A3",
"Y 	c #979D87",
"Z 	c #909F93",
"` 	c #678A87",
" .	c #8F9784",
"..	c #929E7D",
"+.	c #95A079",
"@.	c #8F9D77",
"#.	c #7D956F",
"$.	c #79906D",
"%.	c #64876F",
"&.	c #6D8A6E",
"*.	c #6E815C",
"=.	c #5E7851",
"-.	c #506B46",
";.	c #0968A4",
">.	c #0C6EA8",
",.	c #0C72AB",
"'.	c #0C6FAA",
").	c #147BAD",
"!.	c #578AA3",
"~.	c #74909D",
"{.	c #41899D",
"].	c #759893",
"^.	c #909F8C",
"/.	c #829586",
"(.	c #809975",
"_.	c #98A680",
":.	c #8FA378",
"<.	c #94A37C",
"[.	c #849D72",
"}.	c #819D71",
"|.	c #849D7B",
"1.	c #999E7D",
"2.	c #9BA481",
"3.	c #999B7B",
"4.	c #A49C7C",
"5.	c #A59F7C",
"6.	c #778C65",
"7.	c #676B4E",
"8.	c #0A548D",
"9.	c #0C79AF",
"0.	c #1374AA",
"a.	c #3C89A9",
"b.	c #95A48C",
"c.	c #85A17D",
"d.	c #90A57C",
"e.	c #819F72",
"f.	c #94A079",
"g.	c #92A57B",
"h.	c #7C8F74",
"i.	c #979672",
"j.	c #A2A280",
"k.	c #B7B196",
"l.	c #B5B193",
"m.	c #B8B598",
"n.	c #C3BC9E",
"o.	c #BEB79B",
"p.	c #C0B498",
"q.	c #B5AB86",
"r.	c #A89C7D",
"s.	c #68614E",
"t.	c #0C65A1",
"u.	c #0C78AE",
"v.	c #859CAC",
"w.	c #9AA39A",
"x.	c #789897",
"y.	c #508498",
"z.	c #6D8792",
"A.	c #7C9292",
"B.	c #93968F",
"C.	c #A6A190",
"D.	c #AEA07F",
"E.	c #AAA282",
"F.	c #A19A7C",
"G.	c #A2A282",
"H.	c #A49474",
"I.	c #BCB094",
"J.	c #BAB498",
"K.	c #98A380",
"L.	c #C4C29E",
"M.	c #C8BD9B",
"N.	c #C0B49B",
"O.	c #A5AA84",
"P.	c #A79D7D",
"Q.	c #908B68",
"R.	c #0C6198",
"S.	c #0C6BA6",
"T.	c #0C75AD",
"U.	c #57819E",
"V.	c #BDB4A3",
"W.	c #CFC6AE",
"X.	c #C1BAA1",
"Y.	c #C6C3AF",
"Z.	c #B4B8AA",
"`.	c #4E89A7",
" +	c #336F90",
".+	c #628997",
"++	c #7F9189",
"@+	c #969C95",
"#+	c #ABA28A",
"$+	c #B4AA8A",
"%+	c #D2CAA7",
"&+	c #DED2B0",
"*+	c #CDC69E",
"=+	c #B1B294",
"-+	c #B3B195",
";+	c #B6B193",
">+	c #B8AE90",
",+	c #AA9F7F",
"'+	c #A7A789",
")+	c #A49A7B",
"!+	c #6F6E5B",
"~+	c #0C6EA9",
"{+	c #0C75AC",
"]+	c #1671A7",
"^+	c #4E87A9",
"/+	c #ADB4B1",
"(+	c #E0D2BD",
"_+	c #F8EDBE",
":+	c #F8EFC0",
"<+	c #F7F1C2",
"[+	c #EFE7BA",
"}+	c #DAD1B1",
"|+	c #BFC0A9",
"1+	c #CCD1BC",
"2+	c #D5D5B5",
"3+	c #CACAA9",
"4+	c #B8B7A3",
"5+	c #B4B495",
"6+	c #D9D0AD",
"7+	c #E1D9B0",
"8+	c #DAD2AF",
"9+	c #C0BA9C",
"0+	c #B2B193",
"a+	c #B2A882",
"b+	c #AEA887",
"c+	c #9E9D7B",
"d+	c #989572",
"e+	c #928A64",
"f+	c #68754E",
"g+	c #0C68A5",
"h+	c #0E6DA6",
"i+	c #6596AA",
"j+	c #CFCAB3",
"k+	c #E7DBB4",
"l+	c #EFE4BC",
"m+	c #F9F3C4",
"n+	c #F6EDBF",
"o+	c #EFE5BA",
"p+	c #F0E5B7",
"q+	c #F1E6B7",
"r+	c #E8DEBB",
"s+	c #F1E7BA",
"t+	c #F1ECBE",
"u+	c #F3EEC1",
"v+	c #E6DFB7",
"w+	c #BEB99D",
"x+	c #B0B18F",
"y+	c #D1C6A1",
"z+	c #DAD4AE",
"A+	c #C7C2A2",
"B+	c #B3B38D",
"C+	c #A9A281",
"D+	c #758468",
"E+	c #747864",
"F+	c #8D8A64",
"G+	c #6F754E",
"H+	c #5B684C",
"I+	c #0C5C9A",
"J+	c #0C65A3",
"K+	c #0C67A4",
"L+	c #2974A3",
"M+	c #A6B7B4",
"N+	c #F4EEC2",
"O+	c #F7EFC2",
"P+	c #F7F1C3",
"Q+	c #F9F0C1",
"R+	c #F4E9BB",
"S+	c #EEE1BA",
"T+	c #F1E8BE",
"U+	c #F6ECBD",
"V+	c #E8DEB7",
"W+	c #EDE3B7",
"X+	c #F1EBBE",
"Y+	c #F2EDC0",
"Z+	c #E8E4BA",
"`+	c #CDC8A5",
" @	c #949C81",
".@	c #A4A789",
"+@	c #D4CAAA",
"@@	c #DBD1AE",
"#@	c #CDC4A5",
"$@	c #8F9377",
"%@	c #1F4149",
"&@	c #113349",
"*@	c #49544C",
"=@	c #716A46",
"-@	c #3D4947",
";@	c #1A2D3C",
">@	c #0E5C94",
",@	c #0C62A1",
"'@	c #1D68A0",
")@	c #B5B7AE",
"!@	c #DCD2AD",
"~@	c #E0D4AE",
"{@	c #E5DCB9",
"]@	c #EDE2BA",
"^@	c #F0E3BD",
"/@	c #F1E6B9",
"(@	c #F4E9BC",
"_@	c #EBE1B7",
":@	c #E9DABD",
"<@	c #E5DBB7",
"[@	c #E8DEB4",
"}@	c #E4DDB2",
"|@	c #DED0B0",
"1@	c #CDBFA2",
"2@	c #B7AA8A",
"3@	c #9F9371",
"4@	c #AEAD8D",
"5@	c #A69E7D",
"6@	c #476857",
"7@	c #1F4150",
"8@	c #052D4B",
"9@	c #042949",
"0@	c #0F3247",
"a@	c #414E4B",
"b@	c #212E3C",
"c@	c #011432",
"d@	c #0E5990",
"e@	c #0C61A0",
"f@	c #0C64A2",
"g@	c #0E68A5",
"h@	c #397896",
"i@	c #849C86",
"j@	c #96A081",
"k@	c #9CA584",
"l@	c #A9A58C",
"m@	c #AAAD95",
"n@	c #AEAF93",
"o@	c #B0B694",
"p@	c #B1B795",
"q@	c #9AA789",
"r@	c #9DA586",
"s@	c #AFA581",
"t@	c #B5AA89",
"u@	c #BAA57B",
"v@	c #B7A88A",
"w@	c #B6A37C",
"x@	c #BCAE8F",
"y@	c #BCAF93",
"z@	c #AFAB91",
"A@	c #2D5764",
"B@	c #022E64",
"C@	c #012E6E",
"D@	c #021B39",
"E@	c #0C2D43",
"F@	c #091F35",
"G@	c #01132E",
"H@	c #1F6587",
"I@	c #0C5C99",
"J@	c #0C5F9F",
"K@	c #11629F",
"L@	c #35779F",
"M@	c #517D8D",
"N@	c #517D82",
"O@	c #2E748B",
"P@	c #396A82",
"Q@	c #517C75",
"R@	c #7C9672",
"S@	c #799A6F",
"T@	c #6B9571",
"U@	c #779674",
"V@	c #869974",
"W@	c #9E9F7C",
"X@	c #A79D7F",
"Y@	c #ABA585",
"Z@	c #B7AA8C",
"`@	c #B1A282",
" #	c #97987C",
".#	c #536267",
"+#	c #02356A",
"@#	c #04335C",
"##	c #042E51",
"$#	c #052B49",
"%#	c #042441",
"&#	c #507864",
"*#	c #4C7C89",
"=#	c #136299",
"-#	c #0C5E9E",
";#	c #0C619E",
">#	c #0F598D",
",#	c #1A6189",
"'#	c #7C8A79",
")#	c #97A480",
"!#	c #9F9C75",
"~#	c #AEA174",
"{#	c #B3A174",
"]#	c #B1A482",
"^#	c #A59878",
"/#	c #A69D7C",
"(#	c #A39572",
"_#	c #6E6D57",
":#	c #1B5165",
"<#	c #042B4C",
"[#	c #022B5E",
"}#	c #042B54",
"|#	c #021F3C",
"1#	c #5B7851",
"2#	c #658467",
"3#	c #1A5E79",
"4#	c #0C5C9B",
"5#	c #376564",
"6#	c #B0AE94",
"7#	c #B7AE92",
"8#	c #B9AD87",
"9#	c #B6AB85",
"0#	c #ADA181",
"a#	c #9E9D79",
"b#	c #A89979",
"c#	c #85876D",
"d#	c #294B53",
"e#	c #043054",
"f#	c #023A6D",
"g#	c #022D61",
"h#	c #011D43",
"i#	c #04223F",
"j#	c #011632",
"k#	c #7C8D68",
"l#	c #50776F",
"m#	c #095086",
"n#	c #0E598D",
"o#	c #0C5C98",
"p#	c #0E5B95",
"q#	c #0C5C9C",
"r#	c #0E5991",
"s#	c #0C568C",
"t#	c #054C85",
"u#	c #075087",
"v#	c #436F74",
"w#	c #B6B29A",
"x#	c #C0BC9D",
"y#	c #C0B79C",
"z#	c #B7AE95",
"A#	c #ABA181",
"B#	c #959C78",
"C#	c #86936F",
"D#	c #8B8B68",
"E#	c #33576E",
"F#	c #0E3954",
"G#	c #2B564E",
"H#	c #042B4B",
"I#	c #021F41",
"J#	c #01245C",
"K#	c #011433",
"L#	c #011129",
"M#	c #01112D",
"N#	c #7B7B54",
"O#	c #33615F",
"P#	c #0C548A",
"Q#	c #0C5991",
"R#	c #0A548B",
"S#	c #0A5794",
"T#	c #0C5794",
"U#	c #0C568B",
"V#	c #044984",
"W#	c #50757D",
"X#	c #B1B097",
"Y#	c #C6B994",
"Z#	c #C3BC9D",
"`#	c #B8B197",
" $	c #A4A986",
".$	c #9C9C79",
"+$	c #7B8264",
"@$	c #294C49",
"#$	c #1D3F49",
"$$	c #5C715F",
"%$	c #53626A",
"&$	c #02295B",
"*$	c #02244E",
"=$	c #010A1A",
"-$	c #010A1B",
";$	c #1A546F",
">$	c #044B84",
",$	c #024782",
"'$	c #05508F",
")$	c #055190",
"!$	c #05508C",
"~$	c #05508D",
"{$	c #014784",
"]$	c #0C548B",
"^$	c #014681",
"/$	c #7D9089",
"($	c #CFC8A3",
"_$	c #CEC2A3",
":$	c #BFB595",
"<$	c #3D6254",
"[$	c #043057",
"}$	c #0C3961",
"|$	c #0C335C",
"1$	c #012153",
"2$	c #011F51",
"3$	c #011437",
"4$	c #0E446A",
"5$	c #024B89",
"6$	c #044E8A",
"7$	c #044B85",
"8$	c #215781",
"9$	c #B0AD94",
"0$	c #CEC4A0",
"a$	c #C5B697",
"b$	c #B4A586",
"c$	c #6B6556",
"d$	c #0A3965",
"e$	c #01306F",
"f$	c #013077",
"g$	c #093368",
"h$	c #042953",
"i$	c #021F43",
"j$	c #011B47",
"k$	c #023774",
"l$	c #095189",
"m$	c #014782",
"n$	c #055392",
"o$	c #024986",
"p$	c #014480",
"q$	c #014680",
"r$	c #215C84",
"s$	c #4E7B79",
"t$	c #4B6F56",
"u$	c #2D4B53",
"v$	c #0A326D",
"w$	c #012D74",
"x$	c #022B5C",
"y$	c #011A3F",
"z$	c #012761",
"A$	c #011430",
"B$	c #010914",
"C$	c #01417F",
"D$	c #01437F",
"E$	c #01397B",
"F$	c #013D7D",
"G$	c #013277",
"H$	c #013F7D",
"I$	c #013075",
"J$	c #013C7C",
"K$	c #012E75",
"L$	c #012D68",
"M$	c #022B5F",
"N$	c #022754",
"O$	c #011A44",
"P$	c #012662",
"Q$	c #013A7B",
"R$	c #013272",
"S$	c #013F75",
"T$	c #013779",
"U$	c #013578",
"V$	c #013378",
"W$	c #012D71",
"X$	c #012253",
"Y$	c #01224C",
"Z$	c #01183D",
"`$	c #010F26",
" %	c #01296A",
".%	c #013775",
"+%	c #01326D",
"@%	c #012257",
"#%	c #011D49",
"$%	c #012B67",
"%%	c #012157",
"&%	c #011A41",
"*%	c #011332",
"=%	c #011637",
"-%	c #01163A",
";%	c #011330",
">%	c #022953",
",%	c #022B62",
"'%	c #022D65",
")%	c #042E59",
"!%	c #093575",
"~%	c #0A3777",
"{%	c #0A3577",
"]%	c #0C3778",
"^%	c #0C3575",
"/%	c #0C264C",
"(%	c #0A2D61",
"_%	c #0A2B5E",
":%	c #0C2447",
"<%	c #0C326A",
"[%	c #0E213A",
"}%	c #112E59",
"|%	c #133A75",
"1%	c #445B75",
"2%	c #113974",
"3%	c #112B54",
"4%	c #3A4E65",
"5%	c #0F2B53",
"6%	c #26476A",
"7%	c #336185",
"8%	c #748691",
"9%	c #818D96",
"0%	c #7D8B95",
"a%	c #879199",
"b%	c #86909A",
"c%	c #7B8A96",
"d%	c #7D8A94",
"e%	c #848D96",
"f%	c #8C9399",
"g%	c #9D9F9F",
"h%	c #A2A3A3",
"i%	c #A5A5A5",
"j%	c #A3A3A3",
"k%	c #9B9B9B",
"l%	c #8F9294",
"m%	c #777C7F",
"n%	c #9FA2A3",
"o%	c #A9A9A9",
"p%	c #A7AAA9",
"q%	c #ABABAB",
"r%	c #A8ABAA",
"s%	c #A9AAA9",
"t%	c #A5A9AA",
"u%	c #A2A7AD",
"v%	c #A5A6A9",
"w%	c #A1A5A9",
"x%	c #A4A5A5",
"y%	c #8F8C8A",
"z%	c #979999",
"A%	c #9DA6A4",
"B%	c #A0A5A4",
"C%	c #9EA5A3",
"D%	c #9EA5A4",
"E%	c #9CA2A0",
"F%	c #9DA4A4",
"G%	c #9CA2A5",
"H%	c #9DA5A5",
"I%	c #959FA7",
"J%	c #9EA2A6",
"K%	c #9EA2A4",
"L%	c #989898",
"M%	c #9B9E9D",
"N%	c #9BA5A2",
"O%	c #9B9F9E",
"P%	c #9BA6A3",
"Q%	c #A0A5A3",
"R%	c #9DA5A3",
"S%	c #9AA09F",
"T%	c #98A3A3",
"                        . + @ # $ % & *                         ",
"                  = - - ; > , ' ) ! ~ { ] ^ /                   ",
"              ( _ : < [ } < | 1 2 3 4 5 6 7 8 9 0               ",
"            a b c d e f g h i j k l m n o p q r s t             ",
"          u v w x y z z A B C D E F G H I J K L M N O           ",
"        P Q R S T U V W X Y Z `  ...+.@.@.#.$.%.&.*.=.-.        ",
"      ;.>.,.z '.).!.~.{.].^./.(._.:.<.[.}.|.1.2.3.4.5.6.7.      ",
"    8.R z z '.9.0.a.b.c.d.e.f.g.g.f.h.i.j.k.l.m.n.o.p.q.r.s.    ",
"    t.>.z u.W S v.w.x.y.z.A.B.C.D.E.F.G.H.I.J.K.L.M.N.O.P.Q.    ",
"  R.S.>.z T.z U.V.W.X.Y.Z.`. +.+++@+#+$+%+&+*+=+-+;+>+,+'+)+!+  ",
"  z ~+{+z ]+^+/+(+_+:+<+[+}+|+1+2+3+4+5+6+7+8+9+0+a+b+c+d+e+f+  ",
"  z '.g+h+i+j+k+l+m+n+o+p+q+r+s+t+u+v+w+x+y+z+A+B+C+D+E+F+G+H+  ",
"I+J+K+J+L+M+N+O+P+Q+R+S+T+U+V+W+X+Y+Z+`+ @.@+@@@#@$@%@&@*@=@-@;@",
">@J+J+,@'@)@!@~@{@]@^@/@(@_@:@<@[@}@|@1@2@3@4@5@6@7@8@9@0@a@b@c@",
"d@e@f@K+g@h@i@j@k@l@m@n@o@p@q@r@s@t@u@v@w@x@y@z@A@B@C@9@D@E@F@G@",
"H@I@,@J@,@K@L@M@N@O@P@Q@R@S@T@U@V@W@X@Y@Z@`@ #.#+#@###$#%#G@G@G@",
"&#*#=#-#,@J@f@e@-#;#>#,#'#)#!#~#{#]#^#/#(#_#:#<#[#}#$#|#%#G@G@G@",
"1#2#3#I+-#J+J@-#-#4#>#>#5#6#7#8#9#0#a#b#c#d#e#f#<#g#h#i#j#G@G@G@",
"k#l#m#n#I+o#p#q#r#s#t#u#v#w#x#y#z#A#B#C#D#E#F#G#H#I#J#K#G@G@L#M#",
"N#O#u#P#Q#R#S#T#R#U#V#t#W#X#Y#Z#`# $.$+$@$#$$$%$&$*$j#G@G@G@=$-$",
"  ;$>$,$'$)$!$~${$]$^$^$^$/$($_$:$Z@^#<$[$}$*@|$1$2$3$G@G@G@G@  ",
"  4$^$^$^$5$!$6$^$>$V#7$^$8$9$0$a$b$c$d$e$f$g$h$i$j$K#G@G@G@G@  ",
"  k$^$^$^$l$m$n$o$^$^$^$p$q$r$s$t$u$v$w$w$x$y$z$A$G@G@G@G@G@B$  ",
"    C$C$p$C$^$D$p$p$D$E$F$G$H$I$I$J$K$L$M$N$z$G@O$j$G@G@G@G@    ",
"    P$K$Q$R$S$T$E$Q$G$U$T$I$E$V$V$K$W$X$Y$Z$G@G@G@G@G@G@G@`$    ",
"       %g#.%+%G$K$I$T$K$K$K$K$K$K$K$2$@%O$#%K#G@G@G@G@G@`$      ",
"        $%G$K$K$J$K$G$K$K$K$K$K$%%&%*%&%=%-%;%G@G@G@G@L#        ",
"          >%,%'%)%!%~%{%]%^%/%(%_%:%<%[%}%|%1%|%2%3%4%          ",
"            5%6%7%8%9%0%a%a%b%c%d%e%e%f%g%h%i%j%k%l%            ",
"              m%n%o%p%q%r%s%t%u%v%w%x%i%i%i%i%j%y%              ",
"                  z%A%B%C%D%E%F%F%G%H%I%J%K%L%                  ",
"                        M%N%O%P%Q%R%S%T%                        "};
