/* XPM */
static char * colosseum_xpm[] = {
"32 32 10 1",
" 	c None",
".	c #F8DA9A",
"+	c #319CFF",
"@	c #9C6300",
"#	c #FFCE63",
"$	c #8C8C8C",
"%	c #FFCE31",
"&	c #212121",
"*	c #FF9C63",
"=	c #9C9C31",
".+++++++++++++++++++++++++++++++",
".+++++++++++++++++++++++++++++++",
".+++++++++++++++++++++++++++++++",
".+++++++++++++++++++++++++++++++",
".+++++++++++++++++++++++++++++++",
".+++++++++++++++++++++++++++++++",
".+++++++@@@@@+++++++++++++++++++",
".++@@@@@#####@++++++++++++++++++",
".@@####$$#$$##@+++++++++++++++++",
".@##$$#$$######@++++++++++++++++",
".@$#$$#########@++++++++++++++++",
".@########@@@@@@@+++++++++++++++",
".@###@@@@@@%%%%@@+++++++++++++++",
".@@@@@%%%%@%&&%@%@++++++++++++++",
".@%%%@%&&%@%&&%@%%@+++++++++++++",
".@%&%@%&&%@%@@@@@@@@@@@@@@@+++++",
".@%&%@%@@@@@%%%@%%%@*@****@@@@@@",
".@%@@@@%%%@%&&%@%&&@*@*&&*@**@**",
".@@%%@%&&%@%&&%@%&&%@@*&&*@*&@**",
".@%&%@%&&%@%&&%@%&&%@@*&&*@*&@*&",
".@%&%@%&&%@%&@@@@@@@@@@@@@@@@@*&",
".@%@@@@@@@@@@%%@%%%%@@****@**@@@",
".@@%%@%%%%@%%%%@%&&%@%@&&*@**@**",
".@%&%@%&&%@%&&%@%&&%@%@&&*@*&@*&",
".@%&%@%&&%@%&&%@%&&%@%%@&*@*&@*&",
".=@&%@%&&%@%&&%@%&&%@%%@&*@*&@*@",
".==@@@%&&%@%&&%@%&&%@%%%@*@*&@@=",
".====@@@@@@%&&%@%&&%@%%%@@@@@===",
".=========@@@@@@@@@@@@@@========",
".===============================",
".===============================",
".==============================="};
