/* XPM */
static char * crash_xpm[] = {
"32 32 6 1",
" 	c None",
".	c #000000",
"+	c #FFFF00",
"@	c #FDFD00",
"#	c #FEFE00",
"$	c #FF0000",
"            ........            ",
"         ..............         ",
"       .....++++++++.....       ",
"      ....++++++++++++....      ",
"     ...++++++++++++++++...     ",
"    ...++++++++++++++++++...    ",
"   ...++++++++++@+++++++++...   ",
"  ...++++++++++++++++++++++...  ",
"  ..++++++++++++++++++++++++..  ",
" ...+++++.+++.+++++.+++.++++... ",
" ..+++++++.+.+++++++.+.++++++.. ",
" ..++++++++.+++++++++.+++++++.. ",
"..++++++++.+.+++++++.+.+++++++..",
"..+++++++.+++.+++++.+++.++++++..",
"..++++++++++++++++++++++++++++..",
"..++++++++++++++++++++++++++++..",
"..++++#+++++++++@+++++++++#+++..",
"..++++++++++++++++++++++++++++..",
"..++++#+++#+++++++++++#+++#+++..",
"..++++++++++++++++++++++++++++..",
" ..+++++#+++++++++++++++#++++.. ",
" ..++++++++++.......+++++++++.. ",
" ...+++++++..++$$$$$..++++++... ",
"  ..++++++.++++$$$$$++.+++++..  ",
"  ...++++++++++$$$$$+++++++...  ",
"   ...+++++++++$$$$$++++++...   ",
"    ...++++++++$$$$$+++++...    ",
"     ...++++++++$$$+++++...     ",
"      ....++++++++++++....      ",
"       .....++++++++.....       ",
"         ..............         ",
"            ........            "};
