/* XPM */
static char * de_xpm[] = {
"32 32 53 1",
" 	c None",
".	c #0000FF",
"+	c #FFFFFF",
"@	c #B3B3B3",
"#	c #000000",
"$	c #3C3C3C",
"%	c #A3A3A3",
"&	c #2C2C2C",
"*	c #202020",
"=	c #B7B7B7",
"-	c #7C7C7C",
";	c #5C5C5C",
">	c #282828",
",	c #808080",
"'	c #505050",
")	c #7F7F7F",
"!	c #141414",
"~	c #646464",
"{	c #444444",
"]	c #F3F3F3",
"^	c #747474",
"/	c #707070",
"(	c #8F8F8F",
"_	c #484848",
":	c #787878",
"<	c #E7E7E7",
"[	c #BBBBBB",
"}	c #BFBFBF",
"|	c #838383",
"1	c #FBFBFB",
"2	c #ABABAB",
"3	c #383838",
"4	c #C7C7C7",
"5	c #303030",
"6	c #9B9B9B",
"7	c #585858",
"8	c #D7D7D7",
"9	c #606060",
"0	c #939393",
"a	c #AFAFAF",
"b	c #1C1C1C",
"c	c #A7A7A7",
"d	c #E3E3E3",
"e	c #DBDBDB",
"f	c #242424",
"g	c #979797",
"h	c #404040",
"i	c #181818",
"j	c #CFCFCF",
"k	c #686868",
"l	c #EFEFEF",
"m	c #DFDFDF",
"n	c #101010",
"                                ",
"                                ",
"                                ",
"                                ",
"                                ",
"                                ",
"  ...........................   ",
"  ...........................   ",
"  ...........................   ",
"  ...........................   ",
"  .+++++++++@####$@+++++++++.   ",
"  .++++++++%#######@++++++++.   ",
"  .++++++++########&++++++++.   ",
"  .++++++++#*=-#;=*#++++++++.   ",
"  .++++++++>,++',+,>++++++++.   ",
"  .++++++++)!~>+{>!!++++++++.   ",
"  .++++++++]^/#(_^:<++++++++.   ",
"  .++++++[[+}|[))[-+1,++++++.   ",
"  .++++++_#]+{2=234+3#]+++++.   ",
"  .++++++5#56[>7>~89!#0+++++.   ",
"  .++++++aa^b>cd4'b38a++++++.   ",
"  .+++++e=e+[:;*f9g=e-h+++++.   ",
"  .+++++2#i5i&7j2/&#i#&+++++.   ",
"  .++++++$#k%l++++lm%#n+++++.   ",
"  .++++++#:++++++++++@:+++++.   ",
"  ...........................   ",
"                                ",
"                                ",
"                                ",
"                                ",
"                                ",
"                                "};
