/* XPM */
static char * die_xpm[] = {
"32 32 139 2",
"  	c None",
". 	c #000000",
"+ 	c #050505",
"@ 	c #060606",
"# 	c #333333",
"$ 	c #CBCBCB",
"% 	c #FDFDFD",
"& 	c #FEFEFE",
"* 	c #D1D1D1",
"= 	c #3E3E3E",
"- 	c #858585",
"; 	c #FFFFFF",
"> 	c #979797",
", 	c #040404",
"' 	c #595959",
") 	c #919191",
"! 	c #929292",
"~ 	c #606060",
"{ 	c #030303",
"] 	c #323232",
"^ 	c #686868",
"/ 	c #303030",
"( 	c #676767",
"_ 	c #696969",
": 	c #353535",
"< 	c #020202",
"[ 	c #767676",
"} 	c #7A7A7A",
"| 	c #727272",
"1 	c #7F7F7F",
"2 	c #1C1C1C",
"3 	c #515151",
"4 	c #F0F0F0",
"5 	c #F1F1F1",
"6 	c #555555",
"7 	c #4E4E4E",
"8 	c #EFEFEF",
"9 	c #F2F2F2",
"0 	c #585858",
"a 	c #181818",
"b 	c #787878",
"c 	c #313131",
"d 	c #151515",
"e 	c #2A2A2A",
"f 	c #252525",
"g 	c #070707",
"h 	c #2E2E2E",
"i 	c #2F2F2F",
"j 	c #080808",
"k 	c #090909",
"l 	c #242424",
"m 	c #2B2B2B",
"n 	c #131313",
"o 	c #8A8A8A",
"p 	c #C2C2C2",
"q 	c #C3C3C3",
"r 	c #909090",
"s 	c #191919",
"t 	c #8F8F8F",
"u 	c #A1A1A1",
"v 	c #1A1A1A",
"w 	c #9A9A9A",
"x 	c #D2D2D2",
"y 	c #D4D4D4",
"z 	c #212121",
"A 	c #575757",
"B 	c #0E0E0E",
"C 	c #0C0C0C",
"D 	c #0A0A0A",
"E 	c #5B5B5B",
"F 	c #373737",
"G 	c #3D3D3D",
"H 	c #1E1E1E",
"I 	c #404040",
"J 	c #111111",
"K 	c #E5E5E5",
"L 	c #F8F8F8",
"M 	c #0B0B0B",
"N 	c #808080",
"O 	c #434343",
"P 	c #010101",
"Q 	c #6C6C6C",
"R 	c #797979",
"S 	c #565656",
"T 	c #5C5C5C",
"U 	c #3F3F3F",
"V 	c #BCBCBC",
"W 	c #6E6E6E",
"X 	c #494949",
"Y 	c #C7C7C7",
"Z 	c #FBFBFB",
"` 	c #B3B3B3",
" .	c #9D9D9D",
"..	c #161616",
"+.	c #474747",
"@.	c #E4E4E4",
"#.	c #ADADAD",
"$.	c #0D0D0D",
"%.	c #DADADA",
"&.	c #F5F5F5",
"*.	c #E8E8E8",
"=.	c #E2E2E2",
"-.	c #EAEAEA",
";.	c #F9F9F9",
">.	c #EDEDED",
",.	c #343434",
"'.	c #C8C8C8",
").	c #1F1F1F",
"!.	c #141414",
"~.	c #C5C5C5",
"{.	c #DDDDDD",
"].	c #D9D9D9",
"^.	c #D6D6D6",
"/.	c #CDCDCD",
"(.	c #939393",
"_.	c #707070",
":.	c #B2B2B2",
"<.	c #424242",
"[.	c #A5A5A5",
"}.	c #DFDFDF",
"|.	c #8D8D8D",
"1.	c #FCFCFC",
"2.	c #E0E0E0",
"3.	c #171717",
"4.	c #7D7D7D",
"5.	c #2D2D2D",
"6.	c #1D1D1D",
"7.	c #D0D0D0",
"8.	c #7E7E7E",
"9.	c #292929",
"0.	c #5D5D5D",
"a.	c #484848",
"b.	c #F6F6F6",
"c.	c #C1C1C1",
"d.	c #A9A9A9",
"e.	c #0F0F0F",
"f.	c #232323",
"g.	c #5E5E5E",
"h.	c #616161",
"                            . . . .                             ",
"                      . . . . + @ . . . .                       ",
"                  . . . . # $ % & * = . . . .                   ",
"              . . . . . . - ; ; ; ; > . . . . . .               ",
"          . . . . . . . . , ' ) ! ~ @ . . . . . . . .           ",
"      { . . ] ^ ^ # . . . . . . . . . . . . / ( _ : . . {       ",
"    < . . [ ; ; ; ; } . . . . . . . . . . | ; ; ; ; 1 . . {     ",
"  } 2 . . 3 4 ; ; 5 6 . . . . . . . . . . 7 8 ; ; 9 0 . . a b   ",
"c d e f @ . g h i j . . . . . . . . . . . . g h i k . + l m d i ",
"@ . . . , . . . . . . . . n o p q r s . . . . . . . . + . . . + ",
"< . . . . . . . . . . . . t ; ; ; ; u . . . . . . . . . . . . { ",
". . . . . . . . . . . . . v w x y u z . . . . . . . . . A p 2 . ",
". . . . . . . . . . . k B . . . . . . C D . . . . . . E & ; F . ",
". . . . . . . . . . . . B G F H H : I J . . . . l t H K ; L M . ",
". . . . . . . . . . . . . . G N N O P . . . . i 4 ; Q ; ; R . . ",
". . . . . . . . . g I , . . . S T . . . { U k V ; ; c V W . . . ",
". . . . . . . . . X ; Y J . . e / . . M V ; E Z ; ` . . . . . . ",
". . . . . . . . . : ; ;  .. . ..H . . t ; ; +.@.#.$.. . . . . . ",
". . . . . . . . . { %.; &.{ . g C . . *.; =.D . . . . . . . . . ",
". . @ . . . . . . . i -.& @ . . < . { ;.>.,.. . . . . . . @ . . ",
". . x '.).. . . . . . J F . . . . . . ,.!.. . . . . . v ~.{.. . ",
". . ].; ^.+ . . . . . . . . . . . . . . . . . . . . { /.; K . . ",
". . (.; ; 3 . . . . . . . . . . . . . . . . . P _.:.<.; ; [.. . ",
". . !.}.; [ . . . . . . . . . . . . . . . . . |.; 1.Q ; 2.s . . ",
"  . . 3.4.5.. . . . . . . . . . . . . . k h 6.1.; 7.l 8.s . .   ",
"    . . . . . . . . . . . . . . . . . 9.2.% 0.; 1.a.. . . .     ",
"      . . . . . . . . . . . . . . . < * ; b.c c.3 . . . .       ",
"          . . . . . . . . . . . . . i ; ; d.. . . . .           ",
"              . . . . . . . . < + . X ; x !.. . .               ",
"                  . . . . . . e.3.. j 7 M . .                   ",
"                      { P . . f.m . . < ,                       ",
"                            s g.h.v                             "};
