/* XPM */
static char * eeye_xpm[] = {
"32 32 39 1",
" 	c None",
".	c #FFFFFF",
"+	c #ECCBCE",
"@	c #C98D7E",
"#	c #614432",
"$	c #E6C8CB",
"%	c #000000",
"&	c #E8D0CD",
"*	c #0A0D0A",
"=	c #0E110D",
"-	c #090D09",
";	c #0C100A",
">	c #0B0C0A",
",	c #0A0E09",
"'	c #0F110B",
")	c #151812",
"!	c #1A1D15",
"~	c #505E66",
"{	c #677A84",
"]	c #637682",
"^	c #88A1AD",
"/	c #0D0F09",
"(	c #11130D",
"_	c #101911",
":	c #76878F",
"<	c #090E09",
"[	c #556770",
"}	c #3A555D",
"|	c #101510",
"1	c #0D120D",
"2	c #0C110B",
"3	c #D48060",
"4	c #13170F",
"5	c #0D110C",
"6	c #EDCCD1",
"7	c #EDC9CB",
"8	c #F5DFDF",
"9	c #F1D6D0",
"0	c #D8AA95",
"......+++++++++++@@@@@@@@@@@@@@@",
"....+++++++++@@@@@@@@@@@@@@@@@@@",
"..+++++++++@@@@@@@############@@",
"+++++++$+@@@@@@@################",
"+++++++@@@@@@@##################",
"+++++@@@@@@##############%%%%%##",
"&++@@@@@############%%%%%%%%%%%%",
"@@@@@@###########%%%%%%%%%%%%%%%",
"@@@@#########%%%%%%%*=-;>,')%%%!",
"@#########%%%%%%%%%%%%%%%%%%%%%%",
"#######%%%%%%%%%%%%%%%%%%%%%%%%%",
"####%%%%%%%%%%%%%%%%%%%%%%%%%%%%",
"#%%%%%%%%%%%%%%%%%%~{~~~~@#%%%%%",
"%%%%-%%%%%%%%%%~~~~]^.^^^+@@@##%",
"/(_%%%%%%%%%%~~~~:~^....+++@@@##",
"%%<%%%%%%%%~~~[{{{{{.....+++@@@#",
"%%%%%%%%%}{~%|^{{{{{^.....+++@@#",
"%%%%%%%~~~^%12^{{{{{^......+++@3",
"####%~~~~~^%45^{{{{{^......++++@",
"####~~~~~~{~~~{{{{{{^......+++6@",
"####~~~~{{{{{{{{{{{^.......++7+@",
"#####~{{{{{{{{{{{{{^......++++@@",
"#####@@{{{{{{{{{{{^.......++++@@",
"######@@{{{{{{{{{^.......++++@@@",
"#######@@@@{{{{{^.......++++@@@#",
"##########@@@@@@@+++++++++@@@###",
"@@@#############################",
"@@@@@###########################",
"+@@@@@@@########################",
"++++@@@@@@@@#################@@@",
"...89++@@@@@@@@@@@#######@@@@@@0",
"......+++++++@@@@@@@@@@@@@@@@@++"};
