/* XPM */
static char * evolution_xpm[] = {
"32 32 681 2",
"  	c None",
". 	c #FFE53F",
"+ 	c #FFE13B",
"@ 	c #FFDE33",
"# 	c #FFDC2C",
"$ 	c #FFD820",
"% 	c #FFD719",
"& 	c #FFD616",
"* 	c #FFD416",
"= 	c #EBD54B",
"- 	c #FFEA55",
"; 	c #FFE654",
"> 	c #FFE250",
", 	c #FFDF4B",
"' 	c #FFDB42",
") 	c #FFD93C",
"! 	c #FFD630",
"~ 	c #FFD525",
"{ 	c #FFD219",
"] 	c #FFD216",
"^ 	c #FFCF16",
"/ 	c #FFCD16",
"( 	c #E1AF13",
"_ 	c #F3E563",
": 	c #FFF480",
"< 	c #FFEF6F",
"[ 	c #FFEA6A",
"} 	c #FFE769",
"| 	c #FFE365",
"1 	c #FFDF5F",
"2 	c #FFDB57",
"3 	c #FFD94D",
"4 	c #FFD741",
"5 	c #FFD536",
"6 	c #FFD326",
"7 	c #FFD01A",
"8 	c #FFCE15",
"9 	c #FFCA15",
"0 	c #FFC616",
"a 	c #FFC216",
"b 	c #EBAF13",
"c 	c #FFF390",
"d 	c #FFFEDA",
"e 	c #D2D2BE",
"f 	c #6D683C",
"g 	c #F3DF73",
"h 	c #FFEC7B",
"i 	c #FFE876",
"j 	c #FFE470",
"k 	c #FFDF67",
"l 	c #FFDE5D",
"m 	c #FFDC50",
"n 	c #F0CB3E",
"o 	c #FFD733",
"p 	c #FFD424",
"q 	c #FFCB15",
"r 	c #FDC615",
"s 	c #FCC116",
"t 	c #FCBC15",
"u 	c #F7B514",
"v 	c #FFF692",
"w 	c #FFFFFF",
"x 	c #FFFBED",
"y 	c #4D4834",
"z 	c #101114",
"A 	c #1C1A0F",
"B 	c #948C51",
"C 	c #F9E989",
"D 	c #FFED88",
"E 	c #FFEA7C",
"F 	c #FFE870",
"G 	c #EFD75B",
"H 	c #453D18",
"I 	c #3E340B",
"J 	c #BC9F21",
"K 	c #FFD51D",
"L 	c #FFD015",
"M 	c #FEC815",
"N 	c #FBC215",
"O 	c #F7BB15",
"P 	c #F7B716",
"Q 	c #F7B115",
"R 	c #FFF48C",
"S 	c #FFFEEE",
"T 	c #FFFFF6",
"U 	c #A39C7A",
"V 	c #151618",
"W 	c #97989C",
"X 	c #3E3F43",
"Y 	c #060603",
"Z 	c #998D59",
"` 	c #E8DD88",
" .	c #FFF38B",
"..	c #FFF27F",
"+.	c #A49344",
"@.	c #0C0A04",
"#.	c #21242C",
"$.	c #181403",
"%.	c #866F0E",
"&.	c #F1C713",
"*.	c #FFCD13",
"=.	c #FDC614",
"-.	c #F8BD15",
";.	c #F5B715",
">.	c #F4B114",
",.	c #F4AC14",
"'.	c #FFEB67",
").	c #FFFFDC",
"!.	c #FFFFED",
"~.	c #CDC495",
"{.	c #242111",
"].	c #818182",
"^.	c #1B1C20",
"/.	c #7C7451",
"(.	c #8F8D62",
"_.	c #0D0C06",
":.	c #AFA462",
"<.	c #D8CF72",
"[.	c #080701",
"}.	c #23242B",
"|.	c #9A9EAB",
"1.	c #666A78",
"2.	c #18191C",
"3.	c #292000",
"4.	c #BA930B",
"5.	c #F6C310",
"6.	c #FCC113",
"7.	c #F7B913",
"8.	c #F2B014",
"9.	c #F1AB14",
"0.	c #E99F12",
"a.	c #F3DC4D",
"b.	c #FFF8A1",
"c.	c #FFFED6",
"d.	c #FFFBC8",
"e.	c #5B522E",
"f.	c #27282A",
"g.	c #F2F2F3",
"h.	c #636365",
"i.	c #1D1C14",
"j.	c #1D1C13",
"k.	c #212225",
"l.	c #0F0E08",
"m.	c #2E2A17",
"n.	c #0F1011",
"o.	c #0F1012",
"p.	c #3C3E42",
"q.	c #90939B",
"r.	c #8A8D96",
"s.	c #3B3E47",
"t.	c #130F01",
"u.	c #624E05",
"v.	c #F9BF10",
"w.	c #FBBD12",
"x.	c #F4B313",
"y.	c #F1AC13",
"z.	c #EFA413",
"A.	c #D88F10",
"B.	c #FFED6E",
"C.	c #FFF6B2",
"D.	c #FEF5B8",
"E.	c #A69A61",
"F.	c #151516",
"G.	c #BFBFC0",
"H.	c #F1F1F2",
"I.	c #B1B2B3",
"J.	c #B3B3B5",
"K.	c #CACBCE",
"L.	c #454547",
"M.	c #1E1E1E",
"N.	c #7D7D80",
"O.	c #444446",
"P.	c #0D0D0D",
"Q.	c #5F6065",
"R.	c #9B9DA5",
"S.	c #70727C",
"T.	c #222329",
"U.	c #1C1501",
"V.	c #957008",
"W.	c #F2B20F",
"X.	c #F4AF11",
"Y.	c #F0A512",
"Z.	c #EE9F12",
"`.	c #EBD039",
" +	c #FFED85",
".+	c #FFF0A4",
"++	c #D9C986",
"@+	c #2F2916",
"#+	c #6D6E71",
"$+	c #F8F8F9",
"%+	c #FBFBFC",
"&+	c #E6E6E7",
"*+	c #707070",
"=+	c #070707",
"-+	c #6B6B6C",
";+	c #939494",
">+	c #040405",
",+	c #252628",
"'+	c #888A91",
")+	c #979AA3",
"!+	c #3F424A",
"~+	c #0A0907",
"{+	c #634804",
"]+	c #D89A0C",
"^+	c #F2A710",
"/+	c #EF9F11",
"(+	c #CA800E",
"_+	c #FFE546",
":+	c #FFE781",
"<+	c #FFE587",
"[+	c #54482A",
"}+	c #F1F1F3",
"|+	c #C1C2C1",
"1+	c #DFDFDE",
"2+	c #FCFCFC",
"3+	c #EEEEEE",
"4+	c #F9F9F9",
"5+	c #888889",
"6+	c #1A1A1A",
"7+	c #CECECE",
"8+	c #242424",
"9+	c #1B1C1C",
"0+	c #545455",
"a+	c #111112",
"b+	c #414246",
"c+	c #96989F",
"d+	c #82868F",
"e+	c #242529",
"f+	c #090605",
"g+	c #8D5F06",
"h+	c #DC920D",
"i+	c #EE9610",
"j+	c #FFE24B",
"k+	c #FFE46C",
"l+	c #B39C50",
"m+	c #0B0C0E",
"n+	c #A4A5AA",
"o+	c #F3F3F4",
"p+	c #D7D8D9",
"q+	c #DFE0E0",
"r+	c #C2C2C2",
"s+	c #D1D1D1",
"t+	c #F5F5F4",
"u+	c #AEAEAF",
"v+	c #ABABAB",
"w+	c #ECECEC",
"x+	c #9E9E9E",
"y+	c #0E0E0E",
"z+	c #3E3E3E",
"A+	c #090909",
"B+	c #0F0F0F",
"C+	c #565656",
"D+	c #999A9B",
"E+	c #232323",
"F+	c #222325",
"G+	c #6F7175",
"H+	c #969AA3",
"I+	c #595D64",
"J+	c #0A0600",
"K+	c #3C2703",
"L+	c #C97E0C",
"M+	c #FFE027",
"N+	c #FFDF40",
"O+	c #E7C849",
"P+	c #3D3314",
"Q+	c #3A3B3C",
"R+	c #DDDEE2",
"S+	c #9A9A9B",
"T+	c #8D8D8D",
"U+	c #D8D8D7",
"V+	c #D5D5D4",
"W+	c #C0C0BF",
"X+	c #E5E5E4",
"Y+	c #F1F1F1",
"Z+	c #A8A8A8",
"`+	c #8A8A8A",
" @	c #C9C9C9",
".@	c #989898",
"+@	c #767676",
"@@	c #D5D5D5",
"#@	c #9C9C9C",
"$@	c #020202",
"%@	c #CACACA",
"&@	c #F2F2F2",
"*@	c #030303",
"=@	c #040505",
"-@	c #37393C",
";@	c #898D92",
">@	c #8B919A",
",@	c #303439",
"'@	c #0C0700",
")@	c #9D5C09",
"!@	c #FFDD23",
"~@	c #FFDC34",
"{@	c #F5D544",
"]@	c #AF9739",
"^@	c #0E0D06",
"/@	c #333438",
"(@	c #A7A9AD",
"_@	c #383839",
":@	c #454544",
"<@	c #E2E2E1",
"[@	c #C4C4C3",
"}@	c #CFCFCE",
"|@	c #EFEFEF",
"1@	c #D4D4D4",
"2@	c #8F8F8F",
"3@	c #A9A9A9",
"4@	c #2B2B2B",
"5@	c #343434",
"6@	c #818181",
"7@	c #333333",
"8@	c #A6A6A6",
"9@	c #313132",
"0@	c #18191A",
"a@	c #63686F",
"b@	c #4A515B",
"c@	c #221402",
"d@	c #B86C0B",
"e@	c #FFD81B",
"f@	c #FFD82B",
"g@	c #FFDA3E",
"h@	c #FFDF4D",
"i@	c #E3CE52",
"j@	c #72652A",
"k@	c #000000",
"l@	c #A8A9AA",
"m@	c #3B3B3B",
"n@	c #121212",
"o@	c #6B6B6B",
"p@	c #D6D6D5",
"q@	c #D6D6D6",
"r@	c #C5C5C4",
"s@	c #E1E1E0",
"t@	c #BEBEBE",
"u@	c #E8E8E8",
"v@	c #696969",
"w@	c #181818",
"x@	c #222222",
"y@	c #282828",
"z@	c #141414",
"A@	c #BDBDBD",
"B@	c #F5F6F7",
"C@	c #8F9194",
"D@	c #18191B",
"E@	c #8F5607",
"F@	c #E4860F",
"G@	c #FFD617",
"H@	c #FFD422",
"I@	c #FFD734",
"J@	c #FFDC42",
"K@	c #FFE553",
"L@	c #C8B144",
"M@	c #C9CACB",
"N@	c #E1E1E1",
"O@	c #727272",
"P@	c #474747",
"Q@	c #B5B5B4",
"R@	c #CACAC9",
"S@	c #F7F7F6",
"T@	c #BFBFBF",
"U@	c #151515",
"V@	c #AFAFAF",
"W@	c #CCCCCC",
"X@	c #838383",
"Y@	c #F4F5F5",
"Z@	c #2B2F35",
"`@	c #321E00",
" #	c #DC850C",
".#	c #E0820F",
"+#	c #FFD217",
"@#	c #FFD426",
"##	c #FFD833",
"$#	c #E1C337",
"%#	c #372E0E",
"&#	c #656669",
"*#	c #4E4F51",
"=#	c #5C5C5D",
"-#	c #FEFEFE",
";#	c #050505",
">#	c #70706F",
",#	c #CFCFCF",
"'#	c #E9E9E8",
")#	c #252525",
"!#	c #686868",
"~#	c #2A2A2A",
"{#	c #7F7F7F",
"]#	c #2D2E2E",
"^#	c #1C1C1D",
"/#	c #BABABB",
"(#	c #93969A",
"_#	c #160D00",
":#	c #AC6A07",
"<#	c #DD840E",
"[#	c #DB7C0F",
"}#	c #FFD316",
"|#	c #FFD115",
"1#	c #FFD524",
"2#	c #877016",
"3#	c #0A0B0E",
"4#	c #E1E1E3",
"5#	c #98999A",
"6#	c #3A3A3A",
"7#	c #E4E4E4",
"8#	c #060606",
"9#	c #2F2F2E",
"0#	c #D7D7D7",
"a#	c #6A6A6A",
"b#	c #272727",
"c#	c #979797",
"d#	c #D7D8D8",
"e#	c #6F7172",
"f#	c #101011",
"g#	c #6E4402",
"h#	c #D9860A",
"i#	c #D87F0E",
"j#	c #D6770F",
"k#	c #FFD116",
"l#	c #FFD114",
"m#	c #FFD111",
"n#	c #D1A80D",
"o#	c #0B0B0D",
"p#	c #9D9FA6",
"q#	c #DADADA",
"r#	c #5D5D5D",
"s#	c #313131",
"t#	c #101010",
"u#	c #FEFFFF",
"v#	c #474A50",
"w#	c #231600",
"x#	c #D68608",
"y#	c #D8830D",
"z#	c #D3790F",
"A#	c #D2710F",
"B#	c #F1C40F",
"C#	c #564403",
"D#	c #44444C",
"E#	c #EEEEF0",
"F#	c #363636",
"G#	c #6E6E6E",
"H#	c #F3F3F3",
"I#	c #8C8C8C",
"J#	c #1B1B1B",
"K#	c #434343",
"L#	c #505050",
"M#	c #6F7070",
"N#	c #E1E1E2",
"O#	c #C1C4C8",
"P#	c #080503",
"Q#	c #8E5804",
"R#	c #D9860B",
"S#	c #D47D0E",
"T#	c #D0740F",
"U#	c #D06E0E",
"V#	c #896A08",
"W#	c #000104",
"X#	c #ADB1BA",
"Y#	c #A9AAAD",
"Z#	c #5B5B5D",
"`#	c #040404",
" $	c #FBFBFB",
".$	c #F4F4F4",
"+$	c #5E5E5E",
"@$	c #111111",
"#$	c #B6B7B7",
"$$	c #3E3F40",
"%$	c #0F1112",
"&$	c #8E9196",
"*$	c #323437",
"=$	c #603D02",
"-$	c #D88809",
";$	c #D3800D",
">$	c #CF780F",
",$	c #CD6F0F",
"'$	c #EDB913",
")$	c #1A1301",
"!$	c #191A1E",
"~$	c #141519",
"{$	c #646466",
"]$	c #9F9F9F",
"^$	c #C5C5C5",
"/$	c #969697",
"($	c #ACADAD",
"_$	c #E8E9EA",
":$	c #929497",
"<$	c #000001",
"[$	c #0A0501",
"}$	c #C67C07",
"|$	c #D7840C",
"1$	c #D07A0E",
"2$	c #CC720F",
"3$	c #CC6B0F",
"4$	c #C4920D",
"5$	c #322403",
"6$	c #020200",
"7$	c #878A91",
"8$	c #F0F1F2",
"9$	c #2F2F2F",
"0$	c #7B7B7B",
"a$	c #555555",
"b$	c #484848",
"c$	c #4A4A4A",
"d$	c #4D4D4E",
"e$	c #2B2B2C",
"f$	c #0B0C0D",
"g$	c #555657",
"h$	c #F0F1F1",
"i$	c #CCD1D3",
"j$	c #8E5703",
"k$	c #D5830A",
"l$	c #CF7B0D",
"m$	c #CA710E",
"n$	c #C96B0E",
"o$	c #A9590B",
"p$	c #DCA50F",
"q$	c #755604",
"r$	c #0E0E10",
"s$	c #4E5057",
"t$	c #F1F3F7",
"u$	c #AEAFB0",
"v$	c #494A4A",
"w$	c #828282",
"x$	c #838384",
"y$	c #868688",
"z$	c #9E9E9F",
"A$	c #6F7071",
"B$	c #7F8186",
"C$	c #EFF1F3",
"D$	c #4E5156",
"E$	c #3C2401",
"F$	c #CA7B08",
"G$	c #D07C0C",
"H$	c #CB740E",
"I$	c #C86C0F",
"J$	c #C96A0E",
"K$	c #ECAC11",
"L$	c #FFBA10",
"M$	c #BD8808",
"N$	c #463201",
"O$	c #151719",
"P$	c #87888C",
"Q$	c #F2F3F5",
"R$	c #C0C0C0",
"S$	c #161616",
"T$	c #E3E3E3",
"U$	c #E5E6E8",
"V$	c #151517",
"W$	c #392600",
"X$	c #150E00",
"Y$	c #414449",
"Z$	c #717376",
"`$	c #0F0800",
" %	c #BA7206",
".%	c #D27E0C",
"+%	c #CC750D",
"@%	c #C86E0F",
"#%	c #C9690F",
"$%	c #B75F0C",
"%%	c #FAB111",
"&%	c #FBB20E",
"*%	c #E4A209",
"=%	c #6F4D03",
"-%	c #090602",
";%	c #53565A",
">%	c #D2D3D5",
",%	c #EAEBEB",
"'%	c #404141",
")%	c #919293",
"!%	c #747577",
"~%	c #2C1D00",
"{%	c #CC8804",
"]%	c #A97005",
"^%	c #362201",
"/%	c #000205",
"(%	c #673E04",
"_%	c #D27D0B",
":%	c #CD760D",
"<%	c #C76E0E",
"[%	c #C76A0F",
"}%	c #C2660E",
"|%	c #F6A910",
"1%	c #F3A90E",
"2%	c #F1A80B",
"3%	c #CF9005",
"4%	c #392701",
"5%	c #080500",
"6%	c #81848A",
"7%	c #E4E6E8",
"8%	c #676869",
"9%	c #505051",
"0%	c #FAFAFB",
"a%	c #A7AAAE",
"b%	c #0D0E10",
"c%	c #A96D04",
"d%	c #E49509",
"e%	c #DF8E0B",
"f%	c #DB890C",
"g%	c #8D5405",
"h%	c #BD6F0B",
"i%	c #CB730D",
"j%	c #C76D0D",
"k%	c #C6690E",
"l%	c #CB6A0E",
"m%	c #F1A211",
"n%	c #EEA20F",
"o%	c #EDA20C",
"p%	c #D59106",
"q%	c #8C5D01",
"r%	c #060506",
"s%	c #3A3C3E",
"t%	c #C3C5C9",
"u%	c #B9BCC0",
"v%	c #2E2F31",
"w%	c #D8D9DB",
"x%	c #292D34",
"y%	c #452C00",
"z%	c #DF8E08",
"A%	c #DB8A0B",
"B%	c #D6850D",
"C%	c #D27F0E",
"D%	c #CE780E",
"E%	c #CB730E",
"F%	c #C76C0E",
"G%	c #C7690E",
"H%	c #CB6B0E",
"I%	c #E49611",
"J%	c #EA9910",
"K%	c #E8990E",
"L%	c #E7980B",
"M%	c #C88307",
"N%	c #5A3902",
"O%	c #0B0908",
"P%	c #62666C",
"Q%	c #000204",
"R%	c #2F343B",
"S%	c #271801",
"T%	c #BB7308",
"U%	c #D7850C",
"V%	c #D2800E",
"W%	c #CD7910",
"X%	c #CB750F",
"Y%	c #C86F0F",
"Z%	c #C76B0F",
"`%	c #C96A0F",
" &	c #C3660E",
".&	c #D6870F",
"+&	c #E69210",
"@&	c #E5910F",
"#&	c #E4910D",
"$&	c #DD8C0A",
"%&	c #895405",
"&&	c #1D1100",
"*&	c #855006",
"=&	c #D7810C",
"-&	c #D27C0E",
";&	c #CD770F",
">&	c #C9710F",
",&	c #C86D0F",
"'&	c #CA6A0F",
")&	c #B7600C",
"!&	c #C2750D",
"~&	c #E1870F",
"{&	c #E1870E",
"]&	c #E2870D",
"^&	c #DA810C",
"/&	c #583204",
"(&	c #4F2C04",
"_&	c #D97C0D",
":&	c #D3770E",
"<&	c #CE720F",
"[&	c #CA6D0E",
"}&	c #CA6A0E",
"|&	c #A9580B",
"1&	c #DF7E0F",
"2&	c #DE7E0F",
"3&	c #D5770E",
"4&	c #CB700D",
"5&	c #D5740F",
"6&	c #D1700E",
"7&	c #CF6D0E",
"8&	c #CE6C0E",
"                        . + @ # $ % & *                         ",
"                  = - ; > , ' ) ! ~ { ] ^ / (                   ",
"              _ : < [ } | 1 2 3 4 5 6 7 8 9 0 a b               ",
"            c d e f g h i j k l m n o p ^ q r s t u             ",
"          v w x y z A B C D E F G H I J K L M N O P Q           ",
"        R S T U V W X Y Z `  ...+.@.#.$.%.&.*.=.-.;.>.,.        ",
"      '.).!.~.{.].w ^./.(._.:.<.[.}.|.1.2.3.4.5.6.7.8.9.0.      ",
"    a.b.c.d.e.f.g.w h.i.j.k.l.m.n.o.p.q.r.s.t.u.v.w.x.y.z.A.    ",
"    B.C.D.E.F.G.w w H.I.J.g.K.L.M.N.O.P.Q.R.S.T.U.V.W.X.Y.Z.    ",
"  `. +.+++@+#+$+%+w w w w w w &+*+=+-+;+>+,+'+)+!+~+{+]+^+/+(+  ",
"  _+:+<+[+f.w }+|+1+2+w w 3+4+w 5+6+7+8+9+0+a+b+c+d+e+f+g+h+i+  ",
"  j+k+l+m+n+o+p+q+r+s+t+2+u+v+w+x+y+z+A+B+C+D+E+F+G+H+I+J+K+L+  ",
"M+N+O+P+Q+R+%+S+T+U+V+W+X+Y+Z+`+ @.@+@@@#@$@%@&@*@=@-@;@>@,@'@)@",
"!@~@{@]@^@/@(@_@P.:@ @<@[@}@|@1@2@3@4+w 4@5@w 6@7@8@9@0@a@b@c@d@",
"e@f@g@h@i@j@k@k@l@m@n@o@p@q@r@s@Y+t@u@v@w@x@y@z@A@w B@C@D@k@E@F@",
"G@H@I@J@K@L@k@k@M@N@O@A+P@Q@<@R@U+S@T@U@V@W@k@k@X@Y@w w Z@`@ #.#",
"* +#@###$#%#&#*#=#-#w %@z+;#>#,#'#Y+)#!#w 2@~#{#]#^#/#(#_#:#<#[#",
"}#|#{ 1#2#3#4#5#6#7#w w u@`+8#9#0#X@k@a#s+b#c#w d#e#f#f#g#h#i#j#",
"k#l#m#n#o#p#w %+8#3@w w w w q#r#k@k@C+s#k@t#u#w w w v#w#x#y#z#A#",
"^ L B#C#D#E#w w F#G#w w w w w H#I#J#K#L#k@8#M#N#w O#P#Q#R#S#T#U#",
"  8 V#W#X#Y#Z#n@=+`# $w w w w w w .$+$@$m@#$$$%$&$*$=$-$;$>$,$  ",
"  '$)$W#!$~${$]$c#M.^$w w w w w w w H#/$*@($_$:$<$[$}$|$1$2$3$  ",
"  4$5$6$7$8$w w 2+0+9$6@0$a$b$c$d$e$^#f$g$h$w i$J+j$k$l$m$n$o$  ",
"    p$q$r$s$t$w w u$v$v$s#k@w$x$y$z$A$k@B$u#C$D$E$F$G$H$I$J$    ",
"    K$L$M$N$O$P$Q$w w w R$S$T$w w U$V$W$X$Y$Z$`$ %.%+%@%#%$%    ",
"      %%&%*%=%-%;%>%w w ,%'%)%w w !%~%{%]%^%/%(%_%:%<%[%}%      ",
"        |%1%2%3%4%5%6%7%w 8%9%0%a%b%c%d%e%f%g%h%i%j%k%l%        ",
"          m%n%o%p%q%r%s%t%u%v%w%x%y%z%A%B%C%D%E%F%G%H%          ",
"            I%J%K%L%M%N%O%P%Q%R%S%T%U%V%W%X%Y%Z%`% &            ",
"              .&+&@&#&$&%&&&k@k@*&=&-&;&>&,&[%'&)&              ",
"                  !&~&{&]&^&/&(&_&:&<&[&J$}&|&                  ",
"                        1&2&3&4&5&6&7&8&                        "};
