/* XPM */
static char * fig_xpm[] = {
"32 30 9 1",
" 	c None",
".	c #000000",
"+	c #26320C",
"@	c #9ACA31",
"#	c #A15028",
"$	c #28140A",
"%	c #208E1A",
"&	c #FFFFFF",
"*	c #082406",
"                    ..+         ",
"                   .@@@.        ",
"                  .@@@@@.       ",
"                  .@@@@@.       ",
"                  .@@@@@.       ",
"#                .@@@@@.  ...   ",
"####            .@@@@.@@..@@@.. ",
"  #####     #####$@@.@@@@@@.@@@.",
"     ####.####..@@.@@@@.@.@@@@@.",
"        .%. .+@@@.&.@.@@@@@@@@@.",
"        *.  .@@@.@.@.@@@@@@@@@@.",
"       .%.  .@.@@@@@@@@@@@.@@@. ",
"      .%.  .@@@@@@.@@.@@@. .@@. ",
"      .%. .@@@..@@@@@@.@@.  ..  ",
"     .%%.  ...  .@.@@@@@@@.     ",
"    .%%%%.    ..@@@@@@@.@@@.    ",
"    .%%%%.   .@@@.@@@@@@@@@@.   ",
"   .%%%%%%.  .@@.@@.@@@@.@@@.   ",
"  .%%.%%%%. .@@@@@. .@@@@@@@@.  ",
"  .%%%%%%%. .@@@@@. .@@@@.@@@.  ",
" .%%.%%%%%%..@@@@. .@@@@@@@@@.  ",
" .%%%%%%%%%. .@@.  .@@@@@.@@@.  ",
".%%.%%%%%%%.  ..   .@@@@@@@@@.  ",
".%%%%%%%%%%%.      .@@@@@@@@.   ",
".%%%.%%%%%%%.       .@@@@@@@.   ",
".%%%%%.%%%%.        .@@@@@@.    ",
" .%%%.&.%%%.         .@@@@@.    ",
" .%%%%.%%%.           .@@..     ",
"  .%%%%%..             ..       ",
"   .....                        "};
