/* XPM */
static char * firefox_xpm[] = {
"32 32 754 2",
"  	c None",
". 	c #B9C3DB",
"+ 	c #7EA1C9",
"@ 	c #5595C5",
"# 	c #3F8CC2",
"$ 	c #378BC2",
"% 	c #3B88BF",
"& 	c #4E92C4",
"* 	c #709EC9",
"= 	c #A4B8D6",
"- 	c #708AB6",
"; 	c #16589A",
"> 	c #0667A7",
", 	c #0B76B4",
"' 	c #1085C0",
") 	c #169ED4",
"! 	c #1BACDF",
"~ 	c #189CD3",
"{ 	c #1493CB",
"] 	c #0F89C3",
"^ 	c #0A7EB9",
"/ 	c #0D6BAB",
"( 	c #4A7DB3",
"_ 	c #7F8FB7",
": 	c #104386",
"< 	c #004B8D",
"[ 	c #035697",
"} 	c #0661A2",
"| 	c #0B6DAD",
"1 	c #1184BF",
"2 	c #1BB4E5",
"3 	c #21BEED",
"4 	c #1FB8E8",
"5 	c #1695CD",
"6 	c #0F83BE",
"7 	c #479AB4",
"8 	c #5E9FAB",
"9 	c #769A78",
"0 	c #68836D",
"a 	c #7D8599",
"b 	c #E9B283",
"c 	c #3A518C",
"d 	c #012E74",
"e 	c #00387D",
"f 	c #004388",
"g 	c #034E92",
"h 	c #05599C",
"i 	c #0E67A7",
"j 	c #0F74B3",
"k 	c #1AAFE1",
"l 	c #1FBCEB",
"m 	c #1EB8E9",
"n 	c #148FC9",
"o 	c #0E7DB9",
"p 	c #0871B0",
"q 	c #0567A5",
"r 	c #105D88",
"s 	c #7D7D38",
"t 	c #F9CD2D",
"u 	c #EAC13E",
"v 	c #F7C990",
"w 	c #E89B59",
"x 	c #E68531",
"y 	c #BEB6BC",
"z 	c #223270",
"A 	c #001E65",
"B 	c #00276E",
"C 	c #003177",
"D 	c #003B81",
"E 	c #2E5F8D",
"F 	c #A0A79C",
"G 	c #878D84",
"H 	c #1072AE",
"I 	c #16AFE0",
"J 	c #1AB5E6",
"K 	c #18B1E2",
"L 	c #1292CA",
"M 	c #0C75B3",
"N 	c #086AA9",
"O 	c #0A619D",
"P 	c #4F6471",
"Q 	c #917B4F",
"R 	c #F58F2B",
"S 	c #FCB73B",
"T 	c #FED14B",
"U 	c #F9AD58",
"V 	c #E67C21",
"W 	c #E77517",
"X 	c #9F502A",
"Y 	c #181C53",
"Z 	c #373A63",
"` 	c #554F68",
" .	c #374A74",
"..	c #6B6671",
"+.	c #F0B67E",
"@.	c #C6875F",
"#.	c #0C4574",
"$.	c #0C88BE",
"%.	c #12ACDD",
"&.	c #129ED4",
"*.	c #1090C9",
"=.	c #0D83BD",
"-.	c #0970AE",
";.	c #0785BD",
">.	c #0476B1",
",.	c #085592",
"'.	c #3E5D74",
").	c #AB9A5F",
"!.	c #F7C04A",
"~.	c #FDC44E",
"{.	c #FEDE7F",
"].	c #F8AA62",
"^.	c #E0C7A8",
"/.	c #DD6214",
"(.	c #D24F10",
"_.	c #DC5C1E",
":.	c #E3854B",
"<.	c #F39D5D",
"[.	c #F6A766",
"}.	c #F39E5C",
"|.	c #F57631",
"1.	c #F47029",
"2.	c #5C4D47",
"3.	c #057DA7",
"4.	c #0A9ECF",
"5.	c #0DA1D5",
"6.	c #0C92CA",
"7.	c #0B8BC6",
"8.	c #0B9ED1",
"9.	c #099ED1",
"0.	c #069FD2",
"a.	c #029CCE",
"b.	c #005A9A",
"c.	c #003D7F",
"d.	c #032F68",
"e.	c #494B4C",
"f.	c #DEBC3E",
"g.	c #FFE538",
"h.	c #FFDB74",
"i.	c #E0A167",
"j.	c #E4D274",
"k.	c #D9BDB3",
"l.	c #CA390A",
"m.	c #DD4E0E",
"n.	c #EA5E14",
"o.	c #EA6013",
"p.	c #EA6012",
"q.	c #EB6416",
"r.	c #ED6618",
"s.	c #EF671C",
"t.	c #ED6418",
"u.	c #383C4A",
"v.	c #028CBA",
"w.	c #059FD1",
"x.	c #07A1D3",
"y.	c #08A2D4",
"z.	c #08A1D4",
"A.	c #059ED1",
"B.	c #029BCD",
"C.	c #0095C9",
"D.	c #007FB8",
"E.	c #004486",
"F.	c #003A7C",
"G.	c #002D6B",
"H.	c #224461",
"I.	c #D7B233",
"J.	c #FFDF31",
"K.	c #FDBC57",
"L.	c #F1CD40",
"M.	c #D9B7AA",
"N.	c #E0550A",
"O.	c #E55A09",
"P.	c #E55B09",
"Q.	c #E45E0B",
"R.	c #E65907",
"S.	c #E85B09",
"T.	c #E95E0C",
"U.	c #EA600F",
"V.	c #E55B0D",
"W.	c #961508",
"X.	c #3D667A",
"Y.	c #0395C6",
"Z.	c #039ACC",
"`.	c #039CCF",
" +	c #019ACD",
".+	c #0098CB",
"++	c #0093C8",
"@+	c #008DC4",
"#+	c #0087C0",
"$+	c #007AB6",
"%+	c #0067A7",
"&+	c #006FAF",
"*+	c #005F9E",
"=+	c #405866",
"-+	c #F8B521",
";+	c #FFC72E",
">+	c #FFCD38",
",+	c #DEBE91",
"'+	c #E19252",
")+	c #E26712",
"!+	c #E16A14",
"~+	c #E26611",
"{+	c #E55705",
"]+	c #E75807",
"^+	c #E85D0B",
"/+	c #E95D0B",
"(+	c #E75C0B",
"_+	c #B32A04",
":+	c #C23B08",
"<+	c #AE4611",
"[+	c #3A372D",
"}+	c #0688B7",
"|+	c #0092C8",
"1+	c #008FC6",
"2+	c #008AC1",
"3+	c #0079B4",
"4+	c #0078B4",
"5+	c #0079B7",
"6+	c #0072B2",
"7+	c #006BAD",
"8+	c #0561A1",
"9+	c #21517B",
"0+	c #C68239",
"a+	c #FFBE1F",
"b+	c #FFBD2C",
"c+	c #DFAB69",
"d+	c #EDC8A4",
"e+	c #DF6E17",
"f+	c #E35505",
"g+	c #DE731B",
"h+	c #E45805",
"i+	c #E55C09",
"j+	c #E65806",
"k+	c #E75B08",
"l+	c #E85C09",
"m+	c #E85E0B",
"n+	c #EA6615",
"o+	c #CF4709",
"p+	c #DF6F30",
"q+	c #EBB57C",
"r+	c #7D8A7A",
"s+	c #0376A5",
"t+	c #0088C0",
"u+	c #0078B3",
"v+	c #007FBA",
"w+	c #004B8C",
"x+	c #004487",
"y+	c #0068A9",
"z+	c #0064A9",
"A+	c #005698",
"B+	c #835E38",
"C+	c #C87E3D",
"D+	c #FFC027",
"E+	c #FFA828",
"F+	c #E59449",
"G+	c #E28744",
"H+	c #E04F02",
"I+	c #E3630E",
"J+	c #E35F0C",
"K+	c #E45E0A",
"L+	c #E9600D",
"M+	c #EB6817",
"N+	c #ED7322",
"O+	c #ED8037",
"P+	c #DBB08D",
"Q+	c #3C5258",
"R+	c #00527A",
"S+	c #0071A6",
"T+	c #005B9B",
"U+	c #005092",
"V+	c #003F82",
"W+	c #00377A",
"X+	c #005093",
"Y+	c #0064A8",
"Z+	c #005DA4",
"`+	c #004B91",
" @	c #684B2C",
".@	c #FEAA37",
"+@	c #FFCB2E",
"@@	c #FFA72C",
"#@	c #F3903C",
"$@	c #C9B09C",
"%@	c #BB3D16",
"&@	c #DD5A0F",
"*@	c #E2620D",
"=@	c #E25F0B",
"-@	c #E65A07",
";@	c #E9610F",
">@	c #EB6A1A",
",@	c #ED7425",
"'@	c #EF7E2F",
")@	c #F2873B",
"!@	c #9B6C46",
"~@	c #004E7A",
"{@	c #00679F",
"]@	c #0074B1",
"^@	c #0076B5",
"/@	c #005B9C",
"(@	c #00397C",
"_@	c #003679",
":@	c #003275",
"<@	c #002E72",
"[@	c #00387C",
"}@	c #005AA2",
"|@	c #00549E",
"1@	c #002578",
"2@	c #574333",
"3@	c #FFC437",
"4@	c #FFCA33",
"5@	c #FFB632",
"6@	c #FB8837",
"7@	c #DA9C44",
"8@	c #B06F5D",
"9@	c #E16D16",
"0@	c #E55604",
"a@	c #E06B14",
"b@	c #E45B09",
"c@	c #E85D0A",
"d@	c #EA6311",
"e@	c #EC6C1B",
"f@	c #EC7426",
"g@	c #EE7D30",
"h@	c #F2883B",
"i@	c #F49347",
"j@	c #DC9254",
"k@	c #05598F",
"l@	c #006AAB",
"m@	c #006CAE",
"n@	c #0069AB",
"o@	c #004588",
"p@	c #003175",
"q@	c #00296C",
"r@	c #002569",
"s@	c #004A93",
"t@	c #01418A",
"u@	c #043F86",
"v@	c #63533E",
"w@	c #FFC837",
"x@	c #FFCD37",
"y@	c #FFC338",
"z@	c #FF8B38",
"A@	c #F2A937",
"B@	c #C87F4D",
"C@	c #E05909",
"D@	c #E45D09",
"E@	c #E1630E",
"F@	c #E55503",
"G@	c #E75A08",
"H@	c #E45A0B",
"I@	c #C3400B",
"J@	c #B1320B",
"K@	c #B0340B",
"L@	c #4C322A",
"M@	c #413A39",
"N@	c #75533A",
"O@	c #105284",
"P@	c #0061A5",
"Q@	c #0063A8",
"R@	c #0062A8",
"S@	c #0062A7",
"T@	c #005BA1",
"U@	c #002A6E",
"V@	c #002164",
"W@	c #001E60",
"X@	c #001B5D",
"Y@	c #00195B",
"Z@	c #081958",
"`@	c #3F435F",
" #	c #896C43",
".#	c #FEBB36",
"+#	c #FFD23A",
"@#	c #FFC939",
"##	c #FF9F38",
"$#	c #E5AE3A",
"%#	c #CA6B32",
"&#	c #D43902",
"*#	c #E2620E",
"=#	c #E35705",
"-#	c #E45403",
";#	c #E65705",
">#	c #C33D07",
",#	c #AE2C07",
"'#	c #AF2D06",
")#	c #AE3C0E",
"!#	c #06305C",
"~#	c #003B72",
"{#	c #004077",
"]#	c #004D8D",
"^#	c #00579F",
"/#	c #0059A1",
"(#	c #0058A0",
"_#	c #004D95",
":#	c #002064",
"<#	c #00195C",
"[#	c #001658",
"}#	c #001455",
"|#	c #001152",
"1#	c #041453",
"2#	c #93664A",
"3#	c #C4893C",
"4#	c #FEAB36",
"5#	c #FFD43A",
"6#	c #FFC639",
"7#	c #FFBE38",
"8#	c #D7A448",
"9#	c #C34924",
"0#	c #D34007",
"a#	c #E25C09",
"b#	c #E1600C",
"c#	c #E45505",
"d#	c #BC3908",
"e#	c #B8370A",
"f#	c #BA3A0B",
"g#	c #D44F0D",
"h#	c #754C43",
"i#	c #02448C",
"j#	c #004892",
"k#	c #004C96",
"l#	c #004E9A",
"m#	c #004F9B",
"n#	c #074F98",
"o#	c #034D98",
"p#	c #004C99",
"q#	c #00327A",
"r#	c #001353",
"s#	c #001150",
"t#	c #000F4D",
"u#	c #012875",
"v#	c #B28946",
"w#	c #FC9634",
"x#	c #FEA937",
"y#	c #FFBB39",
"z#	c #C29357",
"A#	c #B03528",
"B#	c #D34B0D",
"C#	c #E35202",
"D#	c #E45503",
"E#	c #C4410B",
"F#	c #C4420C",
"G#	c #C6470F",
"H#	c #D7530E",
"I#	c #EA6310",
"J#	c #915541",
"K#	c #184483",
"L#	c #08448F",
"M#	c #304D7C",
"N#	c #926253",
"O#	c #D07849",
"P#	c #CA8963",
"Q#	c #696E81",
"R#	c #042A6E",
"S#	c #000E4D",
"T#	c #000B49",
"U#	c #000A46",
"V#	c #000946",
"W#	c #032878",
"X#	c #C09341",
"Y#	c #FEA234",
"Z#	c #FFB538",
"`#	c #FFC83B",
" $	c #FFC739",
".$	c #FFED39",
"+$	c #B08E72",
"@$	c #B75751",
"#$	c #CF4B12",
"$$	c #DF4B02",
"%$	c #E35403",
"&$	c #E35B09",
"*$	c #E55605",
"=$	c #D34D0B",
"-$	c #D04C0E",
";$	c #D15412",
">$	c #D95510",
",$	c #E45D0F",
"'$	c #EC6612",
")$	c #E3661A",
"!$	c #D96621",
"~$	c #EA6C1E",
"{$	c #F07121",
"]$	c #F17320",
"^$	c #F17529",
"/$	c #F2AA70",
"($	c #362A47",
"_$	c #000843",
":$	c #000742",
"<$	c #00063F",
"[$	c #0E2877",
"}$	c #E09F37",
"|$	c #FEB735",
"1$	c #FFC13B",
"2$	c #FFC23C",
"3$	c #FFEC38",
"4$	c #F8C938",
"5$	c #A79D95",
"6$	c #BB827C",
"7$	c #C73D11",
"8$	c #D74305",
"9$	c #E35503",
"0$	c #E35709",
"a$	c #DB5610",
"b$	c #DD5C13",
"c$	c #E15F14",
"d$	c #B53309",
"e$	c #C33F0B",
"f$	c #DE5811",
"g$	c #E86315",
"h$	c #E56015",
"i$	c #DF5513",
"j$	c #CA410D",
"k$	c #561D10",
"l$	c #130B1B",
"m$	c #020531",
"n$	c #00053B",
"o$	c #00043B",
"p$	c #3F3358",
"q$	c #433760",
"r$	c #FDAC32",
"s$	c #FEC137",
"t$	c #FFD761",
"u$	c #FFE738",
"v$	c #D6923E",
"w$	c #B71F0A",
"x$	c #CA3508",
"y$	c #E25E0A",
"z$	c #E55504",
"A$	c #E65C0C",
"B$	c #E86313",
"C$	c #EB6816",
"D$	c #E15D13",
"E$	c #A11E05",
"F$	c #A51D04",
"G$	c #AE2204",
"H$	c #AE2705",
"I$	c #7D230D",
"J$	c #1B142A",
"K$	c #000328",
"L$	c #00032D",
"M$	c #000233",
"N$	c #000235",
"O$	c #000338",
"P$	c #2E2757",
"Q$	c #90523C",
"R$	c #BD6B3E",
"S$	c #FDAE33",
"T$	c #FFD652",
"U$	c #FFE17D",
"V$	c #FFC038",
"W$	c #B1825C",
"X$	c #A93E39",
"Y$	c #BD1F01",
"Z$	c #D75B12",
"`$	c #E15004",
" %	c #E65807",
".%	c #E95F0D",
"+%	c #EC6613",
"@%	c #EF6A16",
"#%	c #D85D14",
"$%	c #4D1B18",
"%%	c #1E0A24",
"&%	c #03022E",
"*%	c #000E47",
"=%	c #000C43",
"-%	c #000231",
";%	c #000132",
">%	c #000131",
",%	c #000030",
"'%	c #1E1440",
")%	c #D97433",
"!%	c #D37130",
"~%	c #FC8B2F",
"{%	c #FDB637",
"]%	c #FFFB9B",
"^%	c #FEC353",
"/%	c #FFB838",
"(%	c #E79138",
"_%	c #9C958F",
":%	c #B49896",
"<%	c #B71602",
"[%	c #C33506",
"}%	c #CD440D",
"|%	c #E05003",
"1%	c #E65A06",
"2%	c #EA610E",
"3%	c #EC6411",
"4%	c #EE6815",
"5%	c #E66617",
"6%	c #7D382D",
"7%	c #190B4D",
"8%	c #010B63",
"9%	c #00126E",
"0%	c #001068",
"a%	c #00043E",
"b%	c #04022F",
"c%	c #47242B",
"d%	c #DE7229",
"e%	c #F9822B",
"f%	c #FA842D",
"g%	c #FCA331",
"h%	c #FFEF6E",
"i%	c #FFEA8B",
"j%	c #FE9F38",
"k%	c #FE9E38",
"l%	c #A37855",
"m%	c #A03B37",
"n%	c #BF2600",
"o%	c #BD2303",
"p%	c #C93502",
"q%	c #E45A05",
"r%	c #E86009",
"s%	c #EB6411",
"t%	c #ED6815",
"u%	c #F06B17",
"v%	c #E3671D",
"w%	c #A44D33",
"x%	c #703B48",
"y%	c #64374D",
"z%	c #7D4247",
"A%	c #BF602F",
"B%	c #F47B26",
"C%	c #F37624",
"D%	c #F67D28",
"E%	c #FBAA33",
"F%	c #FEE65C",
"G%	c #FFF381",
"H%	c #FEB24A",
"I%	c #FE8F37",
"J%	c #CA7B3A",
"K%	c #B7AAA9",
"L%	c #A8110D",
"M%	c #B71000",
"N%	c #C02A00",
"O%	c #CF3802",
"P%	c #D24703",
"Q%	c #DE4E09",
"R%	c #EB6310",
"S%	c #ED6915",
"T%	c #EE6A17",
"U%	c #EF6C18",
"V%	c #F1701B",
"W%	c #F2721D",
"X%	c #F3741F",
"Y%	c #F1711E",
"Z%	c #EA641A",
"`%	c #E75E18",
" &	c #ED761C",
".&	c #F7B028",
"+&	c #FDD847",
"@&	c #FEE55E",
"#&	c #FDCB4F",
"$&	c #FD8D34",
"%&	c #E78435",
"&&	c #8D7E71",
"*&	c #9F7876",
"=&	c #AE0603",
"-&	c #B40500",
";&	c #BE2300",
">&	c #C22501",
",&	c #C53B00",
"'&	c #CD3505",
")&	c #E04F0B",
"!&	c #E1510D",
"~&	c #DC4A0F",
"{&	c #E25512",
"]&	c #EA6315",
"^&	c #EC6515",
"/&	c #E96014",
"(&	c #E05110",
"_&	c #D7440B",
":&	c #DE5C0E",
"<&	c #EA8514",
"[&	c #F3A91A",
"}&	c #F7BA21",
"|&	c #FBCB32",
"1&	c #FDC63D",
"2&	c #FC8F33",
"3&	c #F18733",
"4&	c #8D6F57",
"5&	c #92605E",
"6&	c #AD0403",
"7&	c #B30100",
"8&	c #B40300",
"9&	c #B50800",
"0&	c #BF2800",
"a&	c #BB1C00",
"b&	c #BD1302",
"c&	c #C01603",
"d&	c #BA0D02",
"e&	c #B90B02",
"f&	c #BE1502",
"g&	c #C32401",
"h&	c #CD3D03",
"i&	c #D95D08",
"j&	c #E2770D",
"k&	c #EA8C12",
"l&	c #F0A018",
"m&	c #F5B11E",
"n&	c #F7A925",
"o&	c #FA892E",
"p&	c #F08431",
"q&	c #906A4C",
"r&	c #8F6764",
"s&	c #A30A08",
"t&	c #B30000",
"u&	c #B30200",
"v&	c #B40100",
"w&	c #B70800",
"x&	c #BE1800",
"y&	c #C83202",
"z&	c #D44F06",
"A&	c #DE680B",
"B&	c #E68010",
"C&	c #ED8F16",
"D&	c #EE811C",
"E&	c #F17423",
"F&	c #E37629",
"G&	c #876850",
"H&	c #948483",
"I&	c #8D241F",
"J&	c #B00201",
"K&	c #B60400",
"L&	c #BA0C00",
"M&	c #C22101",
"N&	c #CE3E05",
"O&	c #D75309",
"P&	c #DD590E",
"Q&	c #E25714",
"R&	c #E9611A",
"S&	c #B85C25",
"T&	c #7D6B60",
"U&	c #816563",
"V&	c #841F1C",
"W&	c #A60502",
"X&	c #B60100",
"Y&	c #B40200",
"Z&	c #B80800",
"`&	c #BC1100",
" *	c #C41F03",
".*	c #D02F08",
"+*	c #CF3D0C",
"@*	c #A94318",
"#*	c #7C5744",
"$*	c #8B8988",
"%*	c #868181",
"&*	c #765350",
"**	c #7D322E",
"=*	c #811E1B",
"-*	c #88140F",
";*	c #880F0B",
">*	c #89150E",
",*	c #852118",
"'*	c #803327",
")*	c #774C41",
"!*	c #746763",
"~*	c #90908F",
"                                                                ",
"                      . + @ # $ % & * =                         ",
"                  - ; > , ' ) ! ~ { ] ^ / (                     ",
"              _ : < [ } | 1 2 3 4 5 6 7 8 9 0 a                 ",
"      b     c d e f g h i j k l m n o p q r s t u v             ",
"    w x y z A B C D E F G H I J K L M N O P Q R S T U           ",
"    V W X Y Z `  ...+.@.#.$.%.&.*.=.-.;.>.,.'.).!.~.{.].^.      ",
"    /.(._.:.<.[.}.|.1.2.3.4.5.6.7.8.9.0.a.b.c.d.e.f.g.h.i.j.    ",
"  k.l.m.n.o.p.q.r.s.t.u.v.w.x.y.z.x.A.B.C.D.E.F.G.H.I.J.K.L.    ",
"  M.N.O.P.Q.R.S.T.U.V.W.X.Y.Z.`.a. +.+++@+#+$+%+&+*+=+-+;+>+,+  ",
"  '+)+!+~+{+]+S.^+/+(+_+:+<+[+}+++|+1+2+3+4+5+6+7+8+9+0+a+b+c+  ",
"d+e+f+g+h+i+j+k+l+m+n+o+p+q+r+s+t+3+u+v+w+x+y+7+z+A+B+C+D+E+F+  ",
"G+H+I+J+~+K+k+l+L+M+N+O+P+Q+R+S+v+T+x+U+V+W+X+Y+Z+`+ @.@+@@@#@$@",
"%@&@*@=@!+-@l+;@>@,@'@)@!@~@{@]@^@/@(@_@:@<@[@}@|@1@2@3@4@5@6@7@",
"8@9@0@a@b@c@d@e@f@g@h@i@j@k@l@m@m@n@o@p@q@r@r@s@t@u@v@w@x@y@z@A@",
"B@C@D@E@F@G@H@I@J@K@L@M@N@O@P@Q@R@S@T@U@V@W@X@Y@Z@`@ #.#+#@###$#",
"%#&#*#=#-#;#>#,#'#)#!#~#{#]#^#/#/#(#_#:#<#[#}#|#1#2#3#4#5#6#7#8#",
"9#0#a#b#-#c#d#e#f#g#h#i#j#k#l#m#n#o#p#q#r#s#t#s#u#v#w#x#+#y#g.z#",
"A#B#C#E@D#c#E#F#G#H#I#J#K#L#M#N#O#P#Q#R#S#T#U#V#W#X#Y#Z#`# $.$+$",
"@$#$$$%$&$*$=$-$;$>$,$'$)$!$~${$]$^$/$($_$:$<$T#[$}$|$1$2$3$4$5$",
"6$7$8$9$-#*$0$a$b$c$d$e$f$g$h$i$j$k$l$m$n$o$V#p$q$r$s$t$+#u$v$  ",
"  w$x$y$-#z$j+A$B$C$D$E$F$G$H$I$J$K$L$M$N$O$P$Q$R$S$T$U$>+V$W$  ",
"  X$Y$Z$`$-# %l+.%+%@%#%$%%%&%*%=%-%;%>%,%'%)%!%~%{%]%^%/%(%_%  ",
"  :%<%[%}%|%1%l+T.2%3%4%5%6%7%8%9%0%a%b%c%d%e%f%g%h%i%j%k%l%    ",
"    m%n%o%p%q%r%T.2%s%'$t%u%v%w%x%y%z%A%B%C%D%E%F%G%H%I%J%      ",
"    K%L%M%N%O%P%Q%.%R%'$S%T%U%V%W%X%Y%Z%`% &.&+&@&#&$&%&&&      ",
"      *&=&-&;&>&,&'&)&!&~&{&]&^&/&(&_&:&<&[&}&|&1&2&3&4&        ",
"        5&6&7&8&9&0&a&b&c&d&e&f&g&h&i&j&k&l&m&n&o&p&q&          ",
"          r&s&t&t&t&u&t&t&t&v&w&x&y&z&A&B&C&D&E&F&G&            ",
"            H&I&J&t&t&t&t&t&t&K&L&M&N&O&P&Q&R&S&T&              ",
"                U&V&W&X&t&t&t&Y&Z&`& *.*+*@*#*$*                ",
"                    %*&***=*-*;*>*,*'*)*!*~*                    "};
