/* XPM */
static char * gaim_cool_xpm[] = {
"32 32 358 2",
"  	c None",
". 	c #AC9E4F",
"+ 	c #DDCA5E",
"@ 	c #F2DE6E",
"# 	c #F4E077",
"$ 	c #F2DB63",
"% 	c #E2C843",
"& 	c #B39C28",
"* 	c #C6B760",
"= 	c #F3E27C",
"- 	c #F5E47F",
"; 	c #F4E37C",
"> 	c #F3E27D",
", 	c #F0DC70",
"' 	c #EDD455",
") 	c #E1C233",
"! 	c #CDAC1D",
"~ 	c #62500A",
"{ 	c #010100",
"] 	c #000000",
"^ 	c #A7973E",
"/ 	c #F1E07C",
"( 	c #F6E892",
"_ 	c #F5EA9E",
": 	c #F4E89E",
"< 	c #F1E48F",
"[ 	c #EDDB73",
"} 	c #E8D055",
"| 	c #DFBE33",
"1 	c #D3AC1A",
"2 	c #A37E0B",
"3 	c #1C1501",
"4 	c #121005",
"5 	c #8E8138",
"6 	c #AFA569",
"7 	c #8D8761",
"8 	c #726F56",
"9 	c #65624B",
"0 	c #6D6847",
"a 	c #857B44",
"b 	c #A8953A",
"c 	c #CDAB29",
"d 	c #997710",
"e 	c #3A2E07",
"f 	c #1A2412",
"g 	c #152616",
"h 	c #0A100A",
"i 	c #040302",
"j 	c #0C100A",
"k 	c #192919",
"l 	c #1F3420",
"m 	c #213922",
"n 	c #1E321F",
"o 	c #142014",
"p 	c #080803",
"q 	c #161103",
"r 	c #090904",
"s 	c #1C321D",
"t 	c #254327",
"u 	c #101B10",
"v 	c #1B1707",
"w 	c #040402",
"x 	c #1A2E1C",
"y 	c #254427",
"z 	c #244226",
"A 	c #070B07",
"B 	c #0E0A01",
"C 	c #0F0F07",
"D 	c #203921",
"E 	c #244126",
"F 	c #1A2D1B",
"G 	c #050705",
"H 	c #6F621F",
"I 	c #302A10",
"J 	c #111C11",
"K 	c #233F24",
"L 	c #1D321E",
"M 	c #100E04",
"N 	c #533A06",
"O 	c #3A2803",
"P 	c #151A0E",
"Q 	c #171B0D",
"R 	c #070703",
"S 	c #91802C",
"T 	c #9A8832",
"U 	c #3D3615",
"V 	c #131A0E",
"W 	c #142215",
"X 	c #152416",
"Y 	c #121D11",
"Z 	c #1E1B09",
"` 	c #573E08",
" .	c #916107",
"..	c #8E5C04",
"+.	c #603A01",
"@.	c #542F00",
"#.	c #100900",
"$.	c #C8AD34",
"%.	c #A48E2E",
"&.	c #746423",
"*.	c #4E4317",
"=.	c #433711",
"-.	c #52400F",
";.	c #73540D",
">.	c #9B6909",
",.	c #BF7D06",
"'.	c #C17703",
").	c #AA5F00",
"!.	c #7F4600",
"~.	c #B29A30",
"{.	c #D2B439",
"].	c #BDA234",
"^.	c #AA8E2A",
"/.	c #A2801D",
"(.	c #A37A14",
"_.	c #B37D0C",
":.	c #C78306",
"<.	c #C67B02",
"[.	c #B06300",
"}.	c #C26700",
"|.	c #5F3400",
"1.	c #C0A130",
"2.	c #DCB532",
"3.	c #DAAE28",
"4.	c #D8A119",
"5.	c #9A6B09",
"6.	c #835603",
"7.	c #915A01",
"8.	c #663800",
"9.	c #AC5B00",
"0.	c #834600",
"a.	c #A57F19",
"b.	c #D09A16",
"c.	c #D9950B",
"d.	c #D48704",
"e.	c #D07901",
"f.	c #CA6F00",
"g.	c #B35E00",
"h.	c #6E3B00",
"i.	c #B39D51",
"j.	c #C3B784",
"k.	c #5B4617",
"l.	c #7A5109",
"m.	c #854E03",
"n.	c #7C4303",
"o.	c #633707",
"p.	c #8C7E49",
"q.	c #BFAA5F",
"r.	c #E1C774",
"s.	c #97824A",
"t.	c #D1C79B",
"u.	c #F9EFC8",
"v.	c #F3E9C1",
"w.	c #E8DCAB",
"x.	c #E2D49A",
"y.	c #DAC984",
"z.	c #C9B970",
"A.	c #C1B169",
"B.	c #C7B568",
"C.	c #D3BE6C",
"D.	c #E1C770",
"E.	c #E4C76E",
"F.	c #E0BA57",
"G.	c #CD9F32",
"H.	c #755517",
"I.	c #D9CFA9",
"J.	c #FAF3D9",
"K.	c #F7EFCC",
"L.	c #F2E5A9",
"M.	c #EFDF92",
"N.	c #EBD985",
"O.	c #E9D479",
"P.	c #E7CF6C",
"Q.	c #E6CB63",
"R.	c #E6C962",
"S.	c #E6C559",
"T.	c #E2BA43",
"U.	c #DCAA2B",
"V.	c #D49616",
"W.	c #C88109",
"X.	c #794D0E",
"Y.	c #D7CCA3",
"Z.	c #F8EEC7",
"`.	c #F4E6A7",
" +	c #EEDB82",
".+	c #EBD468",
"++	c #EBD265",
"@+	c #E8CC55",
"#+	c #E7C847",
"$+	c #E7C43C",
"%+	c #E6BE32",
"&+	c #E5B626",
"*+	c #E0AC18",
"=+	c #D89B0A",
"-+	c #D48902",
";+	c #CE7A01",
">+	c #BF6901",
",+	c #72420C",
"'+	c #D5CA9B",
")+	c #F6EAB9",
"!+	c #F1E198",
"~+	c #EDD76D",
"{+	c #EDD258",
"]+	c #ECCE49",
"^+	c #E8C633",
"/+	c #E7BF25",
"(+	c #E7B817",
"_+	c #E5B212",
":+	c #E3AD0E",
"<+	c #DFA509",
"[+	c #D89402",
"}+	c #CB7D01",
"|+	c #935606",
"1+	c #9A5102",
"2+	c #AE5902",
"3+	c #82450A",
"4+	c #D2C798",
"5+	c #F5E9B5",
"6+	c #EFDD87",
"7+	c #EDD35A",
"8+	c #ECCC3E",
"9+	c #EBC62E",
"0+	c #E8BD1D",
"a+	c #E7B713",
"b+	c #E6B310",
"c+	c #E1A80B",
"d+	c #DCA005",
"e+	c #D68E00",
"f+	c #A36406",
"g+	c #683B0B",
"h+	c #954E07",
"i+	c #78420B",
"j+	c #C5BA8E",
"k+	c #F2E5AB",
"l+	c #EED875",
"m+	c #EAC31F",
"n+	c #E9BD16",
"o+	c #E7B811",
"p+	c #E6B410",
"q+	c #E4AE0E",
"r+	c #E0A70B",
"s+	c #DDA007",
"t+	c #DA9702",
"u+	c #D48700",
"v+	c #995D07",
"w+	c #B4AA7E",
"x+	c #F0E19E",
"y+	c #EDD461",
"z+	c #EAC425",
"A+	c #E8BC12",
"B+	c #E8B910",
"C+	c #E1A80C",
"D+	c #DD9E06",
"E+	c #DB9403",
"F+	c #D88C01",
"G+	c #CF7E00",
"H+	c #9F5D06",
"I+	c #A49968",
"J+	c #F0DE8B",
"K+	c #EDD051",
"L+	c #EAC01D",
"M+	c #E7B810",
"N+	c #E5B30F",
"O+	c #E1A70C",
"P+	c #DE9E07",
"Q+	c #DB9002",
"R+	c #D98701",
"S+	c #D48000",
"T+	c #CB7400",
"U+	c #A65C03",
"V+	c #EBD77C",
"W+	c #EDCC4C",
"X+	c #E8BB1C",
"Y+	c #E5B20F",
"Z+	c #E4AD0E",
"`+	c #DD9B06",
" @	c #DB8F02",
".@	c #D98301",
"+@	c #D57B00",
"@@	c #CE7300",
"#@	c #C46900",
"$@	c #B15A01",
"%@	c #E1CA6B",
"&@	c #EBC848",
"*@	c #E6B61A",
"=@	c #DE9A06",
"-@	c #DB8B02",
";@	c #D88001",
">@	c #D47700",
",@	c #CF6F00",
"'@	c #C76900",
")@	c #BE6000",
"!@	c #B55A00",
"~@	c #D8BC5C",
"{@	c #E9C141",
"]@	c #E4B219",
"^@	c #E2AB0C",
"/@	c #DFA007",
"(@	c #DC9203",
"_@	c #D88301",
":@	c #D47900",
"<@	c #CE6F00",
"[@	c #C96800",
"}@	c #BE5F00",
"|@	c #B75A00",
"1@	c #B55900",
"2@	c #723D0A",
"3@	c #C6A749",
"4@	c #E6BB38",
"5@	c #E4B019",
"6@	c #E0A108",
"7@	c #DC9303",
"8@	c #D58601",
"9@	c #CD7800",
"0@	c #C66E00",
"a@	c #BE6500",
"b@	c #BB5E00",
"c@	c #B15300",
"d@	c #AE5000",
"e@	c #864207",
"f@	c #A98D36",
"g@	c #E5B62D",
"h@	c #E0A511",
"i@	c #DA9003",
"j@	c #D28201",
"k@	c #C67400",
"l@	c #AC6003",
"m@	c #804809",
"n@	c #784308",
"o@	c #914A05",
"p@	c #A84D00",
"q@	c #AA4B00",
"r@	c #9C4903",
"s@	c #DCA71C",
"t@	c #DA9306",
"u@	c #D17F00",
"v@	c #C47000",
"w@	c #8F5107",
"x@	c #63330B",
"y@	c #9B4502",
"z@	c #A84900",
"A@	c #A54901",
"B@	c #CE9412",
"C@	c #D48803",
"D@	c #C77100",
"E@	c #935407",
"F@	c #8E4104",
"G@	c #A64900",
"H@	c #6A350B",
"I@	c #B17B0E",
"J@	c #CA7A01",
"K@	c #A96004",
"L@	c #7A3A08",
"M@	c #773909",
"N@	c #80590E",
"O@	c #BD7001",
"P@	c #5F3C0E",
"Q@	c #6C470C",
"                                                                ",
"                    . + @ # $ % &                               ",
"                  * = - ; > , ' ) ! ~ { ]                       ",
"                ^ / ( _ : < [ } | 1 2 3 ] ]                     ",
"            ] 4 5 6 7 8 9 0 a b c d e f g h                     ",
"            ] { i j k l m n o p q r s t t u                     ",
"              v w x y y y y z A B C D E F G                     ",
"              H I J K y y t L M N O P Q R                       ",
"              S T U V W X Y Z `  ...+.@.#.                      ",
"                $.%.&.*.=.-.;.>.,.'.).!.                        ",
"                ~.{.].^./.(._.:.<.[.}.|.                        ",
"                  1.2.3.4.5.6.7.8.9.0.                          ",
"                    a.b.c.d.e.f.g.h.  i.                        ",
"                j.    k.l.m.n.o.  p.q.r.s.                      ",
"              t.u.v.w.x.y.z.A.B.C.D.E.F.G.H.                    ",
"              I.J.K.L.M.N.O.P.Q.R.S.T.U.V.W.X.                  ",
"              Y.Z.`. +.+++@+#+$+%+&+*+=+-+;+>+,+                ",
"              '+)+!+~+{+]+^+/+(+_+:+<+[+}+|+1+2+3+              ",
"              4+5+6+7+8+9+0+a+b+:+c+d+e+f+    g+h+i+            ",
"              j+k+l+8+m+n+o+p+q+r+s+t+u+v+                      ",
"              w+x+y+z+A+B+b+q+C+D+E+F+G+H+                      ",
"              I+J+K+L+M+N+q+O+P+Q+R+S+T+U+                      ",
"                V+W+X+Y+Z+O+`+ @.@+@@@#@$@                      ",
"                %@&@*@q+c+=@-@;@>@,@'@)@!@                      ",
"                ~@{@]@^@/@(@_@:@<@[@}@|@1@2@                    ",
"                3@4@5@6@7@8@9@0@a@b@c@d@d@e@                    ",
"                f@g@h@i@j@k@l@m@n@o@p@q@q@r@                    ",
"                  s@t@u@v@w@        x@y@z@A@                    ",
"                  B@C@D@E@              F@G@H@                  ",
"                  I@J@K@                  L@M@                  ",
"                  N@O@P@                                        ",
"                    Q@                                          "};
