/* XPM */
static char * galeon_xpm[] = {
"32 32 257 2",
"  	c None",
". 	c #2E2E2D",
"+ 	c #2E2E31",
"@ 	c #30302D",
"# 	c #333333",
"$ 	c #363639",
"% 	c #36393C",
"& 	c #3E3C37",
"* 	c #3A3B3C",
"= 	c #3C3E41",
"- 	c #3E4043",
"; 	c #3D414C",
"> 	c #45433D",
", 	c #424344",
"' 	c #444549",
") 	c #464843",
"! 	c #47484B",
"~ 	c #484745",
"{ 	c #48454A",
"] 	c #4A4B45",
"^ 	c #4A4B4C",
"/ 	c #444650",
"( 	c #464B51",
"_ 	c #464D59",
": 	c #4C4D51",
"< 	c #484E58",
"[ 	c #4F5049",
"} 	c #4D5054",
"| 	c #4E535B",
"1 	c #504D4B",
"2 	c #514E50",
"3 	c #53534B",
"4 	c #55584F",
"5 	c #5A554A",
"6 	c #535353",
"7 	c #53545A",
"8 	c #555857",
"9 	c #56585B",
"0 	c #5D5655",
"a 	c #5A5A53",
"b 	c #5A5B5C",
"c 	c #4D5764",
"d 	c #4C5B7E",
"e 	c #515563",
"f 	c #535964",
"g 	c #545C6B",
"h 	c #5D5E62",
"i 	c #5A5D6B",
"j 	c #565E73",
"k 	c #5E6156",
"l 	c #5F605D",
"m 	c #4F6279",
"n 	c #52616F",
"o 	c #5E6064",
"p 	c #5D616B",
"q 	c #556273",
"r 	c #54627B",
"s 	c #55687A",
"t 	c #5A6374",
"u 	c #5B6478",
"v 	c #5F6A74",
"w 	c #5D687B",
"x 	c #625B55",
"y 	c #625D5D",
"z 	c #645E5D",
"A 	c #665E5C",
"B 	c #685E5A",
"C 	c #605E62",
"D 	c #616257",
"E 	c #62625B",
"F 	c #67685B",
"G 	c #6A645E",
"H 	c #6A6B5D",
"I 	c #70675F",
"J 	c #716A5D",
"K 	c #626265",
"L 	c #636469",
"M 	c #666A66",
"N 	c #66686C",
"O 	c #6B6563",
"P 	c #68666A",
"Q 	c #6C6963",
"R 	c #6B6A6C",
"S 	c #626572",
"T 	c #656B72",
"U 	c #636A79",
"V 	c #6C6D71",
"W 	c #6D6F79",
"X 	c #6C7265",
"Y 	c #6C716E",
"Z 	c #67717A",
"` 	c #6D7172",
" .	c #6E717A",
"..	c #726762",
"+.	c #736A64",
"@.	c #726D69",
"#.	c #7A6D64",
"$.	c #7A6E69",
"%.	c #706E70",
"&.	c #747364",
"*.	c #75726B",
"=.	c #747868",
"-.	c #797264",
";.	c #7B726B",
">.	c #7C7B65",
",.	c #7B7A6A",
"'.	c #727273",
").	c #757579",
"!.	c #777976",
"~.	c #75787A",
"{.	c #7A7573",
"].	c #79767A",
"^.	c #7A7A73",
"/.	c #7A7A7C",
"(.	c #506383",
"_.	c #566983",
":.	c #5B6A86",
"<.	c #5D6C8A",
"[.	c #646C81",
"}.	c #646F8A",
"|.	c #657184",
"1.	c #64728D",
"2.	c #6B7483",
"3.	c #69748B",
"4.	c #6F798A",
"5.	c #687692",
"6.	c #757B83",
"7.	c #717988",
"8.	c #7C7D81",
"9.	c #717C92",
"0.	c #7C8863",
"a.	c #7B8178",
"b.	c #7E8083",
"c.	c #7F8589",
"d.	c #768297",
"e.	c #837C5D",
"f.	c #887E5C",
"g.	c #817661",
"h.	c #81766E",
"i.	c #837B65",
"j.	c #847E6C",
"k.	c #807672",
"l.	c #837A73",
"m.	c #817C7C",
"n.	c #807E82",
"o.	c #858164",
"p.	c #85826C",
"q.	c #808A66",
"r.	c #8D846B",
"s.	c #8F8A6B",
"t.	c #868075",
"u.	c #82817C",
"v.	c #878875",
"w.	c #8A8372",
"x.	c #8E857B",
"y.	c #8C8872",
"z.	c #968A6D",
"A.	c #918373",
"B.	c #928379",
"C.	c #958C74",
"D.	c #948D7A",
"E.	c #9C8E74",
"F.	c #9A8F78",
"G.	c #92926B",
"H.	c #979477",
"I.	c #91967F",
"J.	c #9C9175",
"K.	c #9B917E",
"L.	c #9A9D72",
"M.	c #9C997E",
"N.	c #A2966D",
"O.	c #A79776",
"P.	c #A29679",
"Q.	c #A49A74",
"R.	c #A49C7D",
"S.	c #AA9A77",
"T.	c #AA9C7A",
"U.	c #B09E76",
"V.	c #AAA479",
"W.	c #B5A779",
"X.	c #BCB570",
"Y.	c #C4B777",
"Z.	c #D4B87A",
"`.	c #CDC27D",
" +	c #D6CB7E",
".+	c #838284",
"++	c #848589",
"@+	c #86888C",
"#+	c #898685",
"$+	c #89868C",
"%+	c #8B8A83",
"&+	c #8A8A8C",
"*+	c #858B91",
"=+	c #8B8C92",
"-+	c #8F8E98",
";+	c #8D9194",
">+	c #8E9099",
",+	c #938D84",
"'+	c #908E96",
")+	c #989584",
"!+	c #929394",
"~+	c #93949A",
"{+	c #919996",
"]+	c #97999A",
"^+	c #9F9C90",
"/+	c #9A9A9B",
"(+	c #9D9EA0",
"_+	c #9EA09D",
":+	c #99A3A9",
"<+	c #A49C87",
"[+	c #A2A281",
"}+	c #A3A08B",
"|+	c #ADA283",
"1+	c #A9A789",
"2+	c #AFAA87",
"3+	c #ADAE8C",
"4+	c #A7A696",
"5+	c #B3A684",
"6+	c #B1A188",
"7+	c #B3AD85",
"8+	c #B1AE8A",
"9+	c #B8AB83",
"0+	c #B4AC95",
"a+	c #B9B486",
"b+	c #BAB695",
"c+	c #A7A8A9",
"d+	c #BABAB7",
"e+	c #C3AB85",
"f+	c #C5B889",
"g+	c #C2B896",
"h+	c #D6BB88",
"i+	c #D8C489",
"j+	c #D6C698",
"k+	c #DCD788",
"l+	c #C6CCB0",
"m+	c #D5C9A1",
"n+	c #D3CBB6",
"o+	c #DED2AD",
"p+	c #DAD4B4",
"q+	c #E2CB8B",
"r+	c #E4D387",
"s+	c #E5D399",
"t+	c #F4D88A",
"u+	c #F6DC96",
"v+	c #E6D4A5",
"w+	c #F1DBAA",
"x+	c #ECE09F",
"y+	c #FBE681",
"z+	c #FBE498",
"A+	c #FEF49B",
"B+	c #F8E5A4",
"C+	c #F8ECB0",
"D+	c #FEFBA8",
"E+	c #FEFAB4",
"F+	c #CCCCCC",
"G+	c #FFFFC1",
"H+	c #000000",
"                        } } : ( ! ^ }                           ",
"                  1 : | f f f f | | ( ' - ^                     ",
"              ] ~ f t u q t j g g f e | : , % }                 ",
"            { e S ^.`  .j u t t j g g g e | ( = *               ",
"          : j  .w.j+j+g+%+q s s t n g g e | | ( , *             ",
"        ( n 6.y.W.z+q+Z.|+g m r u t j i f c e } ! = #           ",
"      _ u 2.v.Y.z+A+i+Z.h+)+~./.v q q i g g e | b ^ * $         ",
"    o c 5.6.Q.z+A+A+B+z+z+|+^+F.T q i t j g e | L b > * =       ",
"    / 3.5.'.Y.A+z+z+z+A+z+F.8.D.T U V W g f g f o '.~ , +       ",
"  7 g 9.3.H.A+y+t+q+q+u+B+x.r 8.j.t.t.Y T g i i h .+a > * %     ",
"  ; |.9.c.V.D+A+z+r+u+B+o+b.[./.C.B.m.f q n g c | %.Y 1 - #     ",
"  ; 7.!+I.Y.D+D+A+D+D+o+R |.7.a.K.A.u.T  .T c g e 9 '.4 - $     ",
"} ` 4+[+q.`.D+D+r+z+s+b.d 9.b.u.F.D.^./.u.^.i f c < 9 6 1 * #   ",
"& M.a+L.0.X.D+A+r+A+C+{+(.d.!+x.j.y.^.p M &.%.h e f h C 2 & @   ",
"> b+f+V.q.Y.D+D+D+A+E+l+t /.K.K.p.i.,.a.a.l.-.L e e N R 1 = .   ",
"> f+f+W.G.k+D+D+D+D+G+&+q _+,+~.,+t.,.=.,.;.;.p c } N Y 2 - +   ",
"> 2+a+9+N. +D+D+D+E+C+6.j n+,+n D.p.,.,.,.,.R f c e 9 M 2 = +   ",
"> M.7+|+U.Z.D+D+D+C+m+)+b 0+^+m w.p.&.=.=.,.^.V g f ( b : & .   ",
"- a.8+V.a+Y.u+B+g+H Q.w+v+e+J.` 6+r.>.=.X X J &.M o 9 9 : * #   ",
"  E 3+8+f+X.h+0+!.^.s+C+q+w+f+<+6+R.r.>.X X H &.+.Q K 6 ~ *     ",
"  ! &+#+f+q+5+Y I.f+u+j+e+j+g+4+X M.P.r.&.X J #.#.G a 1 ~ #     ",
"  : 6.}.u.v+9+g+u+u+B+m+g+g+M.a.8+f+N.f.g.&.H H F D 4 ] , $     ",
"    T d.|.0+p+8+E+z+x+C.|+j+7+b+m+f+W.S.J.,.H H E a 3 ) $       ",
"    ^ 4.1.Z :+b.b+E+x+[+p+j+f+i+W.9+a+U.O.o.H F D a [ > #       ",
"      e 5.5.<._.u b+n+w.g+W.W.e+5+S.T.|+T.z.&.F a [ ] *         ",
"        u 5.3.1.:.w 2.v }+f+9+|+R.T.N.P.J.r.-.H a ] >           ",
"          v 3.1.}.<.:.r u.9+R.y.1+5+T.r.r.j.I x 4 ~             ",
"            S [.[.:._.w %+|+J.w.0+J.R.s.e.i.G l 1               ",
"              p U w ` %+C.E.s.p.K.w.j.>.-.J k ,                 ",
"                  g ` '.R {.^.^.j.t.t.@.5 3                     ",
"                        e | 7 C k 4 6                           ",
"                                                                "};
