/* XPM */
static char * gftp_xpm[] = {
"32 32 308 2",
"  	c None",
". 	c #9A9A9A",
"+ 	c #929292",
"@ 	c #828282",
"# 	c #F0F0F0",
"$ 	c #FDFDFD",
"% 	c #A8A8A8",
"& 	c #6E6E6E",
"* 	c #919191",
"= 	c #A6A6A6",
"- 	c #E4E4E4",
"; 	c #FFFFFF",
"> 	c #B4B4B4",
", 	c #6D6D6C",
"' 	c #CACACA",
") 	c #BDBDBD",
"! 	c #8E8E8E",
"~ 	c #686868",
"{ 	c #9D9D9D",
"] 	c #D9D9D9",
"^ 	c #C0C0C0",
"/ 	c #707171",
"( 	c #575B67",
"_ 	c #D27E00",
": 	c #C37100",
"< 	c #B36400",
"[ 	c #A55B00",
"} 	c #424242",
"| 	c #333333",
"1 	c #909090",
"2 	c #ABABA9",
"3 	c #6E6E6F",
"4 	c #636362",
"5 	c #979797",
"6 	c #CECECE",
"7 	c #C9CFDB",
"8 	c #837966",
"9 	c #D67D00",
"0 	c #F0BD3E",
"a 	c #FFDE65",
"b 	c #FFE161",
"c 	c #FFE45F",
"d 	c #FFD333",
"e 	c #E2A413",
"f 	c #783B00",
"g 	c #ACACAC",
"h 	c #434343",
"i 	c #8C8C8C",
"j 	c #D7D7D6",
"k 	c #49494D",
"l 	c #6A6A6B",
"m 	c #5F5F5E",
"n 	c #8F8F90",
"o 	c #C2C8D3",
"p 	c #FFEEC6",
"q 	c #EA9400",
"r 	c #FFEA83",
"s 	c #FFF2B7",
"t 	c #FFFFFA",
"u 	c #FFF0AC",
"v 	c #FFDA2D",
"w 	c #A66000",
"x 	c #73594A",
"y 	c #474D55",
"z 	c #313132",
"A 	c #8A8A8A",
"B 	c #DCDCDC",
"C 	c #C5C5C5",
"D 	c #989895",
"E 	c #323236",
"F 	c #636365",
"G 	c #54575C",
"H 	c #8F897F",
"I 	c #F79E00",
"J 	c #FFE886",
"K 	c #FFFFFB",
"L 	c #FFFAF0",
"M 	c #FFFAED",
"N 	c #FFFDF1",
"O 	c #FFE668",
"P 	c #B06800",
"Q 	c #716365",
"R 	c #DEDEDE",
"S 	c #C2C2C2",
"T 	c #B0B0B0",
"U 	c #737370",
"V 	c #35352E",
"W 	c #37466C",
"X 	c #D18B00",
"Y 	c #FFE475",
"Z 	c #FFFEF5",
"` 	c #FFFDFC",
" .	c #FFF8E9",
"..	c #FFF2D3",
"+.	c #FFD662",
"@.	c #FFC529",
"#.	c #FFC21B",
"$.	c #FFCD05",
"%.	c #571C00",
"&.	c #E2E7F0",
"*.	c #C4C5C6",
"=.	c #7F7F7C",
"-.	c #43433F",
";.	c #1F1F24",
">.	c #FFBB14",
",.	c #FFEB9F",
"'.	c #FFFEF9",
").	c #FFF7E4",
"!.	c #FFF2D5",
"~.	c #FFDC6F",
"{.	c #FFD254",
"].	c #FFCC3E",
"^.	c #FFC427",
"/.	c #FFC30E",
"(.	c #DC9100",
"_.	c #7E6F71",
":.	c #848787",
"<.	c #464641",
"[.	c #222226",
"}.	c #FCCA46",
"|.	c #FFF7DA",
"1.	c #FFFCF5",
"2.	c #FFF5E1",
"3.	c #FFF1D1",
"4.	c #FFE8A3",
"5.	c #FFDA6C",
"6.	c #FFD357",
"7.	c #FFCB3D",
"8.	c #FFC225",
"9.	c #FFBE0C",
"0.	c #FFC000",
"a.	c #3A1B14",
"b.	c #242931",
"c.	c #FFC500",
"d.	c #FFD23F",
"e.	c #FFFFF8",
"f.	c #FFF7DF",
"g.	c #FFEFCA",
"h.	c #FFECBE",
"i.	c #FFE287",
"j.	c #FFD764",
"k.	c #FFD04F",
"l.	c #FFC935",
"m.	c #FFC21F",
"n.	c #FFBC09",
"o.	c #FFC400",
"p.	c #400E00",
"q.	c #DCCCA2",
"r.	c #686C76",
"s.	c #676869",
"t.	c #C1BCAE",
"u.	c #FFF9CD",
"v.	c #FFECB7",
"w.	c #FFE8AA",
"x.	c #FFDB76",
"y.	c #FFD354",
"z.	c #FFD039",
"A.	c #FFC621",
"B.	c #FFC00E",
"C.	c #FFC100",
"D.	c #411200",
"E.	c #D9DBE0",
"F.	c #69707D",
"G.	c #242832",
"H.	c #5E5F61",
"I.	c #B6B8C0",
"J.	c #CEBE98",
"K.	c #FFECA7",
"L.	c #FFE298",
"M.	c #FFD55D",
"N.	c #FFD236",
"O.	c #B0995E",
"P.	c #838EAB",
"Q.	c #65718F",
"R.	c #9C8A5C",
"S.	c #FFB400",
"T.	c #401000",
"U.	c #E0E0E0",
"V.	c #737373",
"W.	c #292929",
"X.	c #5F5F60",
"Y.	c #CBCBCB",
"Z.	c #BABCC2",
"`.	c #8F8568",
" +	c #FFEB96",
".+	c #FFDD88",
"++	c #FFCB33",
"@+	c #DDB342",
"#+	c #98A1B8",
"$+	c #D5D6D8",
"%+	c #7D8390",
"&+	c #7B7568",
"*+	c #E3E3E3",
"=+	c #787878",
"-+	c #2A2A2A",
";+	c #5C5C5C",
">+	c #C7C7C7",
",+	c #EDEDED",
"'+	c #CCCCCC",
")+	c #B6B6B8",
"!+	c #5C6273",
"~+	c #B9A979",
"{+	c #FFE68E",
"]+	c #FFC837",
"^+	c #FFC61D",
"/+	c #C0A152",
"(+	c #787E8D",
"_+	c #BEBEBE",
":+	c #E2E2E3",
"<+	c #929597",
"[+	c #6C6F6E",
"}+	c #DFDFDF",
"|+	c #404040",
"1+	c #5A5A5A",
"2+	c #EEEEEE",
"3+	c #CDCDCD",
"4+	c #B6B6B6",
"5+	c #96989D",
"6+	c #374057",
"7+	c #705D2A",
"8+	c #FFD63C",
"9+	c #FFC11A",
"0+	c #FFBD13",
"a+	c #E8B222",
"b+	c #4D5A78",
"c+	c #7C7D81",
"d+	c #F9F9F9",
"e+	c #EFEFEF",
"f+	c #A0A0A0",
"g+	c #60605F",
"h+	c #BBBBBB",
"i+	c #1E1E1E",
"j+	c #7C7C7C",
"k+	c #B7B7B7",
"l+	c #9C9C9A",
"m+	c #5C5D59",
"n+	c #2C2B28",
"o+	c #E49400",
"p+	c #FFC302",
"q+	c #FFBD04",
"r+	c #FFBC02",
"s+	c #FFBB00",
"t+	c #D6A031",
"u+	c #525B6C",
"v+	c #787A7B",
"w+	c #ABABAB",
"x+	c #FCFCFC",
"y+	c #AEAEAD",
"z+	c #5B5B5C",
"A+	c #595959",
"B+	c #2C2C2C",
"C+	c #B5B5B5",
"D+	c #9C9C9B",
"E+	c #61615D",
"F+	c #2F2F2E",
"G+	c #D98B00",
"H+	c #E39400",
"I+	c #FEAE00",
"J+	c #FEAD00",
"K+	c #FFAD00",
"L+	c #FAA400",
"M+	c #C77300",
"N+	c #835C28",
"O+	c #5E6162",
"P+	c #727272",
"Q+	c #A4A4A4",
"R+	c #E1E1E1",
"S+	c #BABABA",
"T+	c #5A5A59",
"U+	c #9F9F9F",
"V+	c #E5E5E5",
"W+	c #939393",
"X+	c #E4E4E3",
"Y+	c #5E5E5A",
"Z+	c #353532",
"`+	c #A1650C",
" @	c #9D5F04",
".@	c #985A01",
"+@	c #7D4904",
"@@	c #5D5D5B",
"#@	c #696969",
"$@	c #9E9E9E",
"%@	c #D7D7D7",
"&@	c #F8F8F8",
"*@	c #B5B5B4",
"=@	c #46464A",
"-@	c #7A7A79",
";@	c #EDEDE9",
">@	c #B3B3AD",
",@	c #2C2C29",
"'@	c #575756",
")@	c #626262",
"!@	c #000000",
"~@	c #464646",
"{@	c #DEDEDC",
"]@	c #505051",
"^@	c #585858",
"/@	c #888888",
"(@	c #646464",
"_@	c #FFFFFD",
":@	c #232327",
"<@	c #424243",
"[@	c #CFCFCD",
"}@	c #898989",
"|@	c #39393D",
"1@	c #979791",
"2@	c #9C9C95",
"3@	c #222220",
"                                                                ",
"                                                                ",
"                                                                ",
"                                                                ",
"                                                                ",
"          . + @                                                 ",
"        . # $ % &                                               ",
"        * = - ; > ,                                   ' )       ",
"        ! ~ { ] ; ^ / (     _ : < [               % } | 1 2     ",
"          3 4 5 6 ; 7 8 9 0 a b c d e f       g h | i ; ; j k   ",
"            l m n o p q r s t ; ; ; u v w x y z A ; ; B C D E   ",
"              F G H I J K ; ; ; ; L M N O P Q ; ; R S T U V     ",
"                W X Y Z ; ; ; `  ...+.@.#.$.%.&.*.T =.-.;.      ",
"                  >.,.; ; ; '.).!.~.{.].^./.(._.:.<.[.          ",
"                  }.|.; ; 1.2.3.4.5.6.7.8.9.0.a.b.              ",
"                c.d.; ; e.f.g.h.i.j.k.l.m.n.o.p.                ",
"                  q.r.s.t.u.v.w.x.y.z.A.B.C.0.D.                ",
"              E.F.G.H.6 I.J.K.L.M.N.O.P.Q.R.S.T.                ",
"          U.V.W.X.Y.; # Z.`. +.+++@+#+; $+%+&+                  ",
"      *+=+-+;+>+; ,+'+)+!+~+{+]+^+/+(+_+; :+<+[+                ",
"  }+% |+1+S ; 2+3+4+5+6+7+8+9+0+9.a+b+c+> d+e+f+g+              ",
"  h+i+j+; e+6 k+l+m+n+o+o.p+q+r+s+s+t+u+v+w+,+x+y+z+            ",
"C A+B+A+e+C+D+E+F+      G+H+I+J+K+L+M+N+O+P+Q+R+; S+T+          ",
"U+V+W+R X+Y+Z+              `+ @.@+@      @@#@$@%@; &@*@=@      ",
"  -@;@>@,@                                  '@)@5 V+!@~@{@      ",
"                                              ]@^@/@i+(@_@:@    ",
"                                                <@[@}@6 ;       ",
"                                                  |@1@2@3@      ",
"                                                                ",
"                                                                ",
"                                                                ",
"                                                                "};
