/* XPM */
static char * gimp_xpm[] = {
"32 32 324 2",
"  	c None",
". 	c #A19986",
"+ 	c #938A74",
"@ 	c #A9A089",
"# 	c #948C76",
"$ 	c #8D8470",
"% 	c #9E9684",
"& 	c #8A826A",
"* 	c #877E6A",
"= 	c #B1A995",
"- 	c #9F9786",
"; 	c #898169",
"> 	c #827962",
", 	c #7E7761",
"' 	c #A29988",
") 	c #999381",
"! 	c #888069",
"~ 	c #817862",
"{ 	c #7C725C",
"] 	c #8A8472",
"^ 	c #9E9580",
"/ 	c #968D7B",
"( 	c #958C75",
"_ 	c #89826C",
": 	c #827B65",
"< 	c #7B735E",
"[ 	c #766D55",
"} 	c #B6AC95",
"| 	c #A79E88",
"1 	c #98907B",
"2 	c #90876E",
"3 	c #969079",
"4 	c #8D856E",
"5 	c #8A816C",
"6 	c #847B62",
"7 	c #7D745E",
"8 	c #766E59",
"9 	c #746D5B",
"0 	c #BBB39F",
"a 	c #B1A690",
"b 	c #A59B87",
"c 	c #9E957F",
"d 	c #99927E",
"e 	c #9D9480",
"f 	c #A49B87",
"g 	c #8D8774",
"h 	c #8B836C",
"i 	c #877D66",
"j 	c #847D66",
"k 	c #827B63",
"l 	c #7D765F",
"m 	c #79725C",
"n 	c #766D59",
"o 	c #6F6953",
"p 	c #FFFFFF",
"q 	c #C7C2AE",
"r 	c #ACA38E",
"s 	c #ABA38F",
"t 	c #D2CFC3",
"u 	c #ECEBE5",
"v 	c #EAE8E4",
"w 	c #CAC6BA",
"x 	c #A09C84",
"y 	c #968F77",
"z 	c #8B846E",
"A 	c #837C66",
"B 	c #7E775F",
"C 	c #7C745E",
"D 	c #79715C",
"E 	c #746D56",
"F 	c #716A53",
"G 	c #6F6753",
"H 	c #6F6652",
"I 	c #736B5B",
"J 	c #BFB7A5",
"K 	c #EBE8E2",
"L 	c #D5D2C9",
"M 	c #978D77",
"N 	c #827B62",
"O 	c #786F5B",
"P 	c #726953",
"Q 	c #6D6350",
"R 	c #675F49",
"S 	c #605A46",
"T 	c #635C46",
"U 	c #645F49",
"V 	c #69624B",
"W 	c #A3A3A2",
"X 	c #646463",
"Y 	c #676766",
"Z 	c #BABABA",
"` 	c #E2E2E0",
" .	c #F2F0EC",
"..	c #FDFDFD",
"+.	c #F7F7F4",
"@.	c #ABA695",
"#.	c #8A8269",
"$.	c #7E745F",
"%.	c #736B55",
"&.	c #5D5640",
"*.	c #564E39",
"=.	c #544B33",
"-.	c #544C33",
";.	c #5D5440",
">.	c #AAAAAD",
",.	c #8C8C8E",
"'.	c #969696",
").	c #595959",
"!.	c #303030",
"~.	c #8A877E",
"{.	c #A1A1A1",
"].	c #3C3C3B",
"^.	c #636361",
"/.	c #E2E2E2",
"(.	c #9E9E9D",
"_.	c #929290",
":.	c #EEEEEE",
"<.	c #B7B2A6",
"[.	c #887E68",
"}.	c #7B735B",
"|.	c #6F6650",
"1.	c #605A44",
"2.	c #4C452E",
"3.	c #47442C",
"4.	c #4E4429",
"5.	c #635F53",
"6.	c #C5C5C5",
"7.	c #D4D4D4",
"8.	c #7C7C7B",
"9.	c #292927",
"0.	c #3E3C39",
"a.	c #A49D8D",
"b.	c #FDFDFB",
"c.	c #60605F",
"d.	c #000000",
"e.	c #4E4C4B",
"f.	c #EAE7E1",
"g.	c #ACACAD",
"h.	c #919191",
"i.	c #C9C9C9",
"j.	c #AAA69A",
"k.	c #817C62",
"l.	c #766E56",
"m.	c #6A634E",
"n.	c #5D533D",
"o.	c #514733",
"p.	c #494227",
"q.	c #443C27",
"r.	c #4C4530",
"s.	c #3C3C3D",
"t.	c #9F9F9F",
"u.	c #A5A5A8",
"v.	c #5F5F5E",
"w.	c #363633",
"x.	c #474744",
"y.	c #747168",
"z.	c #B1A997",
"A.	c #C0BCB3",
"B.	c #838074",
"C.	c #A39C8B",
"D.	c #B9B1A2",
"E.	c #FAFAFA",
"F.	c #7C7C7E",
"G.	c #C1C0BF",
"H.	c #928979",
"I.	c #7E745E",
"J.	c #716953",
"K.	c #625A46",
"L.	c #544E39",
"M.	c #4B452C",
"N.	c #443E24",
"O.	c #473E24",
"P.	c #47453B",
"Q.	c #1E1E1F",
"R.	c #6A6A6C",
"S.	c #6E6E6E",
"T.	c #4B4B4B",
"U.	c #474746",
"V.	c #5C5C59",
"W.	c #6F6E69",
"X.	c #938B77",
"Y.	c #9C937C",
"Z.	c #A09881",
"`.	c #A29B85",
" +	c #A49B86",
".+	c #C1BDB0",
"++	c #EDECE9",
"@+	c #D2D2D2",
"#+	c #828281",
"$+	c #A09F9E",
"%+	c #A8A59B",
"&+	c #827861",
"*+	c #776F59",
"=+	c #6D644E",
"-+	c #5F5742",
";+	c #4B442C",
">+	c #454029",
",+	c #44402C",
"'+	c #42403B",
")+	c #1E1E22",
"!+	c #383839",
"~+	c #5D5D5F",
"{+	c #727272",
"]+	c #7E7D7A",
"^+	c #837D6A",
"/+	c #908871",
"(+	c #979179",
"_+	c #9E967E",
":+	c #9D947E",
"<+	c #A9A496",
"[+	c #B6B1A8",
"}+	c #B4B1A8",
"|+	c #A9A397",
"1+	c #837B63",
"2+	c #79735F",
"3+	c #605944",
"4+	c #645C46",
"5+	c #5A513B",
"6+	c #514935",
"7+	c #494029",
"8+	c #3E3827",
"9+	c #808080",
"0+	c #5F5F62",
"a+	c #737375",
"b+	c #8D8B89",
"c+	c #766F58",
"d+	c #807861",
"e+	c #8C846D",
"f+	c #938B74",
"g+	c #958F76",
"h+	c #928972",
"i+	c #8D846E",
"j+	c #857E69",
"k+	c #817863",
"l+	c #7B725C",
"m+	c #645A48",
"n+	c #49442C",
"o+	c #5A513F",
"p+	c #504B33",
"q+	c #4B4024",
"r+	c #453C24",
"s+	c #211E11",
"t+	c #676769",
"u+	c #5F5F61",
"v+	c #737374",
"w+	c #888788",
"x+	c #BCBCBD",
"y+	c #69634D",
"z+	c #716B53",
"A+	c #857D66",
"B+	c #837C65",
"C+	c #7B725E",
"D+	c #625A44",
"E+	c #3A3629",
"F+	c #605D4D",
"G+	c #454024",
"H+	c #444027",
"I+	c #322B15",
"J+	c #1B1B1C",
"K+	c #BFBFBF",
"L+	c #645D46",
"M+	c #6D6450",
"N+	c #776D56",
"O+	c #7C725F",
"P+	c #786F59",
"Q+	c #766F56",
"R+	c #726A53",
"S+	c #6B634E",
"T+	c #4C4730",
"U+	c #292615",
"V+	c #5A5348",
"W+	c #817E75",
"X+	c #665F50",
"Y+	c #474029",
"Z+	c #454027",
"`+	c #3E381C",
" @	c #404044",
".@	c #767161",
"+@	c #5F5640",
"@@	c #56503B",
"#@	c #5C5740",
"$@	c #635A44",
"%@	c #67604B",
"&@	c #635D48",
"*@	c #504735",
"=@	c #403A29",
"-@	c #1B1000",
";@	c #261E0C",
">@	c #53503F",
",@	c #7E7C71",
"'@	c #908C84",
")@	c #534E37",
"!@	c #3A3018",
"~@	c #000005",
"{@	c #292405",
"]@	c #241B00",
"^@	c #1E1400",
"/@	c #140B00",
"(@	c #241B05",
"_@	c #45402C",
":@	c #605D52",
"<@	c #7B7361",
"[@	c #888276",
"}@	c #676352",
"|@	c #2B2405",
"1@	c #0B0000",
"2@	c #363222",
"3@	c #545140",
"4@	c #6B6959",
"5@	c #7B776E",
"6@	c #777263",
"7@	c #5C5446",
"8@	c #211E05",
"9@	c #303029",
"0@	c #140B05",
"a@	c #0B0B00",
"b@	c #241B11",
"c@	c #2E2618",
"d@	c #3A3624",
"e@	c #2E2915",
"f@	c #18181C",
"g@	c #242424",
"h@	c #181818",
"i@	c #32302E",
"                                                                ",
"                                                                ",
"                                                              . ",
"                                                              + ",
"              @                                             # $ ",
"              @ @                                         % & * ",
"                @ =                                     - ; > , ",
"                @ @ '                                 ) ! ~ { ] ",
"                = @ ^ /                           = ( _ : < [   ",
"                  } | 1 2 =                   = 3 4 5 6 7 8 9   ",
"                  0 a b c d e f =       = g h i j k l m n o     ",
"                  p q r s t u v w x y z A B C D E E F G H I     ",
"                p p p J K p p p p L M h N O P Q R S T U V       ",
"  W X Y         p Z `  .p p p ..p +.@.#.$.%.R &.*.=.-.;.        ",
">.,.'.).!.~.    {.].^.p p p /.(._.:.<.[.}.|.1.*.2.3.4.5.        ",
"Y 6.7.8.9.0.a.b.c.d.e.f.p p g.h.d.i.j.k.l.m.n.o.p.q.r.          ",
"s.t.u.v.w.x.y.z.A.B.C.D.E.p F.d.d.G.H.I.J.K.L.M.N.O.P.          ",
"Q.R.S.T.U.V.W.X.Y.Z.`. +.+++@+#+$+%+&+*+=+-+L.;+>+,+'+          ",
")+!+U.T.~+{+]+^+/+(+_+:+d <+[+}+|+1+2+3+4+5+6+7+O.8+            ",
"9+!.T.0+a+#+b+c+d+e+f+g+h+i+_ j+k+l+m+n+o+p+q+r+7+s+            ",
"  t+u+v+w+x+d+y+z+l+A+; [.B+d+C+E D+E+F+-+;+G+H+I+J+            ",
"        K+d+y+&.L+M+N+O+P+Q+R+S+T+U+V+W+X+Y+Z+`+d. @            ",
"          .@+@@@#@$@%@y+&@*@=@-@;@>@,@'@)@G+!@d.~@              ",
"            {@]@^@/@d.d.d.d.(@_@:@<@[@}@Y+|@d.d.                ",
"                d.d.d.d.1@2@3@4@5@6@7@8@d.d.d.                  ",
"                    9@0@a@b@c@d@e@d.d.d.d.f@                    ",
"                        g@d.d.d.d.d.h@i@                        ",
"                                                                ",
"                                                                ",
"                                                                ",
"                                                                ",
"                                                                "};
