/* XPM */
static char * globe_xpm[] = {
"32 32 97 2",
"  	c None",
". 	c #7E7E7E",
"+ 	c #808080",
"@ 	c #707070",
"# 	c #686868",
"$ 	c #939393",
"% 	c #868686",
"& 	c #464646",
"* 	c #000000",
"= 	c #040404",
"- 	c #010101",
"; 	c #545454",
"> 	c #050505",
", 	c #030303",
"' 	c #141414",
") 	c #090909",
"! 	c #5D5D5D",
"~ 	c #505050",
"{ 	c #696969",
"] 	c #222222",
"^ 	c #2B2B2B",
"/ 	c #171717",
"( 	c #414141",
"_ 	c #515151",
": 	c #8B8B8B",
"< 	c #C3C3C3",
"[ 	c #5A5A5A",
"} 	c #070707",
"| 	c #2A2A2A",
"1 	c #8E8E8E",
"2 	c #373737",
"3 	c #434343",
"4 	c #363636",
"5 	c #E3E3E3",
"6 	c #DADADA",
"7 	c #535353",
"8 	c #191919",
"9 	c #292929",
"0 	c #A5A5A5",
"a 	c #B7B7B7",
"b 	c #2C2C2C",
"c 	c #8A8A8A",
"d 	c #646464",
"e 	c #131313",
"f 	c #2E2E2E",
"g 	c #9F9F9F",
"h 	c #F4F4F4",
"i 	c #B2B2B2",
"j 	c #1E1E1E",
"k 	c #444444",
"l 	c #404040",
"m 	c #0C0C0C",
"n 	c #111111",
"o 	c #060606",
"p 	c #656565",
"q 	c #CECECE",
"r 	c #EDEDED",
"s 	c #C2C2C2",
"t 	c #383838",
"u 	c #E5E5E5",
"v 	c #CFCFCF",
"w 	c #080808",
"x 	c #262626",
"y 	c #4B4B4B",
"z 	c #666666",
"A 	c #5F5F5F",
"B 	c #8C8C8C",
"C 	c #FFFFFF",
"D 	c #DDDDDD",
"E 	c #212121",
"F 	c #282828",
"G 	c #E9E9E9",
"H 	c #ABABAB",
"I 	c #1C1C1C",
"J 	c #D3D3D3",
"K 	c #BABABA",
"L 	c #9D9D9D",
"M 	c #919191",
"N 	c #121212",
"O 	c #818181",
"P 	c #FCFCFC",
"Q 	c #606060",
"R 	c #B8B8B8",
"S 	c #272727",
"T 	c #E6E6E6",
"U 	c #585858",
"V 	c #0D0D0D",
"W 	c #FDFDFD",
"X 	c #EAEAEA",
"Y 	c #BCBCBC",
"Z 	c #242424",
"` 	c #181818",
" .	c #A9A9A9",
"..	c #C4C4C4",
"+.	c #848484",
"@.	c #909090",
"#.	c #797979",
"                        . + @ # # @ + .                         ",
"                  $ % & * = - * * - = * & % $                   ",
"              $ ; > > * , ' = ) ) = ' , * > > ; $               ",
"            ! > = * ~ { ] * ^ / / ^ * ] { ~ * = > !             ",
"          ( , * _ : < [ } | 1 2 2 1 | } [ < : _ * , (           ",
"        3 * - 4 5 6 7 8 9 0 a ^ ^ a 0 9 8 7 6 5 4 - * 3         ",
"      ! = - , b c d e f g h i j j i h g f e d c b , - = !       ",
"    $ > * k l m n o m p q r s t t s r q p m o n m l k * > $     ",
"    ; > _ u v _ w - w x y z A / / A z y x w - w _ v u _ > ;     ",
"  $ > * B C D 3 * E t F m m = - - = m m F t E * 3 D C B * > $   ",
"  % o _ G C H I ] 0 J K L M A N N A M L K J 0 ] I H C G _ o %   ",
"  ~ * O C P O o Q r C C C C R S S R C C C C r Q o O P C O * ~   ",
"$ o > $ C T U V 1 W C C C C i j j i C C C C W 1 V U T C $ > o $ ",
"O * _ X C Y Z `  .C C C C C ..t t ..C C C C C  .` Z Y C X _ * O ",
"+.> d i ..@.Z S 1 i ..Y i ..: j j : ..i Y ..i 1 S Z @...i d > +.",
"#., 8 j t j , o j j t ^ j t j = = j t j ^ t j j o , j t j 8 , #.",
"#., 8 j t j , o j j t ^ j t j = = j t j ^ t j j o , j t j 8 , #.",
"+.> d i ..@.Z S 1 i ..Y i ..: j j : ..i Y ..i 1 S Z @...i d > +.",
"O * _ X C Y Z `  .C C C C C ..t t ..C C C C C  .` Z Y C X _ * O ",
"$ o > $ C T U V 1 W C C C C i j j i C C C C W 1 V U T C $ > o $ ",
"  ~ * O C P O o Q r C C C C R S S R C C C C r Q o O P C O * ~   ",
"  % o _ G C H I ] 0 J K L M A N N A M L K J 0 ] I H C G _ o %   ",
"  $ > * B C D 3 * E t F m m = - - = m m F t E * 3 D C B * > $   ",
"    ; > _ u v _ w - w x y z A / / A z y x w - w _ v u _ > ;     ",
"    $ > * k l m n o m p q r s t t s r q p m o n m l k * > $     ",
"      ! = - , b c d e f g h i j j i h g f e d c b , - = !       ",
"        3 * - 4 5 6 7 8 9 0 a ^ ^ a 0 9 8 7 6 5 4 - * 3         ",
"          ( , * _ : < [ } | 1 2 2 1 | } [ < : _ * , (           ",
"            ! > = * ~ { ] * ^ / / ^ * ] { ~ * = > !             ",
"              $ ; > > * , ' = ) ) = ' , * > > ; $               ",
"                  $ % & * = - * * - = * & % $                   ",
"                        . + @ # # @ + .                         "};
