/* XPM */
static char * gqmpeg_xpm[] = {
"32 32 48 1",
" 	c None",
".	c #000000",
"+	c #040404",
"@	c #0A0A0A",
"#	c #F2D00C",
"$	c #EDC40B",
"%	c #D78F05",
"&	c #E5C10B",
"*	c #D69D07",
"=	c #E1A708",
"-	c #EFD20C",
";	c #F3D30C",
">	c #E0A707",
",	c #D18103",
"'	c #F1CF0C",
")	c #E0A607",
"!	c #CB7302",
"~	c #E8BA09",
"{	c #E8B909",
"]	c #DB9906",
"^	c #CD7703",
"/	c #D58A05",
"(	c #DD9F07",
"_	c #DFA407",
":	c #D58C05",
"<	c #C56501",
"[	c #D79105",
"}	c #C36200",
"|	c #C36000",
"1	c #CA7202",
"2	c #BF5700",
"3	c #252525",
"4	c #292929",
"5	c #333333",
"6	c #EFC90B",
"7	c #EABD0A",
"8	c #E8B90A",
"9	c #FFEF0F",
"0	c #F7DE0D",
"a	c #E9BC0A",
"b	c #D89306",
"c	c #DFA308",
"d	c #E2AB08",
"e	c #E4B009",
"f	c #DEA207",
"g	c #D28404",
"h	c #D68E05",
"i	c #BF5800",
"                    .           ",
"                 ....           ",
"               ..++..           ",
"            ....@.  .           ",
"            ...   ...           ",
"            .  ...  .           ",
"            ...     .           ",
"            .       .           ",
"            .       .           ",
"            .   ... .           ",
"        ... .  .#$%..           ",
"       .#&*.. .=-;>,.           ",
"      .=#')!. .=~{]^.           ",
"      ./(_:<.  .^[^}.           ",
"       .|1<2.   ....            ",
"        ....            .       ",
"                      ...       ",
"                   ......       ",
"                   .34  .       ",
"                   .  ..5       ",
"                   ...          ",
"                   .            ",
"                   .            ",
"                   .            ",
"                   .            ",
"               ... .            ",
"              .667..            ",
"             .890ab.            ",
"             .cdef^.            ",
"              .gh^i.            ",
"               ....             ",
"                                "};
