/* XPM */
static char * gqview_xpm[] = {
"32 32 132 2",
"  	c None",
". 	c #5A5A5A",
"+ 	c #565656",
"@ 	c #525252",
"# 	c #4E4E4E",
"$ 	c #4A4A4A",
"% 	c #464646",
"& 	c #424242",
"* 	c #A2A2A2",
"= 	c #767676",
"- 	c #5E5E5E",
"; 	c #626262",
"> 	c #6A6A6A",
", 	c #8E8E8E",
"' 	c #828282",
") 	c #7A8672",
"! 	c #8EB68A",
"~ 	c #8EA676",
"{ 	c #929272",
"] 	c #9A7E6E",
"^ 	c #9E726A",
"/ 	c #9E7E7E",
"( 	c #6A6666",
"_ 	c #667262",
": 	c #82A66E",
"< 	c #86A272",
"[ 	c #8E8E6E",
"} 	c #9A7A6A",
"| 	c #A2726E",
"1 	c #726E6E",
"2 	c #7A7A7A",
"3 	c #92B27E",
"4 	c #82BA7A",
"5 	c #86AE76",
"6 	c #8A9A6E",
"7 	c #96866E",
"8 	c #9E766E",
"9 	c #9E6A72",
"0 	c #966E82",
"a 	c #8A6A92",
"b 	c #8A7E8E",
"c 	c #7EA276",
"d 	c #76AE6E",
"e 	c #82A26E",
"f 	c #92866E",
"g 	c #9E766A",
"h 	c #9E6E72",
"i 	c #8E6E92",
"j 	c #928696",
"k 	c #6E6E6E",
"l 	c #969696",
"m 	c #8AA686",
"n 	c #7EC27E",
"o 	c #82B276",
"p 	c #8A966E",
"q 	c #9A826E",
"r 	c #A26E6A",
"s 	c #9A6E7A",
"t 	c #926A8A",
"u 	c #866E9A",
"v 	c #7E6EA6",
"w 	c #7A7A8A",
"x 	c #727272",
"y 	c #769276",
"z 	c #72B26E",
"A 	c #7AAA6E",
"B 	c #9A6A76",
"C 	c #926E8A",
"D 	c #8272AA",
"E 	c #828292",
"F 	c #868686",
"G 	c #7EBA76",
"H 	c #82AA72",
"I 	c #928A6E",
"J 	c #9A766A",
"K 	c #966A7E",
"L 	c #826E9E",
"M 	c #7A6EAA",
"N 	c #7A72AE",
"O 	c #6EB66E",
"P 	c #7EA66E",
"Q 	c #869A6E",
"R 	c #966A82",
"S 	c #7EBE76",
"T 	c #7EAE72",
"U 	c #8A926A",
"V 	c #96826A",
"W 	c #866A96",
"X 	c #7E6AA2",
"Y 	c #766AAA",
"Z 	c #6E6EB2",
"` 	c #829E6E",
" .	c #926A86",
"..	c #866A9A",
"+.	c #766EAE",
"@.	c #7272B2",
"#.	c #869E6E",
"$.	c #8E8E6A",
"%.	c #9A7A6E",
"&.	c #8E6A8E",
"*.	c #826A9E",
"=.	c #7A6AA6",
"-.	c #6A6EB6",
";.	c #7AA66E",
">.	c #A26A6A",
",.	c #9A6A7A",
"'.	c #666666",
").	c #86B67A",
"!.	c #86A672",
"~.	c #8A6E96",
"{.	c #6E6EB6",
"].	c #726EB2",
"^.	c #92866A",
"/.	c #726EB6",
"(.	c #869686",
"_.	c #7A7692",
":.	c #7E7E7E",
"<.	c #829282",
"[.	c #8E926E",
"}.	c #726EAE",
"|.	c #929A8A",
"1.	c #968E72",
"2.	c #9E7A6E",
"3.	c #966E7E",
"4.	c #7E76B2",
"5.	c #8E9686",
"6.	c #827AA2",
"7.	c #A27E7E",
"8.	c #966E86",
"9.	c #8272A6",
"0.	c #6A6272",
"a.	c #A26E76",
"                                                                ",
"                                                                ",
"                                                                ",
"                                                                ",
"                                                                ",
"                                                                ",
"                                                                ",
"                                                                ",
"                        . +           . +                       ",
"                    + @ @ # @ @   @ @ @ # @ @                   ",
"                . @ @ # $ $ $ $   @ # $ $ $ # # @               ",
"            + + @ # # $ % & % % % $ $ % % & % $ $ @ @           ",
"        + + @ # # $ % % % % & & % % % % & % % % % % # #         ",
"      * = - # $ @ - & & & & & & & & & & & = ; # % % @ > ,       ",
"    ' ) ! ~ { ] ^ / ( ; & % & & & & & & ; _ : < [ } | / 1 =     ",
"  2 3 4 5 6 7 8 9 0 a b . & & & & & & . c d e 6 f g h 0 i j k   ",
"l m n o < p q r s t u v w x % & & & & y z A e { ] h B C u D E F ",
"k n G H 6 I J 9 K a L M N @ % & & & @ O d P Q I J r R i L v N - ",
". S T e U V ^ 9 C W X Y Z % & % % % % z d ` U V ^ B  ...X +.@.$ ",
". S T #.$.%.9 K &.*.=.Y -.% & & & % % d ;.Q $.} >.,.&.*.Y Y -.$ ",
"'.).!.6 V ^ h K ~.=.Y {.].+ %     $ . d ;.p ^.^ B C W X Y {./.. ",
", (.< p V 9 B  .u M Y -._.x         :.<.< [.V r B C L M }.{._.2 ",
"  x |.1.2.r 3.a *.Y Z 4.-             k 5.[ } r K a *.=.Z 6.;   ",
"    x > 7.h 8.u L 9.0.>                 x 1 2.a.8.~.*.9.0.'.    ",
"        > @ $ % @ ;                         > + $ % @ ;         ",
"                                                                ",
"                                                                ",
"                                                                ",
"                                                                ",
"                                                                ",
"                                                                ",
"                                                                "};
