/* XPM */
static char * gthumb_xpm[] = {
"32 32 233 2",
"  	c None",
". 	c #8C8C8C",
"+ 	c #333333",
"@ 	c #C8C8C8",
"# 	c #FFFFFF",
"$ 	c #6D736C",
"% 	c #6C7067",
"& 	c #4E4F3F",
"* 	c #3C3B2F",
"= 	c #413F31",
"- 	c #434134",
"; 	c #4E4B39",
"> 	c #585746",
", 	c #4B4B3F",
"' 	c #404136",
") 	c #55584B",
"! 	c #5E6055",
"~ 	c #71746A",
"{ 	c #899187",
"] 	c #808678",
"^ 	c #464531",
"/ 	c #3F3C20",
"( 	c #3B371D",
"_ 	c #4F492D",
": 	c #726E50",
"< 	c #817D62",
"[ 	c #5B5943",
"} 	c #4C4B38",
"| 	c #676A56",
"1 	c #676D5C",
"2 	c #686E5D",
"3 	c #686C63",
"4 	c #3C3B29",
"5 	c #34311E",
"6 	c #292717",
"7 	c #534D34",
"8 	c #878369",
"9 	c #888168",
"0 	c #5C5841",
"a 	c #8F7960",
"b 	c #9F9585",
"c 	c #64695B",
"d 	c #43473B",
"e 	c #22221C",
"f 	c #1B1B12",
"g 	c #191911",
"h 	c #2B2A1A",
"i 	c #65624A",
"j 	c #918A74",
"k 	c #59513C",
"l 	c #9E826C",
"m 	c #C8C2BA",
"n 	c #5E6157",
"o 	c #2B2E22",
"p 	c #32312F",
"q 	c #25251D",
"r 	c #1E1D14",
"s 	c #27271B",
"t 	c #4C4735",
"u 	c #977F68",
"v 	c #80644A",
"w 	c #9C846E",
"x 	c #EEEBE7",
"y 	c #959691",
"z 	c #303328",
"A 	c #776F47",
"B 	c #8C7C43",
"C 	c #A29155",
"D 	c #B19665",
"E 	c #C09F69",
"F 	c #B18B52",
"G 	c #C19B67",
"H 	c #E4D6AF",
"I 	c #CEC5A4",
"J 	c #918E6D",
"K 	c #595221",
"L 	c #8C7E2D",
"M 	c #A39131",
"N 	c #AB9934",
"O 	c #AE9B35",
"P 	c #B5A139",
"Q 	c #BCA53C",
"R 	c #C1A840",
"S 	c #C9B14B",
"T 	c #CFBA59",
"U 	c #42472B",
"V 	c #70763D",
"W 	c #878C48",
"X 	c #9A9D54",
"Y 	c #A3A359",
"Z 	c #A1A051",
"` 	c #A0A04F",
" .	c #A8A759",
"..	c #AAA958",
"+.	c #A4A14A",
"@.	c #656D74",
"#.	c #666F79",
"$.	c #6C7782",
"%.	c #374F31",
"&.	c #4A643F",
"*.	c #6E805A",
"=.	c #8B926F",
"-.	c #808A5F",
";.	c #859067",
">.	c #B3B89F",
",.	c #B4B99D",
"'.	c #939C6B",
").	c #000000",
"!.	c #8097AB",
"~.	c #8298AD",
"{.	c #56514F",
"].	c #66727D",
"^.	c #6F869B",
"/.	c #708397",
"(.	c #5C6775",
"_.	c #7B7B7E",
":.	c #BAB7BA",
"<.	c #6C6A6D",
"[.	c #908987",
"}.	c #EFE7E5",
"|.	c #E9ECF1",
"1.	c #F8FAFB",
"2.	c #F5F7F9",
"3.	c #DAE2EB",
"4.	c #C0C9D6",
"5.	c #63646A",
"6.	c #8D939F",
"7.	c #BCC3CF",
"8.	c #A7B2C3",
"9.	c #74777D",
"0.	c #EBE9EB",
"a.	c #FEFEFE",
"b.	c #FDFDFE",
"c.	c #FBFBFC",
"d.	c #F4F5F8",
"e.	c #EDEFF3",
"f.	c #E7E9EE",
"g.	c #ABAFBC",
"h.	c #5C595C",
"i.	c #78808B",
"j.	c #AFB9CB",
"k.	c #7E8999",
"l.	c #DBDADF",
"m.	c #FDFCFD",
"n.	c #FDFCFC",
"o.	c #F8F7F9",
"p.	c #F5F3F5",
"q.	c #F4F2F3",
"r.	c #F5EFEC",
"s.	c #DBC8C0",
"t.	c #A69A99",
"u.	c #94A3BA",
"v.	c #8F8D92",
"w.	c #FEFEFD",
"x.	c #FDFCFB",
"y.	c #FAF8F6",
"z.	c #F7F3F1",
"A.	c #ECE9E9",
"B.	c #BBC0C9",
"C.	c #6B839A",
"D.	c #476985",
"E.	c #364049",
"F.	c #9793A1",
"G.	c #E4D7D0",
"H.	c #FEFCFC",
"I.	c #FEFDFC",
"J.	c #FAFAF9",
"K.	c #F5F4F3",
"L.	c #E8E9EA",
"M.	c #D2D8DF",
"N.	c #A8BACA",
"O.	c #5E829C",
"P.	c #47708B",
"Q.	c #396078",
"R.	c #2C4453",
"S.	c #A18D8A",
"T.	c #DCD1C9",
"U.	c #F9FAFA",
"V.	c #F0F2F3",
"W.	c #E8EAEC",
"X.	c #DFE2E7",
"Y.	c #D1D8E0",
"Z.	c #A3B8C6",
"`.	c #6B8FA6",
" +	c #4A7289",
".+	c #325567",
"++	c #233B47",
"@+	c #39454C",
"#+	c #60707D",
"$+	c #BAC6D0",
"%+	c #CBD5DC",
"&+	c #C5D1D9",
"*+	c #ACBDC9",
"=+	c #819BAC",
"-+	c #577588",
";+	c #4F6574",
">+	c #626D75",
",+	c #95999B",
"'+	c #C9CACB",
")+	c #A7A7A8",
"!+	c #202F38",
"~+	c #43667E",
"{+	c #4C6B81",
"]+	c #617B8B",
"^+	c #728592",
"/+	c #7B8890",
"(+	c #A4A8AB",
"_+	c #D7D7D7",
":+	c #F0F0F0",
"<+	c #F9F9F9",
"[+	c #F4F4F4",
"}+	c #23333C",
"|+	c #010101",
"1+	c #414D55",
"2+	c #8B949A",
"3+	c #B5B8BA",
"4+	c #D5D5D5",
"5+	c #F2F2F2",
"6+	c #FAFAFA",
"7+	c #F7F7F7",
"8+	c #F6F6F6",
"9+	c #ADADAD",
"0+	c #292929",
"a+	c #B4B4B4",
"b+	c #F5F5F5",
"c+	c #F3F3F3",
"d+	c #AFAFAF",
"e+	c #B6B6B6",
"f+	c #EBEBEB",
"g+	c #E8E8E8",
"h+	c #AEAEAE",
"i+	c #050505",
"j+	c #575757",
"                          . + + + + + + + + + + + + + + + + + . ",
"                          + @ # # # # # # # # # # # # # # # @ + ",
"                          + # # # # # # # # # # # # # # # # # + ",
"                          + # # # # # # # # # # # # # # # # # + ",
"                          + # . + + + + + + + + + + + + + . # + ",
"                          + # + $ % & * = - ; > , ' ) ! ~ + # + ",
"                          + # + { ] ^ / ( _ : < [ } | 1 2 + # + ",
"                          + # + + 3 4 5 6 7 8 9 0 a b c d + # + ",
"                        . + + @ @ + e f g h i j k l m n o + # + ",
"                  . + + @ # # # # + p q r s t u v w x y z + # + ",
"            . + + @ # # # # # # # @ + A B C D E F G H I J + # + ",
"      . + + @ # # # # # # # # # # # + K L M N O P Q R S T + # + ",
"  + + @ # # # # # # # # # # . + + # + U V W X Y Z `  ...+.+ # + ",
"+ @ # # # # # # # # # . + + @.#.$.. @ + %.&.*.=.-.;.>.,.'.+ # + ",
"+ # # # # # # # . + + ).).).).!.~.+ # + + + + + + + + + + . # + ",
". @ # # # . + + {.).).].^./.(.).).+ # + # # # # # # # # # # # + ",
"  + # . + _.:.<.).[.}.|.1.2.3.4.5.).. @ . # # # # # # # # # # + ",
"  + # + 6.7.8.).9.0.a.b.c.d.e.f.g.h.).# + # # # # # # # # # @ + ",
"  . @ . i.j.k.).l.m.a.n.o.p.q.r.s.t.).# + + + + + + + + + + + . ",
"    + # + u.).v.p.a.w.x.y.z.A.B.C.D.E.).@ .                     ",
"    + # + F.).G.H.I.J.K.L.M.N.O.P.Q.R.).# +                     ",
"    . @ . S.).T.U.V.W.X.Y.Z.`. +.+++@+).# +                     ",
"      + # + ).#+$+%+&+*+=+-+;+>+,+'+)+).# @ .                   ",
"      + # + !+).~+{+]+^+/+(+_+:+<+[+).# # # +                   ",
"      . @ . }+|+1+2+3+4+5+6+7+8+[+9+).# # @ +                   ",
"        + # + 0+).a+[+b+b+[+[+c+d+).+ @ + +                     ",
"        + # . + . ).).e+f+g+h+).).i+).+                         ",
"        . @ # # # # j+).).).).+ . ).+ ).+                       ",
"          + # # # # @ + + .         ).+ ).+                     ",
"          + @ @ + + .                 ).+ ).+                   ",
"            + .                         ).+ ).+                 ",
"                                          ).+ ).+               "};
