/* XPM */
static char * hextris_xpm[] = {
"32 29 3 1",
" 	c None",
".	c #000000",
"+	c #FFA500",
"                                ",
"                                ",
"             ......             ",
"            .++++++.            ",
"            .++++++.            ",
"           .++++++++.           ",
"           .++++++++.           ",
"          .++++++++++.          ",
"           .++++++++.           ",
"           .++++++++.           ",
"            .++++++.            ",
"            .++++++.            ",
"             ......             ",
"            .++++++.            ",
"            .++++++.            ",
"           .++++++++.           ",
"           .++++++++.           ",
"     ......++++++++++......     ",
"    .++++++.++++++++.++++++.    ",
"    .++++++.++++++++.++++++.    ",
"   .++++++++.++++++.++++++++.   ",
"   .++++++++.++++++.++++++++.   ",
"  .++++++++++......++++++++++.  ",
"   .++++++++.      .++++++++.   ",
"   .++++++++.      .++++++++.   ",
"    .++++++.        .++++++.    ",
"    .++++++.        .++++++.    ",
"     ......          ......     ",
"                                "};
