/* XPM */
static char * hh_xpm[] = {
"32 32 3 1",
" 	c None",
".	c #FFFFFF",
"+	c #FF0000",
"                                ",
"                                ",
"                                ",
"                                ",
"                                ",
"      ...     ...     ...       ",
"      ...     ...     ...       ",
"      ...     ...     ...       ",
"      ...     ...     ...       ",
"++    ...     ...     ...       ",
"++    ...     ...     ...       ",
"++    ...     ...     ...       ",
"++    ...     ...     ...       ",
" ++   ...     ...  +++...       ",
" ++   ...     ...+++  ...++     ",
"  ++  ...     ...+    ... ++    ",
"   ++ ...    +...     ...  ++   ",
"    ++...  +++...     ...   ++  ",
"      ...+++  ...     ...   ++  ",
"      ...     ...     ...    ++ ",
"      ...     ...     ...    ++ ",
"      ...     ...     ...    ++ ",
"      ...     ...     ...    ++ ",
"      ...     ...     ...       ",
"      ...     ...     ...       ",
"      ...     ...     ...       ",
"      ...     ...     ...       ",
"                                ",
"                                ",
"                                ",
"                                ",
"                                "};
