/* XPM */
static char * highway_xpm[] = {
"32 32 5 1",
" 	c None",
".	c #4040FF",
"+	c #FFFFFF",
"@	c #8080FF",
"#	c #CFCFFF",
"    .......................     ",
"   .+++++++++++++++++++++++.    ",
"   .+.....................+.    ",
"   .+.....................+.    ",
"   .+.....................+.    ",
"   .+.....................+.    ",
"   .+.....................+.    ",
"   .+.........@.@.........+.    ",
"   .+.........#.#.........+.    ",
"   .+.........#.#.........+.    ",
"   .+.........+.+.........+.    ",
"   .+........@+.+@........+.    ",
"   .+.....................+.    ",
"   .+...+++++++++++++++...+.    ",
"   .+.....++.......++.....+.    ",
"   .+.....++.@+.+@.++.....+.    ",
"   .+........#+.+#........+.    ",
"   .+........#+.+#........+.    ",
"   .+........++.++........+.    ",
"   .+........++.++........+.    ",
"   .+.......@++.++@.......+.    ",
"   .+.......#++.++#.......+.    ",
"   .+.......#++.++#.......+.    ",
"   .+.......+++.+++.......+.    ",
"   .+......@+++.+++@......+.    ",
"   .+......@+++.+++@......+.    ",
"   .+.....................+.    ",
"   .+.....................+.    ",
"   .+.....................+.    ",
"   .+.....................+.    ",
"   .+++++++++++++++++++++++.    ",
"    .......................     "};
