/* XPM */
static char * irq_xpm[] = {
"32 32 43 1",
" 	c None",
".	c #020202",
"+	c #2ACE06",
"@	c #228A06",
"#	c #EE0606",
"$	c #165206",
"%	c #F6F602",
"&	c #0E3206",
"*	c #860A06",
"=	c #26AA06",
"-	c #0A1E06",
";	c #7E7E06",
">	c #2AEA02",
",	c #420606",
"'	c #1A6E06",
")	c #464606",
"!	c #0A1202",
"~	c #2AC206",
"{	c #2ADA02",
"]	c #2AE202",
"^	c #1A0202",
"/	c #060A02",
"(	c #1E2206",
"_	c #2EFA02",
":	c #1E1A1E",
"<	c #2ADE02",
"[	c #020602",
"}	c #2EF202",
"|	c #121212",
"1	c #2A2A2A",
"2	c #2EEE02",
"3	c #2EE602",
"4	c #060606",
"5	c #2ED60A",
"6	c #060202",
"7	c #2EDA06",
"8	c #0A0602",
"9	c #2EDE06",
"0	c #0A060A",
"a	c #060A0A",
"b	c #020206",
"c	c #060206",
"d	c #06060A",
"                                ",
"          .       ..4.0         ",
"         .a..    .&@@'!.        ",
"        .$~@-|  .&72>}@/:       ",
"        /~22=!1|-=2{{]3$.       ",
"        !+<<2'..&+]{{{2'.       ",
"        .~]{>'..&+]{{<3$.       ",
"        |$2<>@[.-~]{{>~-:       ",
"         [@]2=/.-=>{<3$.: ..    ",
"   |[(!4c.[$37-./=><9'[..-$&/0  ",
"  .-@5+@-...'}$.b@>>@../'+]3=!| ",
" .-~2<<2~-..b@'..'_=/./@><{<}$| ",
"..@2{{{{>~$..-/..&@-./@2<<]}~!0 ",
"|/=>{{{{{>3'..);)8..$=}>37~@-.  ",
" .$3>]]]37+$.;%%%;8/==@'$&!.|   ",
"  .$=@@'$&!.!%%%%%).[.......    ",
"   .........(%%%%%)..........   ",
"    d..8^^,^!%%%%%).&$$''@@'-.  ",
"    4,*####,.)%%%;8-5993>>>>+$4 ",
"   .,#####*^..()(../@3]{<{{{2=c ",
"  ..#####*[.[-[..&-..'7]{{{{<~/ ",
"  ..####*6..$7$.-~=-..$3><{{2=. ",
"   .^**,6..$7_@.-~_=&..$=322+$c ",
"    ....a.$3]]=.6@>>~&..!$@'&.  ",
"        b&7]{]=4.'3<2@.  ...4   ",
"       ./~]{{<~!.$<<]~-.        ",
"       .&{<{{<5..-+>]5&.        ",
"       .$<<{{{7. .$9_=/.        ",
"       .&{<{{>=.  .&'-d         ",
"        .=>]>5.    ...          ",
"         !'==.                  ",
"          0bc                   "};
