/* XPM */
static char * java_xpm[] = {
"32 32 488 2",
"  	c None",
". 	c #EE8B95",
"+ 	c #F4ADB6",
"@ 	c #F0949E",
"# 	c #F6B8C0",
"$ 	c #F5B2BA",
"% 	c #F7CDD1",
"& 	c #F2A4AD",
"* 	c #EA8089",
"= 	c #F9E0E4",
"- 	c #EC8790",
"; 	c #F5C7CC",
"> 	c #ED8B95",
", 	c #F8E2E5",
"' 	c #F3A9B2",
") 	c #F9E0E3",
"! 	c #EB8A92",
"~ 	c #EB868F",
"{ 	c #F6D2D8",
"] 	c #F09CA5",
"^ 	c #EA757F",
"/ 	c #F3ADB5",
"( 	c #EEA3AB",
"_ 	c #F2A6AE",
": 	c #F7CED3",
"< 	c #E56771",
"[ 	c #F096A0",
"} 	c #F7D7DB",
"| 	c #F09FA7",
"1 	c #EFA1A9",
"2 	c #F1B0B6",
"3 	c #E2535C",
"4 	c #F0A0AB",
"5 	c #EA7880",
"6 	c #E97179",
"7 	c #F5C7CB",
"8 	c #E76F76",
"9 	c #E86F77",
"0 	c #F7CACF",
"a 	c #F7CED2",
"b 	c #E56770",
"c 	c #F098A2",
"d 	c #EC828C",
"e 	c #E97E87",
"f 	c #E3565E",
"g 	c #DC2D35",
"h 	c #E76E78",
"i 	c #ED8D96",
"j 	c #F7C5CB",
"k 	c #E9727B",
"l 	c #EA7780",
"m 	c #ED868F",
"n 	c #E55F67",
"o 	c #F8CED4",
"p 	c #F7DDE2",
"q 	c #E4646E",
"r 	c #F4AFB8",
"s 	c #F3BABF",
"t 	c #DF3B44",
"u 	c #E86C75",
"v 	c #E34F57",
"w 	c #DC2A32",
"x 	c #F1A1AA",
"y 	c #F4B9BF",
"z 	c #F4B0B8",
"A 	c #F1A0A8",
"B 	c #F7CCD1",
"C 	c #E4616A",
"D 	c #E4535C",
"E 	c #ED838D",
"F 	c #F5C2C8",
"G 	c #F098A1",
"H 	c #F5BEC4",
"I 	c #F7CBD0",
"J 	c #EE8A94",
"K 	c #E2565F",
"L 	c #E7686F",
"M 	c #F1A1A9",
"N 	c #E86F79",
"O 	c #F19BA4",
"P 	c #F2A8B0",
"Q 	c #F6C2C8",
"R 	c #F3A6AF",
"S 	c #E97D85",
"T 	c #E45D67",
"U 	c #E0434C",
"V 	c #F5B9C0",
"W 	c #F7D1D5",
"X 	c #EB868E",
"Y 	c #EF9FA6",
"Z 	c #F6C8CD",
"` 	c #DF3B43",
" .	c #E0424A",
"..	c #EE8C95",
"+.	c #E5606A",
"@.	c #F099A3",
"#.	c #F3AAB3",
"$.	c #F3BCC2",
"%.	c #F09BA6",
"&.	c #E97882",
"*.	c #F4C5CA",
"=.	c #F0919C",
"-.	c #F196A1",
";.	c #EF929C",
">.	c #F2B0B6",
",.	c #E87A83",
"'.	c #EF939D",
").	c #EA747D",
"!.	c #DD3139",
"~.	c #DF414A",
"{.	c #E24C55",
"].	c #E14952",
"^.	c #E97781",
"/.	c #F0A5AF",
"(.	c #E6626C",
"_.	c #E5656F",
":.	c #EC8691",
"<.	c #F29EA8",
"[.	c #F5B0B9",
"}.	c #EC838E",
"|.	c #F2A8B1",
"1.	c #F2AAB4",
"2.	c #DF3F48",
"3.	c #E65E68",
"4.	c #E9747E",
"5.	c #EA737D",
"6.	c #EF9BA4",
"7.	c #F4C0C5",
"8.	c #E6626B",
"9.	c #EA7881",
"0.	c #EB838D",
"a.	c #EFA3AA",
"b.	c #F6C3C9",
"c.	c #ED9098",
"d.	c #F6CACF",
"e.	c #EB858D",
"f.	c #F4ABB4",
"g.	c #F0A1A7",
"h.	c #E34E56",
"i.	c #E66973",
"j.	c #EF959E",
"k.	c #E9757C",
"l.	c #ED848C",
"m.	c #F4AAB4",
"n.	c #F0939E",
"o.	c #EB808A",
"p.	c #E97F87",
"q.	c #F5BEC3",
"r.	c #E8737D",
"s.	c #F19BA5",
"t.	c #F7CCD0",
"u.	c #F8D8DC",
"v.	c #E03F47",
"w.	c #E66A70",
"x.	c #ED979E",
"y.	c #DF4049",
"z.	c #F4C0C4",
"A.	c #E8757F",
"B.	c #F19AA3",
"C.	c #F8D7DB",
"D.	c #EC828D",
"E.	c #E66C75",
"F.	c #E7737C",
"G.	c #E8777F",
"H.	c #ED8892",
"I.	c #E14F59",
"J.	c #E24750",
"K.	c #E6646E",
"L.	c #E9737E",
"M.	c #F5C3C8",
"N.	c #F5C1C7",
"O.	c #F6C4CA",
"P.	c #F7C9CE",
"Q.	c #F8DADD",
"R.	c #DE363E",
"S.	c #DD343C",
"T.	c #E2525C",
"U.	c #ED8590",
"V.	c #EF909A",
"W.	c #F0A3AA",
"X.	c #F9E1E5",
"Y.	c #D3D0EF",
"Z.	c #C2BDE8",
"`.	c #B5AFE3",
" +	c #D6D2EF",
".+	c #DEBAD0",
"++	c #E45A63",
"@+	c #D35B70",
"#+	c #BF79A4",
"$+	c #EAA3B2",
"%+	c #F2A4AC",
"&+	c #ED8C96",
"*+	c #F6BDC4",
"=+	c #8F85D6",
"-+	c #7A70CB",
";+	c #9189D4",
">+	c #8F86D3",
",+	c #847BCF",
"'+	c #B2ABE2",
")+	c #968AD9",
"!+	c #A59EDE",
"~+	c #BFBAE8",
"{+	c #CBC6EA",
"]+	c #DCD8F1",
"^+	c #CCC1E6",
"/+	c #C0658E",
"(+	c #C7708F",
"_+	c #AEA6E1",
":+	c #E6A0B2",
"<+	c #F7C6CB",
"[+	c #F5B8BF",
"}+	c #F7C3C9",
"|+	c #F2AAB2",
"1+	c #7F76CE",
"2+	c #665AC4",
"3+	c #5A4EBF",
"4+	c #594DBE",
"5+	c #6156C2",
"6+	c #7469CB",
"7+	c #B4AEE4",
"8+	c #7167C8",
"9+	c #685DC5",
"0+	c #756ACD",
"a+	c #968ED8",
"b+	c #B6B1E4",
"c+	c #B8B3E4",
"d+	c #B8B2E4",
"e+	c #C0A3CE",
"f+	c #DE6C7E",
"g+	c #EB98A5",
"h+	c #D7C2DF",
"i+	c #A991D3",
"j+	c #8674CC",
"k+	c #B0A2DD",
"l+	c #C0B8E4",
"m+	c #8772C5",
"n+	c #7162C7",
"o+	c #8D80D6",
"p+	c #6C60C9",
"q+	c #6357C4",
"r+	c #7B6ECF",
"s+	c #9389D7",
"t+	c #A19ADC",
"u+	c #6458C6",
"v+	c #675CC4",
"w+	c #857CD3",
"x+	c #6459C3",
"y+	c #5D51C1",
"z+	c #6E62CB",
"A+	c #776CCF",
"B+	c #7065C8",
"C+	c #6457C2",
"D+	c #6D51B4",
"E+	c #665AC3",
"F+	c #6A5FC5",
"G+	c #695EC4",
"H+	c #6E51B3",
"I+	c #6951B6",
"J+	c #7055B5",
"K+	c #8F7FD3",
"L+	c #9E95DC",
"M+	c #8278D2",
"N+	c #BBB6E5",
"O+	c #6E62CA",
"P+	c #847AD3",
"Q+	c #8C83D4",
"R+	c #9890D7",
"S+	c #7F75CE",
"T+	c #A7A0DD",
"U+	c #D7D3F0",
"V+	c #A39BDD",
"W+	c #6D61C8",
"X+	c #8479D2",
"Y+	c #B7B0E5",
"Z+	c #CAC6EB",
"`+	c #B280B7",
" @	c #DB798D",
".@	c #B4AEE3",
"+@	c #CAC5EB",
"@@	c #CBB1D5",
"#@	c #DF6776",
"$@	c #AEA6E0",
"%@	c #D2BCDB",
"&@	c #C96280",
"*@	c #DC8094",
"=@	c #BCA6D5",
"-@	c #9B93DA",
";@	c #958DD7",
">@	c #D0CCED",
",@	c #BFB8E8",
"'@	c #7369C9",
")@	c #CDC9ED",
"!@	c #ACA4E1",
"~@	c #9D94DB",
"{@	c #8175D1",
"]@	c #ABA4E0",
"^@	c #BFB8E6",
"/@	c #A297DC",
"(@	c #958AD8",
"_@	c #8D82D4",
":@	c #8981D1",
"<@	c #A15D99",
"[@	c #CCA0C4",
"}@	c #D5D2EF",
"|@	c #E6BCCD",
"1@	c #DE8EA1",
"2@	c #F5C8CB",
"3@	c #EA838A",
"4@	c #E76C76",
"5@	c #C191BA",
"6@	c #AAA3DF",
"7@	c #9C94DB",
"8@	c #9E97DA",
"9@	c #877BD4",
"0@	c #968DD7",
"a@	c #B9B3E5",
"b@	c #9C92DB",
"c@	c #988ED9",
"d@	c #B5AEE3",
"e@	c #8075CE",
"f@	c #847AD0",
"g@	c #A19ADB",
"h@	c #8F86D2",
"i@	c #E491A0",
"j@	c #ED9199",
"k@	c #EC818A",
"l@	c #DBD7F1",
"m@	c #A8A2DF",
"n@	c #958CD7",
"o@	c #9890DA",
"p@	c #BDB9E7",
"q@	c #A9A2E0",
"r@	c #AAA3E0",
"s@	c #B3ADE2",
"t@	c #6458C4",
"u@	c #7D73CF",
"v@	c #AFA9E1",
"w@	c #D0CDEE",
"x@	c #B7B1E3",
"y@	c #AD94D0",
"z@	c #B9A3D5",
"A@	c #B8B0E2",
"B@	c #C3B8E2",
"C@	c #BAA9DB",
"D@	c #9D93DC",
"E@	c #9E92DC",
"F@	c #C9C3EB",
"G@	c #C8C3E9",
"H@	c #BBB5E5",
"I@	c #9188D5",
"J@	c #C2BDE9",
"K@	c #B0AAE1",
"L@	c #9A92D9",
"M@	c #8278D0",
"N@	c #6155C2",
"O@	c #6256C2",
"P@	c #877ED2",
"Q@	c #867DD2",
"R@	c #766BCE",
"S@	c #8177D1",
"T@	c #7F75D1",
"U@	c #796ECF",
"V@	c #9C8FDB",
"W@	c #9F94DC",
"X@	c #B8B3E5",
"Y@	c #CBC7EC",
"Z@	c #ACA5E1",
"`@	c #D4D1EF",
" #	c #A9A1DF",
".#	c #ACA5E0",
"+#	c #A39CDC",
"@#	c #8D85D3",
"##	c #9088D6",
"$#	c #8F84D7",
"%#	c #8479D1",
"&#	c #BCB7E6",
"*#	c #BAB4E5",
"=#	c #C9C4EB",
"-#	c #BEB9E7",
";#	c #A49CDE",
">#	c #ABA3E0",
",#	c #B9B4E5",
"'#	c #9B90DA",
")#	c #8F86D4",
"!#	c #695DC6",
"~#	c #6D62C8",
"{#	c #8C83D3",
"]#	c #9C94D9",
"^#	c #8278CD",
"/#	c #968ED6",
"(#	c #A099DA",
"_#	c #A69FDF",
":#	c #978FD9",
"<#	c #A29ADC",
"[#	c #A49BDE",
"}#	c #B6B0E5",
"|#	c #C7C2EB",
"1#	c #ACA3E1",
"2#	c #A098DC",
"3#	c #CBC8EC",
"4#	c #8A7FD2",
"5#	c #6357C5",
"6#	c #5C50C0",
"7#	c #6054C3",
"8#	c #695DC9",
"9#	c #6C60CA",
"0#	c #7368CB",
"a#	c #7469CA",
"b#	c #776DCB",
"c#	c #9890D9",
"d#	c #BDB7E6",
"e#	c #A39BDE",
"f#	c #BCB6E5",
"g#	c #8F83D6",
"h#	c #6559C4",
"i#	c #7B70CC",
"j#	c #7268C9",
"k#	c #6458C2",
"l#	c #958DD8",
"m#	c #CCC8EC",
"n#	c #C4BFE9",
"o#	c #ABA5DF",
"p#	c #766CCB",
"q#	c #5B4FBF",
"r#	c #5E52C0",
"s#	c #7166CB",
"t#	c #8B82D4",
"u#	c #B1A9E1",
"v#	c #CFCCEE",
"w#	c #ACA4E0",
"x#	c #7F74D1",
"y#	c #978FDA",
"z#	c #9389D8",
"A#	c #AFA8E0",
"B#	c #B9B3E6",
"C#	c #7A6DCF",
"D#	c #998CDA",
"E#	c #8E85D5",
"F#	c #796ECD",
"G#	c #ADA7E0",
"H#	c #9288D6",
"I#	c #756ACA",
"J#	c #746ACA",
"K#	c #8074CF",
"L#	c #938BD5",
"M#	c #948CD6",
"N#	c #A6A0DD",
"O#	c #9D96D9",
"P#	c #AFA7E2",
"Q#	c #9D90DB",
"R#	c #B8B0E5",
"S#	c #978ED6",
"T#	c #8278CE",
"U#	c #8A80D3",
"V#	c #7165CA",
"W#	c #5F53C2",
"X#	c #6558C3",
"Y#	c #988DD9",
"Z#	c #B1AAE2",
"`#	c #A299DD",
" $	c #B4ABE3",
".$	c #B1A8E2",
"+$	c #6256C4",
"@$	c #5E52C1",
"#$	c #7A70CE",
"$$	c #AAA4DF",
"%$	c #AEA8E0",
"&$	c #8C81D3",
"*$	c #8173D0",
"=$	c #776CCB",
"-$	c #756BCA",
";$	c #7065C9",
">$	c #6559C6",
",$	c #6C60C8",
"'$	c #867AD2",
")$	c #A79FDF",
"!$	c #C1BCE8",
"~$	c #BDB5E5",
"{$	c #BDB7E5",
"]$	c #AEA8E1",
"^$	c #B2ACE2",
"/$	c #B0A8E1",
"($	c #C3BEE9",
"_$	c #C6C2EA",
":$	c #C5C1EA",
"<$	c #C2BEE9",
"[$	c #C0BBE7",
"}$	c #BFBBE7",
"      . + @ #       $ %   &                 * =                 ",
"      - ; > ,       ' ) ! ~ { ]           ^ /   (               ",
"      _ : <         [ } | 1 2 3 4       5 6 7 8 9               ",
"      0 a b       ) c   d e f g h i j k l   m n                 ",
"      o p q       a r s t u v w x y z A B C D E                 ",
"      F   G H     I J K L M N O @ P Q R S T U                   ",
"      V   W X Y   Z `  ...+.. @.#.$.%.&.*.=.-.                  ",
"      ;.    >.,.'.).!.~.{.].^./.(._.:.    <.[.                  ",
"      }.|.      1.2.3.4.5.6.7.8.9.0.a.    b.c.                  ",
"      d.e.f.      g.h.{.i.j.k.l.m.n.        o.p.                ",
"        q.r.s.t.u.Z v.g w.x.y.z.A.b.          B.                ",
"          C.D.E.F.G.H.I.J.K.L.M.'.            N.O.              ",
"                P.Q.    R.S.T.U.V.W.            X.              ",
"              Y.Z.`. +.+++@+#+$+%+&+*+          =+-+;+>+,+      ",
"          '+)+!+~+{+]+^+/+(+_+:+<+[+}+|+      1+2+3+4+4+5+6+7+  ",
"      `.8+9+0+a+b+c+d+e+f+g+h+i+j+k+l+m+n+o+p+q+r+s+t+u+4+3+v+  ",
"      `.w+x+y+z+A+B+C+D+E+F+G+H+E+F+I+J+K+L+M+N+    O+P+Q+R+S+T+",
"        U+V+W+X+Y+Z+`+ @.@+@@@#@$@%@&@*@=@-@;@>@  ,@'@)@!@~@{@]@",
"          ^@/@(@_@:@<@[@}@|@o.1@2@3@4@5@6@7@8@    9@0@a@b@Y.c@d@",
"              e@f@g@h@    i@j@  W k@  l@]+      m@n@  o@p@q@r@  ",
"            s@t@u@v@w@`.x@y@z@A@B@C@D@E@F@    G@H@  I@J@K@L@    ",
"              M@N@O@P@Q@R@S@T@U@V@W@X@Y@)@Z@`@     #.#+#@#      ",
"              ##$#%#K@&#*#=#Y.Y.Y@Y@-#;#>#      ,#'#a+L@        ",
"              )#!#~#{#]#^#/#(#_#:#<#[#b@}#  |#1#2#L@3#          ",
"              4#5#6#4+4+4+4+7#8#9#0#a#b#c# +                    ",
"      d#!+e#f#  g#h#4+4+4+4+6#y+y+6#4+i#                        ",
"  b+j#k#l#m#w@    n#o#p#q#q#q#q#r#s#t#u#                v#      ",
"w#x#y#z#A#                                          B#C#D#      ",
"E#F#G#H#I#J#K#{#L#L#M#N#N#N#N#N#N#N#O#L#L#L#L#]#P#!+M+Q#    R#  ",
"S#T#U#V#q#4+4+4+4+4+4+q#W#4+4+4+4+4+4+4+4+4+4+X#Y#Y+Z#`# $~+.$  ",
"          Q@+$@$#$M#$$%$m@&$*$=$-$;$>$y+4+4+6#,$'$)$!$~$        ",
"            {$b+]$.@,#*#d+^$/$($_$:$<$!$[$}$                    "};
