/* XPM */
static char * jcalc_xpm[] = {
"32 32 81 1",
" 	c None",
".	c #020204",
"+	c #8EFEFC",
"@	c #86FAF4",
"#	c #7EF6F4",
"$	c #72F2EC",
"%	c #6AEEEC",
"&	c #62EAE4",
"*	c #5EEAE4",
"=	c #56E6E4",
"-	c #4EE2DC",
";	c #46DEDC",
">	c #3EDADC",
",	c #32D6D4",
"'	c #2ED6D4",
")	c #22CECC",
"!	c #1ECECC",
"~	c #16CACC",
"{	c #0EC6C4",
"]	c #06C2C4",
"^	c #02BEBC",
"/	c #026664",
"(	c #069A94",
"_	c #069694",
":	c #06968C",
"<	c #02928C",
"[	c #023E3C",
"}	c #82FAF4",
"|	c #76F6EC",
"1	c #024244",
"2	c #06928C",
"3	c #02C2C4",
"4	c #7AFE7C",
"5	c #028E8C",
"6	c #66EEEC",
"7	c #5AEAE4",
"8	c #4AE2DC",
"9	c #028A84",
"0	c #CACACC",
"a	c #C6C6C4",
"b	c #BEBEBC",
"c	c #B2B2B4",
"d	c #CECECC",
"e	c #C2C2C4",
"f	c #BABABC",
"g	c #C2BEBC",
"h	c #028A8C",
"i	c #565654",
"j	c #666664",
"k	c #727274",
"l	c #464644",
"m	c #4A4A4C",
"n	c #626264",
"o	c #767674",
"p	c #36DAD4",
"q	c #828284",
"r	c #323234",
"s	c #82827C",
"t	c #7E7E7C",
"u	c #8E8E8C",
"v	c #0E0E0C",
"w	c #B2B2AC",
"x	c #028684",
"y	c #26D2CC",
"z	c #5A5A5C",
"A	c #028284",
"B	c #FEC2C4",
"C	c #EAB2B4",
"D	c #E6AEAC",
"E	c #D2A6A4",
"F	c #D29E9C",
"G	c #FE0204",
"H	c #FE2624",
"I	c #FE4A4C",
"J	c #562224",
"K	c #FE6E6C",
"L	c #2E0204",
"M	c #FE9294",
"N	c #2A0204",
"O	c #027E7C",
"P	c #020604",
"     .....................      ",
"    .++@#$%&*=-;>,')!~{]^/.     ",
"    .@((((((((__((:__:_:<[.     ",
"    .}((((((_((::_(:_<<_<[.     ",
"    .|((11111111111111/<2[.     ",
"    .$(([.............3_<[.     ",
"    .$((1.....4.4.44..3<5[.     ",
"    .%(([.....4.4...4.3<5[.     ",
"    .6::1......44..4..32<[.     ",
"    .*(([.......4.444.355[.     ",
"    .7::1.............355[.     ",
"    .=_</3333333333333]55[.     ",
"    .-<_::<<<<555<<555555[.     ",
"    .8:<<<22<2<<55<555995[.     ",
"    .;<_0abcbdefcg0efcbh9[.     ",
"    .><<eijkleijkmeinom99[.     ",
"    .p2<fjkqrbjksrfjotrhh[.     ",
"    .,2<cktuvcotuvwksuv99[.     ",
"    .'55lr...mr...mr...xx[.     ",
"    .y22debcb0efwg0efwbxx[.     ",
"    .)55eznklezjolaijkmhx[.     ",
"    .!55fjksrfjkqrfjotrxx[.     ",
"    .~99wksuvwktuvcktuvxA[.     ",
"    .~5hmr...mr...mr...xA[.     ",
"    .]95defcb0afwgBCDEFAA[.     ",
"    .399eijkmeinklCGHIJxA[.     ",
"    .3h9fjksrfjosrDHIKLAA[.     ",
"    .^x9cotuvcktuvFIKMNAA[.     ",
"    .^99mr...mr...J....OA[.     ",
"    .^xxxxxxxAxxAAAOAOAOO[.     ",
"    ./[[[[[[[[[[[[[[[[[[[[.     ",
"     ..PPPPPPPPPPPPPP.....      "};
