/* XPM */
static char * kchart_xpm[] = {
"32 32 319 2",
"  	c None",
". 	c #000000",
"+ 	c #FDFBF5",
"@ 	c #AA8B61",
"# 	c #FEFEFC",
"$ 	c #FCF7E4",
"% 	c #FBF4D5",
"& 	c #AD8E5E",
"* 	c #FDFCFA",
"= 	c #F9F1CD",
"- 	c #FAF1CC",
"; 	c #FBF2CF",
"> 	c #FBF3D4",
", 	c #FBF4D7",
"' 	c #956F38",
") 	c #FEFEFD",
"! 	c #FBF6E0",
"~ 	c #F9EEBF",
"{ 	c #FAEFC3",
"] 	c #FAF0C7",
"^ 	c #F9F1CF",
"/ 	c #FAF2D2",
"( 	c #FAF3D6",
"_ 	c #AC8E5E",
": 	c #FCF8E9",
"< 	c #F8ECB8",
"[ 	c #F9ECB8",
"} 	c #F9EDBC",
"| 	c #F9EEC1",
"1 	c #FAF0C5",
"2 	c #FAF1CA",
"3 	c #FBF3D5",
"4 	c #FBF3D6",
"5 	c #FBF5D9",
"6 	c #906830",
"7 	c #FBF4D9",
"8 	c #F8EAB2",
"9 	c #F8E9AD",
"0 	c #F8EAB1",
"a 	c #F9EBB6",
"b 	c #F9EDBA",
"c 	c #FAEFC4",
"d 	c #FAF0C8",
"e 	c #FBF2CD",
"f 	c #FAF4D7",
"g 	c #FAF4D9",
"h 	c #B39569",
"i 	c #FFFFFF",
"j 	c #FEFCF5",
"k 	c #F8E9AF",
"l 	c #F7E6A2",
"m 	c #F7E7A6",
"n 	c #F8E9AA",
"o 	c #F8EAAF",
"p 	c #6E6E6E",
"q 	c #6F6F6F",
"r 	c #696969",
"s 	c #5E5E5E",
"t 	c #FBF3D1",
"u 	c #FBF4D6",
"v 	c #F5ECD0",
"w 	c #99743F",
"x 	c #FEFDFA",
"y 	c #F6E397",
"z 	c #F6E49B",
"A 	c #F7E69F",
"B 	c #F7E7A4",
"C 	c #787878",
"D 	c #7E7E7E",
"E 	c #81FD81",
"F 	c #82FD82",
"G 	c #7EFE7E",
"H 	c #FEB872",
"I 	c #606060",
"J 	c #474747",
"K 	c #FCF5DB",
"L 	c #C5AE87",
"M 	c #FCF8E8",
"N 	c #F6E394",
"O 	c #F6E18F",
"P 	c #F6E499",
"Q 	c #F7E59E",
"R 	c #7D7D7D",
"S 	c #86E086",
"T 	c #8BFD8B",
"U 	c #8CFD8C",
"V 	c #8EFD8E",
"W 	c #89FD89",
"X 	c #FDBF7F",
"Y 	c #FEB66E",
"Z 	c #FFAA55",
"` 	c #383838",
" .	c #FCF5DA",
"..	c #CFBA95",
"+.	c #906831",
"@.	c #FCF8E5",
"#.	c #7B7B7B",
"$.	c #87E087",
"%.	c #8EE28E",
"&.	c #91E391",
"*.	c #8DF68D",
"=.	c #84E584",
"-.	c #FDC68E",
";.	c #FDC286",
">.	c #FEBA77",
",.	c #FEAE5D",
"'.	c #FE9F40",
").	c #242424",
"!.	c #FBF6E1",
"~.	c #B2966A",
"{.	c #FEFEFE",
"].	c #F7E6A3",
"^.	c #828282",
"/.	c #8CE18C",
"(.	c #FFFAF5",
"_.	c #559255",
":.	c #E5B583",
"<.	c #FDC489",
"[.	c #FEBC7A",
"}.	c #FEB062",
"|.	c #FEA144",
"1.	c #272727",
"2.	c #FCF7E2",
"3.	c #FFBF00",
"4.	c #FCF6DE",
"5.	c #777777",
"6.	c #8FE28F",
"7.	c #FFF4EA",
"8.	c #FFF7F1",
"9.	c #FFFBF7",
"0.	c #927454",
"a.	c #F6BE85",
"b.	c #FEFE44",
"c.	c #FEFE27",
"d.	c #131313",
"e.	c #FFFF00",
"f.	c #FF7F00",
"g.	c #F7E7A3",
"h.	c #FFEEE0",
"i.	c #FFF2E6",
"j.	c #FFA858",
"k.	c #FFF8F2",
"l.	c #FFFBF8",
"m.	c #9F7B55",
"n.	c #F8F874",
"o.	c #FEFE5E",
"p.	c #FCFC3F",
"q.	c #FFFF25",
"r.	c #121212",
"s.	c #FF00FF",
"t.	c #800000",
"u.	c #FBF4D8",
"v.	c #F8E8A8",
"w.	c #F8E8A9",
"x.	c #727272",
"y.	c #FFE9D5",
"z.	c #FFECDB",
"A.	c #FFEFE1",
"B.	c #FFF2E7",
"C.	c #FFF9F4",
"D.	c #A4A449",
"E.	c #F5F553",
"F.	c #FFFF3A",
"G.	c #FEFE20",
"H.	c #0E0E0E",
"I.	c #FDFCF9",
"J.	c #F8EBB6",
"K.	c #F8E9AE",
"L.	c #FFE3CA",
"M.	c #FFE6D0",
"N.	c #FFE9D6",
"O.	c #FFEDDC",
"P.	c #FFF0E2",
"Q.	c #FFF3E9",
"R.	c #C05800",
"S.	c #999949",
"T.	c #B5B549",
"U.	c #E0E043",
"V.	c #FBFB30",
"W.	c #FEFE1A",
"X.	c #0C0C0C",
"Y.	c #F600F6",
"Z.	c #FBF6DE",
"`.	c #FFDDBF",
" +	c #FFE0C5",
".+	c #FFE7D1",
"++	c #FFEAD7",
"@+	c #3B693B",
"#+	c #428242",
"$+	c #56D356",
"%+	c #3ECE3E",
"&+	c #FEFE26",
"*+	c #080808",
"=+	c #EE00EE",
"-+	c #FFD8B4",
";+	c #FFDBBA",
">+	c #FFDEC0",
",+	c #FFE1C6",
"'+	c #FFE8D3",
")+	c #396839",
"!+	c #478D47",
"~+	c #5CD65C",
"{+	c #45D045",
"]+	c #E500E5",
"^+	c #FFD2A9",
"/+	c #FFD5AF",
"(+	c #FFD8B5",
"_+	c #FFDCBB",
":+	c #FFDFC2",
"<+	c #FFE2C8",
"[+	c #336733",
"}+	c #418C41",
"|+	c #57D557",
"1+	c #DD00DD",
"2+	c #FF0000",
"3+	c #FFCC9E",
"4+	c #FFCFA4",
"5+	c #FFD6B0",
"6+	c #FFD9B7",
"7+	c #276427",
"8+	c #358935",
"9+	c #4BD14B",
"0+	c #2FCB2F",
"a+	c #D400D4",
"b+	c #FFC693",
"c+	c #FFCA99",
"d+	c #FFCD9F",
"e+	c #FFD0A6",
"f+	c #FFD7B2",
"g+	c #181818",
"h+	c #238423",
"i+	c #35CC35",
"j+	c #27C927",
"k+	c #1BC61B",
"l+	c #111111",
"m+	c #CC00CC",
"n+	c #FFC188",
"o+	c #FFC48E",
"p+	c #FFC794",
"q+	c #FFCA9B",
"r+	c #FFCEA1",
"s+	c #FFD1A7",
"t+	c #767264",
"u+	c #A39E8B",
"v+	c #1D1D1D",
"w+	c #191919",
"x+	c #141414",
"y+	c #0D0D0D",
"z+	c #F7EFEF",
"A+	c #C300C3",
"B+	c #FFBB7D",
"C+	c #FFBE83",
"D+	c #FFC590",
"E+	c #FFC896",
"F+	c #777364",
"G+	c #FAF3D8",
"H+	c #FBF5DA",
"I+	c #FCF5DD",
"J+	c #FCF6E0",
"K+	c #FCF7E1",
"L+	c #EFDFDF",
"M+	c #F20000",
"N+	c #BB00BB",
"O+	c #FFBC7F",
"P+	c #FFBF85",
"Q+	c #FFC691",
"R+	c #787876",
"S+	c #A39F8D",
"T+	c #FCF5DC",
"U+	c #FCF7E0",
"V+	c #FCF7E3",
"W+	c #FCF8E6",
"X+	c #E7CFCF",
"Y+	c #E50000",
"Z+	c #B200B2",
"`+	c #FFBD80",
" @	c #FFC086",
".@	c #FDF9EA",
"+@	c #FCF6DF",
"@@	c #FCF8E4",
"#@	c #FDF8E7",
"$@	c #FDFAEC",
"%@	c #DFBFBF",
"&@	c #D80000",
"*@	c #AA00AA",
"=@	c #FDF9E9",
"-@	c #FDF9EB",
";@	c #FDFAEE",
">@	c #FDFBF1",
",@	c #D7AFAF",
"'@	c #CC0000",
")@	c #A100A1",
"!@	c #FDFAEB",
"~@	c #FDFAED",
"{@	c #FDFBF0",
"]@	c #FDFBF2",
"^@	c #CF9F9F",
"/@	c #BF0000",
"(@	c #990099",
"_@	c #FEFCF4",
":@	c #FEFCF6",
"<@	c #E2D7C6",
"[@	c #C78F8F",
"}@	c #B20000",
"|@	c #900090",
"1@	c #FEFCF3",
"2@	c #FEFCF7",
"3@	c #AA8B60",
"4@	c #A60000",
"5@	c #BF7F7F",
"6@	c #880088",
"7@	c #F0EADF",
"8@	c #C8B496",
"9@	c #997541",
"0@	c #8E652C",
"a@	c #7F007F",
"b@	c #B76F6F",
"c@	c #990000",
"d@	c #8C0000",
"                                  . .                           ",
"                              . . + @ .                         ",
"                          . . # $ % & .                         ",
"                      . . * = - ; > , ' .                       ",
"                  . . ) ! ~ { ] ^ / ( _ .                       ",
"              . . # : < [ } | 1 2 3 4 5 6 .                     ",
"          . . # 7 8 9 0 a b ~ c d e f g h .                     ",
"      . . i j k l m n o p q p r s - t u v w .                   ",
"  . . x j 8 y z A B C D E F F G H I J u K L .                   ",
". i M ~ N O N P Q R S T U V U W X Y Z `  ...+..                 ",
"  . @.z y N y z #.$.%.&.. *.=.-.;.>.,.'.).!.~.. .               ",
"  . {.].z P z Q ^./.&.. (.. _.:.<.[.}.|.1.2.. . 3..             ",
"    . 4.A Q A 5.S 6.. 7.8.9.. 0.a.[.}.b.c.d.i e.3.f..           ",
"    . ) B g.B C S . h.i.j.k.l.. m.n.o.p.q.r.i s.3.t..           ",
"      . u.v.w.x.. y.z.A.B.. C.j.. D.E.F.G.H.i s.s.t..           ",
"      . I.J.K.. L.M.N.O.P.Q.R.. S.T.U.V.W.X.i Y.Y.t..   .       ",
"        . Z.. `. +j..+++. j.. @+#+$+%+&+. *+i =+=+t.. . 3..     ",
"        . . -+;+>+,+. '+j.. )+!+~+{+. . 3.. i ]+]+t.i e.3.f..   ",
"        . ^+/+(+_+:+<+R.. [+}+|+{+. i e.3.f.i 1+1+t.i 2+3.t..   ",
"      . 3+4+j.5+6+. j.. 7+8+9+%+0+. i 2+3.t.i a+a+t.i 2+2+t..   ",
"    . b+c+d+e+. f+j.. g+h+i+0+j+k+l+i 2+2+t.i m+m+t.i 2+2+t..   ",
"  . n+o+p+q+r+s+R.. t+u+v+v+w+x+y+. z+2+2+t.z+A+A+t.z+2+2+t..   ",
". B+C+j.D+E+. j.. F+u+G+H+I+J+K+@.. L+M+M+t.L+N+N+t.L+M+M+t..   ",
"  . O+P+. Q+j.. R+S+ .T+4.U+V+W+M . X+Y+Y+t.X+Z+Z+t.X+Y+Y+t..   ",
"    . `+ @R..   . .@+@U+2.@@#@.@$@. %@&@&@t.%@*@*@t.%@&@&@t..   ",
"      . j..     . x V+@.#@=@-@;@>@. ,@'@'@t.,@)@)@t.,@'@'@t..   ",
"        .         . $@.@!@~@{@]@j . ^@/@/@t.^@(@(@t.^@/@/@t..   ",
"                  . x ;@{@]@_@:@<@. [@}@}@t.[@|@|@t.[@}@}@t..   ",
"                    . 1@j 2@<@3@+.. . . 4@. 5@6@6@t.5@4@4@t..   ",
"                    . 7@8@9@0@. .       . . . . a@. b@c@c@t..   ",
"                      . 0@. .                   . . . . d@t..   ",
"                      . .                               . .     "};
