/* XPM */
static char * keyb_us_xpm[] = {
"32 32 5 1",
" 	c None",
".	c #E5E5E5",
"+	c #999999",
"@	c #4C4C4C",
"#	c #000000",
"             ..............     ",
"            ..............+@    ",
"            ..++++++++++++@@    ",
"            ..++++++++++++@@    ",
"            ..++++####++++@@    ",
"            ..++++##++++++@@    ",
"            ..++++##++++++@@    ",
"            ..++++##++++++@@    ",
"            ..++++##++++++@@    ",
"            ..++++##++++++@@    ",
"            ..++++##++++++@@    ",
"            ..++++##++++++@@    ",
"            ..++++####++++@@    ",
"            ..++++++++++++@@    ",
"            .+@@@@@@@@@@@@@@    ",
"             @@@@@@@@@@@@@@     ",
" ..............  .............. ",
"..............+@..............+@",
"..++++++++++++@@..++++++++++++@@",
"..++++++++++++@@..++++++++++++@@",
"..+++++##+++++@@..+++++##+++++@@",
"..+++++##+++++@@..+++++##+++++@@",
"..++++++++++++@@..++++++#+++++@@",
"..++++++++++++@@..+++++#++++++@@",
"..++++++++++++@@..++++++++++++@@",
"..+++++##+++++@@..++++++++++++@@",
"..+++++##+++++@@..++++++++++++@@",
"..++++++#+++++@@..++++++++++++@@",
"..+++++#++++++@@..++++++++++++@@",
"..++++++++++++@@..++++++++++++@@",
".+@@@@@@@@@@@@@@.+@@@@@@@@@@@@@@",
" @@@@@@@@@@@@@@  @@@@@@@@@@@@@@ "};
