/* XPM */
static char * keyb_xpm[] = {
"32 32 7 1",
" 	c None",
".	c #CCCCCC",
"+	c #7F7F7F",
"@	c #E5E5E5",
"#	c #999999",
"$	c #000000",
"%	c #4C4C4C",
"                                ",
"                                ",
"...+    @@@#@@@#@@@#@@@#  ...+..",
".++$    @##%@##%@##%@##%  .++$.+",
".++$    @##%@##%@##%@##%  .++$.+",
"+$$$    #%%%#%%%#%%%#%%%  +$$$+$",
"                                ",
"                                ",
"                                ",
"                                ",
"@@@#@@@#@@@#@@@#@@@#@@@#@@@#@@@#",
"@##%@##%@##%@##%@##%@##%@##%@##%",
"@##%@##%@##%@##%@##%@##%@##%@##%",
"#%%%#%%%#%%%#%%%#%%%#%%%#%%%#%%%",
".....+@@@#@@@#@@@#@@@#@@@#@@@#@@",
".++++$@##%@##%@##%@##%@##%@##%@#",
".++++$@##%@##%@##%@##%@##%@##%@#",
"+$$$$$#%%%#%%%#%%%#%%%#%%%#%%%#%",
"......+@@@#@@@#@@@#@@@#@@@#@@@#@",
".+++++$@##%@##%@##%@##%@##%@##%@",
".+++++$@##%@##%@##%@##%@##%@##%@",
"+$$$$$$#%%%#%%%#%%%#%%%#%%%#%%%#",
"....+@@@#@@@#@@@#@@@#@@@#@@@#@@@",
".+++$@##%@##%@##%@##%@##%@##%@##",
".+++$@##%@##%@##%@##%@##%@##%@##",
"+$$$$#%%%#%%%#%%%#%%%#%%%#%%%#%%",
"....+....+....+@@@@@@@@@@@@@@@@@",
".+++$.+++$.+++$@################",
".+++$.+++$.+++$@################",
"+$$$$+$$$$+$$$$#%%%%%%%%%%%%%%%%",
"                                ",
"                                "};
