/* XPM */
static char * kind_xpm[] = {
"32 32 2 1",
" 	c None",
".	c #BE1527",
"                                ",
"....      ..... ............... ",
"....     .....  ............... ",
"....    .....   ............... ",
"....   .....    ............... ",
"....  .....         .....       ",
".... .....           .....      ",
".........             .....     ",
"..........           .......    ",
"...........         .........   ",
"...... .....       ..... .....  ",
".....   .....     .....   ..... ",
"....     .....   .....     .... ",
"....      ..... .....       ... ",
"....       .........         .. ",
"....        .......           . ",
"             .....              ",
".           .......        .... ",
"..         .........       .... ",
"...       ..... .....      .... ",
"....     .....   .....     .... ",
".....   .....     .....   ..... ",
" ..... .....       ..... ...... ",
"  .........         ........... ",
"   .......           .......... ",
"    .....             ......... ",
"     .....           ..... .... ",
"      .....         .....  .... ",
"...............    .....   .... ",
"...............   .....    .... ",
"...............  .....     .... ",
"............... .....      .... "};
