/* XPM */
static char * killustrator_xpm[] = {
"32 32 374 2",
"  	c None",
". 	c #000000",
"+ 	c #FAF0C8",
"@ 	c #EABF89",
"# 	c #7DFFFF",
"$ 	c #69FFFF",
"% 	c #55FFFF",
"& 	c #41FFFF",
"* 	c #2DFFFF",
"= 	c #18FFFF",
"- 	c #04FFFF",
"; 	c #0EFFFF",
"> 	c #23FFFF",
", 	c #37FFFF",
"' 	c #4BFFFF",
") 	c #5FFFFF",
"! 	c #73FFFF",
"~ 	c #87FFFF",
"{ 	c #9BFFFF",
"] 	c #AFFFFF",
"^ 	c #C3FFFF",
"/ 	c #D7FFFF",
"( 	c #EBFFFF",
"_ 	c #D1D0C9",
": 	c #5AFFFF",
"< 	c #46FFFF",
"[ 	c #585858",
"} 	c #1DFFFF",
"| 	c #09FFFF",
"1 	c #D2FFFF",
"2 	c #E6FFFF",
"3 	c #E7E5DD",
"4 	c #D4D2C9",
"5 	c #BDBBB0",
"6 	c #A5A397",
"7 	c #CDFFFF",
"8 	c #E1FFFF",
"9 	c #FCFBF5",
"0 	c #F7F6F2",
"a 	c #EFEEE8",
"b 	c #E1DFD7",
"c 	c #CECBC2",
"d 	c #B8B5AA",
"e 	c #A09D91",
"f 	c #868377",
"g 	c #13FFFF",
"h 	c #00FFFF",
"i 	c #27FFFF",
"j 	c #3BFFFF",
"k 	c #4FFFFF",
"l 	c #C7FFFF",
"m 	c #DCFFFF",
"n 	c #FDFBEF",
"o 	c #FEFCF4",
"p 	c #FDFCF8",
"q 	c #FCFCFC",
"r 	c #F6F5F1",
"s 	c #EFEDE5",
"t 	c #E2E0D5",
"u 	c #D3CFC3",
"v 	c #BFBCAE",
"w 	c #A29F90",
"x 	c #7D7A6C",
"y 	c #383838",
"z 	c #FCF8E5",
"A 	c #FDF9EA",
"B 	c #FDFAEF",
"C 	c #FEFCF3",
"D 	c #FEFDF7",
"E 	c #F8F6ED",
"F 	c #F2EFE4",
"G 	c #E8E4D6",
"H 	c #CBC7B8",
"I 	c #616161",
"J 	c #060606",
"K 	c #730E0D",
"L 	c #31FFFF",
"M 	c #6EFFFF",
"N 	c #82FFFF",
"O 	c #96FFFF",
"P 	c #BEFFFF",
"Q 	c #FCF5DA",
"R 	c #FCF6DF",
"S 	c #FCF8E3",
"T 	c #FDF9E8",
"U 	c #FDFAEC",
"V 	c #FDFBF0",
"W 	c #F6F4EB",
"X 	c #F4F2E7",
"Y 	c #F2EFE1",
"Z 	c #EEEAD9",
"` 	c #BBAC9E",
" .	c #0B0B0B",
"..	c #C91C1C",
"+.	c #B20C0C",
"@.	c #960202",
"#.	c #6B0101",
"$.	c #433729",
"%.	c #585444",
"&.	c #90FFFF",
"*.	c #A5FFFF",
"=.	c #B9FFFF",
"-.	c #FCF6DD",
";.	c #FCF7E1",
">.	c #FDF9E9",
",.	c #FCF9EE",
"'.	c #DEDCD1",
").	c #797979",
"!.	c #040404",
"~.	c #D7D2C1",
"{.	c #070707",
"].	c #E43B3B",
"^.	c #D83B3B",
"/.	c #C00909",
"(.	c #AB0000",
"_.	c #950000",
":.	c #4E4030",
"<.	c #777159",
"[.	c #5E411D",
"}.	c #77FFFF",
"|.	c #8CFFFF",
"1.	c #B4FFFF",
"2.	c #FFFFFF",
"3.	c #FCF6DE",
"4.	c #FCF7E2",
"5.	c #CDCABD",
"6.	c #1C1B19",
"7.	c #1E1E1E",
"8.	c #FF1A1A",
"9.	c #C3100F",
"0.	c #131313",
"a.	c #E65757",
"b.	c #DD4C4C",
"c.	c #C50B0B",
"d.	c #B60000",
"e.	c #A40000",
"f.	c #7F0302",
"g.	c #67330E",
"h.	c #A49C7A",
"i.	c #91835E",
"j.	c #7B4F1C",
"k.	c #F8F4DF",
"l.	c #804848",
"m.	c #70080C",
"n.	c #FF5959",
"o.	c #FC4242",
"p.	c #FB0909",
"q.	c #FA0101",
"r.	c #0F0000",
"s.	c #FB3434",
"t.	c #FB2D2D",
"u.	c #FB0404",
"v.	c #D7836E",
"w.	c #CA6E5B",
"x.	c #B75242",
"y.	c #793C10",
"z.	c #C9BE94",
"A.	c #BDB389",
"B.	c #A47B40",
"C.	c #F6F0D9",
"D.	c #2C0808",
"E.	c #FF0000",
"F.	c #FA7878",
"G.	c #F85858",
"H.	c #F50C0C",
"I.	c #F30000",
"J.	c #F70606",
"K.	c #FA0505",
"L.	c #FC0000",
"M.	c #FC392F",
"N.	c #DDA183",
"O.	c #B84D3E",
"P.	c #E2D6A4",
"Q.	c #DBD09D",
"R.	c #CFBA81",
"S.	c #B26817",
"T.	c #FBF5D8",
"U.	c #F6EFD4",
"V.	c #030303",
"W.	c #F72121",
"X.	c #F46262",
"Y.	c #EF4646",
"Z.	c #E80B0B",
"`.	c #E40000",
" +	c #E60000",
".+	c #EC0E0E",
"++	c #F4322D",
"@+	c #FA483F",
"#+	c #FDC09C",
"$+	c #DBA784",
"%+	c #EEE1AC",
"&+	c #EDDFA8",
"*+	c #E9DBA0",
"=+	c #D6A95F",
"-+	c #FBF3D3",
";+	c #F5EECF",
">+	c #C7BBA4",
",+	c #0C0C0C",
"'+	c #EB3B3B",
")+	c #DE3F3F",
"!+	c #CE0000",
"~+	c #DC2D29",
"{+	c #EB9179",
"]+	c #F6BF9F",
"^+	c #FBEFC2",
"/+	c #FDF1C1",
"(+	c #C27259",
"_+	c #F4E7AE",
":+	c #F5E7AA",
"<+	c #F4E4A6",
"[+	c #EED996",
"}+	c #CF7D20",
"|+	c #FAF2CF",
"1+	c #E5DABB",
"2+	c #020202",
"3+	c #CA1414",
"4+	c #B00606",
"5+	c #C80101",
"6+	c #E10000",
"7+	c #F2C19E",
"8+	c #FAEABD",
"9+	c #FDF0BE",
"0+	c #720404",
"a+	c #8B795E",
"b+	c #F5E7AC",
"c+	c #F8E9AB",
"d+	c #F6E7A5",
"e+	c #F6E6A1",
"f+	c #DFA149",
"g+	c #FAF1CB",
"h+	c #F9F0CB",
"i+	c #CFC7A8",
"j+	c #FFDCA8",
"k+	c #967767",
"l+	c #B8A489",
"m+	c #D9C7A0",
"n+	c #EFE3B5",
"o+	c #F9EBBA",
"p+	c #F5E5B1",
"q+	c #C9BD8E",
"r+	c #F8E9AC",
"s+	c #F7E8A8",
"t+	c #F7E7A4",
"u+	c #F7E7A6",
"v+	c #EECE83",
"w+	c #DA9032",
"x+	c #FAF0C7",
"y+	c #CFC6A4",
"z+	c #FFA858",
"A+	c #C05800",
"B+	c #87816A",
"C+	c #B1A98A",
"D+	c #D6CBA3",
"E+	c #EEE0B1",
"F+	c #F9EAB6",
"G+	c #C69E79",
"H+	c #D8CC9B",
"I+	c #E7D89D",
"J+	c #F7E8AB",
"K+	c #F7E6A1",
"L+	c #F7E59D",
"M+	c #F6E499",
"N+	c #D47E1C",
"O+	c #FAEFC2",
"P+	c #644F36",
"Q+	c #DAA884",
"R+	c #F0E3B3",
"S+	c #F8ECB8",
"T+	c #9A5C48",
"U+	c #E2D49A",
"V+	c #F7E8A5",
"W+	c #F7E7A2",
"X+	c #F7E69E",
"Y+	c #F6E59A",
"Z+	c #F6E496",
"`+	c #EBC36D",
" @	c #D27916",
".@	c #0C0600",
"+@	c #6B6550",
"@@	c #948C6D",
"#@	c #C0B38C",
"$@	c #F8EAAF",
"%@	c #C8BB88",
"&@	c #F5E6A3",
"*@	c #F6E59B",
"=@	c #F6E497",
"-@	c #F6E393",
";@	c #F5E28F",
">@	c #D88C2B",
",@	c #595442",
"'@	c #7A735A",
")@	c #A79D79",
"!@	c #CFC395",
"~@	c #E9DBA6",
"{@	c #BFB182",
"]@	c #D1C38B",
"^@	c #F6E290",
"/@	c #F5E18C",
"(@	c #EDC96E",
"_@	c #D37C18",
":@	c #67614A",
"<@	c #8F8665",
"[@	c #BBB084",
"}@	c #DCCE99",
"|@	c #F0E1A5",
"1@	c #F0E0A3",
"2@	c #EBDC9D",
"3@	c #E4D395",
"4@	c #F4E39F",
"5@	c #F6E394",
"6@	c #EDCA71",
"7@	c #D88A28",
"8@	c #CD6B06",
"9@	c #58523D",
"0@	c #797154",
"a@	c #A59A71",
"b@	c #CDC08C",
"c@	c #E8D99D",
"d@	c #F6E6A6",
"e@	c #FBEAA7",
"f@	c #F6E59F",
"g@	c #F6E49C",
"h@	c #FEEB9F",
"i@	c #EDCA73",
"j@	c #D58320",
"k@	c #CC6701",
"l@	c #665F45",
"m@	c #8F8561",
"n@	c #BAAE7E",
"o@	c #DCCD93",
"p@	c #F0E0A0",
"q@	c #F9E8A4",
"r@	c #FCEAA4",
"s@	c #FDEAA2",
"t@	c #FEEBA0",
"u@	c #FEEA9E",
"v@	c #F3DA87",
"w@	c #DA9030",
"x@	c #CD6A05",
"y@	c #797050",
"z@	c #A5996D",
"A@	c #CDBF87",
"B@	c #E7D696",
"C@	c #F5E39E",
"D@	c #FBE8A0",
"E@	c #FDEA9F",
"F@	c #FDE99D",
"G@	c #F6E292",
"H@	c #DB9536",
"I@	c #CC6803",
"J@	c #8E8E8E",
"K@	c #BAAC77",
"L@	c #DCCC8C",
"M@	c #F0DE98",
"N@	c #F9E69C",
"O@	c #FCE99D",
"P@	c #FDE99B",
"Q@	c #F6E395",
"R@	c #ECC670",
"S@	c #DD9A3C",
"T@	c #CC6802",
"U@	c #CCBC7F",
"V@	c #E7D58F",
"W@	c #F5E296",
"X@	c #FBE798",
"Y@	c #FDE898",
"Z@	c #D88B2C",
"`@	c #F6E392",
" #	c #F6E291",
".#	c #D37D1A",
"+#	c #CD6903",
"@#	c #EDCC75",
"##	c #D88B2A",
"$#	c #CC6600",
"                                  . .                           ",
"                              . . + @ .                         ",
"              . . . . . . . . . . . . . . . . . . . . . . . .   ",
"                  . . # $ % & * = - ; > , ' ) ! ~ { ] ^ / ( .   ",
"                  . _ . . : < [ } | | . . . . . . . . . 1 2 .   ",
"              . . 3 4 5 6 . . , > [ - = * . .         . 7 8 .   ",
"          . . 9 0 a b c d e f . . g h [ i j k . .     . l m .   ",
"      . . n o p q r s t u v w x y . . ; > [ ' ) ! . . . ^ / .   ",
"  . . z A B C D p 9 E F G H I J K . . . . L < [ M N O . P 1 .   ",
". Q R S T U V C o W X Y Z `  ...+.@.#.$.%.. . % $ [ &.*.=.7 .   ",
"  . -.;.z >.U ,.'.).!.. ~.{.].^./.(._.. :.<.[.. . }.|.[ 1.l .   ",
"  . 2.3.4.z T 5.6.7.8.9.. 0.a.b.c.d.e.f.g.h.i.j.. . . { ] ^ .   ",
"    . 2.3.;.k.l.m.n.o.p.q.r.s.t.u.v.w.x.y.z.A.B..     . . P .   ",
"    . 2.Q -.C.D.E.F.G.H.I.r.J.K.L.M.N.O.. P.Q.R.S..       . .   ",
"      . 2.T.U.V.W.X.Y.Z.`. +.+++@+L.#+$+. %+&+*+=+.             ",
"      . 2.-+;+>+,+'+)+. . !+~+{+]+^+/+(+. _+:+<+[+}+.           ",
"        . 2.|+1+2+3+. . . 4+5+6+7+8+9+0+a+b+c+d+e+f+.           ",
"        . 2.g+h+i+. j+j+. k+l+m+n+o+p+. q+r+s+t+u+v+w+.         ",
"          . 2.x+y+. z+A+. B+C+D+E+F+G+. H+I+J+K+L+M+N+.         ",
"          . 2.O+. j+z+. P+2+!.Q+R+S+T+a+U+V+W+X+Y+Z+`+ @.@      ",
"            . 2.. z+A+. +@@@#@. . $@. %@&@W+X+*@=@-@;@>@.       ",
"            . . j+z+. ,@'@)@!@~@{@. . ]@W+X+*@=@-@^@/@(@_@.     ",
"              . z+A+. :@<@[@}@|@1@2@3@4@X+*@=@5@^@/@6@7@8@.     ",
"            . j+z+. 9@0@a@b@c@d@e@e+f@g@h@=@-@^@i@j@k@. .       ",
"            . z+A+. l@m@n@o@p@q@r@s@t@u@Z+-@v@w@x@. .           ",
"          . j+z+. [ y@z@A@B@C@D@E@F@=@5@G@H@I@. .               ",
"          . z+A+. . J@K@L@M@N@O@P@Q@R@S@T@. .                   ",
"        . j+z+.   . 2.U@V@W@X@Y@R@Z@x@. .                       ",
"        . z+A+.     . 2.-@`@ #.#+#. .                           ",
"          . .       . 2.@###$#. .                               ",
"                      . $#. .                                   ",
"                      . .                                       "};
