/* XPM */
static char * kooka_xpm[] = {
"32 32 153 2",
"  	c None",
". 	c #C6C6C6",
"+ 	c #D4D4D4",
"@ 	c #D8D8D8",
"# 	c #E5E5E5",
"$ 	c #D9D9D9",
"% 	c #C9C9C9",
"& 	c #909090",
"* 	c #ABABAB",
"= 	c #D7D7D7",
"- 	c #F1F1F1",
"; 	c #F0F0F0",
"> 	c #EEEEEE",
", 	c #EAEAEA",
"' 	c #D3D3D3",
") 	c #DADADA",
"! 	c #919191",
"~ 	c #676767",
"{ 	c #B9B9B9",
"] 	c #CCCCCC",
"^ 	c #FEFEFE",
"/ 	c #B4B4B4",
"( 	c #B1B1B1",
"_ 	c #CECECE",
": 	c #898989",
"< 	c #9C9C9C",
"[ 	c #AFAFAF",
"} 	c #E6E6E6",
"| 	c #F8F8F8",
"1 	c #BFBFBF",
"2 	c #363636",
"3 	c #3E3E3E",
"4 	c #5F5F5F",
"5 	c #565656",
"6 	c #7B7B7B",
"7 	c #D2D2D2",
"8 	c #ECECEC",
"9 	c #FCFCFC",
"0 	c #F9F9F9",
"a 	c #A4A4A4",
"b 	c #626262",
"c 	c #373737",
"d 	c #393939",
"e 	c #3F3F3F",
"f 	c #555555",
"g 	c #4B4B4B",
"h 	c #E8E8E8",
"i 	c #F2F2F2",
"j 	c #E9E9E9",
"k 	c #FDFDFD",
"l 	c #E7E7E7",
"m 	c #7F7F7F",
"n 	c #2E2E2E",
"o 	c #595959",
"p 	c #4E4E4E",
"q 	c #434343",
"r 	c #3B3B3B",
"s 	c #505050",
"t 	c #808080",
"u 	c #848484",
"v 	c #8B8B8B",
"w 	c #A3A3A3",
"x 	c #B8B8B8",
"y 	c #C5C5C5",
"z 	c #F6F6F6",
"A 	c #F4F4F4",
"B 	c #A5A5A5",
"C 	c #2D2D2D",
"D 	c #1A1A1A",
"E 	c #1C1C1C",
"F 	c #FAFAFA",
"G 	c #D0D0D0",
"H 	c #1B1B1B",
"I 	c #282828",
"J 	c #444444",
"K 	c #BABABA",
"L 	c #212121",
"M 	c #232323",
"N 	c #2A2A2A",
"O 	c #303030",
"P 	c #343434",
"Q 	c #E2E2E2",
"R 	c #E4E4E4",
"S 	c #1D1D1D",
"T 	c #2B2B2B",
"U 	c #3A3A3A",
"V 	c #333333",
"W 	c #262626",
"X 	c #C7C7C7",
"Y 	c #E3E3E3",
"Z 	c #404040",
"` 	c #585858",
" .	c #484848",
"..	c #2F2F2F",
"+.	c #D5D5D5",
"@.	c #929292",
"#.	c #515151",
"$.	c #525252",
"%.	c #474747",
"&.	c #F5F5F5",
"*.	c #BCBCBC",
"=.	c #4C4C4C",
"-.	c #616161",
";.	c #323232",
">.	c #ACACAC",
",.	c #4A4A4A",
"'.	c #383838",
").	c #EBEBEB",
"!.	c #AAAAAA",
"~.	c #252525",
"{.	c #424242",
"].	c #313131",
"^.	c #A2A2A2",
"/.	c #A0A0A0",
"(.	c #2C2C2C",
"_.	c #3D3D3D",
":.	c #535353",
"<.	c #464646",
"[.	c #454545",
"}.	c #DCDCDC",
"|.	c #EFEFEF",
"1.	c #272727",
"2.	c #494949",
"3.	c #7C7C7C",
"4.	c #F3F3F3",
"5.	c #5A5A5A",
"6.	c #D6D6D6",
"7.	c #9A9A9A",
"8.	c #606060",
"9.	c #A8A8A8",
"0.	c #B5B5B5",
"a.	c #545454",
"b.	c #878787",
"c.	c #838383",
"d.	c #6B6B6B",
"e.	c #868686",
"f.	c #EDEDED",
"g.	c #BDBDBD",
"h.	c #777777",
"i.	c #3C3C3C",
"j.	c #707070",
"k.	c #6E6E6E",
"l.	c #1F1F1F",
"m.	c #1E1E1E",
"n.	c #242424",
"o.	c #181818",
"p.	c #575757",
"q.	c #202020",
"r.	c #686868",
"s.	c #5B5B5B",
"t.	c #111111",
"u.	c #4D4D4D",
"v.	c #4F4F4F",
"      . + @ # $ % &                                             ",
"  * = - - ; > , ' ) ! ~                                         ",
"  { ] > ^ > / ( . _ $ :                                         ",
"  < [ } | 1 ~ 2 3 4 5 5 6                                       ",
"  7 8 9 ^ 0 - + # a b c d e f g 4                               ",
"  $ h 0 i > j 8 k l m n o f p q e r s                           ",
"t u v w x y z 9 ^ A B                                           ",
"C D D E r m _ F ^ 0 G                                           ",
"D D D H I C J K k ^ j                                           ",
"D L M N N O P q Q F R B                                         ",
"S T U P d V N W X - Y v                                         ",
"D d Z 3 `  .I ..+.9 A @.                                        ",
"D L ..#.$.%.e 3 $ &.*.                                          ",
"D L =.-.U ;.2  .) &.>.                                          ",
"D d o ` ,.U '.~ ).&.!.                                          ",
"~.p V Z {.f ].^.k i /.                                          ",
"2 s (._.:.<.[.}.&.|.&                                           ",
"1.2 ;.g [.2.3.j 4.%                                             ",
"D ;.5.f [.~ 6.0 Q 7.                                            ",
"S e 8.4 5.9.- - 0.                                              ",
"V =.#.a.b.- 4.Q c.                                              ",
"=.e ,.d.j ^ 4.{                                                 ",
"c C 8.j ^ ^ A e.                                                ",
"V  .d.0 ^ ^ f.c.                                                ",
"q J 8.A | } g.h.                                                ",
"i.J j.k.$.2.C ;.e #.                                            ",
"Z d l.I m.1.;.o %.q                                             ",
"n.o.p.$.q.S C ,.{._. .r.                                        ",
"s.      r L t.{.` f $.:.$.u.                                    ",
"            n.S v.%. .#.%.J                                     ",
"              q C n T $.`                                       ",
"                  Z q.N                                         "};
