/* XPM */
static char * korganizer_xpm[] = {
"32 32 15 1",
" 	c None",
".	c #000000",
"+	c #C0C0C0",
"@	c #FFFFFF",
"#	c #808080",
"$	c #595959",
"%	c #A0A0A4",
"&	c #008000",
"*	c #FFFF00",
"=	c #FFBEBE",
"-	c #BEBEFF",
";	c #FFFFBE",
">	c #BE5900",
",	c #FFAA59",
"'	c #003C00",
"                                ",
" &&&&&&&&&&&&&&''&&&&&&&&&&&&&& ",
" &+++++++++++++#+++++++++++++#' ",
" &+@@@@@@@@@@@@#+@@@@@@@@@@@@#' ",
" &+@--@@@@@@@@@#+@@@@@@@@@--@#' ",
" &+@--@@@@@@@@@#+@@@@@@@@@--@#' ",
" &+@@@@@@@@@@@@#+@@@@@@..@@@@#' ",
" &+@@@@@@@@@@@@#+@@@@@.;*.@@@#' ",
" &+@@@@@@@@@@;;;;;;@@.;*,>.@@#' ",
" &+@++++++++@......@.;*,>.%+@#' ",
" &+@@@@@@@@@@@@#+@@.;*,>.%+@@#' ",
" &+@--@@@@@@@@@#+@.;*,>.%+--@#' ",
" &+@--@@@@@@@@@#+.;*,>.%+@--@#' ",
" &+@@@@@@@@@@@@#.;*,>.%+@@@@@#' ",
" &+@@@@@@@@@@@@.;*,>.%+@@@@@@#' ",
" &+@@@@@@@@@@;.;*,>.%+@@@@@@@#' ",
" &+@++++++++@.;*,>.%++++++++@#' ",
" &+@@@@@@@@@.;*,>.%+@@@@@@@@@#' ",
" &+@--@@@@@.;*,>.%+@@@@@@@--@#' ",
" &+@--@@@@.;*,>.%+@@@@@@@@--@#' ",
" &+@@@@@@.;*,>.#+@@@@@@@@@@@@#' ",
" &+@@@@@.;*,>.%#+@@@@@@@@@@@@#' ",
" &+@@@@.+*,>.;;;;;;@@@@@@@@@@#' ",
" &+@+++.#+>.%......@++++++++@#' ",
" &+@@@@....%+@@#+@@@@@@@@@@@@#' ",
" &+@--@$##%+@@@#+@@@@@@@@@==@#' ",
" &+@--@@@@@@@@@#+@@@@@@@@@==@#' ",
" &+@@@@@@@@@@@@#+@@@@@@@@@@@@#' ",
" &+@@@@@@@@@@@@#+@@@@@@@@@@@@#' ",
" &+#############+#############' ",
" &'''''''''''''..'''''''''''''' ",
"                                "};
