/* XPM */
static char * kpresenter_xpm[] = {
"32 32 299 2",
"  	c None",
". 	c #000000",
"+ 	c #F2BBF2",
"@ 	c #F3A9F3",
"# 	c #E69EE6",
"$ 	c #DB3EDB",
"% 	c #D557D5",
"& 	c #CF81CF",
"* 	c #DAB1DA",
"= 	c #BC50BC",
"- 	c #A904A9",
"; 	c #9F029F",
"> 	c #901190",
", 	c #A143A1",
"' 	c #BA75BA",
") 	c #8DD5D5",
"! 	c #3EAAAA",
"~ 	c #F7F7D5",
"{ 	c #F6F6C3",
"] 	c #F7F7BA",
"^ 	c #F9F9BA",
"/ 	c #F7F7B9",
"( 	c #F5F5B8",
"_ 	c #F4F4B8",
": 	c #F1F1B8",
"< 	c #FF0000",
"[ 	c #90DDDD",
"} 	c #3ABEBE",
"| 	c #0BA9A9",
"1 	c #009C9C",
"2 	c #005F5F",
"3 	c #F5F5BF",
"4 	c #BABA8B",
"5 	c #474708",
"6 	c #F5F5CE",
"7 	c #EFEF9D",
"8 	c #EBEB6D",
"9 	c #EEEE6B",
"0 	c #EBEB69",
"a 	c #E5F9F9",
"b 	c #CAF2F2",
"c 	c #88E1E1",
"d 	c #04B5B5",
"e 	c #00AEAE",
"f 	c #00A9A9",
"g 	c #00A2A2",
"h 	c #006767",
"i 	c #F3F3BD",
"j 	c #A8A87B",
"k 	c #484809",
"l 	c #F0F0B3",
"m 	c #E1E15A",
"n 	c #D9D900",
"o 	c #DCDC00",
"p 	c #E4FBFB",
"q 	c #BEF4F4",
"r 	c #86E9E9",
"s 	c #34D7D7",
"t 	c #13CBCB",
"u 	c #03C2C2",
"v 	c #00B6B6",
"w 	c #00B0B0",
"x 	c #00A5A5",
"y 	c #007B7B",
"z 	c #E6E68A",
"A 	c #A4A46C",
"B 	c #474706",
"C 	c #EBEBA5",
"D 	c #EDFDFD",
"E 	c #C9FAFA",
"F 	c #79F0F0",
"G 	c #2CE5E5",
"H 	c #05DADA",
"I 	c #00D5D5",
"J 	c #00CFCF",
"K 	c #00CACA",
"L 	c #00C4C4",
"M 	c #00A79E",
"N 	c #00B2B2",
"O 	c #00ACAC",
"P 	c #00A6A6",
"Q 	c #009494",
"R 	c #005A5A",
"S 	c #A2A266",
"T 	c #494909",
"U 	c #F9FEFE",
"V 	c #D9FCFC",
"W 	c #8DF9F9",
"X 	c #35F3F3",
"Y 	c #0AEDED",
"Z 	c #01E8E8",
"` 	c #00E3E3",
" .	c #00DDDD",
"..	c #00D7D7",
"+.	c #00D1D1",
"@.	c #00C8C7",
"#.	c #FFFF00",
"$.	c #00917F",
"%.	c #00ADAD",
"&.	c #00A7A7",
"*.	c #00A0A0",
"=.	c #006464",
"-.	c #A2A265",
";.	c #BC7BBC",
">.	c #F6FEFE",
",.	c #CAFAFA",
"'.	c #71F6F6",
").	c #21F6F6",
"!.	c #03F7F7",
"~.	c #00F5F5",
"{.	c #00F0F0",
"].	c #00EBEB",
"^.	c #00E5E5",
"/.	c #00DFDF",
"(.	c #00CBC5",
"_.	c #00D3D3",
":.	c #FFFFFF",
"<.	c #007474",
"[.	c #C0C080",
"}.	c #4C4C0A",
"|.	c #902290",
"1.	c #FAFEFE",
"2.	c #F3FDFD",
"3.	c #96F4F4",
"4.	c #26EEEE",
"5.	c #04F2F2",
"6.	c #00F7F7",
"7.	c #00FAFA",
"8.	c #00F2F2",
"9.	c #00ECEC",
"0.	c #005959",
"a.	c #4F4F0B",
"b.	c #98F2F2",
"c.	c #16E7E7",
"d.	c #01EBEB",
"e.	c #0099CC",
"f.	c #3FC677",
"g.	c #00EA00",
"h.	c #00A851",
"i.	c #00AC32",
"j.	c #005A29",
"k.	c #00A8A8",
"l.	c #009999",
"m.	c #006363",
"n.	c #4B4B02",
"o.	c #FBFEFE",
"p.	c #76ECEC",
"q.	c #00E8E8",
"r.	c #00EDED",
"s.	c #00B644",
"t.	c #00CC2E",
"u.	c #00D609",
"v.	c #009B9B",
"w.	c #007171",
"x.	c #484800",
"y.	c #8BEEEE",
"z.	c #00E0E0",
"A.	c #00E4E4",
"B.	c #80D115",
"C.	c #00BC11",
"D.	c #004305",
"E.	c #00CF00",
"F.	c #00912E",
"G.	c #008923",
"H.	c #007B60",
"I.	c #009A9A",
"J.	c #008282",
"K.	c #005656",
"L.	c #B0F2F2",
"M.	c #01DBDB",
"N.	c #00D100",
"O.	c #006626",
"P.	c #A0A0A0",
"Q.	c #339966",
"R.	c #00C80E",
"S.	c #004204",
"T.	c #009F9F",
"U.	c #008C8C",
"V.	c #CCF6F6",
"W.	c #0AD8D8",
"X.	c #00DADA",
"Y.	c #005510",
"Z.	c #00F900",
"`.	c #005B21",
" +	c #80ED0E",
".+	c #00E600",
"++	c #005A2C",
"@+	c #00928B",
"#+	c #009090",
"$+	c #006161",
"%+	c #2CD9D9",
"&+	c #00E58F",
"*+	c #00BC24",
"=+	c #004A0E",
"-+	c #0000FF",
";+	c #00E800",
">+	c #005A20",
",+	c #80EA11",
"'+	c #00872A",
")+	c #008F20",
"!+	c #005C31",
"~+	c #009595",
"{+	c #008F8F",
"]+	c #007777",
"^+	c #005353",
"/+	c #70E2E2",
"(+	c #06D0D0",
"_+	c #00EC00",
":+	c #80D117",
"<+	c #00F500",
"[+	c #009234",
"}+	c #008730",
"|+	c #00A117",
"1+	c #005218",
"2+	c #00CF08",
"3+	c #004102",
"4+	c #008E8A",
"5+	c #008D8D",
"6+	c #008585",
"7+	c #005858",
"8+	c #BEF0F0",
"9+	c #2AD2D2",
"0+	c #00CCCC",
"a+	c #80F526",
"b+	c #009E27",
"c+	c #005818",
"d+	c #00CA22",
"e+	c #00581E",
"f+	c #00DB00",
"g+	c #005217",
"h+	c #80E00D",
"i+	c #00F100",
"j+	c #00592D",
"k+	c #006F54",
"l+	c #5DD9D9",
"m+	c #03C6C6",
"n+	c #00BF08",
"o+	c #00EF00",
"p+	c #005C23",
"q+	c #80E40F",
"r+	c #00FC00",
"s+	c #00892B",
"t+	c #007724",
"u+	c #008888",
"v+	c #008383",
"w+	c #006E6E",
"x+	c #005151",
"y+	c #9DE6E6",
"z+	c #17C5C5",
"A+	c #00490C",
"B+	c #00D200",
"C+	c #005B19",
"D+	c #009F39",
"E+	c #007D28",
"F+	c #008A8A",
"G+	c #008080",
"H+	c #007373",
"I+	c #004D4D",
"J+	c #D9F4F4",
"K+	c #00FF00",
"L+	c #00882E",
"M+	c #80C317",
"N+	c #009221",
"O+	c #004D0F",
"P+	c #008579",
"Q+	c #008C88",
"R+	c #008484",
"S+	c #007272",
"T+	c #006060",
"U+	c #004B4B",
"V+	c #00D91E",
"W+	c #004203",
"X+	c #008676",
"Y+	c #007E7E",
"Z+	c #007070",
"`+	c #005C5C",
" @	c #005252",
".@	c #00A3A3",
"+@	c #009D9D",
"@@	c #009898",
"#@	c #007979",
"$@	c #006565",
"%@	c #404000",
"&@	c #4AC1C1",
"*@	c #00A1A1",
"=@	c #009292",
"-@	c #006B6B",
";@	c #9BDADA",
">@	c #03A3A3",
",@	c #009797",
"'@	c #007878",
")@	c #005B5B",
"!@	c #DCF1F1",
"~@	c #21A8A8",
"{@	c #006868",
"]@	c #585858",
"^@	c #A4BDBD",
"/@	c #358484",
"(@	c #005454",
"                                                                ",
"                    . .                                         ",
"                  . + @ . .                                     ",
"                  . # $ % & . .                                 ",
"                . * = - ; > , ' . .       . . .                 ",
"          . . . . . . . . . . . . . . . . ) ! . . . . .         ",
"        . ~ { ] ^ ^ ^ / ( _ : . . . < [ } | 1 2 . 3 4 5 .       ",
"        . 6 7 8 9 9 9 0 . . . a b c < d e f g h . i j k .       ",
"        . l m n o . . . p q r s t u < v w . x y . z A B .       ",
"        . C . . . D E F G H I J K L < M N O P Q R . S T . .     ",
"        . . U V W X Y Z `  ...+.@.< #.< $.%.&.*.=.. -.T . ;..   ",
"    . . >.,.'.).!.~.{.].^./.(._.< #.:.#.< e . g <.. [.}.. |..   ",
"  . 1.2.3.4.5.6.7.6.8.9.< < < < #.:.:.:.#.< < < < 0.. a.. .     ",
"  . U b.c.d.{.~.6.e.e.e.f.g.h.i.< #.:.#.< j.k.g l.m.. n.. .     ",
"  . o.p.` q.r.{.e.:.:.s.:.:.t.. #.< #.< u.j.&.. v.w.. x..       ",
"    . y.z.A.q.].e.#.B.C.D.#.. :.. E.< F.#.G.H.*.I.J.K.. .       ",
"    . L.M.z.` e.e.e.#.N.O.. :.P.. #.< Q.#.R.S.T.l.U.0.. .       ",
"    . V.W.X.e.:.:.Y.#.Z.. :.P.. `.#.< Q. +.+++@+. #+$+. .       ",
"      . %+I e.&+#.*+=+. -+P.. ;+>+,+< Q.'+#.)+!+~+{+]+^+.       ",
"      . /+(++.e.#._+. -+. . :+<+[+}+#.|+1+#.2+3+4+5+6+7+.       ",
"      . 8+9+0+e.a+. -+. . b+c+#.d+e+#.f+g+h+i+j+k+. 6+m..       ",
"        . l+m+e.. -+. . #.n+3+#.o+p+q+r+s+t+#.. . u+v+w+x+.     ",
"        . y+z+. -+. . A+#.B+C+B.r+D+E+#.. . . {+F+6+G+H+I+.     ",
"        . J+. -+. . K+L+M+K+N+O+#.. . . I.P+Q+U.R+S+T+^+U+.     ",
"          . -+. . e.#.V+W+#.. . . g X+I.~+F+Y+Z+`+ @. . .       ",
"        . -+. . e e.#.. . . P .@*.+@@@5+#@$@7+. . . %@%@.       ",
"      . :.. . &@k.. . P x .@*@+@=@#@-@T+. . . . . . . .         ",
"    . :.P.. . ;@>@g *.l.,@5+'@h )@. . .                         ",
"  . :.P..   . !@~@I.u+{@2 R . . .                               ",
". ]@P..     . ^@/@=.(@. . .                                     ",
". ]@.         . . . .                                           ",
"  .                                                             "};
