/* XPM */
static char * kspread_xpm[] = {
"32 32 162 2",
"  	c None",
". 	c #000000",
"+ 	c #008787",
"@ 	c #007F7F",
"# 	c #009898",
"$ 	c #009191",
"% 	c #008989",
"& 	c #008282",
"* 	c #00AAAA",
"= 	c #00A2A2",
"- 	c #009393",
"; 	c #008C8C",
"> 	c #008484",
", 	c #00BBBB",
"' 	c #00B4B4",
") 	c #00ACAC",
"! 	c #00A5A5",
"~ 	c #009595",
"{ 	c #008E8E",
"] 	c #00CDCD",
"^ 	c #00C5C5",
"/ 	c #00B6B6",
"( 	c #00AEAE",
"_ 	c #00A6A6",
": 	c #009F9F",
"< 	c #ADADAD",
"[ 	c #AEAEAE",
"} 	c #AFAFAF",
"| 	c #00DEDE",
"1 	c #00D6D6",
"2 	c #00CFCF",
"3 	c #00C7C7",
"4 	c #00B7B7",
"5 	c #00AFAF",
"6 	c #B1B1B1",
"7 	c #B3B3B3",
"8 	c #B5B5B5",
"9 	c #B6B6B6",
"0 	c #00EFEF",
"a 	c #00E7E7",
"b 	c #00D7D7",
"c 	c #00BFBF",
"d 	c #B2B2B2",
"e 	c #BABABA",
"f 	c #BBBBBB",
"g 	c #BCBCBC",
"h 	c #BDBDBD",
"i 	c #00F7F7",
"j 	c #00F3F3",
"k 	c #00EDED",
"l 	c #00E6E6",
"m 	c #B7B7B7",
"n 	c #C0C0C0",
"o 	c #C2C2C2",
"p 	c #00E8E8",
"q 	c #00E2E2",
"r 	c #00DBDB",
"s 	c #A5A5A5",
"t 	c #AAAAAA",
"u 	c #B8B8B8",
"v 	c #C4C4C4",
"w 	c #C9C9C9",
"x 	c #CACACA",
"y 	c #A3A3A3",
"z 	c #A9A9A9",
"A 	c #CFCFCF",
"B 	c #D0D0D0",
"C 	c #00DFDF",
"D 	c #00D2D2",
"E 	c #00CCCC",
"F 	c #ACACAC",
"G 	c #CBCBCB",
"H 	c #D2D2D2",
"I 	c #D6D6D6",
"J 	c #D7D7D7",
"K 	c #D5D5D5",
"L 	c #00D4D4",
"M 	c #00D1D1",
"N 	c #00C6C6",
"O 	c #B0B0B0",
"P 	c #D4D4D4",
"Q 	c #D8D8D8",
"R 	c #DDDDDD",
"S 	c #DEDEDE",
"T 	c #00C9C9",
"U 	c #00C1C1",
"V 	c #585858",
"W 	c #E1E1E1",
"X 	c #E3E3E3",
"Y 	c #00C2C2",
"Z 	c #FFFFFF",
"` 	c #C3C3C3",
" .	c #B9B9B9",
"..	c #EBEBEB",
"+.	c #EAEAEA",
"@.	c #E7E7E7",
"#.	c #00BEBE",
"$.	c #FFC500",
"%.	c #FFBE00",
"&.	c #FFB600",
"*.	c #FFAF00",
"=.	c #FFA700",
"-.	c #ECD858",
";.	c #FFFFC0",
">.	c #E9E9E9",
",.	c #F0F0F0",
"'.	c #ECECEC",
").	c #FFDCA8",
"!.	c #C05800",
"~.	c #994400",
"{.	c #FFA200",
"].	c #FF9B00",
"^.	c #FF9300",
"/.	c #E0E0E0",
"(.	c #808080",
"_.	c #FFD200",
":.	c #008080",
"<.	c #FFCD00",
"[.	c #00D9D9",
"}.	c #FFC800",
"|.	c #FFA858",
"1.	c #00F5F5",
"2.	c #FFD900",
"3.	c #FFCA00",
"4.	c #FFC300",
"5.	c #FFBB00",
"6.	c #FFB400",
"7.	c #FFAC00",
"8.	c #FFA500",
"9.	c #FF9D00",
"0.	c #A0A0A0",
"a.	c #00C4C4",
"b.	c #00D3D3",
"c.	c #00E3E3",
"d.	c #FFC000",
"e.	c #004343",
"f.	c #F0F3F3",
"g.	c #646464",
"h.	c #017B7B",
"i.	c #007E7E",
"j.	c #001010",
"k.	c #003D3D",
"l.	c #FFA000",
"m.	c #FF9800",
"n.	c #000303",
"o.	c #003B3B",
"p.	c #004040",
"q.	c #FFB100",
"r.	c #007979",
"s.	c #002E2E",
"t.	c #002929",
"u.	c #003F3F",
"v.	c #F0DC5C",
"w.	c #FF7F00",
"x.	c #005151",
"y.	c #E0BC38",
"z.	c #C08400",
"A.	c #FF8C00",
"B.	c #BC8000",
"C.	c #D09C14",
"D.	c #804400",
"E.	c #8C5000",
"                                  . .                           ",
"                              . . + @ .                         ",
"                          . . # $ % & .                         ",
"                      . . * = . - ; > @ .                       ",
"                  . . , ' ) ! . ~ { . . .                       ",
"              . . ] ^ . / ( _ : . . < [ } .                     ",
"          . . | 1 2 3 . 4 5 . . . 6 7 8 9 .                     ",
"      . . 0 a . b 2 3 c . . [ d 8 . e f g h .                   ",
"  . . i j k l . 1 2 . . . } 7 m f . n o . . .                   ",
". p k 0 k p q r . . s t } . u h n v . . w x w .                 ",
"  . l a l q . . . y z [ 7 . h o . . . A B B B .                 ",
"  . | C . . b D E . F d m h . . G A H . I J I K .               ",
"    . . 1 L M E N . t O 9 . . G B P Q . R S . . .               ",
"    . 2 2 ] T U . . . . . V f . B Q S W . . X W S .             ",
"      . 3 Y . V Z Z Z Z Z ` . .  .B . . . ..+.@.X .             ",
"      . #.. Z Z $.$.%.&.*.=.-.;.. . . >.,.. ,.'.@.W .           ",
"        . V Z ).!.!.~.~.~.{.].^.^.. 8 /.(.. (.,.+.X .           ",
"        . Z _.!.. . . . . ~.~.~.~.. . . :.. . (.. .             ",
"    . . . ;.<.~.. . . . . . . . . . :.:.[.:.:.. .               ",
"  . Z ;.Z }.}.|.;.;.;.;.;.;.. . :.:.3 1 l 1.Z Z (.. .           ",
"  . ;.2._.3.4.5.6.7.8.9.!.. 0.:.' a.b.c.Z Z (.. (.Z (.. .       ",
". ~.~.~.|.$.~.~.~.~.~.~.~.. . Z 0.0.Z Z (.. (.Z (.(.. (.Z . .   ",
"  . . . ;.d.~.. . . . . . . @ @ e.f.0.. (.Z (.(.. (.Z (.. (.(.. ",
"  . Z ;.Z 5.|.;.;.;.;.;.. g.. . h.i.e.f.0.0.. (.Z (.. (.(.j.k.. ",
"  . ;.$.%.&.*.=.l.m.m.!..       . . @ i.e.0.Z (.. (.(.n.o.p..   ",
". ~.~.~.|.q.~.~.~.~.~..       . ;.. . . @ r.s.(.(.t.u.p.. .     ",
"  . . . v.7.8.~.. . .     . . ;.w..     . . @ x.u.p.. .         ",
"        . l.l.m.~.. . . . v.;.w.w..         . . . .             ",
"        . y.z.^.A.B.B.C.y.w.w.w.~..                             ",
"          . D.w.w.w.w.w.w.w.~.~..                               ",
"            . . E.~.~.~.~.~.. .                                 ",
"                . . . . . .                                     "};
