/* XPM */
static char * ldap_xpm[] = {
"32 32 160 2",
"  	c None",
". 	c #B9002F",
"+ 	c #BB0B39",
"@ 	c #BF1541",
"# 	c #B90030",
"$ 	c #11457E",
"% 	c #C1113F",
"& 	c #C10F3D",
"* 	c #C31945",
"= 	c #C31A45",
"- 	c #C1113E",
"; 	c #C2103E",
"> 	c #CF2D57",
", 	c #D32F5A",
"' 	c #D9446A",
") 	c #D22E58",
"! 	c #CC2852",
"~ 	c #C00C3A",
"{ 	c #B3002E",
"] 	c #BB0837",
"^ 	c #CC244F",
"/ 	c #D73961",
"( 	c #DC4B70",
"_ 	c #DB4B70",
": 	c #D53760",
"< 	c #C91C49",
"[ 	c #B6002B",
"} 	c #B4002D",
"| 	c #AB0B33",
"1 	c #AF0833",
"2 	c #C3234D",
"3 	c #CC3159",
"4 	c #CA2F57",
"5 	c #CC3058",
"6 	c #C11D47",
"7 	c #A90024",
"8 	c #BA3859",
"9 	c #AA0B30",
"0 	c #AC0430",
"a 	c #BE1E47",
"b 	c #C62851",
"c 	c #C5244D",
"d 	c #C62750",
"e 	c #BC1741",
"f 	c #A60020",
"g 	c #B93658",
"h 	c #B00029",
"i 	c #B4012F",
"j 	c #BB123E",
"k 	c #C4204A",
"l 	c #CD2A54",
"m 	c #CD2853",
"n 	c #C31C47",
"o 	c #B80836",
"p 	c #AE0020",
"q 	c #B3002F",
"r 	c #BB0C39",
"s 	c #BD1741",
"t 	c #BF0F3C",
"u 	c #CB1D4A",
"v 	c #CB1C49",
"w 	c #BE0C3A",
"x 	c #BC0F3C",
"y 	c #BA0838",
"z 	c #BA0A38",
"A 	c #B70028",
"B 	c #BF002F",
"C 	c #BF0030",
"D 	c #B90029",
"E 	c #BB0A38",
"F 	c #B2002F",
"G 	c #AA1841",
"H 	c #AE234A",
"I 	c #B2002E",
"J 	c #6F7684",
"K 	c #C4A543",
"L 	c #C2A23F",
"M 	c #C2A240",
"N 	c #C2A33F",
"O 	c #C1A23F",
"P 	c #C1A240",
"Q 	c #BD9C38",
"R 	c #BD9D38",
"S 	c #BE9C39",
"T 	c #BD9C39",
"U 	c #B99732",
"V 	c #B5912A",
"W 	c #B4912A",
"X 	c #B5902A",
"Y 	c #B5912B",
"Z 	c #B08B24",
"` 	c #B18B23",
" .	c #B08B23",
"..	c #64A67E",
"+.	c #6BAB84",
"@.	c #217C36",
"#.	c #368A49",
"$.	c #489457",
"%.	c #489458",
"&.	c #388B4B",
"*.	c #217C37",
"=.	c #1E7C37",
"-.	c #65A66C",
";.	c #72AD6F",
">.	c #89B879",
",.	c #88B879",
"'.	c #70AC6E",
").	c #63A56B",
"!.	c #1F7B36",
"~.	c #2D8545",
"{.	c #63A666",
"].	c #80B675",
"^.	c #96C17F",
"/.	c #95C07F",
"(.	c #7EB574",
"_.	c #60A364",
":.	c #2B8343",
"<.	c #3F855D",
"[.	c #30894B",
"}.	c #5EA361",
"|.	c #74AF6C",
"1.	c #70AC6B",
"2.	c #74AE6C",
"3.	c #5CA05F",
"4.	c #288143",
"5.	c #579C72",
"6.	c #3D845C",
"7.	c #2C8647",
"8.	c #569C5C",
"9.	c #69A665",
"0.	c #65A463",
"a.	c #6AA665",
"b.	c #549A5A",
"c.	c #237E40",
"d.	c #559A70",
"e.	c #006224",
"f.	c #237C3E",
"g.	c #4B9255",
"h.	c #629E60",
"i.	c #74A768",
"j.	c #74A668",
"k.	c #5F9D5F",
"l.	c #489154",
"m.	c #22793C",
"n.	c #1A7334",
"o.	c #4D925B",
"p.	c #519358",
"q.	c #659C60",
"r.	c #649C60",
"s.	c #509257",
"t.	c #4B915B",
"u.	c #1A7434",
"v.	c #1B7534",
"w.	c #297D3F",
"x.	c #378449",
"y.	c #37844A",
"z.	c #2B7E41",
"A.	c #1C7535",
"B.	c #5C9C72",
"C.	c #64A179",
"      . + @ #               $ $                                 ",
"    % & * = & -             $ $                                 ",
"  ; > , ' ' ) ! ~           $ $                                 ",
"{ ] ^ / ( _ : < [ }         $ $                                 ",
"| 1 2 3 4 4 5 6 7 8         $ $             $ $ $ $             ",
"9 0 a b c c d e f g         $ $             $ $ $ $ $           ",
"h i j k l m n o p q         $ $ $ $ $ $     $ $     $ $         ",
"  r s t u v w x y           $ $ $ $ $ $     $ $     $ $         ",
"    z A B C D E                             $ $     $ $         ",
"      F G H I                               $ $     $ $         ",
"        J J                                 $ $ $ $ $           ",
"        J J                                 $ $ $ $             ",
"        J J             K K K K K K                     $ $     ",
"        J J             L M N O P L                   $ $ $ $   ",
"        J J J J J J J J Q R     S T                 $ $     $ $ ",
"        J J J J J J J J U U     U U                 $ $     $ $ ",
"        J J             V W W W X Y                 $ $ $ $ $ $ ",
"        J J             Z `  .Z  . .                $ $ $ $ $ $ ",
"        J J                                         $ $     $ $ ",
"        J J                                         $ $     $ $ ",
"        J J                 ..+.                                ",
"        J J             @.#.$.%.&.*.                            ",
"        J J           =.-.;.>.,.'.).!.              $ $ $ $     ",
"        J J           ~.{.].^./.(._.:.              $ $ $ $ $   ",
"        J J J J J J <.[.}.|.1.1.2.3.4.5.            $ $     $ $ ",
"        J J J J J J 6.7.8.9.0.0.a.b.c.d.            $ $     $ $ ",
"        J J         e.f.g.h.i.j.k.l.m.              $ $ $ $ $   ",
"        J J           n.o.p.q.r.s.t.u.              $ $ $ $     ",
"        J J             v.w.x.y.z.A.                $ $         ",
"        J J                 B.C.                    $ $         ",
"        J J                                                     ",
"        J J                                                     "};
