/* XPM */
static char * letter_xpm[] = {
"32 32 4 1",
" 	c None",
".	c #808080",
"+	c #000000",
"@	c #FFFFFF",
"                                ",
"                                ",
"                                ",
"                                ",
"                                ",
".+++++++++++++++++++++++++++++. ",
"+@@@@@@@@@@@@@@@@@@@@@@@@@@@@@+.",
"+@@@@@@@@@@@@@@@@@@@@@@@@@@@@@+.",
"++@@@@@@@@@@@@@@@@@@@@@@@@@@@++.",
"+@+@@@@@@@@@@@@@@@@@@@@@@@@@+@+.",
"+@@+@@@@@@@@@@@@@@@@@@@@@@@+@@+.",
"+@@@+@@@@@@@@@@@@@@@@@@@@@+@@@+.",
"+@@@@+@@@@@@@@@@@@@@@@@@@+@@@@+.",
"+@@@@@+@@@@@@@@@@@@@@@@@+@@@@@+.",
"+@@@@@@+@@@@@@@@@@@@@@@+@@@@@@+.",
"+@@@@@@@+@@@@@@@@@@@@@+@@@@@@@+.",
"+@@@@@@@@+@@@@@@@@@@@+@@@@@@@@+.",
"+@@@@@@@@@+@@@@@@@@@+@@@@@@@@@+.",
"+@@@@@@@@+@+@@@@@@@+@+@@@@@@@@+.",
"+@@@@@@@+@@@+.@@@.+@@@+@@@@@@@+.",
"+@@@@@@+@@@@@.+++.@@@@@+@@@@@@+.",
"+@@@@@+@@@@@@@@@@@@@@@@@+@@@@@+.",
"+@@@@+@@@@@@@@@@@@@@@@@@@+@@@@+.",
"+@@@+@@@@@@@@@@@@@@@@@@@@@+@@@+.",
"+@@+@@@@@@@@@@@@@@@@@@@@@@@+@@+.",
"+@+@@@@@@@@@@@@@@@@@@@@@@@@@+@+.",
".+++++++++++++++++++++++++++++..",
" ...............................",
"                                ",
"                                ",
"                                ",
"                                "};
