/* XPM */
static char * linux_xpm[] = {
"32 32 14 1",
" 	c None",
".	c #838384",
"+	c #020204",
"@	c #0C0C0C",
"#	c #141413",
"$	c #C4C4C4",
"%	c #FEFEFC",
"&	c #1C1C1B",
"*	c #0A0604",
"=	c #DFA509",
"-	c #F4F4F4",
";	c #DFAC42",
">	c #1F1604",
",	c #242424",
"             .++++.             ",
"            +++++@++            ",
"           ++++++++++           ",
"          .++++++++++.          ",
"          +++#++++++++          ",
"          +$$$++$$$+++          ",
"          +%+%&*%+%+++          ",
"          +%+====+%+++          ",
"          ++=======+++.         ",
"          +========++++         ",
"          ++======$++++.        ",
"          ++$$==$$%%++++        ",
"         .+%%$$$-%%%+++++       ",
"         ++%%%%%%%%%%++++.      ",
"        ++%%%%$%%$%$$*++++      ",
"       +++$$%%%%%%$$$$+++++     ",
"      .++$%%%%%%%%%%%$$+*++.    ",
"      +++%%%%%$%%%%%%%%+#+++    ",
"     .++%%%%%%$%%%%%%%%+++++.   ",
"     ++@%%%%%$%%%%%%%%-++++++   ",
"    ++++%%%%%$%%%%%%%%%++++++   ",
"    ++@%%%%%%$%%%%%%%%%++++++   ",
"    ===#%%%%%$%%%%%%%%=++++++   ",
"    ====+%%%%%%%%%%%%;==++++=   ",
" ========+*%%%%%%%%%$===++===   ",
" ========>++%%%%%%%%$=========  ",
" =========++%%%%%%%%$===========",
"===========-%%%%%%%++===========",
"============%%%%%,+++========== ",
"============+++++++++========   ",
"    ========++.     +======     ",
"        ===           ====      "};
