/* XPM */
static char * lo_xpm[] = {
"32 32 5 1",
" 	c None",
".	c #000079",
"+	c #E7E7E7",
"@	c #0000FF",
"#	c #FFFFFF",
"..........................      ",
"..........................      ",
"..........................      ",
"..........................      ",
".++++++++++++++++++++++++.      ",
".++++++++++++++++++++++++.      ",
".++++++++++++++++++++++++.      ",
".++++++++++++++++++++++++.@@@   ",
".++++++++++++++++++++++++.@@@   ",
".++++++++++++++++++++++++.@@@   ",
".++++++++++++++++++++++++.@@@   ",
".++++++++++++++++++++++++.##@   ",
".++++++++++++++++++++++++.##@   ",
".+++++..........................",
".+++++..........................",
".+++++..........................",
".+++++..........................",
".+++++.++++++++++++++++++++++++.",
".......++++++++++++++++++++++++.",
"   @##.++++++++++++++++++++++++.",
"   @##.++++++++++++++++++++++++.",
"   @##.++++++++++++++++++++++++.",
"   @##.++++++++++++++++++++++++.",
"   @##.++++++++++++++++++++++++.",
"   @##.++++++++++++++++++++++++.",
"   @@@.++++++++++++++++++++++++.",
"      .++++++++++++++++++++++++.",
"      .++++++++++++++++++++++++.",
"      .++++++++++++++++++++++++.",
"      .++++++++++++++++++++++++.",
"      .++++++++++++++++++++++++.",
"      .........................."};
