/* XPM */
static char * lyx_xpm[] = {
"32 32 5 1",
" 	c None",
".	c #DD4800",
"+	c #5A95CD",
"@	c #E0DA9A",
"#	c #DB4801",
"                                ",
"                                ",
"                                ",
"                                ",
"                                ",
"                                ",
"                                ",
"                                ",
"                    ....        ",
"  ++                 ....  .....",
"++++                 .... ......",
"+++++                 ......... ",
"+++++    @@@          ........  ",
"+++++    @@@@@    @@@  #.....   ",
"++++++    @@@@@  @@@@@@.....    ",
" +++++    @@@@@ @@@@@@......    ",
" ++++++ +++@@@@@@@@@@.......    ",
"  +++++++++@@@@@@@@@.........   ",
"  ++++++++++@@@@@@@..... ....   ",
"   +++++++++@@@@@@.....  .....  ",
"   +++++++   @@@@.....    ....  ",
"    ++++     @@@@         ..... ",
"    ++       @@@@               ",
"            @@@@                ",
"            @@@@                ",
"            @@@@                ",
"                                ",
"                                ",
"                                ",
"                                ",
"                                ",
"                                "};
