/* XPM */
static char * mahjongg_xpm[] = {
"32 32 9 1",
" 	c None",
".	c #020202",
"+	c #FEF8EC",
"@	c #848282",
"#	c #F3B2AC",
"$	c #F14B4C",
"%	c #FE0202",
"&	c #F2918F",
"*	c #F50202",
"  ..........................    ",
" .++++++++++++++++++++++++++.   ",
".++++++++++++++++++++++++++++.@ ",
".++++++++++++#$$+++++++++++++.@@",
".+++++++++++#$%%&++++++++++++.@@",
".+++++++++++#&%*$++++++++++++.@@",
".+++++++++++++%&+++++++++++++.@@",
".+++++++++++++%&+++++++++++++.@@",
".++++#$$$++++#%$&$$$#++++++++.@@",
".++++#%%**$$&$%*+++$%*+++++++.@@",
".++++$%%%+#++#%&++++&*%#+++++.@@",
".++++#%%*+++++%$+++++&%$+++++.@@",
".+++++$%%+++++%&++++++%%&++++.@@",
".+++++#*%#++++%$++++++%%&++++.@@",
".++++++#*$++##%$+++++&%*$++++.@@",
".+++++++#*$&$&%*$&+#&%$#&++++.@@",
".++++++++#&+++%&+#$&*%+++++++.@@",
".+++++++++++++%$++++&$+++++++.@@",
".++++++++++++#%&+++++++++++++.@@",
".+++++++++++++%++++++++++++++.@@",
".+++++++++++++%++++++++++++++.@@",
".+++++++++++++%++++++++++++++.@@",
".+++++++++++++%++++++++++++++.@@",
".+++++++++++++%++++++++++++++.@@",
".++++++++++++#$++++++++++++++.@@",
".++++++++++++#&++++++++++++++.@@",
".++++++++++++##++++++++++++++.@@",
".++++++++++++++++++++++++++++.@@",
" .++++++++++++++++++++++++++.@@@",
"  ..........................@@@@",
"  @@@@@@@@@@@@@@@@@@@@@@@@@@@@@ ",
"   @@@@@@@@@@@@@@@@@@@@@@@@@@@  "};
