/* XPM */
static char * mayatemple_xpm[] = {
"32 32 8 1",
" 	c None",
".	c #000000",
"+	c #F4E5D2",
"@	c #0A0D05",
"#	c #CCBBB0",
"$	c #8C786E",
"%	c #806B5E",
"&	c #24251B",
"         ..............         ",
"         .++++++++++++@         ",
"         .++++++++++++@         ",
"         .............@         ",
"          .####..####.          ",
"          .####..####.          ",
"          .####..####.          ",
"         ......$$.......        ",
"         .+++++%%++++++.        ",
"         .#####%%######.        ",
"        .......$$........       ",
"        .++++++%%+++++++.       ",
"        .#####%%%%######.       ",
"       ......@$$$$&.......      ",
"       .++++++%%%%+++++++.      ",
"       .######%%%%#######.      ",
"      ........$$$$.........     ",
"      .+++++++%%%%++++++++.     ",
"      .#######%%%%########.     ",
"     .........$$$$..........    ",
"     .++++++++%%%%+++++++++@    ",
"     .########%%%%#########.    ",
"    ..........$$$$...........   ",
"    .+++++++++%%%%++++++++++.   ",
"    .########%%%%%%#########.   ",
"  ...........$$$$$$............ ",
"  .++++++++++%%%%%%+++++++++++. ",
"  .##########%%%%%%###########. ",
".............$$$$$$.............",
".++++++++++++%%%%%%++++++++++++.",
".############%%%%%%############.",
".............$$$$$$............."};
