/* XPM */
static char * menu_big_xpm[] = {
"32 32 11 1",
" 	c None",
".	c #000000",
"+	c #555555",
"@	c #383838",
"#	c #717171",
"$	c #FFFFFF",
"%	c #1C1C1C",
"&	c #E2E2E2",
"*	c #AAAAAA",
"=	c #C6C6C6",
"-	c #8D8D8D",
"       ..................       ",
"     ......................     ",
"    ........................    ",
"   ..........................   ",
"  ............................  ",
" .............................. ",
" .............................. ",
"................................",
"......+@........................",
".....#$$%.....+$+...............",
".....&$$#.....+$+...............",
"....@$&$&.....+$+...............",
"....*$#=$+....+$+...............",
"...%$$%+$=....+$--**+.....@-**+.",
"...-$-..&$@...+$$&*&$*...-$$$$$+",
"...&$@..#$-...+$-...*$#.+$&@.%-+",
"..#$&++++$$%..+$+....$=.=$%.....",
"..=$$$$$$$$#..+$+....*$.$*......",
".@$&++++++$&..+$+....*$.$*......",
".*$-......=$+.+$+....&&.&&......",
"%$$%......+$=.+$+...+$-.-$*....%",
"-$*........&$@+$=++-$&..%&$&**$+",
"-*@........#*+%*&$$&-....%-&$$*@",
"................................",
"................................",
" .............................. ",
" .............................. ",
"  ............................  ",
"   ..........................   ",
"    ........................    ",
"     ......................     ",
"       ..................       "};
