/* XPM */
static char * menu_small_xpm[] = {
"32 32 11 1",
" 	c None",
".	c #000000",
"+	c #1C1C1C",
"@	c #383838",
"#	c #555555",
"$	c #8D8D8D",
"%	c #E2E2E2",
"&	c #FFFFFF",
"*	c #717171",
"=	c #C6C6C6",
"-	c #AAAAAA",
"                                ",
"                                ",
"                                ",
"            ........            ",
"          ............          ",
"        ................        ",
"       ..................       ",
"      ....................      ",
"     ......................     ",
"     ......................     ",
"    ....+@.....#+...........    ",
"    ....$%.....&#...........    ",
"   ....+&&*....&#............   ",
"   ....$%$%....&#............   ",
"   ....&*+&#...&=&&$...#=&%*.   ",
"   ...*%..$=...&-.+%$.+&*.@$.   ",
"   ...%=##$&@..&#..*%.$=.....   ",
"   ..*&&&&&&=..&#..#&.--.....   ",
"   ..%$....@&@.&#..*%.$=.....   ",
"   .@&+.....=$.&*.@%*.@&*.+#.   ",
"    =-......#&+-&&%*...#=&&*    ",
"    ........................    ",
"     ......................     ",
"     ......................     ",
"      ....................      ",
"       ..................       ",
"        ................        ",
"          ............          ",
"            ........            ",
"                                ",
"                                ",
"                                "};
