/* XPM */
static char * mine_xpm[] = {
"34 34 8 1",
" 	c None",
".	c #000000",
"+	c #0000F8",
"@	c #00FC00",
"#	c #787C78",
"$	c #B0B0B0",
"%	c #F80000",
"&	c #F8FCF8",
"$$$###.&&&$$$$$$$$$$$$$$###.$$$$@@",
"$$$###.&&&$$$$$$$$$$$$$$###.&&&$$@",
"$$$###.&&&$$$$$$$$$$$$$$###.&&&$$@",
"######.&&##################.&&###@",
"######.&###################.&####$",
"######.####################.#####$",
"..................................",
"&&&&&#.$$$$$$$$$$$$$$$$$$$$.&&&&&$",
"&&&&##.$$$$$$$$$..$$$$$$$$$.&&&&&$",
"&&&###.$$$$$$$$$..$$$$$$$$$.&&&&&%",
"$$$###.$$$.$$$$....$$$$.$$$.&&&$$%",
"$$$###.$$$$.$........$.$$$$.&&&$$%",
"$$$###.$$$$$..........$$$$$.&&&$$$",
"$$$###.$$$$............$$$$.&&&$$$",
"$$$###.$$$$...&&&......$$$$.&&&$$$",
"$$$###.$$$....&&&.......$$$.&&&$$$",
"$$$###.$......&&&.........$.&&&$$$",
"$$$###.$..................$.&&&$$$",
"$$$###.$$$..............$$$.&&&$$$",
"$$$###.$$$$............$$$$.&&&$$$",
"$$$###.$$$$............$$$$.&&&$$$",
"$$$###.$$$$$..........$$$$$.&&&$$%",
"$$$###.$$$$.$........$.$$$$.&&&$$%",
"$$$###.$$$.$$$$....$$$$.$$$.&&&$$%",
"######.$$$$$$$$$..$$$$$$$$$.&&###$",
"######.$$$$$$$$$..$$$$$$$$$.&####$",
"######.$$$$$$$$$$$$$$$$$$$$.#####$",
"..................................",
"$&&&&#.&&&&&&&&&&&&&&&&&&&#.&&&&&&",
"$&&&##.&&&&&&&&&&&&&&&&&&##.&&&&&&",
"$&&###.&&&&&&&&&&&&&&&&&###.&&&&&&",
"$$$###.&&&$$$$$$$$$$$$$$###.&&&$$$",
"$$$###.&&&$$$$$$$$$$$$$$###.&&&$$$",
"$$$$$$.$$$$@@@$$$$$$@@@$$$$.&&&$$$"};
