/* XPM */
static char * mmedia_xpm[] = {
"32 32 5 1",
" 	c None",
".	c #000000",
"+	c #E2E2E2",
"@	c #FFFFFF",
"#	c #C0C0C0",
"....+@@@@@@+....                ",
".@@.#+@@@@+#.@@.                ",
"................             .  ",
"....#+@@@@+#....             .. ",
"....+@@@@@@+....             ...",
".@@.@@@@@@@@.@@.             . .",
"....@@@@@@@@....             .  ",
"....@@@@@@@@....             .. ",
"....@@@@@@@@....             ...",
".@@.@@@@@@@@.@@.             . .",
"....@@@@@@@@....           ...  ",
"....+@@@@@@+....          ....  ",
"....#+@@@@+#....          ....  ",
".@@..........@@.           ..   ",
"....#+@@@@+#....    .           ",
"....+@@@@@@+....    ...         ",
"....@@@@@@@@....    .....       ",
".@@.@@@@@@@@.@@.    . ....      ",
"....@@@@@@@@....    .   ..      ",
"....@@@@@@@@....    ..   .      ",
"....@@@@@@@@....    ...  .      ",
".@@.@@@@@@@@.@@.    . .  .      ",
"....+@@@@@@+....  ...    .      ",
"....#+@@@@+#.... ....    .      ",
"................ ....    .      ",
".@@.#+@@@@+#.@@.  ..   ...      ",
"....+@@@@@@+....      ....      ",
"....@@@@@@@@....      .... ..   ",
"....@@@@@@@@....       ..  ..   ",
".@@.@@@@@@@@.@@.                ",
"....@@@@@@@@....                ",
"....@@@@@@@@....                "};
