/* XPM */
static char * mosaic_xpm[] = {
"32 32 337 2",
"  	c None",
". 	c #310E63",
"+ 	c #312C7D",
"@ 	c #313189",
"# 	c #141162",
"$ 	c #312763",
"% 	c #3D3D97",
"& 	c #3B42AC",
"* 	c #3A3B99",
"= 	c #44449C",
"- 	c #39399C",
"; 	c #44439C",
"> 	c #44429C",
", 	c #413F9C",
"' 	c #312F9B",
") 	c #312F9A",
"! 	c #302F9A",
"~ 	c #312FA5",
"{ 	c #312FB8",
"] 	c #3647B8",
"^ 	c #4E4DB8",
"/ 	c #4F4DB8",
"( 	c #4F4DB7",
"_ 	c #2E2E82",
": 	c #06035E",
"< 	c #302763",
"[ 	c #6464B8",
"} 	c #6F79E1",
"| 	c #333598",
"1 	c #333391",
"2 	c #31319C",
"3 	c #311A9C",
"4 	c #311B8D",
"5 	c #2A1B83",
"6 	c #1B1A83",
"7 	c #240983",
"8 	c #311383",
"9 	c #270070",
"0 	c #20045D",
"a 	c #311663",
"b 	c #291665",
"c 	c #271666",
"d 	c #231668",
"e 	c #261667",
"f 	c #301663",
"g 	c #161651",
"h 	c #000050",
"i 	c #0D0D63",
"j 	c #2E2069",
"k 	c #313183",
"l 	c #313166",
"m 	c #4A4A7F",
"n 	c #36349C",
"o 	c #312B94",
"p 	c #19177B",
"q 	c #8888BD",
"r 	c #03033A",
"s 	c #000057",
"t 	c #06015F",
"u 	c #18075F",
"v 	c #1C1963",
"w 	c #31249C",
"x 	c #361B97",
"y 	c #312472",
"z 	c #00003E",
"A 	c #000048",
"B 	c #121258",
"C 	c #38389C",
"D 	c #74749C",
"E 	c #4C4397",
"F 	c #3122B3",
"G 	c #31229C",
"H 	c #636392",
"I 	c #696989",
"J 	c #6D6476",
"K 	c #665A90",
"L 	c #2F3DAE",
"M 	c #160893",
"N 	c #120092",
"O 	c #4234BC",
"P 	c #917C78",
"Q 	c #5B5B41",
"R 	c #61615E",
"S 	c #636363",
"T 	c #636373",
"U 	c #52529C",
"V 	c #0F0F91",
"W 	c #00008C",
"X 	c #000090",
"Y 	c #04008F",
"Z 	c #311998",
"` 	c #4643B8",
" .	c #3B24A9",
"..	c #65655E",
"+.	c #77664B",
"@.	c #76633A",
"#.	c #666331",
"$.	c #6D6234",
"%.	c #686673",
"&.	c #43439C",
"*.	c #000092",
"=.	c #00008D",
"-.	c #02008D",
";.	c #2A1797",
">.	c #3A3AA6",
",.	c #4B4BBB",
"'.	c #7B7BBB",
").	c #3C3C65",
"!.	c #5B4A4F",
"~.	c #986359",
"{.	c #9C635D",
"].	c #8E6358",
"^.	c #846C6C",
"/.	c #6162B4",
"(.	c #405BC1",
"_.	c #241FB2",
":.	c #220299",
"<.	c #07008E",
"[.	c #01009A",
"}.	c #000097",
"|.	c #03038F",
"1.	c #262697",
"2.	c #4747AD",
"3.	c #6767AA",
"4.	c #0E0E61",
"5.	c #534967",
"6.	c #976565",
"7.	c #9C6363",
"8.	c #826974",
"9.	c #4747AC",
"0.	c #3151CC",
"a.	c #3151CE",
"b.	c #3135CE",
"c.	c #3108AC",
"d.	c #3D27B8",
"e.	c #3737BD",
"f.	c #1B29A6",
"g.	c #150397",
"h.	c #47478E",
"i.	c #43439D",
"j.	c #5858B7",
"k.	c #7373BB",
"l.	c #2B2B5F",
"m.	c #010060",
"n.	c #270E7D",
"o.	c #4B329A",
"p.	c #6C508A",
"q.	c #6F6674",
"r.	c #626294",
"s.	c #61639E",
"t.	c #6162BD",
"u.	c #4456E1",
"v.	c #5A58B8",
"w.	c #6B6B5E",
"x.	c #806556",
"y.	c #71626F",
"z.	c #4C589A",
"A.	c #4A4293",
"B.	c #1B1283",
"C.	c #34349C",
"D.	c #352F96",
"E.	c #020251",
"F.	c #000063",
"G.	c #04007D",
"H.	c #0B088E",
"I.	c #1E1996",
"J.	c #332B91",
"K.	c #331695",
"L.	c #361E9F",
"M.	c #3C33BF",
"N.	c #4741F4",
"O.	c #6160B3",
"P.	c #696336",
"Q.	c #636331",
"R.	c #636337",
"S.	c #6E633C",
"T.	c #7C635B",
"U.	c #31237A",
"V.	c #010048",
"W.	c #00005E",
"X.	c #000073",
"Y.	c #000086",
"Z.	c #00008F",
"`.	c #000099",
" +	c #0E00B0",
".+	c #3100CE",
"++	c #3C12FF",
"@+	c #5F55D1",
"#+	c #70633C",
"$+	c #6B6331",
"%+	c #93634F",
"&+	c #26238D",
"*+	c #000047",
"=+	c #00006F",
"-+	c #000094",
";+	c #0800AE",
">+	c #1D00BE",
",+	c #2F0ABA",
"'+	c #5D4FB3",
")+	c #636356",
"!+	c #766338",
"~+	c #966355",
"{+	c #AB6344",
"]+	c #7A634F",
"^+	c #23238D",
"/+	c #21218F",
"(+	c #3D3D9C",
"_+	c #5A5AB4",
":+	c #000040",
"<+	c #00005A",
"[+	c #000078",
"}+	c #000089",
"|+	c #00009B",
"1+	c #00009C",
"2+	c #00009E",
"3+	c #030099",
"4+	c #272499",
"5+	c #525291",
"6+	c #8E616E",
"7+	c #B0635D",
"8+	c #A4644D",
"9+	c #5E4C7D",
"0+	c #08088C",
"a+	c #35358D",
"b+	c #3C3CA6",
"c+	c #5D5DB3",
"d+	c #00003B",
"e+	c #000051",
"f+	c #000065",
"g+	c #000071",
"h+	c #00007F",
"i+	c #000096",
"j+	c #150897",
"k+	c #6F5393",
"l+	c #9C634A",
"m+	c #8F6467",
"n+	c #463495",
"o+	c #02017C",
"p+	c #3A3A92",
"q+	c #5B5BB7",
"r+	c #00006B",
"s+	c #00007A",
"t+	c #0E008F",
"u+	c #584191",
"v+	c #725781",
"w+	c #141483",
"x+	c #37288B",
"y+	c #5555AE",
"z+	c #000043",
"A+	c #050085",
"B+	c #00008A",
"C+	c #01008F",
"D+	c #0D0091",
"E+	c #5B2F91",
"F+	c #94637C",
"G+	c #3A3292",
"H+	c #1E036D",
"I+	c #310B70",
"J+	c #4D47AD",
"K+	c #000052",
"L+	c #000064",
"M+	c #000072",
"N+	c #00007B",
"O+	c #13008D",
"P+	c #13008E",
"Q+	c #01008B",
"R+	c #1F0093",
"S+	c #592F95",
"T+	c #595093",
"U+	c #342F96",
"V+	c #2C259D",
"W+	c #3333A1",
"X+	c #000046",
"Y+	c #000055",
"Z+	c #000068",
"`+	c #00006D",
" @	c #0B0068",
".@	c #2C1868",
"+@	c #31318A",
"@@	c #1B1B7F",
"#@	c #3131B1",
"$@	c #00004F",
"%@	c #00005B",
"&@	c #00005D",
"*@	c #1B1B82",
"=@	c #3131A1",
"-@	c #2B1B86",
";@	c #31179C",
">@	c #312B71",
",@	c #31279C",
"'@	c #311C94",
")@	c #3A246E",
"!@	c #312B6B",
"~@	c #312E6B",
"{@	c #313168",
"]@	c #3A339A",
"^@	c #37359C",
"/@	c #201863",
"(@	c #312B68",
"_@	c #31317E",
":@	c #312A63",
"<@	c #14006D",
"[@	c #10006E",
"}@	c #0C006F",
"|@	c #18006B",
"1@	c #080070",
"2@	c #1B006A",
"3@	c #040072",
"4@	c #1F0069",
"5@	c #00006C",
"6@	c #1D008C",
"7@	c #31009C",
"8@	c #42379C",
"9@	c #3128A7",
"0@	c #312CA3",
"a@	c #3E3E9C",
"b@	c #241263",
"c@	c #31317B",
"d@	c #4D4DAA",
"e@	c #5151BB",
"f@	c #313190",
"g@	c #31256F",
"h@	c #302F85",
"i@	c #302F8C",
"j@	c #2F2F85",
"k@	c #393985",
"l@	c #434298",
"m@	c #43309B",
"n@	c #442591",
"o@	c #392C8E",
"p@	c #232263",
"q@	c #312C69",
"r@	c #313070",
"s@	c #312D69",
"t@	c #140963",
"u@	c #2B2863",
"v@	c #312363",
"                                                      . + @     ",
"                                                    # $ % & *   ",
"            = - ; > , ' ) ) ! ! ~ { { ] ^ ^ ^ / ( _ : < [ } | 1 ",
"        2 3 4 5 6 7 8 9 0 a b c a a a a d c e a f g h i j k l m ",
"      n o p q                                       r s t u v   ",
"    w x y                                             z A B     ",
"  C 2 D                                                         ",
"  w E                                                           ",
"  F G                   H I J K L M N                           ",
"  O 2               P Q R S T U V W X Y Z                       ",
"  `  .            ..+.@.#.$.%.&.*.W =.X -.;.                    ",
"  >.,.'.        ).!.~.{.].^./.(._.:.<.[.}.|.1.                  ",
"    2.3.q       4.5.6.7.8.9.0.a.b.c.d.e.f.g.*.                  ",
"      h.i.j.k.l.m.n.o.p.q.r.s.t.u.v.w.x.y.z.A.B.                ",
"        2 C.D.E.F.G.H.I.J.K.L.M.N.O.P.Q.R.S.T.U.                ",
"              V.W.X.Y.Z.`.`. +.+++@+#+Q.Q.$+%+&+                ",
"              *+W.=+Y.W -+-+;+>+,+'+)+!+~+{+]+^+/+(+_+          ",
"              :+<+=+[+}+Z.|+1+2+3+4+5+6+7+8+9+0+a+2 b+c+        ",
"              d+e+f+g+h+=.}.*.i+|+|+j+k+l+m+n+o+    q p+q+      ",
"                *+W.r+s+t+W W *.Z.-+`.u+7.v+w+        q x+y+    ",
"                z+e+F.g+A+W B+B+=.C+D+E+F+G+H+          I+J+q   ",
"                  K+s L+M+N+O+P+B+Q+R+S+T+U+              V+W+  ",
"                    z+X+Y+Z+`+N+X.`+ @.@+@                @@#@  ",
"                        z+X+$@s %@&@%@                    *@=@  ",
"                                                          -@;@  ",
"                                                        >@,@q   ",
"    q q q                                             y '@2     ",
"  )@!@~@{@q                                       q ]@'@^@      ",
"/@(@2 2 _@:@<@[@[@<@}@|@1@2@3@4@X.4@5@F.r+4@6@7@8@9@0@a@        ",
"b@c@d@e@f@g@h@i@i@h@h@h@j@h@j@h@j@h@j@j@k@l@m@n@o@q             ",
"  p@q@r@s@$                                                     ",
"    t@u@v@                                                      "};
