/* XPM */
static char * mrproject_xpm[] = {
"32 32 20 1",
" 	c None",
".	c #000000",
"+	c #455A66",
"@	c #688799",
"#	c #648394",
"$	c #1F282E",
"%	c #8CB6CE",
"&	c #84ACC2",
"*	c #273239",
"=	c #3E515C",
"-	c #4D6571",
";	c #1A2226",
">	c #97C4DD",
",	c #587281",
"'	c #34444C",
")	c #98C6E0",
"!	c #91BDD6",
"~	c #536C79",
"{	c #8AB4CB",
"]	c #7CA1B6",
"                                ",
"                                ",
"                                ",
"   ........................     ",
"   ........................     ",
"   .                      ..    ",
"                                ",
"                                ",
"                                ",
"   +@@@@@@@@@@@@@@#$            ",
"   @%%%%%%%%%%%%%%&*            ",
"   @%%%%%%%%%%%%%%&*            ",
"   =---------------;.           ",
"    ................            ",
"                                ",
"               ............     ",
"               @>>>>>>>>>>,.    ",
"               @%%%%%%%%%%-.    ",
"               #&&&&&&&&&&-.    ",
"               $**********;.    ",
"                  .........     ",
"                                ",
"       .''''''''$.              ",
"       .)!!!!!!!~.              ",
"       .>%%%%%%%-.              ",
"       .{]]]]]]]-.              ",
"       ...........              ",
"           .....                ",
"                                ",
"                                ",
"                                ",
"                                "};
