/* XPM */
static char * mutt_xpm[] = {
"32 32 138 2",
"  	c None",
". 	c #FFFFFF",
"+ 	c #848484",
"@ 	c #C6C6C6",
"# 	c #BD0000",
"$ 	c #FF0000",
"% 	c #BDBD00",
"& 	c #294231",
"* 	c #213929",
"= 	c #426B52",
"- 	c #5A9473",
"; 	c #528C6B",
"> 	c #6BB58C",
", 	c #102118",
"' 	c #84948C",
") 	c #CEEFDE",
"! 	c #C6E7D6",
"~ 	c #4A6B5A",
"{ 	c #213129",
"] 	c #426352",
"^ 	c #5A8C73",
"/ 	c #73B594",
"( 	c #52846B",
"_ 	c #6BAD8C",
": 	c #84D6AD",
"< 	c #63A584",
"[ 	c #7BCEA5",
"} 	c #73C69C",
"| 	c #5A9C7B",
"1 	c #42735A",
"2 	c #6BBD94",
"3 	c #294A39",
"4 	c #529473",
"5 	c #395A4A",
"6 	c #4A7B63",
"7 	c #315242",
"8 	c #182921",
"9 	c #8CD6B5",
"0 	c #84CEAD",
"a 	c #73BD9C",
"b 	c #6BB594",
"c 	c #63AD8C",
"d 	c #73CEA5",
"e 	c #ADE7CE",
"f 	c #9CD6BD",
"g 	c #73AD94",
"h 	c #6BA58C",
"i 	c #7BC6A5",
"j 	c #5A947B",
"k 	c #528C73",
"l 	c #4A846B",
"m 	c #BDE7D6",
"n 	c #A5DEC6",
"o 	c #639C84",
"p 	c #426B5A",
"q 	c #84D6B5",
"r 	c #396352",
"s 	c #6BBD9C",
"t 	c #6B9484",
"u 	c #94D6BD",
"v 	c #8CCEB5",
"w 	c #84C6AD",
"x 	c #4A7363",
"y 	c #73B59C",
"z 	c #6BAD94",
"A 	c #63A58C",
"B 	c #7BCEAD",
"C 	c #73C6A5",
"D 	c #7BBDA5",
"E 	c #294239",
"F 	c #5A9C84",
"G 	c #B5E7D6",
"H 	c #7BAD9C",
"I 	c #8CD6BD",
"J 	c #84CEB5",
"K 	c #7BC6AD",
"L 	c #213931",
"M 	c #D6EFE7",
"N 	c #ADDECE",
"O 	c #39524A",
"P 	c #314A42",
"Q 	c #73BDA5",
"R 	c #4A7B6B",
"S 	c #427363",
"T 	c #183129",
"U 	c #94CEBD",
"V 	c #8CC6B5",
"W 	c #73AD9C",
"X 	c #C6E7DE",
"Y 	c #A5DECE",
"Z 	c #9CD6C6",
"` 	c #84BDAD",
" .	c #7BB5A5",
"..	c #42635A",
"+.	c #CEEFE7",
"@.	c #52736B",
"#.	c #4A6B63",
"$.	c #94D6C6",
"%.	c #84C6B5",
"&.	c #7BBDAD",
"*.	c #395A52",
"=.	c #31524A",
"-.	c #294A42",
";.	c #5A847B",
">.	c #84ADA5",
",.	c #739C94",
"'.	c #6B948C",
").	c #7BADA5",
"!.	c #6B9C94",
"~.	c #D6EFEF",
"{.	c #7B9C9C",
"].	c #638484",
"^.	c #739C9C",
"/.	c #5A7B7B",
"(.	c #182121",
"_.	c #6B9494",
":.	c #63848C",
"<.	c #5A7B84",
"[.	c #6B848C",
"}.	c #526B73",
"|.	c #637B84",
"1.	c #5A6B73",
"2.	c #5A6B7B",
"3.	c #525A6B",
"4.	c #4A5263",
"5.	c #525A73",
"6.	c #4A526B",
"7.	c #424263",
"8.	c #39315A",
"9.	c #4A4263",
"0.	c #393152",
"a.	c #392952",
"b.	c #42315A",
"c.	c #31184A",
"d.	c #291042",
"e.	c #BD00BD",
"f.	c #FF00FF",
"g.	c #000000",
"                                                                ",
"                                                                ",
"                                                                ",
"                                                & * '           ",
"                                            g.g.                ",
"                                          g.@ @ + +             ",
"                                        g.@ % @ g.              ",
"                g.                    + g.@ % @ g.  g.+ +       ",
"            + g.                      g.+ @ + @ g.g.g.@ +       ",
"            g.@ +                   + g.@ @ @ @ @ @ @ g.        ",
"            g.@ g.                  g.+ @ @ @ @ g.@ g.          ",
"            g.@ g.                + g.@ @ @ @ @ g.@ g.          ",
"            g.@ g.+               g.+ @ @ @ @ @ @ @ @ g.g.g.g.  ",
"            g.@ @ g.g.g.g.g.g.g.$ + 1.@ @ @ @ @ @ @ @ g.@ f.e.  ",
"            + + @ + g.# # # g.+ # $ + + @ @ @ @ @ @ @ g.e.e.g.  ",
"              g.@ @ + g.g.g.+ @ + # $ + 1.+ @ @ @ @ @ @ g.g.g.  ",
"              g.@ @ @ @ @ @ @ @ @ + # $ g.+ 1.1.@ @ @ @ g.+ g.  ",
"            + + 1.@ @ @ @ @ @ @ @ @ + # $ g.g.+ 1.@ @ @ g.@ g.  ",
"            g.+ + @ @ @ @ @ @ @ @ @ @ + # # g.g.+ + @ 1.g.+ g.  ",
"            g.+ 1.@ @ @ @ @ @ @ @ @ @ @ @ + g.                  ",
"            g.+ + @ @ @ @ 1.@ 1.@ @ @ @ + g.                    ",
"            + g.+ @ @ 1.g.+ + + @ @ @ 1.g.g.                    ",
"              g.@ @ 1.g.+ + + g.@ @ 1.g.+ g.                    ",
"            + + @ + g.g.g.g.g.g.1.@ g.+ + g.                    ",
"          + g.@ @ g.+ + + g.{ g.+ @ g.+ @ g.                    ",
"          g.+ @ @ @ @ @ g.+ + g.+ @ @ @ @ @ g.+ g.+             ",
"    +   + g.1.@ @ @ @ @ g.+ + g.1.@ @ @ @ @ g.+ @ g.            ",
"  +   +   g.+ + @ 1.@ @ g.+ + g.+ + @ 1.@ @ g.+ @ g.            ",
"    +   + + g.g.g.g.g.g.+ g.g.+ g.g.g.g.g.g.+ g.g.+             ",
"                                                                ",
"                                                                ",
"                                                                "};
