/* XPM */
static char * next2_xpm[] = {
"32 32 5 1",
" 	c None",
".	c #FFFF00",
"+	c #FF3C00",
"@	c #FF0079",
"#	c #00B230",
"               .....            ",
"             .........          ",
"            ....   ...          ",
"            ..    ...           ",
"           ...   ...            ",
"           ..   ...             ",
"       +   ..  ...   ..    @    ",
"      +++  .. ...   ...   @@@   ",
"       +++  ....    ..   @@@    ",
"        +++ ...   ....  @@@     ",
"         +++ ........  @@@      ",
"          +++  ....   @@@@      ",
"           +++       @@@@@@     ",
"+++++++++++++++     @@@  @@@    ",
" +++++++++++++++   @@@    @@@   ",
"  +++               @      @@@  ",
"   +++           ##         @@@ ",
"    +++          ##          @@@",
"     +++         ##           @ ",
"      +++        ##             ",
"       +++       ##             ",
"        +        ##             ",
"                 ##             ",
"          ################      ",
"          ################      ",
"                 ##             ",
"                 ##             ",
"                 ##             ",
"                 ##             ",
"                 ##             ",
"                 ##             ",
"                 ##             "};
