/* XPM */
static char * opera_xpm[] = {
"32 32 3 1",
" 	c None",
".	c #6B6B6B",
"+	c #ED1136",
"                                ",
"                                ",
"                                ",
"                 ++++++++       ",
"               +++      +++     ",
"              +++        +++    ",
"             ++++        +++++  ",
"            +++++         ++++  ",
"           +++++          +++++ ",
"           +++++          +++++ ",
"           +++++          ++++++",
"          ++++++          ++++++",
"          ++++++          ++++++",
"          ++++++          ++++++",
"          ++++++          ++++++",
"       ...++++++          ++++++",
"   ....   ++++++...       ++++++",
" .....    ++++++......    ++++++",
" .....    ++++++  ......  ++++++",
".......   ++++++   .......++++++",
".......   ++++++    ......++++++",
" .......   +++++     .....+++++ ",
" ........  +++++      ....+++++ ",
"  ........  ++++       ..+++++  ",
"    ....... +++++       .+++++  ",
"     ....... ++++       .++++   ",
"       .......++++      ++++    ",
"          .....++++    ++++     ",
"               ...++++++        ",
"                                ",
"                                ",
"                                "};
