/* XPM */
static char * opera[] = {
"48 48 3 1",
" 	c None",
".	c #ED0D34",
"+	c #6B6B6B",
"                                                ",
"                                                ",
"                                                ",
"                                                ",
"                         ............           ",
"                       .....      .....         ",
"                     ......        ......       ",
"                    ......          ......      ",
"                   ......            ......     ",
"                  .......            .......    ",
"                  ......             .......    ",
"                 .......              .......   ",
"                 .......              .......   ",
"                ........              ........  ",
"                ........              ........  ",
"               ........               ........  ",
"               ........               ......... ",
"               ........               ......... ",
"               ........                ........ ",
"               ........                ........ ",
"               ........                ........ ",
"              .........                ........ ",
"              .........                ........ ",
"       +++++  .........++++            ........ ",
"    ++++++    .........+++++++         ........ ",
"  +++++++      ........ +++++++++      ........ ",
" ++++++++      ........   +++++++++    ........ ",
"+++++++++      ........    +++++++++   ........ ",
"++++++++++     ........     +++++++++  ........ ",
"++++++++++     ........      +++++++++......... ",
" ++++++++++     .......       ++++++++........  ",
" +++++++++++    ........       +++++++........  ",
"  +++++++++++   ........        ++++++........  ",
"  ++++++++++++   .......         +++++.......   ",
"   ++++++++++++  .......          +++........   ",
"     +++++++++++  ......           ++.......    ",
"      +++++++++++  ......           +......     ",
"        ++++++++++ ......           ......      ",
"          ++++++++++......          .....       ",
"            +++++++++......        .....        ",
"               ++++++++.....      .....         ",
"                   ++++++...........            ",
"                                                ",
"                                                ",
"                                                ",
"                                                ",
"                                                ",
"                                                "};
