/* XPM */
static char * photo_xpm[] = {
"32 32 6 1",
" 	c None",
".	c #000000",
"+	c #7B7B7B",
"@	c #BDBDBD",
"#	c #E7FFE7",
"$	c #FFFFFF",
"                                ",
"                                ",
"                                ",
"                                ",
"             .   .              ",
"             .....              ",
"            ..@$@..             ",
"           ..@$$$@..   ......   ",
"   ..     ..+@@@@@+..  ......   ",
"  ....   ..+@@@@@@@+.. .@$$@.   ",
"..........+++++++++++...........",
".+@$$$$@+.............+@@$$$@@+.",
"................................",
"................................",
"...@..@.....+++++++.....+....+..",
"...+..+....+@.....@+............",
"..........+@.@$@$@.@+...+.$@.+..",
"...@$$@..+@.@$+$+$@.@+....$@....",
"...@$$@..+@.$+$+$$$.@+....$+....",
"...+@@+..+@.$$$$$$@.@+...@..@...",
".........+@.@$$$$@@.@+..@.$$.@..",
"..........+@.@@@@@.@+...@.$@.@..",
"...........+@.....@+.....@..@...",
"............+++++++.......@@....",
"................................",
".@@@@@@@@@@@@@@@@@@@@@@@@@@@@@@.",
".++++++++++++++++++++++++++++++.",
"................................",
"                                ",
"                                ",
"                                ",
"                                "};
