/* XPM */
static char * pine_xpm[] = {
"32 32 5 1",
" 	c None",
".	c #008000",
"+	c #80C080",
"@	c #808080",
"#	c #000000",
"                .               ",
"                .               ",
"               +.+              ",
"               ...              ",
"              +...+             ",
"             +.....+            ",
"             .......            ",
"             .......            ",
"            +.......+           ",
"           +.........+          ",
"           ...........          ",
"           ...........          ",
"          +...........+         ",
"         +.............+        ",
"         ...............        ",
"         ...............        ",
"        +...............+       ",
"       +.................+      ",
"       ...................      ",
"       ...................      ",
"      +...................+     ",
"     +.....................+    ",
"     .......................    ",
"    +.......................+   ",
"   +.........................+  ",
"  +...........................+ ",
"              @###@             ",
"              @###@             ",
"              @###@             ",
"              @###@             ",
"              @###@             ",
"              @###@             "};
