/* XPM */
static char * qcad_xpm[] = {
"32 32 460 2",
"  	c None",
". 	c #FF6132",
"+ 	c #FF5D37",
"@ 	c #B86553",
"# 	c #6A6767",
"$ 	c #3E4649",
"% 	c #262626",
"& 	c #FF6730",
"* 	c #FF6230",
"= 	c #B96654",
"- 	c #3C4446",
"; 	c #242424",
"> 	c #1B1C1C",
", 	c #FF6411",
"' 	c #FF6915",
") 	c #FF661E",
"! 	c #222728",
"~ 	c #0F0F0F",
"{ 	c #313131",
"] 	c #7C7C7C",
"^ 	c #FF7400",
"/ 	c #000000",
"( 	c #010101",
"_ 	c #3A3A3A",
": 	c #727272",
"< 	c #FFCA40",
"[ 	c #FFA620",
"} 	c #FF940E",
"| 	c #191614",
"1 	c #322F2E",
"2 	c #474543",
"3 	c #45403E",
"4 	c #FFC83B",
"5 	c #FFC639",
"6 	c #FFBE32",
"7 	c #FFB52C",
"8 	c #FFB32A",
"9 	c #424242",
"0 	c #3F3F3F",
"a 	c #232323",
"b 	c #202020",
"c 	c #777778",
"d 	c #6E6E6E",
"e 	c #C0B9AA",
"f 	c #EEBC49",
"g 	c #FFBB1F",
"h 	c #FFC030",
"i 	c #F5C554",
"j 	c #CABD8B",
"k 	c #77ACEC",
"l 	c #7FBFFE",
"m 	c #7499BA",
"n 	c #6A8092",
"o 	c #596B78",
"p 	c #50626D",
"q 	c #779098",
"r 	c #AEF2FF",
"s 	c #696A6B",
"t 	c #949191",
"u 	c #C1B2A1",
"v 	c #E7AE4D",
"w 	c #FFA502",
"x 	c #FAB72F",
"y 	c #DFC67D",
"z 	c #A2B6BA",
"A 	c #6AA4EA",
"B 	c #66ACFD",
"C 	c #72B9FE",
"D 	c #7CBAF2",
"E 	c #85B8E1",
"F 	c #81AFCF",
"G 	c #83AFC7",
"H 	c #A4CFDF",
"I 	c #373737",
"J 	c #313334",
"K 	c #776963",
"L 	c #C29B81",
"M 	c #EF933B",
"N 	c #FF8100",
"O 	c #DF9743",
"P 	c #AAAAA1",
"Q 	c #6997CA",
"R 	c #3584E2",
"S 	c #318FF4",
"T 	c #40A0FE",
"U 	c #50ADFE",
"V 	c #62B7FA",
"W 	c #6ABDF6",
"X 	c #76C6F3",
"Y 	c #94DEFC",
"Z 	c #B7F4FF",
"` 	c #B6EEF8",
" .	c #A3DDEF",
"..	c #74B6DC",
"+.	c #4F90C8",
"@.	c #4782C1",
"#.	c #6793CA",
"$.	c #613F33",
"%.	c #C97A5A",
"&.	c #F97128",
"*.	c #FF5E01",
"=.	c #CA7755",
"-.	c #7F8FB8",
";.	c #377AD2",
">.	c #0064DA",
",.	c #0071EE",
"'.	c #0D88FD",
").	c #2299FF",
"!.	c #3BA9FF",
"~.	c #52B9FF",
"{.	c #6ACAFF",
"].	c #84DDFF",
"^.	c #99ECFE",
"/.	c #A3F0FC",
"(.	c #A2E9F6",
"_.	c #8ED3EA",
":.	c #5696CC",
"<.	c #6B95CA",
"[.	c #94AFD7",
"}.	c #C5DCD0",
"|.	c #B9CDC2",
"1.	c #515955",
"2.	c #913C30",
"3.	c #E45E49",
"4.	c #FD552C",
"5.	c #FF4A15",
"6.	c #D85F48",
"7.	c #7388BF",
"8.	c #005CD8",
"9.	c #006AEC",
"0.	c #0082FD",
"a.	c #32A7FF",
"b.	c #78BDE7",
"c.	c #9BC7D7",
"d.	c #A9CCCD",
"e.	c #AFD1C9",
"f.	c #ADDCD7",
"g.	c #9DE8F6",
"h.	c #87D2EE",
"i.	c #4D95CF",
"j.	c #4082C9",
"k.	c #83A8D9",
"l.	c #A6BDE1",
"m.	c #AEC9BA",
"n.	c #FA413B",
"o.	c #FA413A",
"p.	c #FC4235",
"q.	c #FE4430",
"r.	c #FE442F",
"s.	c #D1C1A7",
"t.	c #D0BFA3",
"u.	c #CCB894",
"v.	c #C9B184",
"w.	c #C8AF80",
"x.	c #A7B8D3",
"y.	c #7FB494",
"z.	c #81B696",
"A.	c #9ACBAD",
"B.	c #EC1E1C",
"C.	c #EF3C38",
"D.	c #F55752",
"E.	c #FC5A53",
"F.	c #E4C08A",
"G.	c #D8BA89",
"H.	c #CCA867",
"I.	c #C29541",
"J.	c #6C6F74",
"K.	c #555D69",
"L.	c #53A371",
"M.	c #59A676",
"N.	c #89C29D",
"O.	c #B3DBBF",
"P.	c #BEE2C8",
"Q.	c #CF0000",
"R.	c #D20202",
"S.	c #E03636",
"T.	c #ED6B6B",
"U.	c #D3B77C",
"V.	c #C59D44",
"W.	c #B7830D",
"X.	c #B47C00",
"Y.	c #8F8F8F",
"Z.	c #808080",
"`.	c #484848",
" +	c #0A0A0A",
".+	c #7CBB93",
"++	c #7EBD94",
"@+	c #8EC8A0",
"#+	c #9ED5AC",
"$+	c #B1E5BE",
"%+	c #CFF4D4",
"&+	c #D4898B",
"*+	c #BE1A1D",
"=+	c #B60000",
"-+	c #C7191A",
";+	c #EB7072",
">+	c #D3B677",
",+	c #C59723",
"'+	c #C08A00",
")+	c #D0A223",
"!+	c #E6CD7E",
"~+	c #6B6B6B",
"{+	c #4A4B4E",
"]+	c #343332",
"^+	c #2B2A28",
"/+	c #ABD5B9",
"(+	c #A9D5B7",
"_+	c #98D1A7",
":+	c #8FD29E",
"<+	c #ADE9BB",
"[+	c #CEF4D2",
"}+	c #D7CFBD",
"|+	c #D29490",
"1+	c #BA4140",
"2+	c #A40200",
"3+	c #9E0000",
"4+	c #CB9600",
"5+	c #CE9C07",
"6+	c #E1B93E",
"7+	c #E6CC79",
"8+	c #ADA17C",
"9+	c #646464",
"0+	c #25262C",
"a+	c #272727",
"b+	c #595959",
"c+	c #ADDDB8",
"d+	c #AEE1B8",
"e+	c #BBEFC3",
"f+	c #C9F6CA",
"g+	c #CDE2BE",
"h+	c #CBBEA4",
"i+	c #BF8273",
"j+	c #B45049",
"k+	c #DBB127",
"l+	c #EAC448",
"m+	c #E5C765",
"n+	c #958759",
"o+	c #414143",
"p+	c #2A2C33",
"q+	c #2B2B2B",
"r+	c #3B3B3B",
"s+	c #636363",
"t+	c #CEEFD4",
"u+	c #CDF0D2",
"v+	c #C9F4CC",
"w+	c #C4F8C3",
"x+	c #C2F7BE",
"y+	c #C1ECB7",
"z+	c #C2C5A2",
"A+	c #C4A390",
"B+	c #C49A8B",
"C+	c #E3C151",
"D+	c #EFCA51",
"E+	c #E5C24E",
"F+	c #87763B",
"G+	c #2F2F2F",
"H+	c #3E4047",
"I+	c #5F5F5F",
"J+	c #656565",
"K+	c #D5F4D8",
"L+	c #CDF6D0",
"M+	c #C3F8C1",
"N+	c #BFF9B9",
"O+	c #BCF3B2",
"P+	c #B5D99F",
"Q+	c #AFC08F",
"R+	c #B5C799",
"S+	c #C4DDB3",
"T+	c #BE90C8",
"U+	c #D2AD97",
"V+	c #DFBF75",
"W+	c #EAC658",
"X+	c #E8C345",
"Y+	c #B4A05B",
"Z+	c #807E76",
"`+	c #707175",
" @	c #B3E2A3",
".@	c #B0DF9F",
"+@	c #A3D48D",
"@@	c #98CA7E",
"#@	c #A9D092",
"$@	c #BBD7A7",
"%@	c #BFD9AC",
"&@	c #B47AC8",
"*@	c #B880C2",
"=@	c #C496B1",
"-@	c #D5B294",
";@	c #E3BF62",
">@	c #ECC745",
",@	c #E5D081",
"'@	c #61655E",
")@	c #8CA681",
"!@	c #94B984",
"~@	c #9CCD85",
"{@	c #9BC87E",
"]@	c #96BF77",
"^@	c #91B972",
"/@	c #88B26D",
"(@	c #C058C0",
"_@	c #A740B0",
":@	c #9F3EA8",
"<@	c #AF67AD",
"[@	c #C79AAA",
"}@	c #DEB878",
"|@	c #F2CF51",
"1@	c #F7E186",
"2@	c #585858",
"3@	c #849778",
"4@	c #A5CB8D",
"5@	c #90C06C",
"6@	c #74A849",
"7@	c #77A955",
"8@	c #80AD68",
"9@	c #82AE6C",
"0@	c #C65CC5",
"a@	c #BF52BF",
"b@	c #A325A7",
"c@	c #8A0291",
"d@	c #9C3AA6",
"e@	c #BC86B6",
"f@	c #DCB68A",
"g@	c #F7D862",
"h@	c #FDE783",
"i@	c #545454",
"j@	c #3D3C3E",
"k@	c #383737",
"l@	c #596353",
"m@	c #A7CB8F",
"n@	c #A2CB7E",
"o@	c #8CB66A",
"p@	c #6EA557",
"q@	c #56974C",
"r@	c #69A068",
"s@	c #A5ACB0",
"t@	c #CC44CC",
"u@	c #C334C3",
"v@	c #BB33BB",
"w@	c #B133B3",
"x@	c #A937AC",
"y@	c #A645B5",
"z@	c #B980BA",
"A@	c #E8C989",
"B@	c #FADF76",
"C@	c #FDE786",
"D@	c #FDE99A",
"E@	c #4F4F4F",
"F@	c #383838",
"G@	c #A9C791",
"H@	c #70A765",
"I@	c #3E8742",
"J@	c #6C9876",
"K@	c #ACA6B6",
"L@	c #C57BCB",
"M@	c #CE47CE",
"N@	c #C227C2",
"O@	c #B51EB5",
"P@	c #BE4ABF",
"Q@	c #C975CA",
"R@	c #FAE387",
"S@	c #F8E186",
"T@	c #F7DF86",
"U@	c #353536",
"V@	c #97B992",
"W@	c #95A89A",
"X@	c #AD9CB2",
"Y@	c #C78ACC",
"Z@	c #D36BD6",
"`@	c #D750D7",
" #	c #C951C9",
".#	c #BC5BBC",
"+#	c #C86EC8",
"@#	c #F6DF8C",
"##	c #F2D779",
"$#	c #EECF65",
"%#	c #EDCD60",
"&#	c #212121",
"*#	c #404040",
"=#	c #F7D3F8",
"-#	c #F5C8F6",
";#	c #EFA1F0",
">#	c #E773E7",
",#	c #E362E3",
"'#	c #DB62DB",
")#	c #C278C2",
"!#	c #AE8DAE",
"~#	c #A892A8",
"{#	c #F1DA8D",
"]#	c #EBCD6B",
"^#	c #E5C049",
"/#	c #E4BD40",
"(#	c #363536",
"_#	c #3C3C3C",
":#	c #565756",
"<#	c #717471",
"[#	c #FBADFC",
"}#	c #FFB6FF",
"|#	c #FDA6FD",
"1#	c #F392F2",
"2#	c #E08DE0",
"3#	c #C184C1",
"4#	c #866686",
"5#	c #514951",
"6#	c #333633",
"7#	c #F0DA91",
"8#	c #E7C96B",
"9#	c #E0BA47",
"0#	c #DEB63E",
"a#	c #4C4C4C",
"b#	c #535353",
"c#	c #6F6E6F",
"d#	c #8B8A8B",
"e#	c #E395E3",
"f#	c #EB98EB",
"g#	c #F59EF5",
"h#	c #FCAAFC",
"i#	c #F7B3F7",
"j#	c #DAB5DA",
"k#	c #A8A0A8",
"l#	c #0C0C0C",
"m#	c #292929",
"n#	c #EBD696",
"o#	c #E4C771",
"p#	c #DDB84C",
"q#	c #DBB443",
"r#	c #948394",
"s#	c #B293B2",
"t#	c #B074B0",
"u#	c #AE3DAE",
"v#	c #CC6BCC",
"w#	c #DA88DA",
"x#	c #E48FE4",
"y#	c #F599F5",
"z#	c #F9BBF9",
"A#	c #D9BFD9",
"B#	c #A2A8A2",
"C#	c #141614",
"D#	c #2D2D2D",
"E#	c #121316",
"F#	c #8E856C",
"G#	c #D2C49C",
"H#	c #DEC888",
"I#	c #DCB74C",
"J#	c #D3A0D3",
"K#	c #CF95CF",
"L#	c #BD68BD",
"M#	c #BF59BF",
"N#	c #D27BD2",
"O#	c #D683D6",
"P#	c #0F0F11",
"Q#	c #615D52",
"R#	c #BCB5A0",
"S#	c #D4CCB4",
"T#	c #D896D8",
"U#	c #C066C0",
"V#	c #BD56BD",
"W#	c #D078D0",
"X#	c #323232",
"Y#	c #0F0F10",
"Z#	c #59564D",
"`#	c #B6B1A1",
"                            . + @ # $ %                         ",
"                          & * + = # - ; >                       ",
"                        , ' ) +   # ! ~ { ]                     ",
"                        ^ ^ ^       / ( _ :                     ",
"                      < [ }           | 1 2 3                   ",
"                    4 5 6 7 8       9 0 { a b                   ",
"            c ] d e f g h i j k l l m n o p q r                 ",
"        d d s d t u v w x y z A B C D E F G H r r r r           ",
"      ( ; I J I K L M N O P Q R S T U V W X Y r Z `  ...+.@.#.  ",
"    ( ( ( / / / $.%.&.*.=.-.;.>.,.'.).!.~.{.].^./.(._...:.@.<.[.",
"}.|.1./ / / / / 2.3.4.5.6.7.8.8.9.0.'.a.b.c.d.e.f.g.h...i.j.k.l.",
"m.m.m.          n.o.p.q.r.              s.t.u.v.w.          x.x.",
"y.z.A.            B.C.D.E.              F.G.H.I.            J.K.",
"L.M.N.O.P.      Q.R.S.T.                  U.V.W.X.      Y.Z.`. +",
".+++@+#+$+%+  &+*+=+-+;+                  >+,+'+)+!+  ~+{+0 ]+^+",
"/+(+_+:+<+[+}+|+1+2+3+                      4+5+6+7+8+9+0+( a+b+",
"  O.c+d+e+f+g+h+i+j+                          k+l+m+n+o+p+q+r+s+",
"    t+u+v+w+x+y+z+A+B+                      C+C+D+E+F+G+H+I+J+  ",
"      K+L+M+N+O+P+Q+R+S+                  T+U+V+W+X+Y+Z+`+~+    ",
"             @.@+@@@#@$@%@              &@*@=@-@;@>@,@          ",
"            '@)@!@~@{@]@^@/@          (@_@:@<@[@}@|@1@          ",
"            2@'@3@4@5@6@7@8@9@      0@a@b@c@d@e@f@g@h@          ",
"          i@j@k@l@m@n@o@p@q@r@s@  t@u@v@w@x@y@z@A@B@C@D@        ",
"          E@F@b       G@H@I@J@K@L@M@N@O@P@Q@      R@S@T@        ",
"        _ _ F@U@        V@W@X@Y@Z@`@ #.#+#        @###$#%#      ",
"        &#a+*#b+        =#-#;#>#,#'#)#!#~#        {#]#^#/#      ",
"        (#_#:#<#        [#}#|#1#2#3#4#5#6#        7#8#9#0#      ",
"        a#b#c#d#      e#f#g#h#i#j#k#a#/ l#m#      n#o#p#q#      ",
"          2@r#s#t#u#v#w#x#y#  z#A#B#  / C#D#E#/ F#G#H#I#        ",
"            J#K#L#u#M#N#O#              I { P#/ Q#R#S#          ",
"              T#U#u#V#W#                  X#Y#/ Z#`#            ",
"                                                                "};
