/* XPM */
static char * real_xpm[] = {
"32 32 102 2",
"  	c None",
". 	c #000000",
"+ 	c #0059DD",
"@ 	c #0064FD",
"# 	c #0065F9",
"$ 	c #0068FD",
"% 	c #0154C7",
"& 	c #0062F2",
"* 	c #0063FE",
"= 	c #005BE1",
"- 	c #005EED",
"; 	c #0064F5",
"> 	c #004AB9",
", 	c #00317A",
"' 	c #00215C",
") 	c #001A46",
"! 	c #001436",
"~ 	c #00327D",
"{ 	c #0054D1",
"] 	c #0057D8",
"^ 	c #005EE9",
"/ 	c #0049B5",
"( 	c #00183E",
"_ 	c #000105",
": 	c #001E4A",
"< 	c #003588",
"[ 	c #0063F4",
"} 	c #0050C6",
"| 	c #0061ED",
"1 	c #000C21",
"2 	c #0052CC",
"3 	c #0051C9",
"4 	c #001940",
"5 	c #0043A8",
"6 	c #1D1D1D",
"7 	c #606060",
"8 	c #626262",
"9 	c #0041A2",
"0 	c #003F9E",
"a 	c #050505",
"b 	c #070708",
"c 	c #A6A6A6",
"d 	c #FEFEFE",
"e 	c #C8C8C8",
"f 	c #00296A",
"g 	c #0C0B0B",
"h 	c #FDFEFF",
"i 	c #A9A9A9",
"j 	c #DEDEDE",
"k 	c #FEFDFD",
"l 	c #D2D2D2",
"m 	c #F1F1F1",
"n 	c #919191",
"o 	c #CBCBCB",
"p 	c #FAFAFA",
"q 	c #EAEAEA",
"r 	c #787878",
"s 	c #151515",
"t 	c #DADADA",
"u 	c #353535",
"v 	c #F5F5F5",
"w 	c #595959",
"x 	c #3D3D3D",
"y 	c #191919",
"z 	c #E4E4E4",
"A 	c #EEEEEE",
"B 	c #555555",
"C 	c #ECECEC",
"D 	c #D8D8D8",
"E 	c #454545",
"F 	c #FCFCFC",
"G 	c #B5B5B5",
"H 	c #A1A1A1",
"I 	c #00112D",
"J 	c #0D0D0D",
"K 	c #DDDCDC",
"L 	c #9E9E9E",
"M 	c #292929",
"N 	c #D6D6D6",
"O 	c #0042A6",
"P 	c #212121",
"Q 	c #E1E1E1",
"R 	c #9B9B9B",
"S 	c #848484",
"T 	c #252526",
"U 	c #00347E",
"V 	c #001D4C",
"W 	c #0060EA",
"X 	c #00245D",
"Y 	c #000C1F",
"Z 	c #0060E5",
"` 	c #005CE2",
" .	c #004DBE",
"..	c #0046AD",
"+.	c #003585",
"@.	c #002E79",
"#.	c #003482",
"$.	c #00050E",
"%.	c #002156",
"&.	c #003C90",
"*.	c #0059DA",
"=.	c #002F75",
"                                                                ",
"                                                                ",
"                                                                ",
". . . . . . . . . . . . . . . . . . . . . . . . . . . . . . . . ",
". + @ @ @ @ @ @ @ @ @ @ @ # @ $ @ @ @ @ $ @ @ $ @ $ @ @ @ @ % . ",
". & @ @ @ @ @ @ @ @ @ @ @ @ @ @ @ $ $ # @ @ $ $ @ * @ @ @ * = . ",
". - * * @ * * @ @ * @ @ $ ; = > , ' ) ! ) ' ~ > { # @ * * * ] . ",
". ^ @ * * @ * @ @ ^ / ( . . . . . . . . . . . . . . _ : < [ ] . ",
". } @ * @ * @ | 1 . . . . . . . . . . . . . . . . . . . . . 1 . ",
". 2 @ @ @ @ 3 4 . . . . . . . . . . . . . . . . . . . . . . . . ",
". 5 * @ @ , . . . . . . . . . . . . . . . . . . . . . 6 7 8 . . ",
". 9 * * 0 . . . . . . . . . . a a . . . . . a a b . . c d e . . ",
". f @ @ _ . . g h i j h a j k l m d n . o k l l p d . q d r . . ",
". f * $ . . . s d k m t u d v s w d v . 6 x y u z d . A d B . . ",
". 4 @ $ . . . r d 6 . . l d C t D D D E k F G H h d . d d s . . ",
". ! @ * I . J K d . . . L d v u u v M N d u u v d m b k d . . . ",
". I * @ O . P t j . . . 6 t q m Q R . S m m N n j G T j K . . . ",
". 1 * @ @ U . . . . . . . . . . . . . . . . . . . . . . . . . . ",
". _ * @ @ @ 3 V . . . . . . . . . . . . . . . . . . . . . . . . ",
". . @ @ * @ * $ I . . . . . . . . . . . . . . . . . . . . . . . ",
". . @ @ @ @ @ * @ # W X _ . . . . . . . . . . . . . . . Y Z . . ",
". . @ @ * @ @ * @ @ @ @ @ @ & `  ...+.@.. . . . . . ) # @ $ . . ",
". . @ @ @ @ @ * * * @ @ @ @ @ $ * @ * ^ . . . _ ! | @ @ @ @ . . ",
". . @ @ @ * * @ * @ * * @ @ @ @ @ @ @ #.. . . #.W * * * @ # . . ",
". . # @ * * * @ @ @ @ * @ @ * @ @ * # . $.%.# @ @ * * @ @ & . . ",
". . | * @ @ * $ * @ @ * @ @ @ $ @ @ : &.@ * @ @ @ * @ * @ *.. . ",
". . 9 - - - - - - - - - - - - - - | U - - - - - - - - - - =.. . ",
". . . . . . . . . . . . . . . . . . . . . . . . . . . . . . . . ",
". . . . . . . . . . . . . . . . . . . . . . . . . . . . . . . . ",
"                                                                ",
"                                                                ",
"                                                                "};
