/* XPM */
static char * remedy_xpm[] = {
"32 32 2 1",
" 	c None",
".	c #008F78",
" .............  ............... ",
"............... ................",
"................................",
"................................",
"....        ....     ...    ....",
"....        ....     ...    ....",
"....        ....     ...    ....",
"....        ...      ...    ....",
"..............       ...    ....",
"...............      ...    ....",
"................     ...    ....",
"....        .....    ...    ....",
"....         ....   ............",
"....         ...................",
"....         .......... ....... ",
"....       ...........   .....  ",
"  .....   ...........       ....",
" ....... ..........         ....",
"...................         ....",
"............   ....         ....",
"....    ...    .....        ....",
"....    ...     ................",
"....    ...      ...............",
"....    ...       ..............",
"....    ...      ...        ....",
"....    ...     ....        ....",
"....    ...     ....        ....",
"....    ...     ....        ....",
"................................",
"................................",
"................ ...............",
" ...............   ............ "};
