/* XPM */
static char * sdr_xpm[] = {
"32 32 380 2",
"  	c None",
". 	c #01212D",
"+ 	c #024D6A",
"@ 	c #026A91",
"# 	c #01749F",
"$ 	c #01739B",
"% 	c #0178A6",
"& 	c #0276A2",
"* 	c #02739E",
"= 	c #026B8F",
"- 	c #016486",
"; 	c #015372",
"> 	c #01415C",
", 	c #00171F",
"' 	c #036B94",
") 	c #035678",
"! 	c #014D6B",
"~ 	c #014765",
"{ 	c #024562",
"] 	c #013D55",
"^ 	c #013347",
"/ 	c #012534",
"( 	c #01202C",
"_ 	c #001F29",
": 	c #00232F",
"< 	c #002A36",
"[ 	c #022E3E",
"} 	c #023043",
"| 	c #01161E",
"1 	c #000000",
"2 	c #02161C",
"3 	c #02B7FA",
"4 	c #01B4FB",
"5 	c #03ADF5",
"6 	c #00AAED",
"7 	c #01A4E5",
"8 	c #009EDD",
"9 	c #0199D6",
"0 	c #0194CD",
"a 	c #018EC4",
"b 	c #0182B5",
"c 	c #0173A3",
"d 	c #01668F",
"e 	c #005575",
"f 	c #015070",
"g 	c #014F6C",
"h 	c #000202",
"i 	c #031015",
"j 	c #128BB7",
"k 	c #01B3FB",
"l 	c #02ADF3",
"m 	c #00A9ED",
"n 	c #00A3E5",
"o 	c #009DDD",
"p 	c #0298D5",
"q 	c #0193CE",
"r 	c #028DC6",
"s 	c #0188BE",
"t 	c #0183B7",
"u 	c #007EAF",
"v 	c #0079A8",
"w 	c #0174A2",
"x 	c #066991",
"y 	c #010102",
"z 	c #040A0D",
"A 	c #0F7499",
"B 	c #00B4FB",
"C 	c #00AFF3",
"D 	c #009BDA",
"E 	c #004F6F",
"F 	c #001923",
"G 	c #000305",
"H 	c #000E13",
"I 	c #003043",
"J 	c #016C97",
"K 	c #007DAF",
"L 	c #0078A8",
"M 	c #0174A0",
"N 	c #02729F",
"O 	c #000203",
"P 	c #010203",
"Q 	c #0C5E7C",
"R 	c #00ADF2",
"S 	c #0099D7",
"T 	c #001D29",
"U 	c #020100",
"V 	c #020102",
"W 	c #181F23",
"X 	c #242C30",
"Y 	c #06090B",
"Z 	c #030507",
"` 	c #005678",
" .	c #0078A7",
"..	c #0173A1",
"+.	c #02739D",
"@.	c #071317",
"#.	c #0A4D66",
"$.	c #01B2FA",
"%.	c #0AAFF0",
"&.	c #003246",
"*.	c #10141A",
"=.	c #80A5B9",
"-.	c #A9E1FB",
";.	c #AAE1FD",
">.	c #9DCFE7",
",.	c #3C4B5A",
"'.	c #02080B",
").	c #006B95",
"!.	c #0074A2",
"~.	c #03749C",
"{.	c #11191D",
"].	c #0496D0",
"^.	c #010304",
"/.	c #000001",
"(.	c #7899AC",
"_.	c #AAE1FE",
":.	c #ABE1FE",
"<.	c #9EC9E4",
"[.	c #A8DAF5",
"}.	c #1B2328",
"|.	c #003E58",
"1.	c #0073A0",
"2.	c #141E21",
"3.	c #01B1F8",
"4.	c #0C7CA8",
"5.	c #040607",
"6.	c #A5DBF5",
"7.	c #ADE0FD",
"8.	c #97C6DC",
"9.	c #09090F",
"0.	c #85AFC4",
"a.	c #A9E1FE",
"b.	c #4D626E",
"c.	c #002737",
"d.	c #0173A0",
"e.	c #073749",
"f.	c #0884B6",
"g.	c #030405",
"h.	c #9FD2EA",
"i.	c #ABE1FD",
"j.	c #A2D8F0",
"k.	c #3D4E5B",
"l.	c #9AC9E2",
"m.	c #A9E2FE",
"n.	c #445861",
"o.	c #002E41",
"p.	c #05739C",
"q.	c #131D21",
"r.	c #0CA9E8",
"s.	c #020F14",
"t.	c #5B7283",
"u.	c #ACE1FD",
"v.	c #A7E3FE",
"w.	c #ABE2FB",
"x.	c #9BC5E0",
"y.	c #0C1014",
"z.	c #00749F",
"A.	c #04729E",
"B.	c #081B22",
"C.	c #04ADF3",
"D.	c #096589",
"E.	c #040406",
"F.	c #4E6572",
"G.	c #90BDD3",
"H.	c #9DCBE2",
"I.	c #7397A8",
"J.	c #192027",
"K.	c #041F2A",
"L.	c #0074A0",
"M.	c #01739F",
"N.	c #03739C",
"O.	c #04232D",
"P.	c #04ACEF",
"Q.	c #05A7E8",
"R.	c #035A7D",
"S.	c #010709",
"T.	c #020001",
"U.	c #000101",
"V.	c #000102",
"W.	c #020404",
"X.	c #102F3D",
"Y.	c #0A78A4",
"Z.	c #0077A4",
"`.	c #0273A0",
" +	c #03739D",
".+	c #04222B",
"++	c #01ABF1",
"@+	c #00A7E9",
"#+	c #00A0E1",
"$+	c #028BC2",
"%+	c #03597B",
"&+	c #07425A",
"*+	c #094E69",
"=+	c #0A719A",
"-+	c #0381B4",
";+	c #017BAC",
">+	c #0277A4",
",+	c #041419",
"'+	c #00ACF0",
")+	c #00A6E8",
"!+	c #009CDA",
"~+	c #0296D2",
"{+	c #0091CA",
"]+	c #008BC2",
"^+	c #060606",
"/+	c #00A5E8",
"(+	c #01A0E1",
"_+	c #009AD4",
":+	c #025273",
"<+	c #021119",
"[+	c #00040A",
"}+	c #012231",
"|+	c #383939",
"1+	c #030303",
"2+	c #040404",
"3+	c #02AAEE",
"4+	c #01597B",
"5+	c #13191D",
"6+	c #81A8BC",
"7+	c #A5D6EF",
"8+	c #7392A6",
"9+	c #242424",
"0+	c #373737",
"a+	c #0C0C0C",
"b+	c #5E5E5E",
"c+	c #020202",
"d+	c #202020",
"e+	c #222222",
"f+	c #262626",
"g+	c #1E1E1E",
"h+	c #1C1C1C",
"i+	c #0697D1",
"j+	c #01A5E8",
"k+	c #6F94A4",
"l+	c #1A2125",
"m+	c #31383D",
"n+	c #191A1A",
"o+	c #7E7F7F",
"p+	c #141414",
"q+	c #39393A",
"r+	c #D8D8D8",
"s+	c #FDFDFD",
"t+	c #A8A8A8",
"u+	c #0B0B0B",
"v+	c #282828",
"w+	c #676767",
"x+	c #A3A3A3",
"y+	c #252525",
"z+	c #BEBEBE",
"A+	c #808080",
"B+	c #3B3B3B",
"C+	c #383A3A",
"D+	c #0D252F",
"E+	c #183845",
"F+	c #171A1C",
"G+	c #222729",
"H+	c #18191A",
"I+	c #6C6C6D",
"J+	c #2E2E2E",
"K+	c #2D2D2D",
"L+	c #9D9E9E",
"M+	c #F2F2F2",
"N+	c #F8F8F8",
"O+	c #FBFBFB",
"P+	c #FEFEFE",
"Q+	c #D1D1D1",
"R+	c #2A2A2A",
"S+	c #272727",
"T+	c #CCCCCC",
"U+	c #F9F9F9",
"V+	c #F6F6F6",
"W+	c #F4F4F4",
"X+	c #F3F3F3",
"Y+	c #EDEDED",
"Z+	c #E0E0E0",
"`+	c #8B8B8B",
" @	c #4D4D4D",
".@	c #1F1F20",
"+@	c #484A4A",
"@@	c #505050",
"#@	c #363636",
"$@	c #4B4C4C",
"%@	c #5F5F5F",
"&@	c #212425",
"*@	c #E6E9EB",
"=@	c #F1F1F1",
"-@	c #FCFCFC",
";@	c #DCDCDC",
">@	c #050505",
",@	c #404040",
"'@	c #D7D7D7",
")@	c #F5F5F5",
"!@	c #2F2F2F",
"~@	c #D9D9D9",
"{@	c #E9E9E9",
"]@	c #DFDFDF",
"^@	c #D5D5D5",
"/@	c #80878A",
"(@	c #6E7375",
"_@	c #CDCDCD",
":@	c #D4D4D4",
"<@	c #E2E2E2",
"[@	c #4F5659",
"}@	c #9EA3A6",
"|@	c #EEEEEF",
"1@	c #4A4A4A",
"2@	c #484848",
"3@	c #A0A0A0",
"4@	c #818181",
"5@	c #838383",
"6@	c #FAFAFA",
"7@	c #4C4C4C",
"8@	c #CECECE",
"9@	c #E5E5E5",
"0@	c #DBDBDB",
"a@	c #D2D2D2",
"b@	c #C9C9C9",
"c@	c #4D5153",
"d@	c #8D8F90",
"e@	c #E3E3E3",
"f@	c #A2B7C0",
"g@	c #1F2223",
"h@	c #E0E0E1",
"i@	c #EFEFEF",
"j@	c #454545",
"k@	c #3F3F3F",
"l@	c #848484",
"m@	c #515151",
"n@	c #747474",
"o@	c #828282",
"p@	c #AAAAAA",
"q@	c #C7C7C7",
"r@	c #222424",
"s@	c #D6D6D6",
"t@	c #DDDDDD",
"u@	c #E4E4E4",
"v@	c #E5E7E8",
"w@	c #2E3C42",
"x@	c #7F8080",
"y@	c #ECECEC",
"z@	c #424242",
"A@	c #181818",
"B@	c None",
"C@	c #797979",
"D@	c #191919",
"E@	c #545454",
"F@	c #686868",
"G@	c #3E3E3E",
"H@	c #1F1F1F",
"I@	c #3A3A3A",
"J@	c #393939",
"K@	c #0A0A0A",
"L@	c #B0B0B0",
"M@	c #E8E8E8",
"N@	c #8C9193",
"O@	c #151515",
"P@	c #BBBBBB",
"Q@	c #1A1A1A",
"R@	c #737373",
"S@	c #0D0D0D",
"T@	c #4F4F4F",
"U@	c #434343",
"V@	c #161616",
"W@	c #464646",
"X@	c #232323",
"Y@	c #101010",
"Z@	c #0E0E0E",
"`@	c #565656",
" #	c #212121",
".#	c #585858",
"+#	c #777777",
"@#	c #626262",
"##	c #636363",
"$#	c #1D1D1D",
"%#	c #7C7C7C",
"&#	c #121212",
"*#	c #5D5D5D",
"=#	c #474747",
"-#	c #010101",
";#	c #323232",
"                                                                ",
"                        . + @ # $ % & * = - ; >                 ",
"                    , ' ) ! ~ { ] ^ / ( _ : < [ } | 1           ",
"          1 1       2 3 4 5 6 7 8 9 0 a b c d e f g h           ",
"        1 1     1   i j k l m n o p q r s t u v w x y           ",
"        1     1 1   z A B C m D E F G H I J K L M N O           ",
"      1 1   1 1     P Q k R S T U V W X Y Z `  ...+.@.          ",
"      1 1   1 1       #.$.%.&.1 *.=.-.;.>.,.'.).!.~.{.          ",
"      1 1   1 1       Q $.].^./.(._.:.<.;.[.}.|.1.+.2.          ",
"      1 1   1 1       #.3.4.1 5.6.7.8.9.0.a.b.c.d.+.2.          ",
"      1 1   1 1       e.j f.1 g.h.i.j.k.l.m.n.o.d.p.q.          ",
"      1 1     1 1     e.A r.s.1 t.u.v.w.m.x.y.E z.A.B.          ",
"        1       1     e.A C.D./.E.F.G.H.I.J.K.L.M.N.O.          ",
"        1 1           e.Q P.Q.R.S.T.U.V.W.X.Y.Z.`. +.+          ",
"          1 1           Q ++@+#+$+%+&+*+=+-+;+>+;+;+,+          ",
"                        #.'+'+)+#+!+~+{+]+;+;+;+;+^+e.          ",
"                        e.++/+(+_+:+<+[+}+|+;+;+1+2+            ",
"                        e.3+/+(+4+5+6+7+8+9+0+a+b+c+1+          ",
"          d+e+f+g+h+    e.i+j+(+k+l+m+n+o+p+q+r+s+t+u+1+        ",
"      v+w+x+r+y+z+A+B+C+D+E+F+G+H+I+J+J+K+L+M+N+O+P+Q+R+c+      ",
"    S+T+U+V+W+v+X+Y+Z+`+ @.@+@@@#@$@%@&@*@=@X+V+U+-@s+;@>@1+    ",
"  ,@f+'@O+N+)@!@~@{@]@^@T+/@(@_@:@;@<@[@}@|@=@W+V+U+V+1@2@3@1+>@",
"    4@5@s+6@V+7@8@9@0@a@b@c@d@_@^@;@e@f@g@h@i@=@W+i@1@d+R+j@2+  ",
"    Q+k@l@m@#@0+n@o@p@b@q@r@t+8@s@t@u@v@w@x@y@i@]@z@>@:@A@1+    ",
"  B@C@D@E@B@B@B@F@G@H@I@J@K@L@8@s@t@u@M@N@O@;@P@Q@R@2@S@        ",
"  B@o@B@B@B@B@B@B@B@B@T@U@V@j@G@3@;@u@{@e@Q@W@9+T@X@Y@          ",
"  B@B@B@B@B@B@B@B@B@B@B@B@m@Z@`@>@ #.#+#@#p+#@p+##S+B@B@        ",
"    B@B@B@B@B@B@B@B@B@B@B@B@B@R+$#R+`@X@%#&###a+*#B@B@B@B@      ",
"    B@B@B@      B@B@B@B@B@B@B@B@B@=#K@-#J@K@;#B@B@B@B@B@B@B@    ",
"                  B@B@B@B@B@B@B@B@B@B@B@B@B@B@B@B@B@B@B@B@      ",
"                      B@B@B@B@B@B@B@B@B@B@B@B@B@B@B@B@B@        ",
"                                  B@B@B@B@B@B@B@B@B@B@B@        "};
