/* XPM */
static char * sleep_2_xpm[] = {
"32 32 45 1",
" 	c None",
".	c #B5B5B5",
"+	c #5E5E5E",
"@	c #242424",
"#	c #B1B1B1",
"$	c #9C9C9C",
"%	c #494949",
"&	c #020202",
"*	c #212121",
"=	c #535353",
"-	c #000000",
";	c #2C2C2C",
">	c #464646",
",	c #989898",
"'	c #2A2A2A",
")	c #8B8B8B",
"!	c #D3D3D3",
"~	c #686868",
"{	c #8E8E8E",
"]	c #111111",
"^	c #CBCBCB",
"/	c #FFFFFF",
"(	c #646464",
"_	c #3C3C3C",
":	c #ECECEC",
"<	c #F2F2F2",
"[	c #030303",
"}	c #747474",
"|	c #A4A4A4",
"1	c #090909",
"2	c #BDBDBD",
"3	c #444444",
"4	c #343434",
"5	c #131313",
"6	c #9B9B9B",
"7	c #757575",
"8	c #0D0D0D",
"9	c #FCFCFC",
"0	c #5B5B5B",
"a	c #2D2D2D",
"b	c #C3C3C3",
"c	c #B6B6B6",
"d	c #0C0C0C",
"e	c #060606",
"f	c #5F5F5F",
"            .+@#                ",
"          $%&&*#                ",
"         =-;>-,                 ",
"       $'-)!-~                  ",
"      {];^/(*                   ",
"     $]_:/<[}                   ",
"     ';://|12                   ",
"    =-^///(3                    ",
"   $-)////4}                    ",
"   %;/////5,                    ",
"  .&6/////[#                    ",
"  789/////[#                    ",
"  %0//////5,                    ",
"  '6//////4}                    ",
"  ]^//////(3                    ",
"  &://////|12                   ",
"  &://////<[}                   ",
"  ]^///////(*                   ",
"  '6///////!-~                  ",
"  %0////////}-,                 ",
"  789////////4*#                ",
"  .&6////////!5a#               ",
"   %;/////////b5*,              ",
"   $-)/////////!4-~             ",
"    =-^//////////}-*}2        22",
"     ';://////////!([13},##,}31c",
"     $]_:///////////<|(45[[]def ",
"      {];^////////////////^;]{  ",
"       $'-)//////////////)-'$   ",
"         =-;69////////96;-=     ",
"          $%&806^::^608&%$      ",
"            .7%']&&]'%7.        "};
