/* XPM */
static char * solbourne_xpm[] = {
"32 32 4 1",
" 	c None",
".	c #336699",
"+	c #3399CC",
"@	c #000000",
"                ......          ",
"              ..+++++.          ",
"            ..+++++++.          ",
"           .+++++++++.          ",
"          .++++++++++.          ",
"         .+++++++++++.          ",
"        .++++++++++++.          ",
"       .+++++++++++++.          ",
"       .+++++++++++++.          ",
"      .++++++++++++...          ",
"      .++++++++++..             ",
"     .++++++++++.               ",
"     .+++++++++.                ",
"     .+++++++++.                ",
"     .++++++++.                 ",
"     ..........                 ",
"                 @@@@@@@@@@     ",
"                 @@@@@@@@@@     ",
"                @@@@@@@@@@@     ",
"                @@@@@@@@@@@     ",
"               @@@@@@@@@@@@     ",
"             @@@@@@@@@@@@@      ",
"          @@@@@@@@@@@@@@@@      ",
"          @@@@@@@@@@@@@@@       ",
"          @@@@@@@@@@@@@@@       ",
"          @@@@@@@@@@@@@@        ",
"          @@@@@@@@@@@@@         ",
"          @@@@@@@@@@@@          ",
"          @@@@@@@@@@@           ",
"          @@@@@@@@@@            ",
"          @@@@@@@@              ",
"          @@@@@@                "};
