/* XPM */
static char * spectrum_xpm[] = {
"32 32 8 1",
" 	c None",
".	c #000000",
"+	c #7F7F7F",
"@	c #FF0000",
"#	c #FFFFFF",
"$	c #E5E500",
"%	c #00D34D",
"&	c #00B9E8",
"................................",
"................................",
"......+...........+......+......",
"..................+.............",
".++++.+.++++.++++.+.++++.+.++++.",
".+....+.+..+.+....+....+.+.+....",
".++++.+.+..+.+....+.++++.+.+....",
"....+.+.+..+.+....+.+..+.+.+....",
".++++.+.+..+.++++.+.++++.+.+....",
"................................",
"...............................@",
".........######.##...##........@",
".........######.##...##.......@@",
"............##...##.##........@@",
"...........###...#####.......@@$",
"...........##.....###........@@$",
"..........###....#####......@@$$",
"..........##.....##.##......@@$$",
".........######.##...##....@@$$%",
".........######.##...##....@@$$%",
"..........................@@$$%%",
"..........................@@$$%%",
".###.............#.......@@$$%%&",
"#....##...##..##.##.##.#.#@##%#&",
".#...#.#.#.#.#...#..#..#@#$#%#&#",
"..#..#.#.##..#...#..#..#@#$#%#&#",
"...#.#.#.#...#...#..#..#@#$#%#&#",
"###..##...##..##..#.#..@##$#%#&#",
".....#................@@$$%%&&..",
".....#................@@$$%%&&..",
".....................@@$$%%&&...",
".....................@@$$%%&&..."};
