/* XPM */
static char * spreadsheet_xpm[] = {
"32 32 13 1",
" 	c None",
".	c #000000",
"+	c #404040",
"@	c #808080",
"#	c #F7F7F7",
"$	c #C7C6B6",
"%	c #9D9B7C",
"&	c #4E4E3E",
"*	c #23241C",
"=	c #060606",
"-	c #3C3C3C",
";	c #27271F",
">	c #1A1A14",
"                                ",
"    .........................   ",
"   .+@@@@@@@@@@@@@@@@@@@@@@@+.  ",
"   .@#######################@.  ",
"   .@##$$$$$$$$$$$$$$$$$$$$$@.  ",
"   .@#$%%%%%%%%%%%%%%%%%%%%%&.  ",
"   .+@#$%%%%%&&&&&&&&&&&&&%%&.  ",
"    .+@#$%%%&.............&%&.  ",
"     .+@#$%%%&.           .&*.  ",
"      .+@#$%%%&.           ..   ",
"       .+@#$%%%&.               ",
"        .+@#$%%%&.              ",
"         .+@#$%%%&.             ",
"          .+@#$%%%&.            ",
"           .+@#$%%%&.           ",
"            .+@#$%%%&.          ",
"            +=@#$%%%&.          ",
"            .+@#$%%%&.          ",
"           .+@#$%%%&.           ",
"          .+@#$%%%&.            ",
"         .+@#$%%%&.        ..   ",
"        .+@#$%%%&.        .++.  ",
"       .+@#$%%%&.        .+@-.  ",
"      .+@#$%%%&.        .+@#@.  ",
"     .+@#$%%%&.        .+@#$@.  ",
"    .+@#$%%%&..........+@#$%&.  ",
"   .+@#$%%%%%@@@@@@@@@@@#$%%&.  ",
"   .@#$%%%%$############$%%%&.  ",
"   .&$%%%%%%$$$$$$$$$$$$%%%%&.  ",
"   .&%%%%%%%%%%%%%%%%%%%%%%&&.  ",
"   .;&&&&&&&&&&&&&&&&&&&&&&&>.  ",
"    .........................   "};
