/* XPM */
static char * st_xpm[] = {
"32 32 5 1",
" 	c None",
".	c #0000FF",
"+	c #FFFFFF",
"@	c #000000",
"#	c #E7E7E7",
"                                ",
"                                ",
"                                ",
"                                ",
"                                ",
"                                ",
"  ...........................   ",
"  ...........................   ",
"  ...........................   ",
"  ...........................   ",
"  .+++++++++++++++++++++++++.   ",
"  .+++++++++++++++++++++++++.   ",
"  .+++++++++++++++++++++++++.   ",
"  .+++++++++++++++++++++++++.   ",
"  .+++++++++++++@+++++++++++.   ",
"  .+++++++++++++@@++++@+++++.   ",
"  .+++++++++++++@@@@@@@+++++.   ",
"  .++++++#@@@@@@@@@@@@@+++++.   ",
"  .+++++++++++++@@@@@@@+++++.   ",
"  .+++++++++++++@@++++@+++++.   ",
"  .+++++++++++++@+++++++++++.   ",
"  .+++++++++++++++++++++++++.   ",
"  .+++++++++++++++++++++++++.   ",
"  .+++++++++++++++++++++++++.   ",
"  .+++++++++++++++++++++++++.   ",
"  ...........................   ",
"                                ",
"                                ",
"                                ",
"                                ",
"                                ",
"                                "};
