/* XPM */
static char * titan_xpm[] = {
"32 32 21 1",
" 	c None",
".	c #000000",
"+	c #545454",
"@	c #7F7F7F",
"#	c #060606",
"$	c #020202",
"%	c #030303",
"&	c #0A0A0A",
"*	c #090909",
"=	c #050505",
"-	c #FFFFFF",
";	c #0F0F0F",
">	c #101010",
",	c #070707",
"'	c #0C0C0C",
")	c #0D0D0D",
"!	c #080808",
"~	c #040404",
"{	c #0B0B0B",
"]	c #161616",
"^	c #171717",
"                                ",
"             .   .              ",
"            ++...++             ",
"            +.@@@.+             ",
"           @ ..@.. @            ",
"          + ...@... +           ",
"          .+.......+.           ",
"         +#$$$$.$$$$$+          ",
"         .$$$$$.$$$$$.          ",
"        +.$$$$$.$$$$$.+         ",
"       +.$$$$$$$$$$$$..+        ",
"      @.$$$$$$$$$$$$$$$.@       ",
"      .%$$$$$$$$$$$$$$$..       ",
"  @.....&..*.........=......@   ",
"  .@---@.--.@---@.@-..@-@&@-.   ",
"  .@@-@@.--.@@-@@.@-@.@--@.-.   ",
"  +;@-@..-->.@-@.@@.@@@-@-@-.   ",
"  .*@-@.*--,.@-@.@---@@-.@--.   ",
"  .=@-@.'--).@-@@-..@-@-@.@-.   ",
" @.$....,...!................@  ",
" +$$$$$.$$$$$$$$$$$$$$.$$$$$$+  ",
" .$$$$$.$$$$$$$$$$$$$$$$$$$$$'  ",
"@~$$$$$.$$$$$$$$$$$$$$$$$$$$$$@ ",
"+$$$$$$.$$$$$$$$$$$$$$$$$$$$$$+ ",
".$$$$$$$$$$$$$$$$$$$$$$$$$$$$$. ",
".$$$$$$%$$$$$$$$$$$$$$$$$$$$$$. ",
".$$$$$$'$$$$$$$$$$$$$$$$$$$$$$. ",
".$$$$$$$%=#*{>]^>'{{*,~$$$$$$$. ",
"+=$$.....++@@     @@++.....$$$+ ",
"@...+@                   @+...@ ",
" .+                         +.  ",
"                                "};
