/* XPM */
static char * tv_xpm[] = {
"32 32 16 1",
" 	c None",
".	c #808080",
"+	c #604000",
"@	c #76FF76",
"#	c #78FF78",
"$	c #6DFF6D",
"%	c #56FF56",
"&	c #3FFF3F",
"*	c #27FF27",
"=	c #00FF00",
"-	c #00EF00",
";	c #00DF00",
">	c #00CF00",
",	c #00BF00",
"'	c #AD8F56",
")	c #FFFFFF",
"          .          .          ",
"           .        .           ",
"            .      .            ",
"             .    .             ",
" ++++++++++++++++++++++++++++++ ",
"++++++++++++++++++++++++++++++++",
"+++@##$$%%%%%&&&&&&******====+++",
"++@###$%%%%%&&&&&&******======++",
"++@@$%%%%%&&&&&&******========++",
"++@@%%%%%&&&&&&******=========++",
"++%%%%%&&&&&&******==========-++",
"++%%%%&&&&&&******==========--++",
"++%%&&&&&&******==========----++",
"++%&&&&&&******==========-----++",
"++&&&&&******==========------;++",
"++&&&&******==========------;;++",
"++&&******==========------;;;;++",
"++&******==========------;;;;;++",
"++*****==========------;;;;;;>++",
"++****==========------;;;;;;>>++",
"++**==========------;;;;;;>>>>++",
"++*==========------;;;;;;>>>>>++",
"++=========------;;;;;;>>>>>,,++",
"++========------;;;;;;>>>>>,,,++",
"++======------;;;;;;>>>>>,,,,,++",
"+++====------;;;;;;>>>>>,,,,,+++",
"++++++++++++++++++++++++++++++++",
"++++++++++++++++++++++++++++++++",
"++')'+')'+')'++++++++++++++')'++",
"++)))+)))+)))++++++++++++++)))++",
"++')'+')'+')'++++++++++++++')'++",
" ++++++++++++++++++++++++++++++ "};
