/* XPM */
static char * ultrix_xpm[] = {
"32 32 3 1",
" 	c None",
".	c #AE0000",
"+	c #FFFFFF",
"                                ",
"                                ",
"                                ",
"                                ",
"                                ",
".... ... .... ... .... .... ... ",
".... ... .... ... .... .... ... ",
"..+. .+. .... .+. .+.. .... .+. ",
"..+. ... .... ... .+.. .... .+. ",
".++. .+. .++. .+. .++. .++. .+. ",
".++. .+. .++. .+. .+.. ..+. .+. ",
".++. .+. .++. .+. .+.. .++. .+. ",
".++. .+. .++. .+. .+.. .++. .+. ",
".++. .+. .++. .+. .++. .++. .+. ",
".... ... ..+. ... .... .... ... ",
".... ... .++. ... .... .... ... ",
".... ... .... ... .... .... ... ",
".... ... .... ... .... .... ... ",
"                                ",
" .   . .   ..... ....  . .   .  ",
" .   . .     .   .   . . .   .  ",
" .   . .     .   .   . .  . .   ",
" .   . .     .   ....  .   .    ",
" .   . .     .   .   . .  . .   ",
" .   . .     .   .   . . .   .  ",
"  ...  ..... .   .   . . .   .  ",
"                                ",
"                                ",
"                                ",
"                                ",
"                                ",
"                                "};
