/* XPM */
static char * unicode_xpm[] = {
"32 32 4 1",
" 	c None",
".	c #FE0303",
"+	c #FEFEFE",
"@	c #FE8787",
"......      ......        ......",
"......      ......@       ......",
"......      .......       ......",
"......      .......@      ......",
"......      ........      ......",
"......      ........@     ......",
"......      .........     ......",
"......      .........@          ",
"......      ..........          ",
"......      ..........@   ......",
"......      ...........   ......",
"......      ...........@  ......",
"......      ............  ......",
"......      ............@ ......",
"......      ............. ......",
"......      .............@......",
"......      ......@.............",
"......      ...... .............",
"......      ...... @............",
"......      ......  ............",
"......      ......  @...........",
"......      ......   ...........",
"......@    @......   @..........",
".......@  @.......    ..........",
"@.......@@.......@    @.........",
" ................      .........",
" @..............@      @........",
"  ..............        ........",
"  @............@        @.......",
"   @..........@          .......",
"    @........@           @......",
"      @....@              ......"};
