/* XPM */
static char * usb_xpm[] = {
"32 32 5 1",
" 	c None",
".	c #000000",
"+	c #7F7F7F",
"@	c #202020",
"#	c #1C1C1C",
"                                ",
"                                ",
"                                ",
"                                ",
"                                ",
"                                ",
"                                ",
"                                ",
"                                ",
"                  ...           ",
"                 .....          ",
"              ........          ",
"            ..   .....          ",
" +@#+      .      ...           ",
"+....+    .                 +   ",
"......  .+                  ..+ ",
"................................",
"......       .+             ..+ ",
"+....+         .            +   ",
" +..+           .     ++++      ",
"                 ..   ....      ",
"                   .......      ",
"                      ....      ",
"                      ++++      ",
"                                ",
"                                ",
"                                ",
"                                ",
"                                ",
"                                ",
"                                ",
"                                "};
