/* XPM */
static char * usbrestart_xpm[] = {
"32 32 7 1",
" 	c None",
".	c #FFFFFF",
"+	c #E5E5E5",
"@	c #000000",
"#	c #7F7F7F",
"$	c #202020",
"%	c #1C1C1C",
"              .                 ",
"              ..                ",
"              ...               ",
"             +....              ",
"           +.......             ",
"          ..........            ",
"         ............  +.       ",
"        ............    ..      ",
"       ............     +..     ",
"      +....+ +....@@@    ..+    ",
"      ....    ...@@@@@   +..    ",
"     +...     @@@@@@@@    ..+   ",
"     ...+   @@.  @@@@@    ..+   ",
" #$%#...   @      @@@     ...   ",
"#@@@@#.+  @               ..#   ",
"@@@@@@. @#                ..@@# ",
"@@@@@@@@@@@@@@@@@@@@@@@@@@@@@@@@",
"@@@@@@.      @#          ...@@# ",
"#@@@@#.        @  .     +...#   ",
" #@@#..         @..   ####.+    ",
"     ..+        .@@   @@@@.     ",
"     +..       ....@@@@@@@+     ",
"      ..+     ........@@@@      ",
"       ..    .........####      ",
"        .+  ............        ",
"             ..........         ",
"              .......+          ",
"               ....+            ",
"                ...             ",
"                 ..             ",
"                  .             ",
"                                "};
