/* XPM */
static char * vms_xpm[] = {
"32 32 3 1",
" 	c None",
".	c #AE0000",
"+	c #FFFFFF",
"                                ",
"                                ",
"                                ",
"                                ",
"                                ",
".... ... .... ... .... .... ... ",
".... ... .... ... .... .... ... ",
"..+. .+. .... .+. .+.. .... .+. ",
"..+. ... .... ... .+.. .... .+. ",
".++. .+. .++. .+. .++. .++. .+. ",
".++. .+. .++. .+. .+.. ..+. .+. ",
".++. .+. .++. .+. .+.. .++. .+. ",
".++. .+. .++. .+. .+.. .++. .+. ",
".++. .+. .++. .+. .++. .++. .+. ",
".... ... ..+. ... .... .... ... ",
".... ... .++. ... .... .... ... ",
".... ... .... ... .... .... ... ",
".... ... .... ... .... .... ... ",
"                                ",
"     .     . .     .  ....      ",
"     .     . ..   .. .    .     ",
"      .   .  . . . . .          ",
"      .   .  .  .  .  ....      ",
"       . .   .     .      .     ",
"       . .   .     . .    .     ",
"        .    .     .  ....      ",
"                                ",
"                                ",
"                                ",
"                                ",
"                                ",
"                                "};
