/* XPM */
static char * warning_xpm[] = {
"32 32 7 1",
" 	c None",
".	c #FF0000",
"+	c #FFFFFF",
"@	c #000000",
"#	c #404040",
"$	c #808080",
"%	c #C0C0C0",
"                                ",
"                                ",
"               ..               ",
"              ....              ",
"              ....              ",
"             ......             ",
"             ..++..             ",
"            ...++...            ",
"            ..++++..            ",
"           ...++++...           ",
"          ...++@@++...          ",
"          ..++@@@@++..          ",
"         ...++@@@@++...         ",
"         ..+++@@@@+++..         ",
"        ...+++@@@@+++...        ",
"        ..++++#@@#++++..        ",
"       ...++++$@@$++++...       ",
"      ...+++++%@@%+++++...      ",
"      ..+++++++@@+++++++..      ",
"     ...+++++++@@+++++++...     ",
"     ..++++++++@@++++++++..     ",
"    ...++++++++@@++++++++...    ",
"    ..++++++++++++++++++++..    ",
"   ...+++++++++@@+++++++++...   ",
"  ...+++++++++@@@@+++++++++...  ",
"  ..++++++++++@@@@++++++++++..  ",
" ...+++++++++++@@+++++++++++... ",
" ..++++++++++++++++++++++++++.. ",
"................................",
"................................",
"                                ",
"                                "};
