/* XPM */
static char * word_xpm[] = {
"32 32 9 1",
" 	c None",
".	c #000000",
"+	c #7B7B7B",
"@	c #FFFFFF",
"#	c #00FFFF",
"$	c #BDBDBD",
"%	c #007B7B",
"&	c #7B007B",
"*	c #FF00FF",
"          ..                    ",
"          ...+                  ",
"         +.+...+                ",
"         ..@@+...+              ",
"        +.@@@@@+...+            ",
"        ..@@@@@@@+...+          ",
"...... +...@......@+...+        ",
".####. ..#.$.####.@@@+...+      ",
" .##. +.##.$@.#.+@@@@@@+...+    ",
" .##. ..##.$@.#.$@@@@@@@@+...+  ",
" .##.+.###.$.#.+$@@@@@@@@@@+....",
" .##...###.$.#.$$@@@@++@@@@@@+..",
" .##..#.##..#.+$@+@@@+%++@@@@.. ",
" .##..#.##..#.$$@@+@+&###+@@+.+ ",
" .##.#..##.#.+$@+@@@+&#%+@@@..  ",
" .####..####.$$@@+@+**&#+@@+.+  ",
" .###.+.###.+$@+@@@++*&+@@@..   ",
" .###.+.###.$$@@++@@@+++@@+.+   ",
" ....+$....+$@+@@@++@@@@@@..    ",
" ..$$$@$$$$$$@@++@@@++@@@+.+    ",
"+.+@@@@@@@@@++@@@++@@@@@@..     ",
"....+@@@@@@@@@++@@@++@@@+.+     ",
"  +...+@@@@@@@@@++@@@@@@..      ",
"    +...+@@@@@@@@@++@@@+.+      ",
"      +...+@@@++@@@@@@@..       ",
"        +...+@@@++@@@@+.+       ",
"          +...+@@@@@@@..        ",
"            +...+@@@@+.+        ",
"              +...+@@..         ",
"                +...+.+         ",
"                  +...          ",
"                    ..          "};
