/* XPM */
static char * wlan_xpm[] = {
"32 32 4 1",
" 	g None",
".	g #808080",
"+	g #000000",
"@	g #404040",
"                                ",
"  .                          .  ",
"  +                          +  ",
" @.   @                  @   .@ ",
" +   @.                  .@   + ",
"..   +                    +   ..",
"@.  ..   @    .++.    @   ..  .@",
"+   @   ..   ++++++   ..   @   +",
"+   +   @   .++++++.   @   +   +",
"+   +   +   ++++++++   +   +   +",
"+   +   +   ++++++++   +   +   +",
"+   +   @   .++++++.   @   +   +",
"+   @   ..   ++++++   ..   @   +",
"@.  ..   @    .++.    @   ..  .@",
"..   +        .++.        +   ..",
" +   @.       .++.       .@   + ",
" @.   @       ++++       @   .@ ",
"  +          .++++.          +  ",
"  .          .++++.          .  ",
"             ++++++             ",
"             ++++++             ",
"            .++++++.            ",
"            .++++++.            ",
"            ++++++++            ",
"            ++++++++            ",
"           .++++++++.           ",
"           .++++++++.           ",
"           ++++++++++           ",
"           ++++++++++           ",
"          .++++++++++.          ",
"          .++++++++++.          ",
"                                "};
