/* XPM */
static char * wp_xpm[] = {
"32 32 4 1",
" 	c None",
".	c #0000F8",
"+	c #000000",
"@	c #B8BCB8",
"                                ",
"                                ",
"  .....+ .....+ ...+......@     ",
"   ...+   ...+   .+  .......    ",
"   ...+   ...+   .@ ...+  ...   ",
"   ...+  ....+  .+  ...+   ..@  ",
"   ...+  ....+  .+  ...@   ..+  ",
"   ...+  ....+  .@ ...+    ..+  ",
"   ...+ .+...+ .+  ...+    ..+  ",
"   ...+ .+...+ .+  ...@   @..+  ",
"   ...+ .@...+ .@ ...+    @..+  ",
"   ...+.+ ...+.+  ...+    ...+  ",
"   ...+.+ ...+.+  ...@   @...@  ",
"   .....@ .....@ ...+    ...+   ",
"   ....+  ....+  ...+   ....+   ",
"   ....+  ....+  ...@ .....+    ",
"   ...+@  ...+@ .........++     ",
"   ++++   ++++  ...+ ++++       ",
"                ...@            ",
"               ...+       @++   ",
"      ++++++   ...+        @++  ",
"    ++@     ++....+         ++  ",
"   ++         ...+          ++  ",
"  ++         ....+++       +++  ",
"  ++         ++++   ++    +++   ",
"  ++        +   +     +++++@    ",
"  ++       +  ++                ",
"   ++     + ++                  ",
"    ++@  +++                    ",
"      ++++                      ",
"                                ",
"                                "};
