/* XPM */
static char * xbiff_empty_xpm[] = {
"48 24 3 1",
" 	c None",
".	c #000000",
"+	c #FFFFFF",
"................................................",
"................................................",
".........+++++++++++++++++++++++++++++..........",
".........+...........................+..........",
".........+...........................+..........",
".........++.........................++..........",
".........+.+.......................+.+..........",
".........+..+.....................+..+..........",
".........+...+...................+...+..........",
".........+....+.................+....+..........",
".........+.....+...............+.....+..........",
".........+......+.............+......+..........",
".........+.......+...........+.......+..........",
".........+........+.........+........+..........",
".........+.......+.+.......+.+.......+..........",
".........+......+...++...++...+......+..........",
".........+.....+......+++......+.....+..........",
".........+....+.................+....+..........",
".........+...+...................+...+..........",
".........+..+.....................+..+..........",
".........+.+.......................+.+..........",
".........+++++++++++++++++++++++++++++..........",
"................................................",
"................................................"};
