/* XPM */
static char * xchat_xpm[] = {
"32 32 361 2",
"  	c None",
". 	c #142D20",
"+ 	c #12251D",
"@ 	c #142C21",
"# 	c #101E1A",
"$ 	c #0F2018",
"% 	c #11271B",
"& 	c #0F2017",
"* 	c #102418",
"= 	c #1E4233",
"- 	c #2C5949",
"; 	c #2F5C4C",
"> 	c #396857",
", 	c #356554",
"' 	c #295748",
") 	c #234F3F",
"! 	c #1E4435",
"~ 	c #163326",
"{ 	c #10231B",
"] 	c #070909",
"^ 	c #09100D",
"/ 	c #132C1F",
"( 	c #1D3E30",
"_ 	c #2A5848",
": 	c #386959",
"< 	c #427362",
"[ 	c #3D6E5D",
"} 	c #2A594A",
"| 	c #2D5D4E",
"1 	c #376757",
"2 	c #386958",
"3 	c #2B5B4C",
"4 	c #1E4534",
"5 	c #163425",
"6 	c #0D1914",
"7 	c #080C0B",
"8 	c #11211C",
"9 	c #285243",
"0 	c #9FAFA9",
"a 	c #A2B2AD",
"b 	c #A0B0AB",
"c 	c #63897B",
"d 	c #2E5E4F",
"e 	c #346556",
"f 	c #336454",
"g 	c #275647",
"h 	c #336354",
"i 	c #265444",
"j 	c #1B402F",
"k 	c #11271C",
"l 	c #0C1710",
"m 	c #070A09",
"n 	c #0E1E15",
"o 	c #101E19",
"p 	c #3F705F",
"q 	c #39AF14",
"r 	c #3AB514",
"s 	c #44B322",
"t 	c #368C30",
"u 	c #2E5E4E",
"v 	c #234D3D",
"w 	c #446E61",
"x 	c #4A7567",
"y 	c #2E5D4D",
"z 	c #1F4737",
"A 	c #153024",
"B 	c #0C1711",
"C 	c #234D40",
"D 	c #378A30",
"E 	c #2FA508",
"F 	c #30B007",
"G 	c #2C9C08",
"H 	c #193A2A",
"I 	c #557A6E",
"J 	c #829E90",
"K 	c #62A55D",
"L 	c #5A975F",
"M 	c #4E865C",
"N 	c #376152",
"O 	c #245142",
"P 	c #224C3C",
"Q 	c #102419",
"R 	c #060607",
"S 	c #0D1B15",
"T 	c #285343",
"U 	c #366757",
"V 	c #2F7438",
"W 	c #2FA807",
"X 	c #31BE06",
"Y 	c #1A4722",
"Z 	c #47655A",
"` 	c #84C271",
" .	c #30AD07",
"..	c #2FAB08",
"+.	c #2E9D07",
"@.	c #278508",
"#.	c #286434",
"$.	c #1C472B",
"%.	c #204A3A",
"&.	c #0B1310",
"*.	c #1D4032",
"=.	c #2A5F43",
"-.	c #31A518",
";.	c #33CF06",
">.	c #50A73A",
",.	c #8CB883",
"'.	c #3BBD14",
").	c #30B607",
"!.	c #2FA208",
"~.	c #2C9206",
"{.	c #258308",
"].	c #206F12",
"^.	c #1C3D30",
"/.	c #080D0B",
"(.	c #080E0B",
"_.	c #0E1C17",
":.	c #275445",
"<.	c #33684D",
"[.	c #265A40",
"}.	c #2D7C2E",
"|.	c #34D406",
"1.	c #5AE234",
"2.	c #58D934",
"3.	c #35DC06",
"4.	c #32C206",
"5.	c #2A9907",
"6.	c #1E4D24",
"7.	c #153A19",
"8.	c #227608",
"9.	c #298807",
"0.	c #1C3C2E",
"a.	c #0F2116",
"b.	c #152E24",
"c.	c #2C6147",
"d.	c #36E506",
"e.	c #33CB06",
"f.	c #13310E",
"g.	c #0D1A12",
"h.	c #18411D",
"i.	c #2B8C06",
"j.	c #248109",
"k.	c #1C501A",
"l.	c #326252",
"m.	c #2F6A41",
"n.	c #32723B",
"o.	c #49BE2A",
"p.	c #228508",
"q.	c #153022",
"r.	c #1A3D2C",
"s.	c #1F6816",
"t.	c #1F512C",
"u.	c #183429",
"v.	c #0E1D14",
"w.	c #204939",
"x.	c #234C3C",
"y.	c #19352B",
"z.	c #447B5C",
"A.	c #417759",
"B.	c #2F5F4F",
"C.	c #488B51",
"D.	c #95DB88",
"E.	c #165007",
"F.	c #0A130F",
"G.	c #1C4232",
"H.	c #1B3F2F",
"I.	c #12261D",
"J.	c #22493B",
"K.	c #306051",
"L.	c #3A6A5A",
"M.	c #3C6C5B",
"N.	c #336E48",
"O.	c #5C886C",
"P.	c #96D38B",
"Q.	c #31C707",
"R.	c #113208",
"S.	c #396D49",
"T.	c #5D7B6D",
"U.	c #618177",
"V.	c #173227",
"W.	c #26493E",
"X.	c #316253",
"Y.	c #346E48",
"Z.	c #8AC385",
"`.	c #46D21D",
" +	c #32C406",
".+	c #144107",
"++	c #2D5846",
"@+	c #94B793",
"#+	c #8CBD7C",
"$+	c #66B04C",
"%+	c #609E4D",
"&+	c #3B6C5C",
"*+	c #1E4235",
"=+	c #274C3F",
"-+	c #396A5A",
";+	c #316050",
">+	c #416E5E",
",+	c #94B696",
"'+	c #45BC22",
")+	c #2EA50B",
"!+	c #1D5021",
"~+	c #31B806",
"{+	c #1D6707",
"]+	c #405B4B",
"^+	c #658678",
"/+	c #83BC71",
"(+	c #1D5423",
"_+	c #1A3C2D",
":+	c #214539",
"<+	c #317539",
"[+	c #86A794",
"}+	c #5EBA48",
"|+	c #30B307",
"1+	c #225A2C",
"2+	c #2C8A23",
"3+	c #2FA808",
"4+	c #72B863",
"5+	c #7FBF6F",
"6+	c #379C14",
"7+	c #278A08",
"8+	c #1D680D",
"9+	c #14341C",
"0+	c #1D3F34",
"a+	c #376B55",
"b+	c #88A793",
"c+	c #5DA94B",
"d+	c #2EA207",
"e+	c #2D9B08",
"f+	c #236128",
"g+	c #122A1D",
"h+	c #255F30",
"i+	c #2DA010",
"j+	c #2D9707",
"k+	c #28820E",
"l+	c #206813",
"m+	c #19362C",
"n+	c #628B77",
"o+	c #7BAE6A",
"p+	c #2B9408",
"q+	c #1F6C0C",
"r+	c #0D200F",
"s+	c #0E1D16",
"t+	c #376D50",
"u+	c #3C7D48",
"v+	c #347939",
"w+	c #226222",
"x+	c #1F591D",
"y+	c #194712",
"z+	c #163D1A",
"A+	c #132A1D",
"B+	c #142D22",
"C+	c #224739",
"D+	c #276036",
"E+	c #216C15",
"F+	c #245C37",
"G+	c #63966E",
"H+	c #4B8062",
"I+	c #2D702B",
"J+	c #163225",
"K+	c #285849",
"L+	c #265141",
"M+	c #275343",
"N+	c #4D885C",
"O+	c #44795C",
"P+	c #2B6E32",
"Q+	c #305C4B",
"R+	c #25503F",
"S+	c #52875A",
"T+	c #39734F",
"U+	c #5B8868",
"V+	c #638C79",
"W+	c #26523B",
"X+	c #2C5F45",
"Y+	c #245439",
"Z+	c #224B3A",
"`+	c #2D5D4D",
" @	c #2B5A4B",
".@	c #162E25",
"+@	c #387348",
"@@	c #436557",
"#@	c #31673B",
"$@	c #4D7568",
"%@	c #9DAEA5",
"&@	c #B9C8BF",
"*@	c #94B39E",
"=@	c #6B8F7B",
"-@	c #C1DAC0",
";@	c #548360",
">@	c #255236",
",@	c #365F51",
"'@	c #457262",
")@	c #8CA39C",
"!@	c #3C6759",
"~@	c #090F0C",
"{@	c #758F87",
"]@	c #C6D3CE",
"^@	c #B1C4BD",
"/@	c #7D9D8F",
"(@	c #8FAC9E",
"_@	c #80A18A",
":@	c #366B4E",
"<@	c #68907E",
"[@	c #467364",
"}@	c #C6D5CC",
"|@	c #AEBDB7",
"1@	c #7D9587",
"2@	c #44893E",
"3@	c #D6D6D6",
"4@	c #D9E1DA",
"5@	c #4F786B",
"6@	c #DCE4E0",
"7@	c #B4C4BF",
"8@	c #476D5F",
"9@	c #D9E3DB",
"0@	c #97B0A5",
"a@	c #3E6E5D",
"b@	c #346454",
"c@	c #8AA29A",
"d@	c #638779",
"e@	c #6B8E7E",
"f@	c #597E71",
"g@	c #7EA387",
"h@	c #A5B9AE",
"i@	c #C3D3C9",
"j@	c #9CB2A5",
"k@	c #173627",
"l@	c #3E4C45",
"m@	c #BFCBC7",
"n@	c #6D9182",
"o@	c #B3C6BD",
"p@	c #4F7668",
"q@	c #5F8573",
"r@	c #B7C8BF",
"s@	c #B6C0BD",
"t@	c #9AB6A7",
"u@	c #809F90",
"v@	c #ABBEB8",
"w@	c #809A90",
"x@	c #7F9E90",
"y@	c #B3C8BC",
"z@	c #466A5D",
"A@	c #A4B2AE",
"B@	c #4E6759",
"C@	c #101E17",
"D@	c #283D34",
"E@	c #2C5A4B",
"F@	c #4E786A",
"G@	c #477164",
"H@	c #407160",
"I@	c #416E60",
"J@	c #295645",
"K@	c #214838",
"L@	c #3D6455",
"M@	c #487566",
"N@	c #244C3B",
"O@	c #3E6658",
"P@	c #284E3E",
"Q@	c #21483B",
"R@	c #3A6B5A",
"S@	c #132A1E",
"T@	c #080C0A",
"                        . + @ # $ $ % &                         ",
"                  * = - ; > , ' ) ) ! ~ { ] ^                   ",
"              / ( _ : < : : [ } | 1 2 3 4 5 6 7                 ",
"            8 9 0 a b c d e f g } h e e i 4 j k l m             ",
"        n o 3 p q r s t ) ) u v w x e y g g g z A ] B           ",
"        o C 3 : D E F G . H I J K L M N z O z P z Q R R         ",
"      S T U g g V W X X Y Z `  ...E +.@.#.$.%.4 i 4 &.R ^       ",
"      *.h [ | g =.-.;.;.>.,.'.X ).E !.~.{.].5 4 %.) ^./.(.      ",
"    _.:.e e <.[.g }.|.|.1.2.3.4.5.6.7.8.9.@.0.a.4 ) 4 6 R R     ",
"    b.} d d c.c.| } |.d.d.3.d.e.f.R g.h.i.j.k.g.5 j ) ~ R R     ",
"  g.l.d g O g g m.n.o.d.d.d.d.p././.q.r.s.t.u.v.. 4 w.x./.R R   ",
"  y.z.A.1 :.O O B.C.D.d.d.d.d.E.F.a.G.G.%.H * * H.i 2 d I.R R   ",
"  J.K.L.M.p M.N.O.P.d.d.d.d.Q.R.% H S.T.U.U.B.3 e e e 3 V.R R R ",
"  W.K.h X.e d Y.Z.`.3.e.d.|. +.+. ++@+#+$+%+l.e e e &+3 *+/.R R ",
"  =+-+-+;+U >+,+'+X )+!+~+;.X {+]+^+/+~.{.(+H j O :.z G._+^ R R ",
"  :+-+-+-+<+[+}+|+|+1+% 2+X ~+3+4+5+6+7+8+9+. %.K.h 1 :.0+] R R ",
"  W.e e a+b+c+d+e+f+* g+h+i+F E +.j+k+l+v.l % H P g g O m+R R R ",
"  J.e e n+o+9.p+q+r+s+z t+u+v+w+x+y+z+A+v.* . j g g P z B+R R R ",
"  C+K.} D+E+F+t.g.g.q.G.G+H+I+_ J+. l g+5 ) K+L+:.O O G.g.R R R ",
"  / g P i 4 4 H a.. _+M+N+O+P+P Q+j _+G.4 i K+3 h } O G./.R R R ",
"  ^ z g g P %.5 z z R+S+T+U+V+W+X+Y+O | Z+O `+} } }  @H.R R R R ",
"    .@g g +@@@#@$@} %@&@*@=@-@;@>@<.,@'@} P )@!@g g ) $ R R R   ",
"    ~@^.g {@]@^@/@(@_@:@<@[@}@|@1@2@3@4@[ 5@6@7@8@P I.R R R R   ",
"      & z _ 9@0@g 7@a@b@p c@d@e@f@g@h@i@`+1 j@O O k@/.R R R R   ",
"        l@m@n@o@p@q@r@s@t@t@u@v@w@x@y@y@p@z@r@A@B@/.R R R R     ",
"        C@D@;+!@E@> F@G@H@b@!@I@J@K@L@M@N@%.O@P@&.R R R R R     ",
"          (.+ Q@K+M.X.2 R@z K.K.O G.Z+h ) j . /.R R R R R       ",
"            R &.L+p d e f z } } _ G.G.:.H.$ /.R R R R R         ",
"              g.^ S@:+u | z g O %.~ I./.R R R R R R R           ",
"                T@] 7 # 8 _.8 _.6 7 R R R R R R R R             ",
"                    R R R R R R R R R R R R R R                 ",
"                          R R R R R R R R R                     "};
