/* XPM */
static char * xchat_48_xpm[] = {
"48 48 20 1",
" 	c None",
".	c None",
"+	c #102418",
"@	c #060607",
"#	c #1B402F",
"$	c #275647",
"%	c #346556",
"&	c #447563",
"*	c #D6D6D6",
"=	c #31BE06",
"-	c #5EB944",
";	c #2B8C06",
">	c #2FA508",
",	c #217C0A",
"'	c #75948A",
")	c #99B5A2",
"!	c #4D984A",
"~	c #36E506",
"{	c #DAE7DC",
"]	c #FBFBFB",
"..................++@+@@@+@+++..................",
"...............+####$$#$###+#@@+@...............",
".............++#%%%&&&%$$$$$###@@@+.............",
"...........++#$%&&%&%&%$%$&&$$##+@@@............",
"..........+#$&%%%&%%%&$$$$%%%%$####@@+..........",
"........+@$%*****&$%%%$$$%%%%%$$###++@@.........",
".......+@$%&=-=-=&$$$%$#$%%%%%$$$$$##@@+........",
"......+@$$%&;>>>>,###%#%'''%%#$$$$$##+@@@.......",
"......@$$$%%&>>=>>++#%*)-!!!'$##$##$$#+@@@......",
".....@#%%$$$%>>===#+$*>>>>>>;,%##$##$$#@@@@.....",
"....+#$&%$$$$;====,#*-===>>>;;,,###$$###@@+.....",
"....+$%%&%$$$%=~=~=*-====>>>>;;,,+###$$$+@@@....",
"...@#$%%%&$$$$>=~=~*~~===>$#,;;,;#++#$$##@@@@...",
"...@$%%%%$,$$$%~~~~~=~~=;@@@@,;;,%@+###$#@@@@...",
"..++$$$%$%$%%$$=~~~~~~~=+@@++#;;,,@++##$##@@@@..",
"..+$%$$$$$$$%;$>~~~~~~~,@@@+##,,$$@++#####@@@@..",
"..@&%%$$#$$$$%!)~~~~~~~@+@+#+###+++++#$$%%+@@@@.",
".+$&!&&%$$#$$&!{~~~~~~~@@++#$#$##+++#$$&%$#@@@@.",
".+$%%&&&&&&%$!{~~~~~~~,@++#$$#$$$$$$%%%%%$#@@@@.",
".+%$$%$%%$%,)*~~~~~~~~>@+##,*{***&%%%%%%%$$@@@@@",
".@%%%%%%%%$&)~=~==~~===@+#&){;>;,$%%%%%&%$$+@@@@",
".+%%%%$$%$&*-===>#==~==@+#&*>;;,####$#$####+@@@@",
".@%&&&&&&&)-===>#+>====>))*-;;,,#+##$$%$$#$+@@@@",
".+$%%%%%,))=>=>$++$===>>---;>,,+++#$%%%&%$$@@@@@",
".@%%%%%%))=>>>$+++#>==>>>;>;;,++@++##$$$$$$@@@@@",
".+%%%%%!*;;;;,+++#$%,>>>>;;,$+@+++##$$$$$##@@@@@",
".+$%%%&*;;,>,+@@#$%!&&###+++++++++##$$$#$##@@@@@",
".+%%%$$;,$,$+@++##'!&;#%+++@+++#$$$#$#$$##+@@@@@",
".+#$$$$##$#++@++$#!'&&$$$##++###$$%%%$$$$#+@@@@@",
"..+$$#$$####++###%&!%,$#&###$##$$$$$%%$$##@@@@@@",
"..@#$$$$#$#+###$#!%!$%%#%%#$$%##$$$$$%$%$#@@@@@@",
"..+#$$$$$###$$$#&)$!*]!##,$#$$%$$%&$$$$$#+@@@@@.",
"...@$$$$!'#!'%$*{*{)$]!'#&%$'&$$#*'$$$$$#@@@@@@.",
"...@+$$$*]&]{&)*!$)&%]{*)#-**{&%']]]'#$#@@@@@@@.",
"....@#$$$*{'$$]$&%&%')$'*#!**{&$%{$$$$#+@@@@@@..",
"....@+##%{{'$$]&&$&%*'$)&${)'{$$&{#$$#+@@@@@@@..",
".....@+*]')]'$){**{){)']*&{{{{'$'{**)+@@@@@@@...",
"......@%'&&'&#&'''&&&'&'&#%'&'&##''$#@@@@@@@@...",
"......+@+$$$$$&&$%&%$$$%$###&%##$$##@@@@@@@@....",
".......+@+$$$$&%$&&$#%$%$###%%$###+@@@@@@@@.....",
"........@@@#$%&%%%&$#%$%$$##$%$##+@@@@@@@@@.....",
".........@@@#%&$%%%$#$$$%####$#+@@@@@@@@@@......",
"..........@+@+#$%%%$#$$$$###+@@@@@@@@@@@@.......",
"............@+@@#$$$#$$###@@@@@@@@@@@@@@........",
".............@@@@@@@@@@@@@@@@@@@@@@@@@..........",
"...............@@@@@@@@@@@@@@@@@@@@@@...........",
".................@@@@@@@@@@@@@@@@@@.............",
"....................@@@@@@@@@@@@................"};
