/* XPM */
static char * xterm_48_xpm[] = {
"48 48 276 2",
"  	c None",
". 	c #000000",
"+ 	c #C1C1C1",
"@ 	c #FFFFFF",
"# 	c #EFEFEF",
"$ 	c #EEEEEE",
"% 	c #ECECEC",
"& 	c #EAEAEA",
"* 	c #E9E9E9",
"= 	c #E7E7E7",
"- 	c #E5E5E5",
"; 	c #E3E3E3",
"> 	c #E2E2E2",
", 	c #E0E0E0",
"' 	c #DEDEDE",
") 	c #DDDDDD",
"! 	c #DBDBDB",
"~ 	c #D9D9D9",
"{ 	c #D8D8D8",
"] 	c #D6D6D6",
"^ 	c #D4D4D4",
"/ 	c #D2D2D2",
"( 	c #D1D1D1",
"_ 	c #CFCFCF",
": 	c #CDCDCD",
"< 	c #CCCCCC",
"[ 	c #CACACA",
"} 	c #C8C8C8",
"| 	c #C7C7C7",
"1 	c #C5C5C5",
"2 	c #C3C3C3",
"3 	c #C0C0C0",
"4 	c #BEBEBE",
"5 	c #777777",
"6 	c #E4E4E4",
"7 	c #DFDFDF",
"8 	c #D3D3D3",
"9 	c #CECECE",
"0 	c #C2C2C2",
"a 	c #BDBDBD",
"b 	c #EBEBEB",
"c 	c #E6E6E6",
"d 	c #DADADA",
"e 	c #D5D5D5",
"f 	c #C9C9C9",
"g 	c #C4C4C4",
"h 	c #BFBFBF",
"i 	c #BBBBBB",
"j 	c #666664",
"k 	c #4A4A4C",
"l 	c #BABABA",
"m 	c #9F9F9F",
"n 	c #969696",
"o 	c #8C8C8C",
"p 	c #828282",
"q 	c #787878",
"r 	c #6F6F6F",
"s 	c #656565",
"t 	c #5B5B5B",
"u 	c #515151",
"v 	c #484848",
"w 	c #3E3E3E",
"x 	c #343434",
"y 	c #2A2A2A",
"z 	c #212121",
"A 	c #171717",
"B 	c #0D0D0D",
"C 	c #030303",
"D 	c #BCBCBC",
"E 	c #B8B8B8",
"F 	c #929292",
"G 	c #8A8A8A",
"H 	c #818181",
"I 	c #6E6E6E",
"J 	c #646464",
"K 	c #474747",
"L 	c #3D3D3D",
"M 	c #202020",
"N 	c #B7B7B7",
"O 	c #424244",
"P 	c #7C7C7C",
"Q 	c #747474",
"R 	c #6B6B6B",
"S 	c #626262",
"T 	c #585858",
"U 	c #4F4F4F",
"V 	c #464646",
"W 	c #3C3C3C",
"X 	c #323232",
"Y 	c #292929",
"Z 	c #1F1F1F",
"` 	c #161616",
" .	c #0C0C0C",
"..	c #020202",
"+.	c #B9B9B9",
"@.	c #B5B5B5",
"#.	c #EDEDED",
"$.	c #676767",
"%.	c #5E5E5E",
"&.	c #555555",
"*.	c #4C4C4C",
"=.	c #434343",
"-.	c #3A3A3A",
";.	c #303030",
">.	c #272727",
",.	c #1D1D1D",
"'.	c #141414",
").	c #0A0A0A",
"!.	c #010101",
"~.	c #B4B4B4",
"{.	c #727272",
"].	c #5A5A5A",
"^.	c #595959",
"/.	c #3F3F3F",
"(.	c #363636",
"_.	c #2D2D2D",
":.	c #242424",
"<.	c #1B1B1B",
"[.	c #111111",
"}.	c #080808",
"|.	c #B6B6B6",
"1.	c #B2B2B2",
"2.	c #535353",
"3.	c #3B3B3B",
"4.	c #181818",
"5.	c #0E0E0E",
"6.	c #050505",
"7.	c #B1B1B1",
"8.	c #545454",
"9.	c #575757",
"0.	c #4D4D4D",
"a.	c #2E2E2E",
"b.	c #252525",
"c.	c #0B0B0B",
"d.	c #B3B3B3",
"e.	c #AFAFAF",
"f.	c #383838",
"g.	c #282828",
"h.	c #0F0F0F",
"i.	c #070707",
"j.	c #624234",
"k.	c #8E7264",
"l.	c #AEAEAE",
"m.	c #E8E8E8",
"n.	c #313131",
"o.	c #232323",
"p.	c #131313",
"q.	c #120D16",
"r.	c #BE9674",
"s.	c #DEB687",
"t.	c #EDCE9F",
"u.	c #B68F6E",
"v.	c #9F6C57",
"w.	c #463728",
"x.	c #3E3E3C",
"y.	c #ACACAC",
"z.	c #1C1C1C",
"A.	c #151515",
"B.	c #5D3E30",
"C.	c #504638",
"D.	c #FCEAAB",
"E.	c #FCFC9C",
"F.	c #FDE6A9",
"G.	c #E2C89E",
"H.	c #886C5F",
"I.	c #ABABAB",
"J.	c #EEC694",
"K.	c #6C5045",
"L.	c #A28078",
"M.	c #ECD48C",
"N.	c #FCFC88",
"O.	c #FEFEC1",
"P.	c #E2BD8E",
"Q.	c #BDA67D",
"R.	c #70574C",
"S.	c #FBF088",
"T.	c #AB877F",
"U.	c #F7DDA7",
"V.	c #F2D5AC",
"W.	c #F0EE91",
"X.	c #FEFDD1",
"Y.	c #D4AE80",
"Z.	c #272724",
"`.	c #FEEAB6",
" +	c #C4A68E",
".+	c #F2DD9F",
"++	c #FEFEE2",
"@+	c #F9D590",
"#+	c #F5E5AC",
"$+	c #B6977D",
"%+	c #A07D60",
"&+	c #EEDEB9",
"*+	c #FDFAE6",
"=+	c #FED391",
"-+	c #FDEFAC",
";+	c #C6AE84",
">+	c #020204",
",+	c #FEEEB7",
"'+	c #F8DA94",
")+	c #DCDCDC",
"!+	c #E2C498",
"~+	c #F2B97A",
"{+	c #C4B866",
"]+	c #FDEBCE",
"^+	c #D9B36E",
"/+	c #ECDA98",
"(+	c #FEF2BC",
"_+	c #FEF6BD",
":+	c #FEDCA9",
"<+	c #FDE2A9",
"[+	c #EDD2A5",
"}+	c #C49F76",
"|+	c #E0CB86",
"1+	c #E6CBA3",
"2+	c #FCFABD",
"3+	c #D7D7D7",
"4+	c #FED4A0",
"5+	c #FDF5CF",
"6+	c #FEE5B8",
"7+	c #333302",
"8+	c #D8CC7D",
"9+	c #ECCE6E",
"0+	c #D4BD98",
"a+	c #FECC8E",
"b+	c #EACC99",
"c+	c #DEC6A0",
"d+	c #FEF5E4",
"e+	c #ECECB7",
"f+	c #161609",
"g+	c #F6D6A1",
"h+	c #F3C98A",
"i+	c #E2CE68",
"j+	c #D8B66E",
"k+	c #DBC497",
"l+	c #D0D0D0",
"m+	c #5A5A5C",
"n+	c #E5CD9E",
"o+	c #F2F2B4",
"p+	c #FDFDFA",
"q+	c #F1F181",
"r+	c #EEEEC7",
"s+	c #CBCBCB",
"t+	c #C6C6C6",
"u+	c #F3DBB0",
"v+	c #EADABC",
"w+	c #F6F2D4",
"x+	c #ECD274",
"y+	c #FEDC9C",
"z+	c #FECC84",
"A+	c #FEB86C",
"B+	c #919191",
"C+	c #009000",
"D+	c #FE8E14",
"E+	c #F9AA5E",
"F+	c #FDAE54",
"G+	c #FE9624",
"H+	c #F5F1A7",
"I+	c #909090",
"J+	c #38FB30",
"K+	c #5D5D5F",
"L+	c #EACA64",
"M+	c #FDC382",
"N+	c #FEBE64",
"O+	c #AE8E2C",
"P+	c #8F8F8F",
"Q+	c #F69214",
"R+	c #7A4204",
"S+	c #12120C",
"T+	c #A78466",
"U+	c #BE8A24",
"V+	c #765204",
"W+	c #9E9614",
"X+	c #F3D380",
"Y+	c #100E08",
"Z+	c #22220C",
"`+	c #1A1A0A",
"                                                                                                ",
"          . . . . . . . . . . . . . . . . . . . . . . . . . . . . . . . . . . . . .             ",
"      . . . . . . . . . . . . . . . . . . . . . . . . . . . . . . . . . . . . . . . . .         ",
"    . + @ @ @ @ @ @ @ @ @ @ @ @ @ @ @ @ @ @ @ @ @ @ @ @ @ @ @ @ @ @ @ @ @ @ @ @ @ + . . .       ",
"    . @ # # # # # # # # $ % & * = - ; > , ' ) ! ~ { ] ^ / ( _ : < [ } | 1 2 + 3 4 5 . . .       ",
"  . . @ # # # # # # # $ % & * = - 6 > , 7 ) ! ~ { ] ^ 8 ( _ 9 < [ } | 1 2 0 3 4 a 5 . . . .     ",
"  . . @ # # # # # # $ % b * = c 6 > , 7 ) ! d { ] e 8 ( _ 9 < [ f | 1 g 0 3 h a i 5 . . . .     ",
"  . . @ # # # j k k k k k k k k k k k k k k k k k k k k k k k k k k k k k k a i l 5 . . . .     ",
"  . . @ # # # k m n o p q r s t u v w x y z A B C . . . . . . . . . . . . @ D l E 5 . . . .     ",
"  . . @ # # # k n F G H 5 I J t u K L x y M A B C . . . . . . . . . . . . @ l E N 5 . . . .     ",
"  . . @ # # # O o G @ P Q R S T U V W X Y Z `  .... . . . . . . . . . . . @ +.N @.5 . . . .     ",
"  . . @ # # #.O p H P @ r $.%.&.*.=.-.;.>.,.'.).!.. . . . . . . . . . . . @ N @.~.5 . . . .     ",
"  . . @ # $ % k q 5 {.s @ ].^.u v /.(._.:.<.[.}.. . . . . . . . . . . . . @ |.~.1.5 . . . .     ",
"  . . @ $ % & k r I R @ u T 2.*.=.3.X y z 4.5.6.. . . . . . . . . . . . . @ ~.1.7.5 . . . .     ",
"  . . @ % b * O s J @ 8.9.2.0.@ @ @ a.b.,.'.c.... . . . . . . . . . . . . @ d.7.e.5 . . . .     ",
"  . . @ b * = k t t T &.u *.V /.f.;.g.M 4.h.i.. . . . j.k.k.k.j.. . . . . @ 7.e.l.5 . . . .     ",
"  . . @ * m.c O u u U *.v =.w f.n.y o.<.p.c.... . q.j.r.s.t.s.u.v.w.. x.j.k.k.l.y.5 . . . .     ",
"  . . @ m.c - k v K V =./.3.(.;.y o.z.A.B j.k.k.B.C.B.s.D.E.F.G.u.H.B.k.r.t.r.j.I.5 . . . .     ",
"  . . @ c - ; O w L W -.(.X a.g.o.z.` 5.j.s.t.J.u.K.L.M.N.O.O.P.Q.R.L.t.t.S.t.T.j.5 . . . .     ",
"  . . @ - ; > k x x X ;._.y b.M <.A.5.}.k.F.E.U.P.L.u.V.W.X.O.W.Y.H.Y.t.E.O.M.r.v.w.Z.. . .     ",
"  . . @ ; > , O y y Y >.:.z ,.4.p.B i.x.k.S.`.U.U.u. +.+E.++X.U.Q.L.@+F.X.O.#+s.H.B.Z.. . .     ",
"  . . @ > , 7 k z M Z ,.<.4.'.h.c.x.B.B.$+W.O.X.U.P.%+M.&+++*+W.Q.%+=+N.++X.-+;+R.v.H.j.>+. .   ",
"  . . @ , 7 ) O A A ` '.[.5.c.i.j.r.u.%+u.S.++O.`.t.u.Y.W.++X.U.Y.u.W.O.*+,+'+L.u.s.s.r.j.. . . ",
"  . . @ 7 ) )+k B B  .).}.6...x.r.s.!+~+L.{+O.++]+U.Y. +W.O.X.&+$+^+/+(+++_+M.u.Y.-+F.F.r.. . . ",
"  . . @ ' )+d O C C ..!.. . . j.s.F.S.:+Y.%+<+X.X.:+[+%+&+O.++U.}+|+,+(+*+_+^+L.'+E.X.@+s.. . . ",
"  . . @ )+d ~ k . . . . . . . k.[+S.X.:+t.$+1+N.O.O.M.u.M.E.++-+u.1+W.X.++[+%+|+E.++2+@+k.. . . ",
"  . . @ ! ~ 3+O . . . . . . . x.s.O.*+(+4+P.%+<+5+*+<+Y.|+6+++]+}+!+(+O.,+|+u.[+,+X.F.J.. . . . ",
"  . . @ ~ 3+] k . . . . . . . 7+u.8+(+X.6+9+u.0+E.O.6+!+}+`.++(+Y.|+(+*+,+u.Y.S.5+2+@+k.. . . . ",
"  . . @ { ] ^ O . . . . . . . B.H.Y.O.*+6+a+b+%+c+6+O.<+u._+++O.}+!+W.*+2+%+@+2+d+e+s.f+. . . . ",
"  . . @ ] ^ 8 k . . . . . . j.H.u.%+Y.6+X.,+g+Y.!+N.++W.u.W.d+]+u.h+(+_+G.u.E.X.F.@+. . . . .   ",
"  . . @ e 8 ( O . . . . . j.k.s.i+j+%+Y.5+X.F.b+u.0+O.6+Y.k+5+_+$+|+U.,+Y.Y.X.++@+k.. . . .     ",
"  . . @ 8 ( l+m+. . . . . j.r.S.<+n+P.u.b+++2+t.Y.u.<+O.k+Y.2+O.}+G.o+(+%+@+2+S.Y.j.>+. . .     ",
"  . . @ / l+9 k p+p+p+p+p+j.r.:+++]+t.Y.%+q+*+O.t.Y.0+O.n+ +N.]+u.G.r+G.u.E.X.P.B.5 >+. . .     ",
"  . . @ l+9 : s+f } t+g 2 B.k.s.E.++6+n+Y.u.N.++#+!+Y.u+W.a+[+v+a+G.-+u.!+w+2+H.B.5 >+. . .     ",
"  . . @ _ : s+[ } t+g 2 + h B.k.s.6+X.++6+x+%+g+-+e+Y.a+6+i+y+z+A+-+[+a+#+#+P.B.B+5 >+. . .     ",
"  . . @ : s+[ C+C+C+2 + 3 4 D B.k.s.E.O.2+,+@+u.c+U.[+i+D+E+y+F+G+'+A+E+H+#+H.B.I+5 >+. . .     ",
"  . . @ < [ } C+J+J++ 3 4 D i +.K+B.k.s.N.++]+[+%+Y.F+-+L+M+F.F.F.:+M+N+N+O+B.I+P+5 >+. . .     ",
"  . . @ [ } | 1 2 0 3 4 a i +.N |.~.B.k.s.N.++6+Y.a+D+z+<+<+2+2+2+O.:+:+Q+R+B.P+P+5 >+. . .     ",
"  . . + 5 5 5 5 5 5 5 5 5 5 5 5 5 5 5 j.j.k.t.E.a+F+:+_+O.O.++++++O.O.:+s.j.5 5 5 5 >+. . .     ",
"    . . . . . . . . . . . . . . . . . . . S+k.T+U+i+:+2+O.++@ ++2+O.:+s.j.. . . . . . . .       ",
"    . . . . . . . . . . . . . . . . . . . . >+. V+W+N.D._+_+_+_+,+:+X+s.Y+. . . . . . . .       ",
"      . . . . . . . . . . . . . . . . . . . . . >+Z+k.:+:+E.E.E.E.:+s.k.. . . . . . . .         ",
"          . . . . . . . . . . . . . . . . . . . . . `+k.r.s.t.t.s.r.k.S+. . . . . .             ",
"                                              . . . . . j.k.k.k.j.j.`+. . . .                   ",
"                                                  . . . >+>+>+>+>+>+. . . .                     ",
"                                                      . . . . . . . . . .                       ",
"                                                        . . . . . . . .                         ",
"                                                            . . . .                             "};
