<?xml version="1.0" encoding="UTF-8" standalone="no"?>
<svg
   xmlns="http://www.w3.org/2000/svg"
   width="237.06422"
   height="237.06422">
  <path d="m 118.25798,6.42279 c -16.21764,0.22097 -38.25311,3.91319 -51.62495,13.3125 -0.007,0.005 -0.0244,-0.005 -0.0312,0 -13.71369,9.84767 -22.93947,27.27674 -22.03125,44.59375 0.7729,14.51841 5.99391,28.0336 13.3125,36.59375 0.92075,-5.34441 1.53702,-10.87252 0.875,-16.3125 -0.0132,-0.062 -0.0237,-0.12458 -0.0312,-0.1875 -0.14872,-4.04797 -3.59362,-9.48904 -4.1875,-15.71875 -0.32955,-3.59193 -0.63816,-6.66384 -0.34375,-9.5 0.29441,-2.83616 1.35892,-5.51748 3.625,-7.5 l 2.8125,3.21875 c -1.3961,1.22141 -1.931,2.54883 -2.15625,4.71875 -0.22444,2.16213 0.0156,5.07815 0.34375,8.65625 10e-4,0.0128 -0.001,0.0183 0,0.0312 0.45397,4.63486 3.87122,9.90859 4.15625,15.75 l 0.0312,0 c 0.008,0.0631 -0.007,0.1244 0,0.1875 1.28586,10.98366 -1.84855,21.61051 -3.28125,29.9375 -0.95163,9.34129 2.07994,17.42428 4.78125,19.875 3.18061,2.8232 7.50791,4.14302 12.46875,5.65625 0.0236,0.007 0.0389,0.0242 0.0625,0.0312 4.88,1.29235 7.60778,3.61121 10.9375,6.09375 0.10082,0.0749 0.19505,0.15866 0.28125,0.25 2.36533,2.51127 3.80338,4.98458 4.625,7.46875 l -5.65625,-1.96875 c -0.54152,-0.77683 -1.18962,-1.56774 -2,-2.4375 -2.01746,-1.51075 -3.5457,-2.72219 -5.3125,-3.6875 1.83048,4.52431 2.77733,7.30141 4.40625,12.6875 l 0,0.0312 c 1.61463,5.7882 2.24828,9.52365 3.21875,17.4375 0.99882,1.15268 2.06549,2.168 3.15625,3.09375 l 0.15625,-17.59375 c -0.63303,-0.30644 -1.23646,-0.61545 -1.8125,-0.96875 l 0.90625,-1.46875 c 6.61051,4.05443 18.55895,4.81785 29.28125,4.625 11.9577,-0.0607 22.1026,-0.99934 28.5625,-4.90625 l 0.9063,1.5 c -0.7432,0.4494 -1.5273,0.84302 -2.3438,1.21875 l 0.1875,17.75 c 1.2197,-1.03741 2.1762,-2.1338 2.8125,-3.21875 0.9769,-7.82325 1.6288,-11.48879 3.25,-17.1875 l 0.0312,-0.0312 c 1.64,-5.31703 2.5817,-8.04295 4.4376,-12.53125 -1.5906,0.95376 -3.1822,2.06267 -4.6876,3.25 -0.018,0.0143 -0.0445,0.0169 -0.0624,0.0312 -0.9064,0.89328 -1.6145,1.76627 -2.1876,2.65625 -1.6748,0.56736 -3.594,1.21112 -5.4062,1.8125 0.8212,-2.70786 2.3097,-5.33814 4.7812,-7.71875 0.05,-0.0441 0.1023,-0.0858 0.1563,-0.125 3.3283,-2.63311 7.049,-4.94198 10.8437,-6.28125 l 0,-0.0312 c 3.288,-1.22604 9.7131,-3.04737 12.6876,-5.6875 2.7047,-2.43457 5.7346,-10.51663 4.7812,-19.875 -1.4305,-8.33098 -4.5687,-18.97322 -3.2812,-29.96875 l -0.0313,0 c 0,-0.0641 0.0282,-0.1236 0.0313,-0.1875 0.2853,-5.85346 3.7137,-11.10813 4.1562,-15.75 0.3299,-3.59589 0.6002,-6.51758 0.375,-8.6875 -0.2252,-2.16992 -0.7914,-3.49734 -2.1875,-4.71875 l 2.8437,-3.21875 c 2.2664,1.98252 3.2994,4.66384 3.5938,7.5 0.2944,2.83616 -0.014,5.90807 -0.3438,9.5 1e-4,0.0104 1e-4,0.0208 0,0.0312 -0.5935,6.22971 -4.0075,11.63953 -4.1562,15.6875 -0.01,0.0629 -0.0183,0.1255 -0.0312,0.1875 -0.6196,5.08878 -0.1307,10.25959 0.6874,15.28125 7.8258,-8.43462 13.7753,-20.87841 13.0313,-36.875 -1e-4,-0.0104 -1e-4,-0.0208 0,-0.0312 -0.5598,-17.72244 -8.5244,-33.11402 -23.625,-44.09375 -0.01,8e-5 -0.0212,8e-5 -0.0313,0 -3.9067,-2.90985 -12.3479,-6.11658 -21.0312,-8.375 -8.6833,-2.25842 -17.751,-3.6835 -23.0312,-3.6875 -0.0421,10e-4 -0.0831,10e-4 -0.125,0 -2.0367,-0.10291 -4.2456,-0.15657 -6.5626,-0.125 z m -19.12495,80.53125 c 6.82435,-0.0409 10.07945,8.36831 7.99995,14.84375 -2.884,6.35873 -6.93945,11.93734 -11.5937,17.3125 -3.60548,4.0642 -7.90415,4.72274 -12,3.34375 -3.30597,-0.91648 -6.34737,-2.93633 -9.625,-7.65625 -1.44182,-4.06467 -2.69544,-6.17145 -4.53125,-11.21875 -1.44181,-4.65425 0.80374,-11.60523 8.65625,-13.75 6.35873,-1.11444 12.51627,-1.84159 18.875,-2.5625 0.78051,-0.19669 1.51278,-0.30827 2.21875,-0.3125 z m 39.09375,0 c 0.706,0.004 1.4381,0.11581 2.2188,0.3125 6.3578,0.72091 12.516,1.44806 18.875,2.5625 7.8516,2.14477 10.098,9.09575 8.6562,13.75 -1.8358,5.0473 -3.0894,7.15408 -4.5312,11.21875 -3.2781,4.71992 -6.3194,6.73977 -9.625,7.65625 -4.0968,1.37899 -8.3949,0.72045 -12,-3.34375 -4.6549,-5.37516 -8.7097,-10.95377 -11.5938,-17.3125 -2.0794,-6.47544 1.1757,-14.8846 8,-14.84375 z m 79.375,21.46875 c -2.5242,-0.0462 -5.1847,1.25503 -8,3.875 -0.038,0.0287 -0.0557,0.0651 -0.0938,0.0937 -0.0309,0.0294 -0.0617,0.0328 -0.0937,0.0625 -2.9876,2.34746 -4.1377,5.20933 -5.1875,7.6875 -1.052,2.48341 -2.0944,4.73665 -5,7.21875 -9.9503,4.91426 -19.2704,9.45693 -30,14.75 -3.1792,7.67174 -6.3065,14.93744 -6.625,22.25 0.4035,1.87786 0.6513,3.82009 0.7812,5.78125 l 0.6563,-0.3125 44.5,-20.96875 c 3.8751,-1.53206 5.4653,-1.20553 7.5937,-0.65625 2.06,0.53158 4.7846,1.41984 8.75,0.78125 0.129,-0.001 0.2468,-0.0279 0.375,-0.0312 2.9836,-0.0786 5.8253,-0.63403 8.0938,-2.15625 2.3661,-1.58772 3.9312,-4.44864 3.6875,-7.78125 -0.033,-0.36836 -0.164,-0.72748 -0.375,-1.03125 -2.8488,-4.20883 -5.6928,-7.12246 -10.3125,-11.40625 0.092,-4.91006 -0.8046,-9.68242 -2.6562,-14.34375 -0.0561,-0.15352 -0.1295,-0.30063 -0.2188,-0.4375 -1.2443,-1.78353 -3.2904,-3.32771 -5.875,-3.375 z m -198.21875,0.625 c -0.26896,6.1e-4 -0.5325,0.0274 -0.8125,0.0625 -2.24001,0.28117 -4.19688,1.91859 -5.78125,4.59375 -0.047,0.0805 -0.0888,0.16407 -0.125,0.25 -1.90959,4.50512 -1.82312,8.99791 -2.03125,13.0625 -2.81191,2.83837 -6.29042,5.00495 -9.03125,9.4375 -0.008,0.0132 -0.0231,0.0181 -0.0312,0.0312 -1.08488,1.74926 -1.64563,3.43058 -1.5625,5.03125 0.0835,1.60861 0.85851,3.01061 1.8125,3.96875 1.90798,1.91628 4.40165,2.5661 6.0625,2.96875 4.71175,1.17779 8.17379,0.6733 11.09375,0.15625 2.87187,-0.50853 5.19487,-0.96272 8.71875,-0.28125 15.50268,7.22514 31.11379,14.70323 46.0625,22.0625 l 0.0937,-0.1875 c 0.12866,-1.98214 0.37348,-3.94616 0.78125,-5.84375 -0.3167,-7.27117 -3.43129,-14.50128 -6.59375,-22.125 -10.62373,-5.12177 -19.93935,-9.38904 -30.65625,-15.28125 -2.8686,-2.30921 -3.80083,-4.58628 -5.125,-7.40625 -1.33361,-2.84007 -3.17855,-6.1329 -7.59375,-8.8125 -0.0507,-0.0334 -0.10287,-0.0648 -0.15625,-0.0937 -1.60314,-0.80146 -3.24228,-1.598 -5.125,-1.59375 z m 97.59375,7.28125 -0.0625,26.4375 c -3.6367,4.4667 -6.0516,6.40864 -7.9375,6.625 -2.1108,0.13275 -4.0254,-3.67802 -4.0312,-9.75 0,-1.79187 0.3453,-5.16815 0.8124,-7.5 0.4679,-2.33232 2.1778,-5.79361 3.0938,-7.28125 2.5312,-3.85445 3.5444,-5.04812 8.125,-8.53125 z m 3.2812,0.125 c 4.5807,3.48313 5.6251,4.64555 8.1563,8.5 0.916,1.48764 2.6262,4.94893 3.0937,7.28125 0.4674,2.33185 0.8137,5.73938 0.8126,7.53125 -0.01,6.07198 -1.9517,9.8515 -4.0626,9.71875 -1.8852,-0.21636 -4.2695,-2.1583 -7.9062,-6.625 l -0.0938,-26.40625 z m 44,26.3125 c -0.8909,0.29213 -1.6787,0.56827 -2.25,0.78125 -0.01,8e-5 -0.0212,8e-5 -0.0312,0 -0.6402,0.22397 -1.2809,0.51017 -1.9375,0.8125 -2.6209,6.15367 -3.4578,8.50285 -5.375,14.71875 l 0.0313,0 c -1.6391,5.76148 -2.2315,9.20151 -3.25,17.4375 l -0.0938,0 c -2.065,3.78214 -6.6253,6.88629 -12.375,9.09375 -5.8423,2.24301 -12.9349,3.51005 -20.0625,3.25 -13.0999,-0.34693 -24.98996,-2.11667 -33.46875,-12.34375 l 0.0312,-0.0312 c -1.01349,-8.34898 -1.61523,-11.85837 -3.25,-17.71875 l 0.0312,0 c -1.85173,-6.12176 -2.7209,-8.64453 -5.15625,-14.5 -0.3912,-0.12956 -0.78412,-0.26133 -1.21875,-0.375 -0.0315,-0.01 -0.0629,-0.0202 -0.0937,-0.0312 -0.91897,-0.28036 -1.85895,-0.55457 -2.78125,-0.84375 2.84131,6.83016 5.60427,13.76315 5.90625,21.25 l 0.0312,0.28125 -0.0937,0.28125 c -1.40347,6.10297 -0.95593,13.61046 0.59375,19.4375 l 0,0.0312 c 1.8789,7.57313 9.95138,17.37873 17.21875,20.34375 8.052,2.91661 12.8542,3.66649 21.8125,3.6875 0.1311,3.1e-4 0.2422,0 0.375,0 8.9963,-0.0201 13.7329,-0.74867 21.625,-3.96875 7.3138,-2.98397 15.4402,-12.5159 17.3125,-20.0625 l 0,-0.0312 c 1.5497,-5.82704 1.966,-13.33453 0.5625,-19.4375 l -0.0625,-0.28125 0.0313,-0.28125 c 0.3052,-7.57289 3.0678,-14.59396 5.9374,-21.5 z m -19.625,19.09375 c -1.4842,0.56485 -3.0739,1.05164 -4.75,1.4375 l 0.0313,8.53125 c 1.6526,-0.71122 3.2606,-1.54729 4.8125,-2.59375 l -0.0938,-7.375 z m -52.06245,0.0312 -0.0937,7.5 c 1.52565,0.94516 3.11309,1.73517 4.75,2.4375 l 0.0312,-8.46875 c -1.65409,-0.39459 -3.22927,-0.89165 -4.6875,-1.46875 z m 45.59375,1.75 c -1.737,0.3332 -3.5679,0.61556 -5.4687,0.8125 l 0.0937,9.5625 c 1.8912,-0.36965 3.6719,-0.87401 5.4063,-1.5 l -0.0313,-8.875 z m -39.1875,0.0937 -0.0312,8.78125 c 1.70363,0.63275 3.45984,1.15687 5.28125,1.5625 l 0.0938,-9.5625 c -1.83189,-0.19758 -3.62844,-0.44059 -5.3438,-0.78125 z m 32,0.84375 c -1.4503,0.12135 -2.9408,0.2147 -4.4688,0.28125 l 0.0313,10 c 1.5707,-0.13316 3.0742,-0.3013 4.5313,-0.53125 l -0.0938,-9.75 z m -24.9375,0.125 -0.0937,9.71875 c 1.5448,0.28192 3.1218,0.48491 4.75,0.625 l 0.0312,-10.0625 c -1.5758,-0.0596 -3.1408,-0.14845 -4.6875,-0.28125 z m 18.75,0.21875 c -1.6813,0.0536 -3.3986,0.11347 -5.1563,0.125 l 0,10.15625 c 1.8044,-0.0501 3.5271,-0.10964 5.1876,-0.21875 l -0.0313,-10.0625 z m -12.3437,0.0937 -0.0313,10.15625 c 1.7821,0.1002 3.6197,0.10982 5.5,0.0625 l 0,-10.1875 c -1.8068,0.0207 -3.6326,0.0124 -5.4687,-0.0312 z m 32.3124,6.25 c -1.567,0.97729 -3.1524,1.83283 -4.8124,2.5 l 0.0312,9.09375 c 1.8236,-0.81063 3.4654,-1.71262 4.875,-2.6875 l -0.0938,-8.90625 z m -52.2812,0.0937 -0.0937,8.71875 c 1.52173,1.09834 3.10752,2.04594 4.78125,2.8125 l 0.0312,-9.1875 c -1.63128,-0.66371 -3.18694,-1.45217 -4.71875,-2.34375 z m 6.4375,3 -0.0312,9.21875 c 1.68104,0.65211 3.43736,1.18158 5.24995,1.59375 l 0.0938,-9.34375 c -1.81829,-0.38849 -3.59815,-0.86297 -5.3125,-1.46875 z m 39.3125,0 c -1.7476,0.59401 -3.5571,1.05344 -5.4375,1.40625 l 0.0937,9.5 c 1.8727,-0.46385 3.6741,-1.01522 5.3438,-1.65625 0.009,-0.004 0.0222,0.004 0.0312,0 l -0.0312,-9.25 z m -64.8125,1.28125 c -10.71341,5.68318 -20.37157,10.91536 -32.46875,15.5625 -4.50693,1.09476 -6.1271,0.3416 -8.90625,-0.40625 -2.80909,-0.7559 -6.56997,-1.32035 -12.96875,0.8125 -0.23858,0.085 -0.4619,0.21261 -0.65625,0.375 -2.13238,1.68981 -3.37757,3.9844 -3.46875,6.34375 -0.0912,2.35935 0.92327,4.62401 2.65625,6.4375 0.0204,0.0213 0.0412,0.0421 0.0625,0.0625 3.11765,3.05554 5.31363,5.05132 7.9375,7.59375 0.75355,3.60642 0.93336,6.89899 1.4375,11.5625 0.0159,0.14856 0.0474,0.29546 0.0937,0.4375 1.13359,3.43861 3.3622,5.67398 6.03125,6.125 2.66905,0.45102 5.22064,-0.68079 7.375,-2.34375 0.12709,-0.10109 0.24266,-0.21666 0.34375,-0.34375 1.48332,-1.8395 3.609,-3.73697 5.09375,-6.375 0.007,-0.012 0.0245,-0.0192 0.0312,-0.0312 1.64131,-2.84061 3.42192,-5.91775 5.4375,-8.40625 l 29.28125,-15.53125 0.0937,0 -1.25,-2 c -2.1798,-3.26992 -3.4352,-6.76233 -4.28125,-10.15625 -0.002,-0.009 0.002,-0.0222 0,-0.0312 -0.72611,-2.73786 -1.19482,-5.73393 -1.40625,-8.8125 l -0.46875,-0.875 z m 90,0.125 c -6e-4,0.0104 6e-4,0.021 0,0.0312 -0.1797,3.32939 -0.6864,6.58101 -1.4687,9.53125 l 0,0.0312 c -1.0035,4.02395 -3.1421,8.15303 -5.9688,11.84375 l 29.125,15.15625 c 3.0996,2.75733 4.1854,4.88739 5.1875,7.0625 1.0089,2.18968 2.0728,4.6928 4.8125,6.875 0.043,0.0392 0.083,0.055 0.125,0.0937 0.01,0.005 -0.01,0.0258 0,0.0312 2.4892,2.27242 4.6517,3.87648 7.1875,4.1875 2.5844,0.31698 5.0421,-1.24849 6.7187,-3.6875 0.059,-0.0897 0.1113,-0.18377 0.1563,-0.28125 2.4549,-5.12004 2.1455,-9.9695 2.6875,-14.625 2.933,-2.70701 5.5933,-4.45324 8.375,-7.6875 0.01,-0.0112 0.0213,-0.0202 0.0312,-0.0312 1.7395,-1.94024 2.8698,-4.2176 2.5,-6.625 -0.3715,-2.42129 -2.2216,-4.38888 -4.9062,-5.75 -0.062,-0.0237 -0.1241,-0.0446 -0.1875,-0.0625 -4.0754,-1.65762 -8.4316,-2.58935 -13.5937,-1.0625 -0.011,0.0103 -0.0213,0.0208 -0.0313,0.0312 -2.7391,0.85222 -5.13,1.29068 -8.5,-0.0937 l -0.0625,-0.0312 -32.1875,-14.9375 z m -32.3437,0.28125 c -1.4561,0.22193 -2.9505,0.40216 -4.5,0.53125 l 0.0312,9.84375 c 1.5497,-0.18241 3.0798,-0.43852 4.5625,-0.75 l -0.0937,-9.625 z m -25.125,0.125 -0.0938,9.34375 c 1.5468,0.29128 3.1509,0.51559 4.7812,0.6875 l 0.0313,-9.4375 c -1.6022,-0.13442 -3.1868,-0.32584 -4.7187,-0.59375 z m 18.9062,0.5 c -1.6852,0.10914 -3.4103,0.20019 -5.2188,0.25 l 0,9.8125 c 1.7603,0.0397 3.5113,-0.0102 5.25,-0.15625 l -0.0312,-9.90625 z m -12.4688,0.21875 -0.0312,9.5 c 1.8058,0.15011 3.6669,0.21877 5.5625,0.28125 l 0,-9.6875 c -1.886,0.0465 -3.7303,0.005 -5.5313,-0.0937 z"/>
</svg>
